<?xml version="1.0" encoding="utf-8" standalone="no"?>
<!DOCTYPE svg PUBLIC "-//W3C//DTD SVG 1.1//EN"
  "http://www.w3.org/Graphics/SVG/1.1/DTD/svg11.dtd">
<svg xmlns:xlink="http://www.w3.org/1999/xlink" width="198pt" height="187.92pt" viewBox="0 0 198 187.92" xmlns="http://www.w3.org/2000/svg" version="1.1">
 <metadata>
  <rdf:RDF xmlns:dc="http://purl.org/dc/elements/1.1/" xmlns:cc="http://creativecommons.org/ns#" xmlns:rdf="http://www.w3.org/1999/02/22-rdf-syntax-ns#">
   <cc:Work>
    <dc:type rdf:resource="http://purl.org/dc/dcmitype/StillImage"/>
    <dc:date>2022-10-24T20:13:09.672662</dc:date>
    <dc:format>image/svg+xml</dc:format>
    <dc:creator>
     <cc:Agent>
      <dc:title>Matplotlib v3.6.0, https://matplotlib.org/</dc:title>
     </cc:Agent>
    </dc:creator>
   </cc:Work>
  </rdf:RDF>
 </metadata>
 <defs>
  <style type="text/css">*{stroke-linejoin: round; stroke-linecap: butt}</style>
 </defs>
 <g id="figure_1">
  <g id="patch_1">
   <path d="M 0 187.92 
L 198 187.92 
L 198 0 
L 0 0 
z
" style="fill: #ffffff"/>
  </g>
  <g id="axes_1">
   <g id="patch_2">
    <path d="M 95.482278 83.561402 
L 91.753411 85.714264 
L 98.067783 94.498216 
L 99.932217 93.421784 
z
" clip-path="url(#p0acf1e9744)" style="stroke: #000000; stroke-linejoin: miter"/>
   </g>
   <g id="patch_3">
    <path d="M 104.382156 103.282167 
L 99.932217 93.421784 
L 98.067783 94.498216 
z
" clip-path="url(#p0acf1e9744)" style="stroke: #000000; stroke-linejoin: miter"/>
   </g>
   <g id="patch_4">
    <path d="M 61.32491 140.570835 
L 67.639283 149.354787 
L 65.774849 150.431218 
z
" clip-path="url(#p0acf1e9744)" style="stroke: #000000; stroke-linejoin: miter"/>
   </g>
   <g id="patch_5">
    <path d="M 73.953655 158.138739 
L 70.224788 160.291601 
L 65.774849 150.431218 
L 67.639283 149.354787 
z
" clip-path="url(#p0acf1e9744)" style="stroke: #000000; stroke-linejoin: miter"/>
   </g>
   <g id="line2d_1">
    <path d="M 93.617844 84.637833 
L 99 75.315666 
" clip-path="url(#p0acf1e9744)" style="fill: none; stroke: #000000; stroke-width: 2; stroke-linecap: square"/>
   </g>
   <g id="line2d_2">
    <path d="M 101.691078 70.654582 
L 99 75.315666 
" clip-path="url(#p0acf1e9744)" style="fill: none; stroke: #000000; stroke-width: 2; stroke-linecap: square"/>
   </g>
   <g id="line2d_3">
    <path d="M 77.471377 86.575409 
L 82.853533 86.575409 
" clip-path="url(#p0acf1e9744)" style="fill: none; stroke: #000000; stroke-width: 2; stroke-linecap: square"/>
   </g>
   <g id="line2d_4">
    <path d="M 94.736504 86.575409 
L 82.853533 86.575409 
" clip-path="url(#p0acf1e9744)" style="fill: none; stroke: #000000; stroke-width: 2; stroke-linecap: square"/>
   </g>
   <g id="line2d_5">
    <path d="M 77.471377 82.700257 
L 82.853533 82.700257 
" clip-path="url(#p0acf1e9744)" style="fill: none; stroke: #000000; stroke-width: 2; stroke-linecap: square"/>
   </g>
   <g id="line2d_6">
    <path d="M 94.736504 82.700257 
L 82.853533 82.700257 
" clip-path="url(#p0acf1e9744)" style="fill: none; stroke: #000000; stroke-width: 2; stroke-linecap: square"/>
   </g>
   <g id="line2d_7">
    <path d="M 96.308922 117.265418 
L 99 112.604334 
" clip-path="url(#p0acf1e9744)" style="fill: none; stroke: #000000; stroke-width: 2; stroke-linecap: square"/>
   </g>
   <g id="line2d_8">
    <path d="M 104.382156 103.282167 
L 99 112.604334 
" clip-path="url(#p0acf1e9744)" style="fill: none; stroke: #000000; stroke-width: 2; stroke-linecap: square"/>
   </g>
   <g id="line2d_9">
    <path d="M 104.382156 103.282167 
L 115.146467 103.282167 
" clip-path="url(#p0acf1e9744)" style="fill: none; stroke: #000000; stroke-width: 2; stroke-linecap: square"/>
   </g>
   <g id="line2d_10">
    <path d="M 125.910778 103.282167 
L 115.146467 103.282167 
" clip-path="url(#p0acf1e9744)" style="fill: none; stroke: #000000; stroke-width: 2; stroke-linecap: square"/>
   </g>
   <g id="line2d_11">
    <path d="M 125.910778 103.282167 
L 131.292934 93.96 
" clip-path="url(#p0acf1e9744)" style="fill: none; stroke: #000000; stroke-width: 2; stroke-linecap: square"/>
   </g>
   <g id="line2d_12">
    <path d="M 136.67509 84.637833 
L 131.292934 93.96 
" clip-path="url(#p0acf1e9744)" style="fill: none; stroke: #000000; stroke-width: 2; stroke-linecap: square"/>
   </g>
   <g id="line2d_13">
    <path d="M 136.67509 84.637833 
L 147.439401 84.637833 
" clip-path="url(#p0acf1e9744)" style="fill: none; stroke: #000000; stroke-width: 2; stroke-linecap: square"/>
   </g>
   <g id="line2d_14">
    <path d="M 158.203713 84.637833 
L 147.439401 84.637833 
" clip-path="url(#p0acf1e9744)" style="fill: none; stroke: #000000; stroke-width: 2; stroke-linecap: square"/>
   </g>
   <g id="line2d_15">
    <path d="M 138.827952 80.762681 
L 147.439401 80.762681 
" clip-path="url(#p0acf1e9744)" style="fill: none; stroke: #000000; stroke-width: 2; stroke-linecap: square"/>
   </g>
   <g id="line2d_16">
    <path d="M 156.05085 80.762681 
L 147.439401 80.762681 
" clip-path="url(#p0acf1e9744)" style="fill: none; stroke: #000000; stroke-width: 2; stroke-linecap: square"/>
   </g>
   <g id="line2d_17">
    <path d="M 125.910778 65.993499 
L 131.292934 75.315666 
" clip-path="url(#p0acf1e9744)" style="fill: none; stroke: #000000; stroke-width: 2; stroke-linecap: square"/>
   </g>
   <g id="line2d_18">
    <path d="M 136.67509 84.637833 
L 131.292934 75.315666 
" clip-path="url(#p0acf1e9744)" style="fill: none; stroke: #000000; stroke-width: 2; stroke-linecap: square"/>
   </g>
   <g id="line2d_19">
    <path d="M 158.203713 84.637833 
L 163.585868 75.315666 
" clip-path="url(#p0acf1e9744)" style="fill: none; stroke: #000000; stroke-width: 2; stroke-linecap: square"/>
   </g>
   <g id="line2d_20">
    <path d="M 168.968024 65.993499 
L 163.585868 75.315666 
" clip-path="url(#p0acf1e9744)" style="fill: none; stroke: #000000; stroke-width: 2; stroke-linecap: square"/>
   </g>
   <g id="line2d_21">
    <path d="M 158.203713 47.349165 
L 163.585868 56.671332 
" clip-path="url(#p0acf1e9744)" style="fill: none; stroke: #000000; stroke-width: 2; stroke-linecap: square"/>
   </g>
   <g id="line2d_22">
    <path d="M 168.968024 65.993499 
L 163.585868 56.671332 
" clip-path="url(#p0acf1e9744)" style="fill: none; stroke: #000000; stroke-width: 2; stroke-linecap: square"/>
   </g>
   <g id="line2d_23">
    <path d="M 155.924164 51.151174 
L 160.229888 58.608908 
" clip-path="url(#p0acf1e9744)" style="fill: none; stroke: #000000; stroke-width: 2; stroke-linecap: square"/>
   </g>
   <g id="line2d_24">
    <path d="M 164.535613 66.066641 
L 160.229888 58.608908 
" clip-path="url(#p0acf1e9744)" style="fill: none; stroke: #000000; stroke-width: 2; stroke-linecap: square"/>
   </g>
   <g id="line2d_25">
    <path d="M 136.67509 47.349165 
L 147.439401 47.349165 
" clip-path="url(#p0acf1e9744)" style="fill: none; stroke: #000000; stroke-width: 2; stroke-linecap: square"/>
   </g>
   <g id="line2d_26">
    <path d="M 158.203713 47.349165 
L 147.439401 47.349165 
" clip-path="url(#p0acf1e9744)" style="fill: none; stroke: #000000; stroke-width: 2; stroke-linecap: square"/>
   </g>
   <g id="line2d_27">
    <path d="M 158.203713 47.349165 
L 163.585868 38.026997 
" clip-path="url(#p0acf1e9744)" style="fill: none; stroke: #000000; stroke-width: 2; stroke-linecap: square"/>
   </g>
   <g id="line2d_28">
    <path d="M 166.276946 33.365914 
L 163.585868 38.026997 
" clip-path="url(#p0acf1e9744)" style="fill: none; stroke: #000000; stroke-width: 2; stroke-linecap: square"/>
   </g>
   <g id="line2d_29">
    <path d="M 125.910778 65.993499 
L 131.292934 56.671332 
" clip-path="url(#p0acf1e9744)" style="fill: none; stroke: #000000; stroke-width: 2; stroke-linecap: square"/>
   </g>
   <g id="line2d_30">
    <path d="M 136.67509 47.349165 
L 131.292934 56.671332 
" clip-path="url(#p0acf1e9744)" style="fill: none; stroke: #000000; stroke-width: 2; stroke-linecap: square"/>
   </g>
   <g id="line2d_31">
    <path d="M 130.34319 66.066641 
L 134.648914 58.608908 
" clip-path="url(#p0acf1e9744)" style="fill: none; stroke: #000000; stroke-width: 2; stroke-linecap: square"/>
   </g>
   <g id="line2d_32">
    <path d="M 138.954639 51.151174 
L 134.648914 58.608908 
" clip-path="url(#p0acf1e9744)" style="fill: none; stroke: #000000; stroke-width: 2; stroke-linecap: square"/>
   </g>
   <g id="line2d_33">
    <path d="M 96.308922 126.587585 
L 99 131.248668 
" clip-path="url(#p0acf1e9744)" style="fill: none; stroke: #000000; stroke-width: 2; stroke-linecap: square"/>
   </g>
   <g id="line2d_34">
    <path d="M 104.382156 140.570835 
L 99 131.248668 
" clip-path="url(#p0acf1e9744)" style="fill: none; stroke: #000000; stroke-width: 2; stroke-linecap: square"/>
   </g>
   <g id="line2d_35">
    <path d="M 72.089222 121.926501 
L 82.853533 121.926501 
" clip-path="url(#p0acf1e9744)" style="fill: none; stroke: #000000; stroke-width: 2; stroke-linecap: square"/>
   </g>
   <g id="line2d_36">
    <path d="M 88.235689 121.926501 
L 82.853533 121.926501 
" clip-path="url(#p0acf1e9744)" style="fill: none; stroke: #000000; stroke-width: 2; stroke-linecap: square"/>
   </g>
   <g id="line2d_37">
    <path d="M 61.32491 140.570835 
L 66.707066 131.248668 
" clip-path="url(#p0acf1e9744)" style="fill: none; stroke: #000000; stroke-width: 2; stroke-linecap: square"/>
   </g>
   <g id="line2d_38">
    <path d="M 72.089222 121.926501 
L 66.707066 131.248668 
" clip-path="url(#p0acf1e9744)" style="fill: none; stroke: #000000; stroke-width: 2; stroke-linecap: square"/>
   </g>
   <g id="line2d_39">
    <path d="M 65.693978 106.974463 
L 68.385056 111.635546 
" clip-path="url(#p0acf1e9744)" style="fill: none; stroke: #000000; stroke-width: 2; stroke-linecap: square"/>
   </g>
   <g id="line2d_40">
    <path d="M 74.326542 121.926501 
L 68.385056 111.635546 
" clip-path="url(#p0acf1e9744)" style="fill: none; stroke: #000000; stroke-width: 2; stroke-linecap: square"/>
   </g>
   <g id="line2d_41">
    <path d="M 62.337998 108.912039 
L 65.029076 113.573122 
" clip-path="url(#p0acf1e9744)" style="fill: none; stroke: #000000; stroke-width: 2; stroke-linecap: square"/>
   </g>
   <g id="line2d_42">
    <path d="M 70.970562 123.864077 
L 65.029076 113.573122 
" clip-path="url(#p0acf1e9744)" style="fill: none; stroke: #000000; stroke-width: 2; stroke-linecap: square"/>
   </g>
   <g id="line2d_43">
    <path d="M 39.796287 140.570835 
L 50.560599 140.570835 
" clip-path="url(#p0acf1e9744)" style="fill: none; stroke: #000000; stroke-width: 2; stroke-linecap: square"/>
   </g>
   <g id="line2d_44">
    <path d="M 61.32491 140.570835 
L 50.560599 140.570835 
" clip-path="url(#p0acf1e9744)" style="fill: none; stroke: #000000; stroke-width: 2; stroke-linecap: square"/>
   </g>
   <g id="line2d_45">
    <path d="M 29.031976 159.21517 
L 34.414132 149.893003 
" clip-path="url(#p0acf1e9744)" style="fill: none; stroke: #000000; stroke-width: 2; stroke-linecap: square"/>
   </g>
   <g id="line2d_46">
    <path d="M 39.796287 140.570835 
L 34.414132 149.893003 
" clip-path="url(#p0acf1e9744)" style="fill: none; stroke: #000000; stroke-width: 2; stroke-linecap: square"/>
   </g>
   <g id="text_1">
    <!-- OH -->
    <g transform="translate(100.076431 68.752874) scale(0.1 -0.1)">
     <defs>
      <path id="DejaVuSans-4f" d="M 2522 4238 
Q 1834 4238 1429 3725 
Q 1025 3213 1025 2328 
Q 1025 1447 1429 934 
Q 1834 422 2522 422 
Q 3209 422 3611 934 
Q 4013 1447 4013 2328 
Q 4013 3213 3611 3725 
Q 3209 4238 2522 4238 
z
M 2522 4750 
Q 3503 4750 4090 4092 
Q 4678 3434 4678 2328 
Q 4678 1225 4090 567 
Q 3503 -91 2522 -91 
Q 1538 -91 948 565 
Q 359 1222 359 2328 
Q 359 3434 948 4092 
Q 1538 4750 2522 4750 
z
" transform="scale(0.015625)"/>
      <path id="DejaVuSans-48" d="M 628 4666 
L 1259 4666 
L 1259 2753 
L 3553 2753 
L 3553 4666 
L 4184 4666 
L 4184 0 
L 3553 0 
L 3553 2222 
L 1259 2222 
L 1259 0 
L 628 0 
L 628 4666 
z
" transform="scale(0.015625)"/>
     </defs>
     <use xlink:href="#DejaVuSans-4f"/>
     <use xlink:href="#DejaVuSans-48" x="78.710938"/>
    </g>
   </g>
   <g id="text_2">
    <!-- O -->
    <g transform="translate(68.153284 87.397208) scale(0.1 -0.1)">
     <use xlink:href="#DejaVuSans-4f"/>
    </g>
   </g>
   <g id="text_3">
    <!-- N -->
    <g transform="translate(89.877219 124.685876) scale(0.1 -0.1)">
     <defs>
      <path id="DejaVuSans-4e" d="M 628 4666 
L 1478 4666 
L 3547 763 
L 3547 4666 
L 4159 4666 
L 4159 0 
L 3309 0 
L 1241 3903 
L 1241 0 
L 628 0 
L 628 4666 
z
" transform="scale(0.015625)"/>
     </defs>
     <use xlink:href="#DejaVuSans-4e"/>
    </g>
   </g>
   <g id="text_4">
    <!-- O -->
    <g transform="translate(57.388973 106.041542) scale(0.1 -0.1)">
     <use xlink:href="#DejaVuSans-4f"/>
    </g>
   </g>
   <g id="text_5">
    <!-- OH -->
    <g transform="translate(164.662299 31.464205) scale(0.1 -0.1)">
     <use xlink:href="#DejaVuSans-4f"/>
     <use xlink:href="#DejaVuSans-48" x="78.710938"/>
    </g>
   </g>
  </g>
 </g>
 <defs>
  <clipPath id="p0acf1e9744">
   <rect x="0.327146" y="0" width="197.345708" height="187.92"/>
  </clipPath>
 </defs>
</svg>
