<svg width="105" height="176" viewBox="8 1 113 177" xmlns="http://www.w3.org/2000/svg"><style> line {stroke: black; stroke_width: 1px;} polygon {fill: black;} </style><g id="unlabeled">
<g id="atom_C_5">
<line x1="46.0" y1="134.0" x2="53.5" y2="134.0" />
<line x1="47.58514274271841" y1="134.0" x2="43.14973872755113" y2="141.20753152464684" />
<line x1="45.20742862864079" y1="132.71207152154128" x2="40.85026127244887" y2="139.79246847535316" />
<line x1="46.0" y1="134.0" x2="42.0" y2="127.5" />
</g>
<g id="atom_C_6">
<line x1="61.0" y1="134.0" x2="53.5" y2="134.0" />
<line x1="61.0" y1="134.0" x2="64.5" y2="127.5" />
</g>
<g id="atom_O_8">
<line x1="41.14973872755113" y1="144.45753152464684" x2="43.14973872755113" y2="141.20753152464684" />
<line x1="38.85026127244887" y1="143.04246847535316" x2="40.85026127244887" y2="139.79246847535316" />
<g id="atom_O_8_text">
<text x="38" y="147" text-anchor="middle" font-family="verdana" font-size="8"><tspan y="147" dy="0.35em">O</tspan></text>
</g>
</g>
<g id="atom_O_19">
<line x1="40.0" y1="124.25" x2="42.0" y2="127.5" />
<line x1="40.0" y1="117.75" x2="42.0" y2="114.5" />
<g id="atom_O_19_text">
<text x="38" y="121" text-anchor="middle" font-family="verdana" font-size="8"><tspan y="121" dy="0.35em">O</tspan></text>
</g>
</g>
<g id="atom_C_9">
<line x1="68.0" y1="121.0" x2="64.5" y2="127.5" />
<line x1="68.0" y1="121.0" x2="64.5" y2="114.5" />
</g>
<g id="atom_C_11">
<line x1="46.0" y1="108.0" x2="42.0" y2="114.5" />
<line x1="46.0" y1="108.0" x2="53.5" y2="108.0" />
<g id="chiral-bond-back" stroke="black" stroke-width="1">
  <line x1="46.0" y1="108.0" x2="46.0" y2="108.0" />
  <line x1="44.14450250498864" y1="105.55722922769931" x2="44.65549749501136" y2="105.2427707723007" />
  <line x1="42.289005009977274" y1="103.1144584553986" x2="43.31099499002272" y2="102.48554154460139" />
</g>
</g>
<g id="atom_C_10">
<line x1="61.0" y1="108.0" x2="53.5" y2="108.0" />
<line x1="61.0" y1="108.0" x2="64.5" y2="114.5" />
<g id="chiral-bond-back" stroke="black" stroke-width="1">
  <line x1="61.0" y1="108.0" x2="61.0" y2="108.0" />
  <line x1="62.135858670023346" y1="105.2577700530895" x2="62.66414132997665" y2="105.54222994691051" />
  <line x1="63.27171734004669" y1="102.51554010617899" x2="64.3282826599533" y2="103.084459893821" />
</g>
</g>
<g id="atom_C_12">
<g id="chiral-bond-back" stroke="black" stroke-width="1">
  <line x1="36.722512524943184" y1="95.7861461384965" x2="39.277487475056816" y2="94.2138538615035" />
  <line x1="38.57801001995455" y1="98.2289169107972" x2="40.621989980045456" y2="96.97108308920279" />
  <line x1="40.43350751496591" y1="100.6716876830979" x2="41.966492485034095" y2="99.7283123169021" />
</g>
</g>
<g id="atom_N_16">
<g id="chiral-bond-back" stroke="black" stroke-width="1">
  <line x1="64.40757601007004" y1="99.77331015926849" x2="65.99242398992996" y2="100.62668984073152" />
</g>
<line x1="66.25" y1="91.75" x2="64.5" y2="88.5" />
<g id="atom_N_16_text">
<text x="68" y="95" text-anchor="middle" font-family="verdana" font-size="8"><tspan y="95" dy="0.35em">N</tspan></text>
<text x="74.0" y="95.0" text-anchor="middle" font-family="verdana" font-size="8"><tspan y="95.0" dy="0.35em">H</tspan></text>
</g>
</g>
<g id="atom_C_23">
<line x1="61.0" y1="82.0" x2="64.5" y2="88.5" />
<line x1="61.72692307692308" y1="80.65" x2="53.5" y2="80.65" />
<line x1="61.72692307692308" y1="83.35" x2="53.5" y2="83.35" />
<line x1="61.0" y1="82.0" x2="64.5" y2="75.5" />
</g>
<g id="atom_O_24">
<line x1="49.75" y1="80.65" x2="53.5" y2="80.65" />
<line x1="49.75" y1="83.35" x2="53.5" y2="83.35" />
<g id="atom_O_24_text">
<text x="46" y="82" text-anchor="middle" font-family="verdana" font-size="8"><tspan y="82" dy="0.35em">O</tspan></text>
</g>
</g>
<g id="atom_C_25">
<line x1="68.0" y1="69.0" x2="64.5" y2="75.5" />
<polygon points="68.0,69.0 75.5,68.25 75.5,69.75" />
<line x1="68.0" y1="69.0" x2="64.5" y2="62.5" />
</g>
<g id="atom_C_26">
<polygon points="83.0,67.5 83.0,70.5 75.5,69.75 75.5,68.25" />
</g>
<g id="atom_C_29">
<line x1="61.0" y1="56.0" x2="64.5" y2="62.5" />
<polygon points="61.0,56.0 53.5,55.25 53.5,56.75" />
<line x1="61.0" y1="56.0" x2="64.5" y2="49.5" />
</g>
<g id="atom_O_30">
<polygon points="49.75,54.5 49.75,57.5 53.5,56.75 53.5,55.25" />
<g id="atom_O_30_text">
<text x="46" y="56" text-anchor="middle" font-family="verdana" font-size="8"><tspan y="56" dy="0.35em">O</tspan></text>
<text x="40.0" y="56.0" text-anchor="middle" font-family="verdana" font-size="8"><tspan y="56.0" dy="0.35em">H</tspan></text>
</g>
</g>
<g id="atom_C_34">
<line x1="68.0" y1="43.0" x2="64.5" y2="49.5" />
<line x1="68.0" y1="43.0" x2="64.5" y2="37.0" />
</g>
<g id="atom_C_35">
<line x1="61.0" y1="31.0" x2="64.5" y2="37.0" />
</g>
</g>
</svg>