<svg width="150" height="128" viewBox="1 1 151 129" xmlns="http://www.w3.org/2000/svg"><style> line {stroke: black; stroke_width: 1px;} polygon {fill: black;} </style><g id="unlabeled">
<g id="atom_C_5">
<line x1="66.0" y1="86.0" x2="73.0" y2="87.0" />
<line x1="67.45705039987251" y1="86.20815005712464" x2="63.14973872755114" y2="93.20753152464685" />
<line x1="65.08819222763984" y1="84.9058306731678" x2="60.85026127244886" y2="91.79246847535315" />
<line x1="66.0" y1="86.0" x2="61.0" y2="80.0" />
</g>
<g id="atom_C_6">
<line x1="80.0" y1="88.0" x2="73.0" y2="87.0" />
<line x1="80.0" y1="88.0" x2="86.5" y2="84.5" />
</g>
<g id="atom_O_8">
<line x1="61.14973872755114" y1="96.45753152464685" x2="63.14973872755114" y2="93.20753152464685" />
<line x1="58.85026127244886" y1="95.04246847535315" x2="60.85026127244886" y2="91.79246847535315" />
<g id="atom_O_8_text">
<text x="58" y="99" text-anchor="middle" font-family="verdana" font-size="8"><tspan y="99" dy="0.35em">O</tspan></text>
</g>
</g>
<g id="atom_O_30">
<line x1="58.5" y1="77.0" x2="61.0" y2="80.0" />
<line x1="56.0" y1="70.25" x2="56.0" y2="66.5" />
<g id="atom_O_30_text">
<text x="56" y="74" text-anchor="middle" font-family="verdana" font-size="8"><tspan y="74" dy="0.35em">O</tspan></text>
</g>
</g>
<g id="atom_C_9">
<line x1="93.0" y1="81.0" x2="86.5" y2="84.5" />
<polygon points="94.37871754502709,81.59087894786875 91.62128245497291,80.40912105213125 95.31064122748646,73.70456052606562 96.68935877251354,74.29543947393438" />
</g>
<g id="atom_C_29">
<line x1="56.0" y1="59.0" x2="56.0" y2="66.5" />
<line x1="56.0" y1="59.0" x2="61.0" y2="53.5" />
<polygon points="56.0,59.0 49.25225229774862,55.79369356630387 48.74774770225138,57.20630643369613" />
</g>
<g id="atom_C_25">
<line x1="66.0" y1="48.0" x2="61.0" y2="53.5" />
<line x1="66.0" y1="48.0" x2="73.0" y2="46.5" />
<polygon points="66.0,48.0 62.63874373752841,41.10692693075175 61.36125626247159,41.89307306924825" />
</g>
<g id="atom_C_34">
<polygon points="42.50450459549723,52.587387132607745 41.49549540450277,55.412612867392255 48.74774770225138,57.20630643369613 49.25225229774862,55.79369356630387" />
<line x1="42.0" y1="54.0" x2="36.5" y2="59.0" />
</g>
<g id="atom_C_35">
<line x1="31.0" y1="64.0" x2="36.5" y2="59.0" />
</g>
<g id="atom_C_10">
<polygon points="99.0,67.0 96.68935877251354,74.29543947393438 95.31064122748646,73.70456052606562" />
<line x1="99.0" y1="67.0" x2="106.5" y2="67.0" />
<line x1="99.0" y1="67.0" x2="96.0" y2="60.0" />
</g>
<g id="atom_C_11">
<line x1="114.0" y1="67.0" x2="106.5" y2="67.0" />
<g id="chiral-bond-back" stroke="black" stroke-width="1">
  <line x1="114.0" y1="67.0" x2="114.0" y2="67.0" />
  <line x1="115.13585867002335" y1="69.7422299469105" x2="115.66414132997666" y2="69.45777005308949" />
  <line x1="116.27171734004669" y1="72.48445989382101" x2="117.3282826599533" y2="71.915540106179" />
</g>
<line x1="114.0" y1="67.0" x2="117.5" y2="60.5" />
</g>
<g id="atom_N_16">
<line x1="94.5" y1="56.5" x2="96.0" y2="60.0" />
<line x1="89.75" y1="51.0" x2="86.5" y2="49.0" />
<g id="atom_N_16_text">
<text x="93" y="53" text-anchor="middle" font-family="verdana" font-size="8"><tspan y="53" dy="0.35em">N</tspan></text>
<text x="99.0" y="53.0" text-anchor="middle" font-family="verdana" font-size="8"><tspan y="53.0" dy="0.35em">H</tspan></text>
</g>
</g>
<g id="atom_C_12">
<g id="chiral-bond-back" stroke="black" stroke-width="1">
  <line x1="119.67929335011674" y1="80.71114973455252" x2="122.32070664988326" y2="79.28885026544748" />
  <line x1="118.54343468009338" y1="77.96891978764202" x2="120.6565653199066" y2="76.83108021235799" />
  <line x1="117.40757601007004" y1="75.22668984073151" x2="118.99242398992996" y2="74.37331015926848" />
</g>
</g>
<g id="atom_O_19">
<line x1="119.25" y1="57.25" x2="117.5" y2="60.5" />
<g id="atom_O_19_text">
<text x="121" y="54" text-anchor="middle" font-family="verdana" font-size="8"><tspan y="54" dy="0.35em">O</tspan></text>
<text x="127.0" y="54.0" text-anchor="middle" font-family="verdana" font-size="8"><tspan y="54.0" dy="0.35em">H</tspan></text>
</g>
</g>
<g id="atom_C_23">
<line x1="80.0" y1="45.0" x2="73.0" y2="46.5" />
<line x1="80.0" y1="45.0" x2="86.5" y2="49.0" />
<line x1="81.21979494980826" y1="45.75064304603585" x2="82.8200332590045" y2="38.28286426978668" />
<line x1="78.55290471606459" y1="45.31009184655759" x2="80.1799667409955" y2="37.71713573021332" />
</g>
<g id="atom_C_26">
<polygon points="59.277487475056816,34.213853861503495 56.722512524943184,35.786146138496505 61.36125626247159,41.89307306924825 62.63874373752841,41.10692693075175" />
</g>
<g id="atom_O_24">
<line x1="83.5700332590045" y1="34.78286426978668" x2="82.8200332590045" y2="38.28286426978668" />
<line x1="80.9299667409955" y1="34.21713573021332" x2="80.1799667409955" y2="37.71713573021332" />
<g id="atom_O_24_text">
<text x="83" y="31" text-anchor="middle" font-family="verdana" font-size="8"><tspan y="31" dy="0.35em">O</tspan></text>
</g>
</g>
</g>
</svg>