<svg width="107" height="131" viewBox="1 0 108 131" xmlns="http://www.w3.org/2000/svg"><style> line {stroke: black; stroke_width: 1px;} polygon {fill: black;} </style><g id="unlabeled">
<g id="atom_C_5">
<line x1="46.0" y1="88.0" x2="49.5" y2="94.5" />
<line x1="46.0" y1="88.0" x2="49.5" y2="81.5" />
<line x1="46.72692307692308" y1="86.65" x2="38.5" y2="86.65" />
<line x1="46.72692307692308" y1="89.35" x2="38.5" y2="89.35" />
</g>
<g id="atom_O_0">
<line x1="51.25" y1="97.75" x2="49.5" y2="94.5" />
<g id="atom_O_0_text">
<text x="53" y="101" text-anchor="middle" font-family="verdana" font-size="8"><tspan y="101" dy="0.35em">O</tspan></text>
<text x="59.0" y="101.0" text-anchor="middle" font-family="verdana" font-size="8"><tspan y="101.0" dy="0.35em">H</tspan></text>
</g>
</g>
<g id="atom_C_6">
<line x1="53.0" y1="75.0" x2="49.5" y2="81.5" />
<line x1="53.0" y1="75.0" x2="60.5" y2="74.5" />
<line x1="54.320398671585814" y1="72.20598007378716" x2="60.32039867158581" y2="71.80598007378715" />
<line x1="53.0" y1="75.0" x2="50.0" y2="68.5" />
</g>
<g id="atom_O_10">
<line x1="34.75" y1="86.65" x2="38.5" y2="86.65" />
<line x1="34.75" y1="89.35" x2="38.5" y2="89.35" />
<g id="atom_O_10_text">
<text x="31" y="88" text-anchor="middle" font-family="verdana" font-size="8"><tspan y="88" dy="0.35em">O</tspan></text>
</g>
</g>
<g id="atom_C_7">
<line x1="68.0" y1="74.0" x2="60.5" y2="74.5" />
<line x1="66.3203986715858" y1="71.40598007378715" x2="60.32039867158581" y2="71.80598007378715" />
<line x1="68.0" y1="74.0" x2="73.0" y2="79.5" />
<line x1="68.0" y1="74.0" x2="69.5" y2="66.5" />
</g>
<g id="atom_N_11">
<line x1="48.5" y1="65.25" x2="50.0" y2="68.5" />
<line x1="49.75" y1="59.5" x2="52.5" y2="57.0" />
<line x1="49.91621654379004" y1="62.99783819816905" x2="54.31621654379004" y2="58.99783819816905" />
<g id="atom_N_11_text">
<text x="47" y="62" text-anchor="middle" font-family="verdana" font-size="8"><tspan y="62" dy="0.35em">N</tspan></text>
</g>
</g>
<g id="atom_C_8">
<line x1="78.0" y1="85.0" x2="73.0" y2="79.5" />
</g>
<g id="atom_O_16">
<line x1="70.25" y1="62.75" x2="69.5" y2="66.5" />
<line x1="67.75" y1="57.25" x2="64.5" y2="55.5" />
<g id="atom_O_16_text">
<text x="71" y="59" text-anchor="middle" font-family="verdana" font-size="8"><tspan y="59" dy="0.35em">O</tspan></text>
</g>
</g>
<g id="atom_C_12">
<line x1="58.0" y1="52.0" x2="52.5" y2="57.0" />
<line x1="58.71621654379004" y1="54.99783819816905" x2="54.31621654379004" y2="58.99783819816905" />
<line x1="58.0" y1="52.0" x2="64.5" y2="55.5" />
<line x1="58.0" y1="52.0" x2="57.0" y2="44.5" />
</g>
<g id="atom_C_13">
<line x1="56.0" y1="37.0" x2="57.0" y2="44.5" />
<line x1="56.0" y1="37.0" x2="49.5" y2="33.5" />
</g>
<g id="atom_N_14">
<line x1="46.25" y1="31.75" x2="49.5" y2="33.5" />
<g id="atom_N_14_text">
<text x="43" y="30" text-anchor="middle" font-family="verdana" font-size="8"><tspan y="30" dy="0.35em">N</tspan></text>
<text x="33.0" y="30.0" text-anchor="middle" font-family="verdana" font-size="8"><tspan y="30.0" dy="0.35em">H</tspan></text>
<text x="38.0" y="33.0" text-anchor="middle" font-family="verdana" font-size="6"><tspan y="33.0" dy="0.35em">2</tspan></text>
</g>
</g>
</g>
</svg>