<svg width="114" height="101" viewBox="1 1 115 102" xmlns="http://www.w3.org/2000/svg"><style> line {stroke: black; stroke_width: 1px;} polygon {fill: black;} </style><g id="unlabeled">
<g id="atom_C_6">
<line x1="58.0" y1="39.0" x2="66.5" y2="40.5" />
<line x1="58.0" y1="39.0" x2="49.5" y2="40.5" />
<line x1="56.769220401554435" y1="41.958915608808425" x2="49.96922040155443" y2="43.15891560880843" />
<line x1="58.0" y1="39.0" x2="57.0" y2="46.5" />
</g>
<g id="atom_C_5">
<line x1="75.0" y1="42.0" x2="66.5" y2="40.5" />
<line x1="75.53281042855434" y1="43.42082780947822" x2="80.99891909908452" y2="37.408108271895024" />
<line x1="73.42775908870524" y1="41.72254572153622" x2="79.00108090091548" y2="35.591891728104976" />
<line x1="75.0" y1="42.0" x2="78.0" y2="50.0" />
</g>
<g id="atom_O_10">
<line x1="83.49891909908452" y1="34.658108271895024" x2="80.99891909908452" y2="37.408108271895024" />
<line x1="81.50108090091548" y1="32.841891728104976" x2="79.00108090091548" y2="35.591891728104976" />
<g id="atom_O_10_text">
<text x="85" y="31" text-anchor="middle" font-family="verdana" font-size="8"><tspan y="31" dy="0.35em">O</tspan></text>
</g>
</g>
<g id="atom_N_14">
<line x1="79.5" y1="54.0" x2="78.0" y2="50.0" />
<line x1="78.25" y1="61.5" x2="75.5" y2="65.0" />
<g id="atom_N_14_text">
<text x="81" y="58" text-anchor="middle" font-family="verdana" font-size="8"><tspan y="58" dy="0.35em">N</tspan></text>
<text x="87.0" y="58.0" text-anchor="middle" font-family="verdana" font-size="8"><tspan y="58.0" dy="0.35em">H</tspan></text>
</g>
</g>
<g id="atom_C_7">
<line x1="41.0" y1="42.0" x2="49.5" y2="40.5" />
<line x1="43.169220401554426" y1="44.35891560880843" x2="49.96922040155443" y2="43.15891560880843" />
<line x1="41.0" y1="42.0" x2="36.0" y2="36.5" />
<line x1="41.0" y1="42.0" x2="39.5" y2="51.0" />
</g>
<g id="atom_N_11">
<line x1="56.5" y1="50.25" x2="57.0" y2="46.5" />
<line x1="55.0" y1="57.75" x2="54.0" y2="61.5" />
<line x1="52.991165663076636" y1="54.8043108434871" x2="51.391165663076634" y2="60.8043108434871" />
<g id="atom_N_11_text">
<text x="56" y="54" text-anchor="middle" font-family="verdana" font-size="8"><tspan y="54" dy="0.35em">N</tspan></text>
</g>
</g>
<g id="atom_C_8">
<line x1="31.0" y1="31.0" x2="36.0" y2="36.5" />
</g>
<g id="atom_O_16">
<line x1="38.75" y1="55.5" x2="39.5" y2="51.0" />
<line x1="41.5" y1="62.25" x2="45.0" y2="64.5" />
<g id="atom_O_16_text">
<text x="38" y="60" text-anchor="middle" font-family="verdana" font-size="8"><tspan y="60" dy="0.35em">O</tspan></text>
</g>
</g>
<g id="atom_C_13">
<line x1="70.0" y1="72.0" x2="75.5" y2="65.0" />
<line x1="70.0" y1="72.0" x2="61.0" y2="70.5" />
</g>
<g id="atom_C_12">
<line x1="52.0" y1="69.0" x2="61.0" y2="70.5" />
<line x1="52.0" y1="69.0" x2="54.0" y2="61.5" />
<line x1="49.79116566307663" y1="66.8043108434871" x2="51.391165663076634" y2="60.8043108434871" />
<line x1="52.0" y1="69.0" x2="45.0" y2="64.5" />
</g>
</g>
</svg>