<svg width="854" height="301" viewBox="0 0 854 301" xmlns="http://www.w3.org/2000/svg">
<style> line {stroke: black; stroke_width: 1px;} polygon {fill: black;} </style>
<g id="arrows">
<g id="labelled_arrow_0">
<g id="arrow_0">
<line x1="367" x2="547" y1="135.5" y2="135.5" stroke-width="2" stroke="black" />
<line x1="542" x2="547" y1="130.5" y2="135.5" stroke-width="2" stroke="black" />
<line x1="542" x2="547" y1="140.5" y2="135.5" stroke-width="2" stroke="black" />
</g>
<text x="457.0" y="124.5" fill="'black" text-anchor="middle" font-family="verdana" font-size = "12"><tspan y="124.5" dy="0.35em">proteolytic cleavage</tspan></text>
</g>
</g>
<g id="unlabeled_s0">
<g id="atom_N_0_s0">
<g id="chiral-bond-back" stroke="black" stroke-width="1">
  <line x1="323.15243227956466" y1="223.09729724270167" x2="324.84756772043534" y2="223.70270275729834" />
</g>
<g id="atom_N_0_s0_text">
<text x="322.0" y="229.0" text-anchor="middle" font-family="verdana" font-size="8"><tspan y="229.0" dy="0.35em">N</tspan></text>
<text x="312.0" y="229.0" text-anchor="middle" font-family="verdana" font-size="8"><tspan y="229.0" dy="0.35em">H</tspan></text>
<text x="317.0" y="232.0" text-anchor="middle" font-family="verdana" font-size="6"><tspan y="232.0" dy="0.35em">2</tspan></text>
</g>
</g>
<g id="atom_C_1_s0">
<g id="chiral-bond-back" stroke="black" stroke-width="1">
  <line x1="327.0" y1="215.0" x2="327.0" y2="215.0" />
  <line x1="325.71747742652155" y1="217.69909908090057" x2="326.28252257347845" y2="217.90090091909946" />
  <line x1="324.4349548530431" y1="220.3981981618011" x2="325.5650451469569" y2="220.80180183819888" />
</g>
<line x1="327.0" y1="215.0" x2="334.5" y2="213.5" />
<line x1="327.0" y1="215.0" x2="322.0" y2="209.5" />
</g>
<g id="atom_C_3_s0">
<line x1="342.0" y1="212.0" x2="334.5" y2="213.5" />
<line x1="342.0" y1="212.0" x2="347.0" y2="217.5" />
</g>
<g id="atom_O_4_s0">
<line x1="349.5" y1="220.25" x2="347.0" y2="217.5" />
<g id="atom_O_4_s0_text">
<text x="352.0" y="223.0" text-anchor="middle" font-family="verdana" font-size="8"><tspan y="223.0" dy="0.35em">O</tspan></text>
<text x="358.0" y="223.0" text-anchor="middle" font-family="verdana" font-size="8"><tspan y="223.0" dy="0.35em">H</tspan></text>
</g>
</g>
<g id="atom_C_5_s0">
<line x1="317.0" y1="204.0" x2="322.0" y2="209.5" />
<line x1="318.0291893748143" y1="205.1321083122957" x2="320.771351580653" y2="197.4540541359475" />
<line x1="315.45621593777855" y1="204.30875681244427" x2="318.228648419347" y2="196.5459458640525" />
<line x1="317.0" y1="204.0" x2="309.5" y2="205.5" />
</g>
<g id="atom_O_6_s0">
<line x1="322.021351580653" y1="193.9540541359475" x2="320.771351580653" y2="197.4540541359475" />
<line x1="319.478648419347" y1="193.0459458640525" x2="318.228648419347" y2="196.5459458640525" />
<g id="atom_O_6_s0_text">
<text x="322.0" y="190.0" text-anchor="middle" font-family="verdana" font-size="8"><tspan y="190.0" dy="0.35em">O</tspan></text>
</g>
</g>
<g id="atom_N_7_s0">
<line x1="305.75" y1="206.25" x2="309.5" y2="205.5" />
<line x1="299.5" y1="204.25" x2="297.0" y2="201.5" />
<g id="atom_N_7_s0_text">
<text x="302.0" y="207.0" text-anchor="middle" font-family="verdana" font-size="8"><tspan y="207.0" dy="0.35em">N</tspan></text>
<text x="302.0" y="214.0" text-anchor="middle" font-family="verdana" font-size="8"><tspan y="214.0" dy="0.35em">H</tspan></text>
</g>
</g>
<g id="atom_C_8_s0">
<line x1="292.0" y1="196.0" x2="297.0" y2="201.5" />
<g id="chiral-bond-back" stroke="black" stroke-width="1">
  <line x1="292.0" y1="196.0" x2="292.0" y2="196.0" />
  <line x1="292.71747742652155" y1="193.09909908090054" x2="293.28252257347845" y2="193.30090091909943" />
  <line x1="293.4349548530431" y1="190.19819816180112" x2="294.5650451469569" y2="190.6018018381989" />
</g>
<line x1="292.0" y1="196.0" x2="285.0" y2="197.5" />
</g>
<g id="atom_C_10_s0">
<g id="chiral-bond-back" stroke="black" stroke-width="1">
  <line x1="295.5873871326077" y1="181.49549540450278" x2="298.4126128673923" y2="182.50450459549722" />
  <line x1="294.8699097060862" y1="184.39639632360223" x2="297.1300902939138" y2="185.2036036763978" />
  <line x1="294.15243227956466" y1="187.29729724270166" x2="295.84756772043534" y2="187.90270275729833" />
</g>
<line x1="297.0" y1="182.0" x2="292.0" y2="176.0" />
</g>
<g id="atom_C_11_s0">
<line x1="287.0" y1="170.0" x2="292.0" y2="176.0" />
<line x1="287.0" y1="170.0" x2="279.5" y2="172.0" />
<line x1="287.0" y1="170.0" x2="289.5" y2="163.0" />
</g>
<g id="atom_C_12_s0">
<line x1="272.0" y1="174.0" x2="279.5" y2="172.0" />
</g>
<g id="atom_C_13_s0">
<line x1="292.0" y1="156.0" x2="289.5" y2="163.0" />
</g>
<g id="atom_C_14_s0">
<line x1="278.0" y1="199.0" x2="285.0" y2="197.5" />
<line x1="279.5523132559354" y1="198.66736144515673" x2="276.771351580653" y2="206.4540541359475" />
<line x1="276.9708106251857" y1="197.8678916877043" x2="274.228648419347" y2="205.5459458640525" />
<line x1="278.0" y1="199.0" x2="273.0" y2="193.5" />
</g>
<g id="atom_O_15_s0">
<line x1="275.521351580653" y1="209.9540541359475" x2="276.771351580653" y2="206.4540541359475" />
<line x1="272.978648419347" y1="209.0459458640525" x2="274.228648419347" y2="205.5459458640525" />
<g id="atom_O_15_s0_text">
<text x="273.0" y="213.0" text-anchor="middle" font-family="verdana" font-size="8"><tspan y="213.0" dy="0.35em">O</tspan></text>
</g>
</g>
<g id="atom_N_16_s0">
<line x1="270.5" y1="190.75" x2="273.0" y2="193.5" />
<line x1="264.25" y1="188.75" x2="260.5" y2="189.5" />
<g id="atom_N_16_s0_text">
<text x="268.0" y="188.0" text-anchor="middle" font-family="verdana" font-size="8"><tspan y="188.0" dy="0.35em">N</tspan></text>
<text x="268.0" y="181.0" text-anchor="middle" font-family="verdana" font-size="8"><tspan y="181.0" dy="0.35em">H</tspan></text>
</g>
</g>
<g id="atom_C_17_s0">
<line x1="253.0" y1="191.0" x2="260.5" y2="189.5" />
<polygon points="253.0,191.0 251.20630643369614,198.2522522977486 249.79369356630386,197.7477477022514" />
<line x1="253.0" y1="191.0" x2="248.0" y2="185.5" />
</g>
<g id="atom_C_19_s0">
<polygon points="249.41261286739226,205.50450459549722 246.58738713260774,204.49549540450278 249.79369356630386,197.7477477022514 251.20630643369614,198.2522522977486" />
<line x1="248.0" y1="205.0" x2="253.0" y2="210.5" />
</g>
<g id="atom_C_20_s0">
<line x1="258.0" y1="216.0" x2="253.0" y2="210.5" />
<line x1="258.0" y1="216.0" x2="256.0" y2="223.5" />
</g>
<g id="atom_C_21_s0">
<line x1="254.0" y1="231.0" x2="256.0" y2="223.5" />
<line x1="254.0" y1="231.0" x2="259.0" y2="236.5" />
</g>
<g id="atom_C_22_s0">
<line x1="264.0" y1="242.0" x2="259.0" y2="236.5" />
<line x1="264.0" y1="242.0" x2="261.5" y2="249.0" />
</g>
<g id="atom_N_23_s0">
<line x1="260.25" y1="252.5" x2="261.5" y2="249.0" />
<g id="atom_N_23_s0_text">
<text x="259.0" y="256.0" text-anchor="middle" font-family="verdana" font-size="8"><tspan y="256.0" dy="0.35em">N</tspan></text>
<text x="249.0" y="256.0" text-anchor="middle" font-family="verdana" font-size="8"><tspan y="256.0" dy="0.35em">H</tspan></text>
<text x="254.0" y="259.0" text-anchor="middle" font-family="verdana" font-size="6"><tspan y="259.0" dy="0.35em">2</tspan></text>
</g>
</g>
<g id="atom_C_24_s0">
<line x1="243.0" y1="180.0" x2="248.0" y2="185.5" />
<line x1="244.02918937481434" y1="181.1321083122958" x2="246.77135158065303" y2="173.4540541359475" />
<line x1="241.45621593777847" y1="180.30875681244433" x2="244.22864841934697" y2="172.5459458640525" />
<line x1="243.0" y1="180.0" x2="235.5" y2="181.5" />
</g>
<g id="atom_O_25_s0">
<line x1="248.02135158065303" y1="169.9540541359475" x2="246.77135158065303" y2="173.4540541359475" />
<line x1="245.47864841934697" y1="169.0459458640525" x2="244.22864841934697" y2="172.5459458640525" />
<g id="atom_O_25_s0_text">
<text x="248.0" y="166.0" text-anchor="middle" font-family="verdana" font-size="8"><tspan y="166.0" dy="0.35em">O</tspan></text>
</g>
</g>
<g id="atom_N_26_s0">
<line x1="231.75" y1="182.25" x2="235.5" y2="181.5" />
<line x1="225.5" y1="180.25" x2="223.0" y2="177.5" />
<g id="atom_N_26_s0_text">
<text x="228.0" y="183.0" text-anchor="middle" font-family="verdana" font-size="8"><tspan y="183.0" dy="0.35em">N</tspan></text>
<text x="228.0" y="190.0" text-anchor="middle" font-family="verdana" font-size="8"><tspan y="190.0" dy="0.35em">H</tspan></text>
</g>
</g>
<g id="atom_C_27_s0">
<line x1="218.0" y1="172.0" x2="223.0" y2="177.5" />
<g id="chiral-bond-back" stroke="black" stroke-width="1">
  <line x1="218.0" y1="172.0" x2="218.0" y2="172.0" />
  <line x1="218.71539501058484" y1="168.90513167019495" x2="219.28460498941516" y2="169.09486832980505" />
  <line x1="219.43079002116968" y1="165.8102633403899" x2="220.56920997883032" y2="166.1897366596101" />
</g>
<line x1="218.0" y1="172.0" x2="211.0" y2="173.5" />
</g>
<g id="atom_C_29_s0">
<g id="chiral-bond-back" stroke="black" stroke-width="1">
  <line x1="221.57697505292424" y1="156.52565835097474" x2="224.42302494707576" y2="157.47434164902526" />
  <line x1="220.86158004233937" y1="159.6205266807798" x2="223.13841995766063" y2="160.3794733192202" />
  <line x1="220.14618503175453" y1="162.71539501058484" x2="221.85381496824547" y2="163.28460498941516" />
</g>
</g>
<g id="atom_C_30_s0">
<line x1="204.0" y1="175.0" x2="211.0" y2="173.5" />
<line x1="205.55231325593547" y1="174.66736144515667" x2="202.77135158065303" y2="182.4540541359475" />
<line x1="202.94372669426946" y1="173.94372669426946" x2="200.22864841934697" y2="181.5459458640525" />
<line x1="204.0" y1="175.0" x2="198.5" y2="169.5" />
</g>
<g id="atom_O_31_s0">
<line x1="201.52135158065303" y1="185.9540541359475" x2="202.77135158065303" y2="182.4540541359475" />
<line x1="198.97864841934697" y1="185.0459458640525" x2="200.22864841934697" y2="181.5459458640525" />
<g id="atom_O_31_s0_text">
<text x="199.0" y="189.0" text-anchor="middle" font-family="verdana" font-size="8"><tspan y="189.0" dy="0.35em">O</tspan></text>
</g>
</g>
<g id="atom_N_32_s0">
<line x1="195.75" y1="166.75" x2="198.5" y2="169.5" />
<line x1="189.5" y1="164.75" x2="186.0" y2="165.5" />
<g id="atom_N_32_s0_text">
<text x="193.0" y="164.0" text-anchor="middle" font-family="verdana" font-size="8"><tspan y="164.0" dy="0.35em">N</tspan></text>
<text x="193.0" y="157.0" text-anchor="middle" font-family="verdana" font-size="8"><tspan y="157.0" dy="0.35em">H</tspan></text>
</g>
</g>
<g id="atom_C_33_s0">
<line x1="179.0" y1="167.0" x2="186.0" y2="165.5" />
<polygon points="179.0,167.0 177.20630643369614,174.2522522977486 175.79369356630386,173.7477477022514" />
<line x1="179.0" y1="167.0" x2="174.0" y2="161.5" />
</g>
<g id="atom_C_35_s0">
<polygon points="175.41261286739226,181.50450459549722 172.58738713260774,180.49549540450278 175.79369356630386,173.7477477022514 177.20630643369614,174.2522522977486" />
<line x1="174.0" y1="181.0" x2="167.0" y2="182.5" />
</g>
<g id="atom_C_36_s0">
<line x1="160.0" y1="184.0" x2="167.0" y2="182.5" />
<line x1="160.0" y1="184.0" x2="154.5" y2="178.5" />
<line x1="156.99081169079633" y1="184.80918830920368" x2="152.59081169079633" y2="180.40918830920367" />
<line x1="160.0" y1="184.0" x2="157.5" y2="191.0" />
</g>
<g id="atom_C_37_s0">
<line x1="149.0" y1="173.0" x2="154.5" y2="178.5" />
<line x1="148.19081169079632" y1="176.00918830920367" x2="152.59081169079633" y2="180.40918830920367" />
<line x1="149.0" y1="173.0" x2="142.0" y2="174.5" />
</g>
<g id="atom_C_38_s0">
<line x1="135.0" y1="176.0" x2="142.0" y2="174.5" />
<line x1="135.0" y1="176.0" x2="132.5" y2="183.0" />
<line x1="137.04270316130606" y1="178.30810827189504" x2="135.04270316130606" y2="183.90810827189503" />
</g>
<g id="atom_C_39_s0">
<line x1="130.0" y1="190.0" x2="132.5" y2="183.0" />
<line x1="133.04270316130606" y1="189.50810827189503" x2="135.04270316130606" y2="183.90810827189503" />
<line x1="130.0" y1="190.0" x2="122.5" y2="192.0" />
<line x1="130.0" y1="190.0" x2="135.0" y2="196.0" />
</g>
<g id="atom_O_40_s0">
<line x1="118.75" y1="193.0" x2="122.5" y2="192.0" />
<g id="atom_O_40_s0_text">
<text x="115.0" y="194.0" text-anchor="middle" font-family="verdana" font-size="8"><tspan y="194.0" dy="0.35em">O</tspan></text>
<text x="109.0" y="194.0" text-anchor="middle" font-family="verdana" font-size="8"><tspan y="194.0" dy="0.35em">H</tspan></text>
</g>
</g>
<g id="atom_C_41_s0">
<line x1="140.0" y1="202.0" x2="135.0" y2="196.0" />
<line x1="140.0" y1="202.0" x2="147.5" y2="200.0" />
<line x1="140.80431084348712" y1="198.99116566307663" x2="146.80431084348712" y2="197.39116566307663" />
</g>
<g id="atom_C_42_s0">
<line x1="155.0" y1="198.0" x2="147.5" y2="200.0" />
<line x1="152.80431084348712" y1="195.79116566307664" x2="146.80431084348712" y2="197.39116566307663" />
<line x1="155.0" y1="198.0" x2="157.5" y2="191.0" />
</g>
<g id="atom_C_43_s0">
<line x1="169.0" y1="156.0" x2="174.0" y2="161.5" />
<line x1="170.08029050721396" y1="157.18831955793533" x2="172.30441716846167" y2="148.84784457825646" />
<line x1="167.52411015211612" y1="156.29517796957677" x2="169.69558283153833" y2="148.15215542174354" />
<line x1="169.0" y1="156.0" x2="161.5" y2="157.5" />
</g>
<g id="atom_O_44_s0">
<line x1="173.30441716846167" y1="145.09784457825646" x2="172.30441716846167" y2="148.84784457825646" />
<line x1="170.69558283153833" y1="144.40215542174354" x2="169.69558283153833" y2="148.15215542174354" />
<g id="atom_O_44_s0_text">
<text x="173.0" y="141.0" text-anchor="middle" font-family="verdana" font-size="8"><tspan y="141.0" dy="0.35em">O</tspan></text>
</g>
</g>
<g id="atom_N_45_s0">
<line x1="157.75" y1="158.25" x2="161.5" y2="157.5" />
<line x1="151.5" y1="156.25" x2="149.0" y2="153.5" />
<g id="atom_N_45_s0_text">
<text x="154.0" y="159.0" text-anchor="middle" font-family="verdana" font-size="8"><tspan y="159.0" dy="0.35em">N</tspan></text>
<text x="154.0" y="166.0" text-anchor="middle" font-family="verdana" font-size="8"><tspan y="166.0" dy="0.35em">H</tspan></text>
</g>
</g>
<g id="atom_C_46_s0">
<line x1="144.0" y1="148.0" x2="149.0" y2="153.5" />
<g id="chiral-bond-back" stroke="black" stroke-width="1">
  <line x1="144.0" y1="148.0" x2="144.0" y2="148.0" />
  <line x1="144.71539501058484" y1="144.90513167019495" x2="145.28460498941516" y2="145.09486832980505" />
  <line x1="145.43079002116968" y1="141.8102633403899" x2="146.56920997883032" y2="142.1897366596101" />
</g>
<line x1="144.0" y1="148.0" x2="136.5" y2="149.5" />
</g>
<g id="atom_C_48_s0">
<g id="chiral-bond-back" stroke="black" stroke-width="1">
  <line x1="147.57697505292424" y1="132.52565835097474" x2="150.42302494707576" y2="133.47434164902526" />
  <line x1="146.86158004233937" y1="135.6205266807798" x2="149.13841995766063" y2="136.3794733192202" />
  <line x1="146.14618503175453" y1="138.71539501058484" x2="147.85381496824547" y2="139.28460498941516" />
</g>
</g>
<g id="atom_C_49_s0">
<line x1="129.0" y1="151.0" x2="136.5" y2="149.5" />
<line x1="130.4891133864437" y1="150.70217732271124" x2="128.2980573293151" y2="158.37087352266147" />
<line x1="127.93172300537732" y1="149.82489530591505" x2="125.70194267068489" y2="157.62912647733853" />
<line x1="129.0" y1="151.0" x2="124.0" y2="145.5" />
</g>
<g id="atom_O_50_s0">
<line x1="127.2980573293151" y1="161.87087352266147" x2="128.2980573293151" y2="158.37087352266147" />
<line x1="124.70194267068489" y1="161.12912647733853" x2="125.70194267068489" y2="157.62912647733853" />
<g id="atom_O_50_s0_text">
<text x="125.0" y="165.0" text-anchor="middle" font-family="verdana" font-size="8"><tspan y="165.0" dy="0.35em">O</tspan></text>
</g>
</g>
<g id="atom_N_51_s0">
<line x1="121.5" y1="142.75" x2="124.0" y2="145.5" />
<line x1="115.5" y1="140.75" x2="112.0" y2="141.5" />
<g id="atom_N_51_s0_text">
<text x="119.0" y="140.0" text-anchor="middle" font-family="verdana" font-size="8"><tspan y="140.0" dy="0.35em">N</tspan></text>
<text x="119.0" y="133.0" text-anchor="middle" font-family="verdana" font-size="8"><tspan y="133.0" dy="0.35em">H</tspan></text>
</g>
</g>
<g id="atom_C_52_s0">
<line x1="105.0" y1="143.0" x2="112.0" y2="141.5" />
<polygon points="105.0,143.0 103.20630643369613,150.2522522977486 101.79369356630387,149.7477477022514" />
<line x1="105.0" y1="143.0" x2="100.0" y2="137.5" />
</g>
<g id="atom_C_54_s0">
<polygon points="101.41261286739226,157.50450459549722 98.58738713260774,156.49549540450278 101.79369356630387,149.7477477022514 103.20630643369613,150.2522522977486" />
<line x1="100.0" y1="157.0" x2="92.5" y2="158.5" />
</g>
<g id="atom_C_55_s0">
<line x1="85.0" y1="160.0" x2="92.5" y2="158.5" />
<line x1="85.0" y1="160.0" x2="79.5" y2="155.0" />
<line x1="82.08378345620996" y1="160.99783819816903" x2="77.68378345620995" y2="156.99783819816903" />
<line x1="85.0" y1="160.0" x2="82.0" y2="167.0" />
</g>
<g id="atom_C_56_s0">
<line x1="74.0" y1="150.0" x2="79.5" y2="155.0" />
<line x1="73.28378345620995" y1="152.99783819816903" x2="77.68378345620995" y2="156.99783819816903" />
<line x1="74.0" y1="150.0" x2="67.5" y2="154.0" />
</g>
<g id="atom_N_57_s0">
<line x1="64.25" y1="156.0" x2="67.5" y2="154.0" />
<line x1="61.75" y1="161.5" x2="62.5" y2="165.0" />
<g id="atom_N_57_s0_text">
<text x="61.0" y="158.0" text-anchor="middle" font-family="verdana" font-size="8"><tspan y="158.0" dy="0.35em">N</tspan></text>
<text x="55.0" y="158.0" text-anchor="middle" font-family="verdana" font-size="8"><tspan y="158.0" dy="0.35em">H</tspan></text>
</g>
</g>
<g id="atom_C_58_s0">
<line x1="79.0" y1="174.0" x2="82.0" y2="167.0" />
<line x1="79.0" y1="174.0" x2="71.5" y2="173.0" />
<line x1="77.85684204424575" y1="171.1236846681569" x2="71.85684204424575" y2="170.3236846681569" />
<line x1="79.0" y1="174.0" x2="82.0" y2="181.0" />
</g>
<g id="atom_C_59_s0">
<line x1="64.0" y1="172.0" x2="71.5" y2="173.0" />
<line x1="65.85684204424575" y1="169.52368466815687" x2="71.85684204424575" y2="170.3236846681569" />
<line x1="64.0" y1="172.0" x2="62.5" y2="165.0" />
<line x1="64.0" y1="172.0" x2="60.0" y2="178.0" />
</g>
<g id="atom_C_60_s0">
<line x1="56.0" y1="184.0" x2="60.0" y2="178.0" />
<line x1="56.0" y1="184.0" x2="59.0" y2="191.0" />
<line x1="59.08169158104876" y1="184.33641789383626" x2="61.48169158104875" y2="189.93641789383625" />
</g>
<g id="atom_C_61_s0">
<line x1="62.0" y1="198.0" x2="59.0" y2="191.0" />
<line x1="63.88169158104875" y1="195.53641789383624" x2="61.48169158104875" y2="189.93641789383625" />
<line x1="62.0" y1="198.0" x2="69.5" y2="199.0" />
</g>
<g id="atom_C_62_s0">
<line x1="77.0" y1="200.0" x2="69.5" y2="199.0" />
<line x1="77.0" y1="200.0" x2="81.0" y2="194.0" />
<line x1="75.55346420528782" y1="197.3023094701919" x2="78.75346420528783" y2="192.50230947019188" />
</g>
<g id="atom_C_63_s0">
<line x1="85.0" y1="188.0" x2="81.0" y2="194.0" />
<line x1="81.95346420528783" y1="187.70230947019186" x2="78.75346420528783" y2="192.50230947019188" />
<line x1="85.0" y1="188.0" x2="82.0" y2="181.0" />
</g>
<g id="atom_C_64_s0">
<line x1="95.0" y1="132.0" x2="100.0" y2="137.5" />
<line x1="96.08029050721397" y1="133.1883195579354" x2="98.30441716846168" y2="124.84784457825646" />
<line x1="93.52411015211614" y1="132.2951779695768" x2="95.69558283153832" y2="124.15215542174354" />
<line x1="95.0" y1="132.0" x2="87.5" y2="133.5" />
</g>
<g id="atom_O_65_s0">
<line x1="99.30441716846168" y1="121.09784457825646" x2="98.30441716846168" y2="124.84784457825646" />
<line x1="96.69558283153832" y1="120.40215542174354" x2="95.69558283153832" y2="124.15215542174354" />
<g id="atom_O_65_s0_text">
<text x="99.0" y="117.0" text-anchor="middle" font-family="verdana" font-size="8"><tspan y="117.0" dy="0.35em">O</tspan></text>
</g>
</g>
<g id="atom_N_66_s0">
<line x1="83.75" y1="134.25" x2="87.5" y2="133.5" />
<line x1="77.5" y1="132.25" x2="75.0" y2="129.5" />
<g id="atom_N_66_s0_text">
<text x="80.0" y="135.0" text-anchor="middle" font-family="verdana" font-size="8"><tspan y="135.0" dy="0.35em">N</tspan></text>
<text x="80.0" y="142.0" text-anchor="middle" font-family="verdana" font-size="8"><tspan y="142.0" dy="0.35em">H</tspan></text>
</g>
</g>
<g id="atom_C_67_s0">
<line x1="70.0" y1="124.0" x2="75.0" y2="129.5" />
<polygon points="70.0,124.0 62.64708710135364,126.23543550676818 62.35291289864636,124.76456449323182" />
<line x1="70.0" y1="124.0" x2="72.5" y2="116.5" />
</g>
<g id="atom_C_69_s0">
<polygon points="55.294174202707275,128.47087101353637 54.705825797292725,125.52912898646362 62.35291289864636,124.76456449323182 62.64708710135364,126.23543550676818" />
<line x1="55.0" y1="127.0" x2="50.0" y2="121.5" />
</g>
<g id="atom_C_70_s0">
<line x1="45.0" y1="116.0" x2="50.0" y2="121.5" />
<line x1="45.0" y1="116.0" x2="47.5" y2="108.5" />
<line x1="42.93855509526361" y1="113.64618503175454" x2="44.93855509526361" y2="107.64618503175454" />
<line x1="45.0" y1="116.0" x2="38.0" y2="117.5" />
</g>
<g id="atom_C_71_s0">
<line x1="50.0" y1="101.0" x2="47.5" y2="108.5" />
<line x1="46.93855509526361" y1="101.64618503175454" x2="44.93855509526361" y2="107.64618503175454" />
<line x1="50.0" y1="101.0" x2="45.0" y2="95.5" />
</g>
<g id="atom_C_72_s0">
<line x1="40.0" y1="90.0" x2="45.0" y2="95.5" />
<line x1="40.0" y1="90.0" x2="32.5" y2="91.5" />
<line x1="39.0295135648731" y1="92.94756782436548" x2="33.0295135648731" y2="94.14756782436548" />
</g>
<g id="atom_C_73_s0">
<line x1="25.0" y1="93.0" x2="32.5" y2="91.5" />
<line x1="27.029513564873096" y1="95.34756782436548" x2="33.0295135648731" y2="94.14756782436548" />
<line x1="25.0" y1="93.0" x2="20.0" y2="87.5" />
<line x1="25.0" y1="93.0" x2="23.0" y2="100.5" />
</g>
<g id="atom_O_74_s0">
<line x1="17.5" y1="84.75" x2="20.0" y2="87.5" />
<g id="atom_O_74_s0_text">
<text x="15.0" y="82.0" text-anchor="middle" font-family="verdana" font-size="8"><tspan y="82.0" dy="0.35em">O</tspan></text>
<text x="9.0" y="82.0" text-anchor="middle" font-family="verdana" font-size="8"><tspan y="82.0" dy="0.35em">H</tspan></text>
</g>
</g>
<g id="atom_C_75_s0">
<line x1="21.0" y1="108.0" x2="23.0" y2="100.5" />
<line x1="21.0" y1="108.0" x2="26.0" y2="113.5" />
<line x1="23.99783819816905" y1="107.28378345620995" x2="27.99783819816905" y2="111.68378345620995" />
</g>
<g id="atom_C_76_s0">
<line x1="31.0" y1="119.0" x2="26.0" y2="113.5" />
<line x1="31.99783819816905" y1="116.08378345620996" x2="27.99783819816905" y2="111.68378345620995" />
<line x1="31.0" y1="119.0" x2="38.0" y2="117.5" />
</g>
<g id="atom_C_77_s0">
<line x1="75.0" y1="109.0" x2="72.5" y2="116.5" />
<line x1="76.52700380067564" y1="108.67278489985523" x2="70.99891909908452" y2="102.59189172810498" />
<line x1="74.51050749246635" y1="110.46847752260096" x2="69.00108090091548" y2="104.40810827189502" />
<line x1="75.0" y1="109.0" x2="82.0" y2="107.5" />
</g>
<g id="atom_O_78_s0">
<line x1="68.49891909908452" y1="99.84189172810498" x2="70.99891909908452" y2="102.59189172810498" />
<line x1="66.50108090091548" y1="101.65810827189502" x2="69.00108090091548" y2="104.40810827189502" />
<g id="atom_O_78_s0_text">
<text x="65.0" y="98.0" text-anchor="middle" font-family="verdana" font-size="8"><tspan y="98.0" dy="0.35em">O</tspan></text>
</g>
</g>
<g id="atom_N_79_s0">
<line x1="85.5" y1="106.75" x2="82.0" y2="107.5" />
<line x1="90.25" y1="102.5" x2="91.5" y2="99.0" />
<g id="atom_N_79_s0_text">
<text x="89.0" y="106.0" text-anchor="middle" font-family="verdana" font-size="8"><tspan y="106.0" dy="0.35em">N</tspan></text>
<text x="89.0" y="113.0" text-anchor="middle" font-family="verdana" font-size="8"><tspan y="113.0" dy="0.35em">H</tspan></text>
</g>
</g>
<g id="atom_C_80_s0">
<line x1="94.0" y1="92.0" x2="91.5" y2="99.0" />
<line x1="94.0" y1="92.0" x2="89.0" y2="86.5" />
<polygon points="94.0,92.0 101.64708710135363,91.23543550676818 101.35291289864637,89.76456449323182" />
</g>
<g id="atom_C_82_s0">
<line x1="84.0" y1="81.0" x2="89.0" y2="86.5" />
<line x1="84.0" y1="81.0" x2="76.5" y2="82.5" />
<g id="chiral-bond-back" stroke="black" stroke-width="1">
  <line x1="84.0" y1="81.0" x2="84.0" y2="81.0" />
  <line x1="84.51154281570776" y1="78.11758366163079" x2="85.08845718429224" y2="78.28241633836922" />
  <line x1="85.0230856314155" y1="75.23516732326158" x2="86.17691436858449" y2="75.56483267673843" />
</g>
</g>
<g id="atom_C_84_s0">
<line x1="69.0" y1="84.0" x2="76.5" y2="82.5" />
<line x1="69.0" y1="84.0" x2="64.0" y2="78.5" />
</g>
<g id="atom_C_85_s0">
<line x1="59.0" y1="73.0" x2="64.0" y2="78.5" />
</g>
<g id="atom_C_86_s0">
<g id="chiral-bond-back" stroke="black" stroke-width="1">
  <line x1="86.55771407853877" y1="66.58791830815393" x2="89.44228592146123" y2="67.41208169184607" />
  <line x1="86.04617126283101" y1="69.47033464652314" x2="88.353828737169" y2="70.12966535347685" />
  <line x1="85.53462844712327" y1="72.35275098489235" x2="87.26537155287674" y2="72.84724901510764" />
</g>
</g>
<g id="atom_C_87_s0">
<polygon points="109.29417420270728,90.47087101353638 108.70582579729272,87.52912898646362 101.35291289864637,89.76456449323182 101.64708710135363,91.23543550676818" />
<line x1="109.43628680019305" y1="87.47299619932436" x2="114.99891909908452" y2="93.59189172810498" />
<line x1="107.45621593777848" y1="89.3087568124443" x2="113.00108090091548" y2="95.40810827189502" />
<line x1="109.0" y1="89.0" x2="111.0" y2="82.0" />
</g>
<g id="atom_O_88_s0">
<line x1="117.49891909908452" y1="96.34189172810498" x2="114.99891909908452" y2="93.59189172810498" />
<line x1="115.50108090091548" y1="98.15810827189502" x2="113.00108090091548" y2="95.40810827189502" />
<g id="atom_O_88_s0_text">
<text x="119.0" y="100.0" text-anchor="middle" font-family="verdana" font-size="8"><tspan y="100.0" dy="0.35em">O</tspan></text>
</g>
</g>
<g id="atom_N_89_s0">
<line x1="112.0" y1="78.5" x2="111.0" y2="82.0" />
<line x1="116.75" y1="74.0" x2="120.5" y2="73.0" />
<g id="atom_N_89_s0_text">
<text x="113.0" y="75.0" text-anchor="middle" font-family="verdana" font-size="8"><tspan y="75.0" dy="0.35em">N</tspan></text>
<text x="113.0" y="68.0" text-anchor="middle" font-family="verdana" font-size="8"><tspan y="68.0" dy="0.35em">H</tspan></text>
</g>
</g>
<g id="atom_C_90_s0">
<line x1="128.0" y1="71.0" x2="120.5" y2="73.0" />
<polygon points="128.0,71.0 131.20630643369614,64.25225229774861 129.79369356630386,63.74774770225138" />
<line x1="128.0" y1="71.0" x2="133.0" y2="77.0" />
</g>
<g id="atom_C_92_s0">
<polygon points="134.41261286739226,57.50450459549723 131.58738713260774,56.49549540450277 129.79369356630386,63.74774770225138 131.20630643369614,64.25225229774861" />
<line x1="133.0" y1="57.0" x2="140.0" y2="55.5" />
</g>
<g id="atom_C_93_s0">
<line x1="147.0" y1="54.0" x2="140.0" y2="55.5" />
<line x1="147.0" y1="54.0" x2="152.5" y2="59.0" />
<line x1="149.91621654379003" y1="53.00216180183095" x2="154.31621654379003" y2="57.00216180183095" />
<line x1="147.0" y1="54.0" x2="150.0" y2="47.0" />
</g>
<g id="atom_C_94_s0">
<line x1="158.0" y1="64.0" x2="152.5" y2="59.0" />
<line x1="158.71621654379004" y1="61.00216180183095" x2="154.31621654379003" y2="57.00216180183095" />
<line x1="158.0" y1="64.0" x2="164.5" y2="60.5" />
</g>
<g id="atom_N_95_s0">
<line x1="167.75" y1="58.75" x2="164.5" y2="60.5" />
<line x1="170.25" y1="53.25" x2="169.5" y2="49.5" />
<g id="atom_N_95_s0_text">
<text x="171.0" y="57.0" text-anchor="middle" font-family="verdana" font-size="8"><tspan y="57.0" dy="0.35em">N</tspan></text>
<text x="177.0" y="57.0" text-anchor="middle" font-family="verdana" font-size="8"><tspan y="57.0" dy="0.35em">H</tspan></text>
</g>
</g>
<g id="atom_C_96_s0">
<line x1="153.0" y1="40.0" x2="150.0" y2="47.0" />
<line x1="153.0" y1="40.0" x2="160.5" y2="41.0" />
<line x1="154.14315795575425" y1="42.87631533184312" x2="160.14315795575425" y2="43.676315331843114" />
<line x1="153.0" y1="40.0" x2="150.0" y2="33.5" />
</g>
<g id="atom_C_97_s0">
<line x1="168.0" y1="42.0" x2="160.5" y2="41.0" />
<line x1="166.14315795575425" y1="44.47631533184311" x2="160.14315795575425" y2="43.676315331843114" />
<line x1="168.0" y1="42.0" x2="169.5" y2="49.5" />
<line x1="168.0" y1="42.0" x2="172.5" y2="36.0" />
</g>
<g id="atom_C_98_s0">
<line x1="177.0" y1="30.0" x2="172.5" y2="36.0" />
<line x1="177.0" y1="30.0" x2="174.0" y2="23.0" />
<line x1="173.91830841895126" y1="29.663582106163755" x2="171.51830841895125" y2="24.063582106163754" />
</g>
<g id="atom_C_99_s0">
<line x1="171.0" y1="16.0" x2="174.0" y2="23.0" />
<line x1="169.11830841895124" y1="18.463582106163752" x2="171.51830841895125" y2="24.063582106163754" />
<line x1="171.0" y1="16.0" x2="163.5" y2="15.5" />
</g>
<g id="atom_C_100_s0">
<line x1="156.0" y1="15.0" x2="163.5" y2="15.5" />
<line x1="156.0" y1="15.0" x2="151.5" y2="21.0" />
<line x1="157.26" y1="17.82" x2="153.66" y2="22.62" />
</g>
<g id="atom_C_101_s0">
<line x1="147.0" y1="27.0" x2="151.5" y2="21.0" />
<line x1="150.06" y1="27.42" x2="153.66" y2="22.62" />
<line x1="147.0" y1="27.0" x2="150.0" y2="33.5" />
</g>
<g id="atom_C_102_s0">
<line x1="138.0" y1="83.0" x2="133.0" y2="77.0" />
<line x1="139.58440995859578" y1="82.57749067770779" x2="136.77135158065303" y2="90.45405413594752" />
<line x1="136.996540359556" y1="81.7958484314672" x2="134.22864841934697" y2="89.54594586405248" />
<line x1="138.0" y1="83.0" x2="145.5" y2="81.0" />
</g>
<g id="atom_O_103_s0">
<line x1="135.52135158065303" y1="93.95405413594752" x2="136.77135158065303" y2="90.45405413594752" />
<line x1="132.97864841934697" y1="93.04594586405248" x2="134.22864841934697" y2="89.54594586405248" />
<g id="atom_O_103_s0_text">
<text x="133.0" y="97.0" text-anchor="middle" font-family="verdana" font-size="8"><tspan y="97.0" dy="0.35em">O</tspan></text>
</g>
</g>
<g id="atom_N_104_s0">
<line x1="149.25" y1="80.0" x2="145.5" y2="81.0" />
<line x1="155.5" y1="82.0" x2="158.0" y2="85.0" />
<g id="atom_N_104_s0_text">
<text x="153.0" y="79.0" text-anchor="middle" font-family="verdana" font-size="8"><tspan y="79.0" dy="0.35em">N</tspan></text>
<text x="153.0" y="72.0" text-anchor="middle" font-family="verdana" font-size="8"><tspan y="72.0" dy="0.35em">H</tspan></text>
</g>
</g>
<g id="atom_C_105_s0">
<line x1="163.0" y1="91.0" x2="158.0" y2="85.0" />
<line x1="163.0" y1="91.0" x2="170.0" y2="89.0" />
<polygon points="163.0,91.0 161.20630643369614,98.25225229774861 159.79369356630386,97.74774770225139" />
</g>
<g id="atom_C_107_s0">
<line x1="177.0" y1="87.0" x2="170.0" y2="89.0" />
<line x1="177.0" y1="87.0" x2="182.0" y2="93.0" />
</g>
<g id="atom_C_108_s0">
<line x1="187.0" y1="99.0" x2="182.0" y2="93.0" />
<line x1="187.0" y1="99.0" x2="185.0" y2="106.0" />
<line x1="189.19611465863022" y1="101.14174704532293" x2="187.59611465863023" y2="106.74174704532292" />
<line x1="187.0" y1="99.0" x2="194.5" y2="97.5" />
</g>
<g id="atom_C_109_s0">
<line x1="183.0" y1="113.0" x2="185.0" y2="106.0" />
<line x1="185.99611465863023" y1="112.34174704532292" x2="187.59611465863023" y2="106.74174704532292" />
<line x1="183.0" y1="113.0" x2="188.0" y2="118.5" />
</g>
<g id="atom_C_110_s0">
<line x1="193.0" y1="124.0" x2="188.0" y2="118.5" />
<line x1="193.0" y1="124.0" x2="200.0" y2="122.5" />
<line x1="193.83427146042663" y1="121.059933481991" x2="199.43427146042663" y2="119.85993348199099" />
</g>
<g id="atom_C_111_s0">
<line x1="207.0" y1="121.0" x2="200.0" y2="122.5" />
<line x1="205.03427146042662" y1="118.65993348199099" x2="199.43427146042663" y2="119.85993348199099" />
<line x1="207.0" y1="121.0" x2="212.0" y2="126.5" />
<line x1="207.0" y1="121.0" x2="209.5" y2="114.0" />
</g>
<g id="atom_O_112_s0">
<line x1="214.5" y1="129.25" x2="212.0" y2="126.5" />
<g id="atom_O_112_s0_text">
<text x="217.0" y="132.0" text-anchor="middle" font-family="verdana" font-size="8"><tspan y="132.0" dy="0.35em">O</tspan></text>
<text x="223.0" y="132.0" text-anchor="middle" font-family="verdana" font-size="8"><tspan y="132.0" dy="0.35em">H</tspan></text>
</g>
</g>
<g id="atom_C_113_s0">
<line x1="212.0" y1="107.0" x2="209.5" y2="114.0" />
<line x1="212.0" y1="107.0" x2="207.0" y2="101.5" />
<line x1="209.00216180183097" y1="107.71621654379005" x2="205.00216180183097" y2="103.31621654379005" />
</g>
<g id="atom_C_114_s0">
<line x1="202.0" y1="96.0" x2="207.0" y2="101.5" />
<line x1="201.00216180183097" y1="98.91621654379004" x2="205.00216180183097" y2="103.31621654379005" />
<line x1="202.0" y1="96.0" x2="194.5" y2="97.5" />
</g>
<g id="atom_C_115_s0">
<polygon points="159.41261286739226,105.50450459549724 156.58738713260774,104.49549540450276 159.79369356630386,97.74774770225139 161.20630643369614,98.25225229774861" />
<line x1="158.5145946874072" y1="103.55913487525989" x2="163.99891909908453" y2="109.59189172810498" />
<line x1="156.45621593777847" y1="105.30875681244432" x2="162.00108090091547" y2="111.40810827189502" />
<line x1="158.0" y1="105.0" x2="150.5" y2="106.5" />
</g>
<g id="atom_O_116_s0">
<line x1="166.49891909908453" y1="112.34189172810498" x2="163.99891909908453" y2="109.59189172810498" />
<line x1="164.50108090091547" y1="114.15810827189502" x2="162.00108090091547" y2="111.40810827189502" />
<g id="atom_O_116_s0_text">
<text x="168.0" y="116.0" text-anchor="middle" font-family="verdana" font-size="8"><tspan y="116.0" dy="0.35em">O</tspan></text>
</g>
</g>
<g id="atom_O_117_s0">
<line x1="146.75" y1="107.25" x2="150.5" y2="106.5" />
<g id="atom_O_117_s0_text">
<text x="143.0" y="108.0" text-anchor="middle" font-family="verdana" font-size="8"><tspan y="108.0" dy="0.35em">O</tspan></text>
<text x="137.0" y="108.0" text-anchor="middle" font-family="verdana" font-size="8"><tspan y="108.0" dy="0.35em">H</tspan></text>
</g>
</g>
</g>
<g id="unlabeled_s1">
<g id="atom_N_51_s1">
<g id="chiral-bond-back" stroke="black" stroke-width="1">
  <line x1="736.1524322795647" y1="204.09729724270167" x2="737.8475677204353" y2="204.70270275729834" />
</g>
<g id="atom_N_51_s1_text">
<text x="735.0" y="210.0" text-anchor="middle" font-family="verdana" font-size="8"><tspan y="210.0" dy="0.35em">N</tspan></text>
<text x="725.0" y="210.0" text-anchor="middle" font-family="verdana" font-size="8"><tspan y="210.0" dy="0.35em">H</tspan></text>
<text x="730.0" y="213.0" text-anchor="middle" font-family="verdana" font-size="6"><tspan y="213.0" dy="0.35em">2</tspan></text>
</g>
</g>
<g id="atom_C_52_s1">
<g id="chiral-bond-back" stroke="black" stroke-width="1">
  <line x1="740.0" y1="196.0" x2="740.0" y2="196.0" />
  <line x1="738.7174774265216" y1="198.69909908090057" x2="739.2825225734784" y2="198.90090091909946" />
  <line x1="737.4349548530431" y1="201.3981981618011" x2="738.5650451469569" y2="201.80180183819888" />
</g>
<line x1="740.0" y1="196.0" x2="747.5" y2="194.5" />
<line x1="740.0" y1="196.0" x2="735.0" y2="190.5" />
</g>
<g id="atom_C_54_s1">
<line x1="755.0" y1="193.0" x2="747.5" y2="194.5" />
<line x1="755.0" y1="193.0" x2="760.0" y2="198.5" />
</g>
<g id="atom_C_64_s1">
<line x1="730.0" y1="185.0" x2="735.0" y2="190.5" />
<line x1="731.080290507214" y1="186.1883195579354" x2="733.3044171684617" y2="177.84784457825646" />
<line x1="728.5241101521161" y1="185.2951779695768" x2="730.6955828315383" y2="177.15215542174354" />
<line x1="730.0" y1="185.0" x2="722.5" y2="186.5" />
</g>
<g id="atom_C_55_s1">
<line x1="765.0" y1="204.0" x2="760.0" y2="198.5" />
<line x1="765.0" y1="204.0" x2="763.0" y2="211.0" />
<line x1="767.1961146586302" y1="206.14174704532292" x2="765.5961146586302" y2="211.7417470453229" />
<line x1="765.0" y1="204.0" x2="772.0" y2="203.0" />
</g>
<g id="atom_C_56_s1">
<line x1="761.0" y1="218.0" x2="763.0" y2="211.0" />
<line x1="763.9961146586302" y1="217.3417470453229" x2="765.5961146586302" y2="211.7417470453229" />
<line x1="761.0" y1="218.0" x2="767.5" y2="222.0" />
</g>
<g id="atom_C_58_s1">
<line x1="779.0" y1="202.0" x2="772.0" y2="203.0" />
<line x1="779.0" y1="202.0" x2="782.5" y2="209.0" />
<line x1="777.2850465843003" y1="204.60747670784988" x2="780.0850465843002" y2="210.20747670784988" />
<line x1="779.0" y1="202.0" x2="783.5" y2="196.0" />
</g>
<g id="atom_N_57_s1">
<line x1="770.75" y1="224.0" x2="767.5" y2="222.0" />
<line x1="777.0" y1="223.5" x2="780.0" y2="221.0" />
<g id="atom_N_57_s1_text">
<text x="774.0" y="226.0" text-anchor="middle" font-family="verdana" font-size="8"><tspan y="226.0" dy="0.35em">N</tspan></text>
<text x="774.0" y="233.0" text-anchor="middle" font-family="verdana" font-size="8"><tspan y="233.0" dy="0.35em">H</tspan></text>
</g>
</g>
<g id="atom_C_59_s1">
<line x1="786.0" y1="216.0" x2="780.0" y2="221.0" />
<line x1="786.0" y1="216.0" x2="782.5" y2="209.0" />
<line x1="782.8850465843002" y1="215.80747670784987" x2="780.0850465843002" y2="210.20747670784988" />
<line x1="786.0" y1="216.0" x2="793.0" y2="216.5" />
</g>
<g id="atom_C_60_s1">
<line x1="800.0" y1="217.0" x2="793.0" y2="216.5" />
<line x1="800.0" y1="217.0" x2="804.5" y2="211.0" />
<line x1="798.74" y1="214.18" x2="802.34" y2="209.38" />
</g>
<g id="atom_C_63_s1">
<line x1="788.0" y1="190.0" x2="783.5" y2="196.0" />
<line x1="788.0" y1="190.0" x2="795.5" y2="191.0" />
<line x1="789.1431579557543" y1="192.8763153318431" x2="795.1431579557543" y2="193.6763153318431" />
</g>
<g id="atom_O_65_s1">
<line x1="734.3044171684617" y1="174.09784457825646" x2="733.3044171684617" y2="177.84784457825646" />
<line x1="731.6955828315383" y1="173.40215542174354" x2="730.6955828315383" y2="177.15215542174354" />
<g id="atom_O_65_s1_text">
<text x="734.0" y="170.0" text-anchor="middle" font-family="verdana" font-size="8"><tspan y="170.0" dy="0.35em">O</tspan></text>
</g>
</g>
<g id="atom_N_66_s1">
<line x1="718.75" y1="187.25" x2="722.5" y2="186.5" />
<line x1="712.5" y1="185.0" x2="710.0" y2="182.0" />
<g id="atom_N_66_s1_text">
<text x="715.0" y="188.0" text-anchor="middle" font-family="verdana" font-size="8"><tspan y="188.0" dy="0.35em">N</tspan></text>
<text x="715.0" y="195.0" text-anchor="middle" font-family="verdana" font-size="8"><tspan y="195.0" dy="0.35em">H</tspan></text>
</g>
</g>
<g id="atom_C_61_s1">
<line x1="809.0" y1="205.0" x2="804.5" y2="211.0" />
<line x1="805.94" y1="204.57999999999998" x2="802.34" y2="209.38" />
<line x1="809.0" y1="205.0" x2="806.0" y2="198.5" />
</g>
<g id="atom_C_62_s1">
<line x1="803.0" y1="192.0" x2="806.0" y2="198.5" />
<line x1="803.0" y1="192.0" x2="795.5" y2="191.0" />
<line x1="801.1431579557543" y1="194.47631533184313" x2="795.1431579557543" y2="193.6763153318431" />
</g>
<g id="atom_C_67_s1">
<line x1="705.0" y1="176.0" x2="710.0" y2="182.0" />
<g id="chiral-bond-back" stroke="black" stroke-width="1">
  <line x1="705.0" y1="176.0" x2="705.0" y2="176.0" />
  <line x1="705.7174774265216" y1="173.09909908090054" x2="706.2825225734784" y2="173.30090091909943" />
  <line x1="706.4349548530431" y1="170.19819816180112" x2="707.5650451469569" y2="170.6018018381989" />
</g>
<line x1="705.0" y1="176.0" x2="697.5" y2="178.0" />
</g>
<g id="atom_C_69_s1">
<g id="chiral-bond-back" stroke="black" stroke-width="1">
  <line x1="708.5873871326078" y1="161.49549540450278" x2="711.4126128673922" y2="162.50450459549722" />
  <line x1="707.8699097060862" y1="164.39639632360223" x2="710.1300902939138" y2="165.2036036763978" />
  <line x1="707.1524322795647" y1="167.29729724270166" x2="708.8475677204353" y2="167.90270275729833" />
</g>
<line x1="710.0" y1="162.0" x2="705.0" y2="156.5" />
</g>
<g id="atom_C_77_s1">
<line x1="690.0" y1="180.0" x2="697.5" y2="178.0" />
<line x1="691.5198167552364" y1="179.59471553193694" x2="689.2980573293152" y2="187.37087352266147" />
<line x1="688.9544523031352" y1="178.74534276376227" x2="686.7019426706848" y2="186.62912647733853" />
<line x1="690.0" y1="180.0" x2="685.0" y2="174.0" />
</g>
<g id="atom_C_70_s1">
<line x1="700.0" y1="151.0" x2="705.0" y2="156.5" />
<line x1="700.0" y1="151.0" x2="702.0" y2="144.0" />
<line x1="697.8038853413698" y1="148.85825295467708" x2="699.4038853413698" y2="143.2582529546771" />
<line x1="700.0" y1="151.0" x2="692.5" y2="152.5" />
</g>
<g id="atom_C_71_s1">
<line x1="704.0" y1="137.0" x2="702.0" y2="144.0" />
<line x1="701.0038853413698" y1="137.6582529546771" x2="699.4038853413698" y2="143.2582529546771" />
<line x1="704.0" y1="137.0" x2="699.0" y2="131.5" />
</g>
<g id="atom_C_76_s1">
<line x1="685.0" y1="154.0" x2="692.5" y2="152.5" />
<line x1="685.0" y1="154.0" x2="680.0" y2="148.5" />
<line x1="685.997838198169" y1="151.08378345620997" x2="681.997838198169" y2="146.68378345620997" />
</g>
<g id="atom_C_72_s1">
<line x1="694.0" y1="126.0" x2="699.0" y2="131.5" />
<line x1="694.0" y1="126.0" x2="687.0" y2="127.5" />
<line x1="693.1657285395734" y1="128.94006651800902" x2="687.5657285395733" y2="130.140066518009" />
</g>
<g id="atom_C_73_s1">
<line x1="680.0" y1="129.0" x2="687.0" y2="127.5" />
<line x1="681.9657285395733" y1="131.340066518009" x2="687.5657285395733" y2="130.140066518009" />
<line x1="680.0" y1="129.0" x2="675.0" y2="123.5" />
<line x1="680.0" y1="129.0" x2="677.5" y2="136.0" />
</g>
<g id="atom_O_74_s1">
<line x1="672.5" y1="120.75" x2="675.0" y2="123.5" />
<g id="atom_O_74_s1_text">
<text x="670.0" y="118.0" text-anchor="middle" font-family="verdana" font-size="8"><tspan y="118.0" dy="0.35em">O</tspan></text>
<text x="664.0" y="118.0" text-anchor="middle" font-family="verdana" font-size="8"><tspan y="118.0" dy="0.35em">H</tspan></text>
</g>
</g>
<g id="atom_C_75_s1">
<line x1="675.0" y1="143.0" x2="677.5" y2="136.0" />
<line x1="675.0" y1="143.0" x2="680.0" y2="148.5" />
<line x1="677.997838198169" y1="142.28378345620996" x2="681.997838198169" y2="146.68378345620997" />
</g>
<g id="atom_O_78_s1">
<line x1="688.2980573293152" y1="190.87087352266147" x2="689.2980573293152" y2="187.37087352266147" />
<line x1="685.7019426706848" y1="190.12912647733853" x2="686.7019426706848" y2="186.62912647733853" />
<g id="atom_O_78_s1_text">
<text x="686.0" y="194.0" text-anchor="middle" font-family="verdana" font-size="8"><tspan y="194.0" dy="0.35em">O</tspan></text>
</g>
</g>
<g id="atom_N_79_s1">
<line x1="682.5" y1="171.0" x2="685.0" y2="174.0" />
<polygon points="676.9120816918461,170.44228592146123 676.0879183081539,167.55771407853877 672.793959154077,169.27885703926938 673.206040845923,170.72114296073062" />
<g id="atom_N_79_s1_text">
<text x="680.0" y="168.0" text-anchor="middle" font-family="verdana" font-size="8"><tspan y="168.0" dy="0.35em">N</tspan></text>
<text x="680.0" y="161.0" text-anchor="middle" font-family="verdana" font-size="8"><tspan y="161.0" dy="0.35em">H</tspan></text>
</g>
</g>
<g id="atom_C_80_s1">
<polygon points="666.0,172.0 673.206040845923,170.72114296073062 672.793959154077,169.27885703926938" />
<line x1="666.0" y1="172.0" x2="663.5" y2="179.0" />
<line x1="666.0" y1="172.0" x2="661.0" y2="166.0" />
</g>
<g id="atom_C_82_s1">
<line x1="661.0" y1="186.0" x2="663.5" y2="179.0" />
<line x1="661.0" y1="186.0" x2="666.0" y2="191.5" />
<g id="chiral-bond-back" stroke="black" stroke-width="1">
  <line x1="661.0" y1="186.0" x2="661.0" y2="186.0" />
  <line x1="657.9411651594586" y1="186.30582579729273" x2="658.0588348405414" y2="186.89417420270726" />
  <line x1="654.8823303189171" y1="186.61165159458542" x2="655.1176696810829" y2="187.78834840541455" />
</g>
</g>
<g id="atom_C_87_s1">
<line x1="656.0" y1="160.0" x2="661.0" y2="166.0" />
<line x1="657.0455476968648" y1="161.25465723623773" x2="659.2980573293152" y2="153.37087352266147" />
<line x1="654.4801832447636" y1="160.40528446806306" x2="656.7019426706848" y2="152.62912647733853" />
<line x1="656.0" y1="160.0" x2="648.5" y2="162.0" />
</g>
<g id="atom_C_84_s1">
<line x1="671.0" y1="197.0" x2="666.0" y2="191.5" />
<line x1="671.0" y1="197.0" x2="668.5" y2="204.0" />
</g>
<g id="atom_C_86_s1">
<g id="chiral-bond-back" stroke="black" stroke-width="1">
  <line x1="645.7058257972927" y1="187.52912898646363" x2="646.2941742027073" y2="190.47087101353637" />
  <line x1="648.7646606378341" y1="187.2233031891709" x2="649.2353393621659" y2="189.5766968108291" />
  <line x1="651.8234954783757" y1="186.91747739187818" x2="652.1765045216243" y2="188.68252260812184" />
</g>
</g>
<g id="atom_O_88_s1">
<line x1="660.2980573293152" y1="149.87087352266147" x2="659.2980573293152" y2="153.37087352266147" />
<line x1="657.7019426706848" y1="149.12912647733853" x2="656.7019426706848" y2="152.62912647733853" />
<g id="atom_O_88_s1_text">
<text x="660.0" y="146.0" text-anchor="middle" font-family="verdana" font-size="8"><tspan y="146.0" dy="0.35em">O</tspan></text>
</g>
</g>
<g id="atom_N_89_s1">
<line x1="644.75" y1="163.0" x2="648.5" y2="162.0" />
<line x1="638.5" y1="161.0" x2="636.0" y2="158.0" />
<g id="atom_N_89_s1_text">
<text x="641.0" y="164.0" text-anchor="middle" font-family="verdana" font-size="8"><tspan y="164.0" dy="0.35em">N</tspan></text>
<text x="641.0" y="171.0" text-anchor="middle" font-family="verdana" font-size="8"><tspan y="171.0" dy="0.35em">H</tspan></text>
</g>
</g>
<g id="atom_C_85_s1">
<line x1="666.0" y1="211.0" x2="668.5" y2="204.0" />
</g>
<g id="atom_C_90_s1">
<line x1="631.0" y1="152.0" x2="636.0" y2="158.0" />
<polygon points="631.0,152.0 623.6932469879202,154.72467620470093 623.3067530120798,153.27532379529907" />
<line x1="631.0" y1="152.0" x2="633.5" y2="145.0" />
</g>
<g id="atom_C_92_s1">
<polygon points="616.3864939758405,157.44935240940188 615.6135060241595,154.55064759059812 623.3067530120798,153.27532379529907 623.6932469879202,154.72467620470093" />
<line x1="616.0" y1="156.0" x2="611.0" y2="150.0" />
</g>
<g id="atom_C_102_s1">
<line x1="636.0" y1="138.0" x2="633.5" y2="145.0" />
<line x1="635.4660481095187" y1="139.49506529334766" x2="643.2828642697867" y2="137.8200332590045" />
<line x1="634.949507693727" y1="136.8444584630997" x2="642.7171357302133" y2="135.1799667409955" />
<line x1="636.0" y1="138.0" x2="631.0" y2="132.5" />
</g>
<g id="atom_C_93_s1">
<line x1="606.0" y1="144.0" x2="611.0" y2="150.0" />
<line x1="606.0" y1="144.0" x2="607.5" y2="137.0" />
<line x1="603.659933481991" y1="142.03427146042662" x2="604.859933481991" y2="136.43427146042663" />
<line x1="606.0" y1="144.0" x2="598.5" y2="145.0" />
</g>
<g id="atom_C_94_s1">
<line x1="609.0" y1="130.0" x2="607.5" y2="137.0" />
<line x1="606.059933481991" y1="130.83427146042663" x2="604.859933481991" y2="136.43427146042663" />
<line x1="609.0" y1="130.0" x2="602.5" y2="126.0" />
</g>
<g id="atom_C_96_s1">
<line x1="591.0" y1="146.0" x2="598.5" y2="145.0" />
<line x1="591.0" y1="146.0" x2="588.0" y2="139.0" />
<line x1="592.8816915810487" y1="143.53641789383624" x2="590.4816915810487" y2="137.93641789383625" />
<line x1="591.0" y1="146.0" x2="587.0" y2="152.0" />
</g>
<g id="atom_N_95_s1">
<line x1="599.25" y1="124.0" x2="602.5" y2="126.0" />
<line x1="593.25" y1="124.5" x2="590.5" y2="127.0" />
<g id="atom_N_95_s1_text">
<text x="596.0" y="122.0" text-anchor="middle" font-family="verdana" font-size="8"><tspan y="122.0" dy="0.35em">N</tspan></text>
<text x="596.0" y="115.0" text-anchor="middle" font-family="verdana" font-size="8"><tspan y="115.0" dy="0.35em">H</tspan></text>
</g>
</g>
<g id="atom_C_97_s1">
<line x1="585.0" y1="132.0" x2="590.5" y2="127.0" />
<line x1="585.0" y1="132.0" x2="588.0" y2="139.0" />
<line x1="588.0816915810487" y1="132.33641789383626" x2="590.4816915810487" y2="137.93641789383625" />
<line x1="585.0" y1="132.0" x2="577.5" y2="131.5" />
</g>
<g id="atom_C_98_s1">
<line x1="570.0" y1="131.0" x2="577.5" y2="131.5" />
<line x1="570.0" y1="131.0" x2="566.0" y2="137.0" />
<line x1="571.4465357947122" y1="133.6976905298081" x2="568.2465357947121" y2="138.49769052980812" />
</g>
<g id="atom_C_101_s1">
<line x1="583.0" y1="158.0" x2="587.0" y2="152.0" />
<line x1="583.0" y1="158.0" x2="575.5" y2="157.0" />
<line x1="581.8568420442457" y1="155.1236846681569" x2="575.8568420442457" y2="154.3236846681569" />
</g>
<g id="atom_O_103_s1">
<line x1="646.7828642697867" y1="137.0700332590045" x2="643.2828642697867" y2="137.8200332590045" />
<line x1="646.2171357302133" y1="134.4299667409955" x2="642.7171357302133" y2="135.1799667409955" />
<g id="atom_O_103_s1_text">
<text x="650.0" y="135.0" text-anchor="middle" font-family="verdana" font-size="8"><tspan y="135.0" dy="0.35em">O</tspan></text>
</g>
</g>
<g id="atom_N_104_s1">
<line x1="628.5" y1="129.75" x2="631.0" y2="132.5" />
<line x1="627.0" y1="123.5" x2="628.0" y2="120.0" />
<g id="atom_N_104_s1_text">
<text x="626.0" y="127.0" text-anchor="middle" font-family="verdana" font-size="8"><tspan y="127.0" dy="0.35em">N</tspan></text>
<text x="620.0" y="127.0" text-anchor="middle" font-family="verdana" font-size="8"><tspan y="127.0" dy="0.35em">H</tspan></text>
</g>
</g>
<g id="atom_C_99_s1">
<line x1="562.0" y1="143.0" x2="566.0" y2="137.0" />
<line x1="565.0465357947121" y1="143.29769052980814" x2="568.2465357947121" y2="138.49769052980812" />
<line x1="562.0" y1="143.0" x2="565.0" y2="149.5" />
</g>
<g id="atom_C_100_s1">
<line x1="568.0" y1="156.0" x2="565.0" y2="149.5" />
<line x1="568.0" y1="156.0" x2="575.5" y2="157.0" />
<line x1="569.8568420442457" y1="153.52368466815687" x2="575.8568420442457" y2="154.3236846681569" />
</g>
<g id="atom_C_105_s1">
<line x1="630.0" y1="113.0" x2="628.0" y2="120.0" />
<line x1="630.0" y1="113.0" x2="625.0" y2="107.5" />
<polygon points="630.0,113.0 637.6470871013537,112.23543550676818 637.3529128986463,110.76456449323182" />
</g>
<g id="atom_C_107_s1">
<line x1="620.0" y1="102.0" x2="625.0" y2="107.5" />
<line x1="620.0" y1="102.0" x2="622.5" y2="94.5" />
</g>
<g id="atom_C_115_s1">
<polygon points="645.2941742027073,111.47087101353638 644.7058257972927,108.52912898646362 637.3529128986463,110.76456449323182 637.6470871013537,112.23543550676818" />
<line x1="646.0412377661531" y1="111.14536154276837" x2="648.7807224523682" y2="102.92690748412274" />
<line x1="643.4753304138474" y1="110.30493391723053" x2="646.2192775476318" y2="102.07309251587726" />
<line x1="645.0" y1="110.0" x2="650.0" y2="115.5" />
</g>
<g id="atom_C_108_s1">
<line x1="625.0" y1="87.0" x2="622.5" y2="94.5" />
<line x1="625.0" y1="87.0" x2="632.0" y2="85.5" />
<line x1="625.8342714604266" y1="84.059933481991" x2="631.4342714604267" y2="82.85993348199099" />
<line x1="625.0" y1="87.0" x2="620.0" y2="81.5" />
</g>
<g id="atom_C_109_s1">
<line x1="639.0" y1="84.0" x2="632.0" y2="85.5" />
<line x1="637.0342714604267" y1="81.65993348199099" x2="631.4342714604267" y2="82.85993348199099" />
<line x1="639.0" y1="84.0" x2="641.5" y2="77.0" />
</g>
<g id="atom_C_114_s1">
<line x1="615.0" y1="76.0" x2="620.0" y2="81.5" />
<line x1="615.0" y1="76.0" x2="617.0" y2="69.0" />
<line x1="617.9961146586302" y1="75.34174704532292" x2="619.5961146586302" y2="69.74174704532291" />
</g>
<g id="atom_C_110_s1">
<line x1="644.0" y1="70.0" x2="641.5" y2="77.0" />
<line x1="644.0" y1="70.0" x2="639.0" y2="64.5" />
<line x1="641.002161801831" y1="70.71621654379005" x2="637.002161801831" y2="66.31621654379005" />
</g>
<g id="atom_C_111_s1">
<line x1="634.0" y1="59.0" x2="639.0" y2="64.5" />
<line x1="633.002161801831" y1="61.91621654379004" x2="637.002161801831" y2="66.31621654379005" />
<line x1="634.0" y1="59.0" x2="636.5" y2="52.0" />
<line x1="634.0" y1="59.0" x2="626.5" y2="60.5" />
</g>
<g id="atom_O_112_s1">
<line x1="637.75" y1="48.5" x2="636.5" y2="52.0" />
<g id="atom_O_112_s1_text">
<text x="639.0" y="45.0" text-anchor="middle" font-family="verdana" font-size="8"><tspan y="45.0" dy="0.35em">O</tspan></text>
<text x="645.0" y="45.0" text-anchor="middle" font-family="verdana" font-size="8"><tspan y="45.0" dy="0.35em">H</tspan></text>
</g>
</g>
<g id="atom_C_113_s1">
<line x1="619.0" y1="62.0" x2="626.5" y2="60.5" />
<line x1="619.0" y1="62.0" x2="617.0" y2="69.0" />
<line x1="621.1961146586302" y1="64.14174704532292" x2="619.5961146586302" y2="69.74174704532291" />
</g>
<g id="atom_O_116_s1">
<line x1="650.0307224523682" y1="99.17690748412274" x2="648.7807224523682" y2="102.92690748412274" />
<line x1="647.4692775476318" y1="98.32309251587726" x2="646.2192775476318" y2="102.07309251587726" />
<g id="atom_O_116_s1_text">
<text x="650.0" y="95.0" text-anchor="middle" font-family="verdana" font-size="8"><tspan y="95.0" dy="0.35em">O</tspan></text>
</g>
</g>
<g id="atom_O_117_s1">
<line x1="652.5" y1="118.25" x2="650.0" y2="115.5" />
<g id="atom_O_117_s1_text">
<text x="655.0" y="121.0" text-anchor="middle" font-family="verdana" font-size="8"><tspan y="121.0" dy="0.35em">O</tspan></text>
<text x="661.0" y="121.0" text-anchor="middle" font-family="verdana" font-size="8"><tspan y="121.0" dy="0.35em">H</tspan></text>
</g>
</g>
</g>
</svg>