<?xml version="1.0" encoding="utf-8" standalone="no"?>
<!DOCTYPE svg PUBLIC "-//W3C//DTD SVG 1.1//EN"
  "http://www.w3.org/Graphics/SVG/1.1/DTD/svg11.dtd">
<svg xmlns:xlink="http://www.w3.org/1999/xlink" width="133.2pt" height="131.76pt" viewBox="0 0 133.2 131.76" xmlns="http://www.w3.org/2000/svg" version="1.1">
 <metadata>
  <rdf:RDF xmlns:dc="http://purl.org/dc/elements/1.1/" xmlns:cc="http://creativecommons.org/ns#" xmlns:rdf="http://www.w3.org/1999/02/22-rdf-syntax-ns#">
   <cc:Work>
    <dc:type rdf:resource="http://purl.org/dc/dcmitype/StillImage"/>
    <dc:date>2022-05-01T18:45:53.670711</dc:date>
    <dc:format>image/svg+xml</dc:format>
    <dc:creator>
     <cc:Agent>
      <dc:title>Matplotlib v3.5.1, https://matplotlib.org/</dc:title>
     </cc:Agent>
    </dc:creator>
   </cc:Work>
  </rdf:RDF>
 </metadata>
 <defs>
  <style type="text/css">*{stroke-linejoin: round; stroke-linecap: butt}</style>
 </defs>
 <g id="figure_1">
  <g id="patch_1">
   <path d="M 0 131.76 
L 133.2 131.76 
L 133.2 0 
L 0 0 
z
" style="fill: #ffffff"/>
  </g>
  <g id="axes_1">
   <g id="line2d_1">
    <path d="M 31.676155 98.45147 
L 34.362605 93.798403 
" clip-path="url(#p38ebb53846)" style="fill: none; stroke: #ffe119; stroke-width: 2; stroke-linecap: square"/>
   </g>
   <g id="line2d_2">
    <path d="M 37.049054 89.145336 
L 34.362605 93.798403 
" clip-path="url(#p38ebb53846)" style="fill: none; stroke: #ffe119; stroke-width: 2; stroke-linecap: square"/>
   </g>
   <g id="line2d_3">
    <path d="M 45.108403 84.492269 
L 50.481302 84.492269 
" clip-path="url(#p38ebb53846)" style="fill: none; stroke: #ffe119; stroke-width: 2; stroke-linecap: square"/>
   </g>
   <g id="line2d_4">
    <path d="M 61.227101 84.492269 
L 50.481302 84.492269 
" clip-path="url(#p38ebb53846)" style="fill: none; stroke: #ffe119; stroke-width: 2; stroke-linecap: square"/>
   </g>
   <g id="line2d_5">
    <path d="M 61.227101 84.492269 
L 66.6 75.186134 
" clip-path="url(#p38ebb53846)" style="fill: none; stroke: #ffe119; stroke-width: 2; stroke-linecap: square"/>
   </g>
   <g id="line2d_6">
    <path d="M 71.972899 65.88 
L 66.6 75.186134 
" clip-path="url(#p38ebb53846)" style="fill: none; stroke: #ffe119; stroke-width: 2; stroke-linecap: square"/>
   </g>
   <g id="line2d_7">
    <path d="M 71.972899 65.88 
L 82.718698 65.88 
" clip-path="url(#p38ebb53846)" style="fill: none; stroke: #ffe119; stroke-width: 2; stroke-linecap: square"/>
   </g>
   <g id="line2d_8">
    <path d="M 93.464496 65.88 
L 82.718698 65.88 
" clip-path="url(#p38ebb53846)" style="fill: none; stroke: #ffe119; stroke-width: 2; stroke-linecap: square"/>
   </g>
   <g id="line2d_9">
    <path d="M 74.122059 62.011513 
L 82.718698 62.011513 
" clip-path="url(#p38ebb53846)" style="fill: none; stroke: #ffe119; stroke-width: 2; stroke-linecap: square"/>
   </g>
   <g id="line2d_10">
    <path d="M 91.315336 62.011513 
L 82.718698 62.011513 
" clip-path="url(#p38ebb53846)" style="fill: none; stroke: #ffe119; stroke-width: 2; stroke-linecap: square"/>
   </g>
   <g id="line2d_11">
    <path d="M 93.464496 65.88 
L 98.837395 56.573866 
" clip-path="url(#p38ebb53846)" style="fill: none; stroke: #ffe119; stroke-width: 2; stroke-linecap: square"/>
   </g>
   <g id="line2d_12">
    <path d="M 104.210294 47.267731 
L 98.837395 56.573866 
" clip-path="url(#p38ebb53846)" style="fill: none; stroke: #ffe119; stroke-width: 2; stroke-linecap: square"/>
   </g>
   <g id="line2d_13">
    <path d="M 93.464496 28.655462 
L 98.837395 37.961597 
" clip-path="url(#p38ebb53846)" style="fill: none; stroke: #ffe119; stroke-width: 2; stroke-linecap: square"/>
   </g>
   <g id="line2d_14">
    <path d="M 104.210294 47.267731 
L 98.837395 37.961597 
" clip-path="url(#p38ebb53846)" style="fill: none; stroke: #ffe119; stroke-width: 2; stroke-linecap: square"/>
   </g>
   <g id="line2d_15">
    <path d="M 91.188867 32.450933 
L 95.487187 39.895841 
" clip-path="url(#p38ebb53846)" style="fill: none; stroke: #ffe119; stroke-width: 2; stroke-linecap: square"/>
   </g>
   <g id="line2d_16">
    <path d="M 99.785506 47.340748 
L 95.487187 39.895841 
" clip-path="url(#p38ebb53846)" style="fill: none; stroke: #ffe119; stroke-width: 2; stroke-linecap: square"/>
   </g>
   <g id="line2d_17">
    <path d="M 71.972899 28.655462 
L 82.718698 28.655462 
" clip-path="url(#p38ebb53846)" style="fill: none; stroke: #ffe119; stroke-width: 2; stroke-linecap: square"/>
   </g>
   <g id="line2d_18">
    <path d="M 93.464496 28.655462 
L 82.718698 28.655462 
" clip-path="url(#p38ebb53846)" style="fill: none; stroke: #ffe119; stroke-width: 2; stroke-linecap: square"/>
   </g>
   <g id="line2d_19">
    <path d="M 61.227101 47.267731 
L 66.6 37.961597 
" clip-path="url(#p38ebb53846)" style="fill: none; stroke: #ffe119; stroke-width: 2; stroke-linecap: square"/>
   </g>
   <g id="line2d_20">
    <path d="M 71.972899 28.655462 
L 66.6 37.961597 
" clip-path="url(#p38ebb53846)" style="fill: none; stroke: #ffe119; stroke-width: 2; stroke-linecap: square"/>
   </g>
   <g id="line2d_21">
    <path d="M 65.651889 47.340748 
L 69.950208 39.895841 
" clip-path="url(#p38ebb53846)" style="fill: none; stroke: #ffe119; stroke-width: 2; stroke-linecap: square"/>
   </g>
   <g id="line2d_22">
    <path d="M 74.248528 32.450933 
L 69.950208 39.895841 
" clip-path="url(#p38ebb53846)" style="fill: none; stroke: #ffe119; stroke-width: 2; stroke-linecap: square"/>
   </g>
   <g id="line2d_23">
    <path d="M 61.227101 47.267731 
L 66.6 56.573866 
" clip-path="url(#p38ebb53846)" style="fill: none; stroke: #ffe119; stroke-width: 2; stroke-linecap: square"/>
   </g>
   <g id="line2d_24">
    <path d="M 71.972899 65.88 
L 66.6 56.573866 
" clip-path="url(#p38ebb53846)" style="fill: none; stroke: #ffe119; stroke-width: 2; stroke-linecap: square"/>
   </g>
   <g id="line2d_25">
    <path d="M 62.343837 82.558025 
L 68.275104 92.831281 
" clip-path="url(#p38ebb53846)" style="fill: none; stroke: #ffe119; stroke-width: 2; stroke-linecap: square"/>
   </g>
   <g id="line2d_26">
    <path d="M 70.961554 97.484349 
L 68.275104 92.831281 
" clip-path="url(#p38ebb53846)" style="fill: none; stroke: #ffe119; stroke-width: 2; stroke-linecap: square"/>
   </g>
   <g id="line2d_27">
    <path d="M 58.993629 84.492269 
L 64.924896 94.765525 
" clip-path="url(#p38ebb53846)" style="fill: none; stroke: #ffe119; stroke-width: 2; stroke-linecap: square"/>
   </g>
   <g id="line2d_28">
    <path d="M 67.611345 99.418592 
L 64.924896 94.765525 
" clip-path="url(#p38ebb53846)" style="fill: none; stroke: #ffe119; stroke-width: 2; stroke-linecap: square"/>
   </g>
   <g id="text_1">
    <!-- CoA -->
    <g style="fill: #ffe119" transform="translate(19.018612 105.863913)scale(0.1 -0.1)">
     <defs>
      <path id="DejaVuSans-43" d="M 4122 4306 
L 4122 3641 
Q 3803 3938 3442 4084 
Q 3081 4231 2675 4231 
Q 1875 4231 1450 3742 
Q 1025 3253 1025 2328 
Q 1025 1406 1450 917 
Q 1875 428 2675 428 
Q 3081 428 3442 575 
Q 3803 722 4122 1019 
L 4122 359 
Q 3791 134 3420 21 
Q 3050 -91 2638 -91 
Q 1578 -91 968 557 
Q 359 1206 359 2328 
Q 359 3453 968 4101 
Q 1578 4750 2638 4750 
Q 3056 4750 3426 4639 
Q 3797 4528 4122 4306 
z
" transform="scale(0.015625)"/>
      <path id="DejaVuSans-6f" d="M 1959 3097 
Q 1497 3097 1228 2736 
Q 959 2375 959 1747 
Q 959 1119 1226 758 
Q 1494 397 1959 397 
Q 2419 397 2687 759 
Q 2956 1122 2956 1747 
Q 2956 2369 2687 2733 
Q 2419 3097 1959 3097 
z
M 1959 3584 
Q 2709 3584 3137 3096 
Q 3566 2609 3566 1747 
Q 3566 888 3137 398 
Q 2709 -91 1959 -91 
Q 1206 -91 779 398 
Q 353 888 353 1747 
Q 353 2609 779 3096 
Q 1206 3584 1959 3584 
z
" transform="scale(0.015625)"/>
      <path id="DejaVuSans-41" d="M 2188 4044 
L 1331 1722 
L 3047 1722 
L 2188 4044 
z
M 1831 4666 
L 2547 4666 
L 4325 0 
L 3669 0 
L 3244 1197 
L 1141 1197 
L 716 0 
L 50 0 
L 1831 4666 
z
" transform="scale(0.015625)"/>
     </defs>
     <use xlink:href="#DejaVuSans-43"/>
     <use xlink:href="#DejaVuSans-6f" x="69.824219"/>
     <use xlink:href="#DejaVuSans-41" x="131.005859"/>
    </g>
   </g>
   <g id="text_2">
    <!-- S -->
    <g style="fill: #ffe119" transform="translate(36.561285 87.251644)scale(0.1 -0.1)">
     <defs>
      <path id="DejaVuSans-53" d="M 3425 4513 
L 3425 3897 
Q 3066 4069 2747 4153 
Q 2428 4238 2131 4238 
Q 1616 4238 1336 4038 
Q 1056 3838 1056 3469 
Q 1056 3159 1242 3001 
Q 1428 2844 1947 2747 
L 2328 2669 
Q 3034 2534 3370 2195 
Q 3706 1856 3706 1288 
Q 3706 609 3251 259 
Q 2797 -91 1919 -91 
Q 1588 -91 1214 -16 
Q 841 59 441 206 
L 441 856 
Q 825 641 1194 531 
Q 1563 422 1919 422 
Q 2459 422 2753 634 
Q 3047 847 3047 1241 
Q 3047 1584 2836 1778 
Q 2625 1972 2144 2069 
L 1759 2144 
Q 1053 2284 737 2584 
Q 422 2884 422 3419 
Q 422 4038 858 4394 
Q 1294 4750 2059 4750 
Q 2388 4750 2728 4690 
Q 3069 4631 3425 4513 
z
" transform="scale(0.015625)"/>
     </defs>
     <use xlink:href="#DejaVuSans-53"/>
    </g>
   </g>
   <g id="text_3">
    <!-- O -->
    <g style="fill: #ffe119" transform="translate(68.036962 105.863913)scale(0.1 -0.1)">
     <defs>
      <path id="DejaVuSans-4f" d="M 2522 4238 
Q 1834 4238 1429 3725 
Q 1025 3213 1025 2328 
Q 1025 1447 1429 934 
Q 1834 422 2522 422 
Q 3209 422 3611 934 
Q 4013 1447 4013 2328 
Q 4013 3213 3611 3725 
Q 3209 4238 2522 4238 
z
M 2522 4750 
Q 3503 4750 4090 4092 
Q 4678 3434 4678 2328 
Q 4678 1225 4090 567 
Q 3503 -91 2522 -91 
Q 1538 -91 948 565 
Q 359 1222 359 2328 
Q 359 3434 948 4092 
Q 1538 4750 2522 4750 
z
" transform="scale(0.015625)"/>
     </defs>
     <use xlink:href="#DejaVuSans-4f"/>
    </g>
   </g>
  </g>
 </g>
 <defs>
  <clipPath id="p38ebb53846">
   <rect x="0.334243" y="0" width="132.531514" height="131.76"/>
  </clipPath>
 </defs>
</svg>
