<?xml version="1.0" encoding="utf-8" standalone="no"?>
<!DOCTYPE svg PUBLIC "-//W3C//DTD SVG 1.1//EN"
  "http://www.w3.org/Graphics/SVG/1.1/DTD/svg11.dtd">
<svg xmlns:xlink="http://www.w3.org/1999/xlink" width="157.68pt" height="128.88pt" viewBox="0 0 157.68 128.88" xmlns="http://www.w3.org/2000/svg" version="1.1">
 <metadata>
  <rdf:RDF xmlns:dc="http://purl.org/dc/elements/1.1/" xmlns:cc="http://creativecommons.org/ns#" xmlns:rdf="http://www.w3.org/1999/02/22-rdf-syntax-ns#">
   <cc:Work>
    <dc:type rdf:resource="http://purl.org/dc/dcmitype/StillImage"/>
    <dc:date>2022-05-01T18:45:54.038588</dc:date>
    <dc:format>image/svg+xml</dc:format>
    <dc:creator>
     <cc:Agent>
      <dc:title>Matplotlib v3.5.1, https://matplotlib.org/</dc:title>
     </cc:Agent>
    </dc:creator>
   </cc:Work>
  </rdf:RDF>
 </metadata>
 <defs>
  <style type="text/css">*{stroke-linejoin: round; stroke-linecap: butt}</style>
 </defs>
 <g id="figure_1">
  <g id="patch_1">
   <path d="M 0 128.88 
L 157.68 128.88 
L 157.68 0 
L 0 0 
z
" style="fill: #ffffff"/>
  </g>
  <g id="axes_1">
   <g id="patch_2">
    <path d="M 93.354408 60.578469 
L 101.363846 67.86379 
L 99.762605 69.305554 
z
" clip-path="url(#p3f346ce5bd)" style="fill: #f032e6; stroke: #f032e6; stroke-linejoin: miter"/>
   </g>
   <g id="patch_3">
    <path d="M 109.373284 75.149112 
L 106.170802 78.032639 
L 99.762605 69.305554 
L 101.363846 67.86379 
z
" clip-path="url(#p3f346ce5bd)" style="fill: #f032e6; stroke: #f032e6; stroke-linejoin: miter"/>
   </g>
   <g id="line2d_1">
    <path d="M 31.52534 95.485886 
L 34.218693 90.820863 
" clip-path="url(#p3f346ce5bd)" style="fill: none; stroke: #f032e6; stroke-width: 2; stroke-linecap: square"/>
   </g>
   <g id="line2d_2">
    <path d="M 36.912045 86.15584 
L 34.218693 90.820863 
" clip-path="url(#p3f346ce5bd)" style="fill: none; stroke: #f032e6; stroke-width: 2; stroke-linecap: square"/>
   </g>
   <g id="line2d_3">
    <path d="M 44.992102 81.490817 
L 50.378807 81.490817 
" clip-path="url(#p3f346ce5bd)" style="fill: none; stroke: #f032e6; stroke-width: 2; stroke-linecap: square"/>
   </g>
   <g id="line2d_4">
    <path d="M 61.152216 81.490817 
L 50.378807 81.490817 
" clip-path="url(#p3f346ce5bd)" style="fill: none; stroke: #f032e6; stroke-width: 2; stroke-linecap: square"/>
   </g>
   <g id="line2d_5">
    <path d="M 59.286207 80.413476 
L 63.018225 82.568158 
" clip-path="url(#p3f346ce5bd)" style="fill: none; stroke: #f032e6; stroke-width: 2; stroke-linecap: square"/>
   </g>
   <g id="line2d_6">
    <path d="M 61.81409 76.896926 
L 64.799705 78.620671 
" clip-path="url(#p3f346ce5bd)" style="fill: none; stroke: #f032e6; stroke-width: 2; stroke-linecap: square"/>
   </g>
   <g id="line2d_7">
    <path d="M 64.341974 73.380375 
L 66.581185 74.673185 
" clip-path="url(#p3f346ce5bd)" style="fill: none; stroke: #f032e6; stroke-width: 2; stroke-linecap: square"/>
   </g>
   <g id="line2d_8">
    <path d="M 71.925625 62.830725 
L 71.925625 62.830725 
" clip-path="url(#p3f346ce5bd)" style="fill: none; stroke: #f032e6; stroke-width: 2; stroke-linecap: square"/>
   </g>
   <g id="line2d_9">
    <path d="M 69.397741 66.347275 
L 70.144145 66.778211 
" clip-path="url(#p3f346ce5bd)" style="fill: none; stroke: #f032e6; stroke-width: 2; stroke-linecap: square"/>
   </g>
   <g id="line2d_10">
    <path d="M 66.869858 69.863825 
L 68.362665 70.725698 
" clip-path="url(#p3f346ce5bd)" style="fill: none; stroke: #f032e6; stroke-width: 2; stroke-linecap: square"/>
   </g>
   <g id="line2d_11">
    <path d="M 71.925625 62.830725 
L 82.640016 61.704597 
" clip-path="url(#p3f346ce5bd)" style="fill: none; stroke: #f032e6; stroke-width: 2; stroke-linecap: square"/>
   </g>
   <g id="line2d_12">
    <path d="M 93.354408 60.578469 
L 82.640016 61.704597 
" clip-path="url(#p3f346ce5bd)" style="fill: none; stroke: #f032e6; stroke-width: 2; stroke-linecap: square"/>
   </g>
   <g id="line2d_13">
    <path d="M 93.354408 60.578469 
L 95.594325 50.040485 
" clip-path="url(#p3f346ce5bd)" style="fill: none; stroke: #f032e6; stroke-width: 2; stroke-linecap: square"/>
   </g>
   <g id="line2d_14">
    <path d="M 97.834243 39.5025 
L 95.594325 50.040485 
" clip-path="url(#p3f346ce5bd)" style="fill: none; stroke: #f032e6; stroke-width: 2; stroke-linecap: square"/>
   </g>
   <g id="line2d_15">
    <path d="M 79.174151 28.729091 
L 88.504197 34.115796 
" clip-path="url(#p3f346ce5bd)" style="fill: none; stroke: #f032e6; stroke-width: 2; stroke-linecap: square"/>
   </g>
   <g id="line2d_16">
    <path d="M 97.834243 39.5025 
L 88.504197 34.115796 
" clip-path="url(#p3f346ce5bd)" style="fill: none; stroke: #f032e6; stroke-width: 2; stroke-linecap: square"/>
   </g>
   <g id="line2d_17">
    <path d="M 63.161744 43.146727 
L 71.167948 35.937909 
" clip-path="url(#p3f346ce5bd)" style="fill: none; stroke: #f032e6; stroke-width: 2; stroke-linecap: square"/>
   </g>
   <g id="line2d_18">
    <path d="M 79.174151 28.729091 
L 71.167948 35.937909 
" clip-path="url(#p3f346ce5bd)" style="fill: none; stroke: #f032e6; stroke-width: 2; stroke-linecap: square"/>
   </g>
   <g id="line2d_19">
    <path d="M 63.161744 43.146727 
L 67.543685 52.988726 
" clip-path="url(#p3f346ce5bd)" style="fill: none; stroke: #f032e6; stroke-width: 2; stroke-linecap: square"/>
   </g>
   <g id="line2d_20">
    <path d="M 71.925625 62.830725 
L 67.543685 52.988726 
" clip-path="url(#p3f346ce5bd)" style="fill: none; stroke: #f032e6; stroke-width: 2; stroke-linecap: square"/>
   </g>
   <g id="line2d_21">
    <path d="M 104.622595 92.559307 
L 106.287178 87.436246 
" clip-path="url(#p3f346ce5bd)" style="fill: none; stroke: #f032e6; stroke-width: 2; stroke-linecap: square"/>
   </g>
   <g id="line2d_22">
    <path d="M 109.962322 76.125317 
L 106.287178 87.436246 
" clip-path="url(#p3f346ce5bd)" style="fill: none; stroke: #f032e6; stroke-width: 2; stroke-linecap: square"/>
   </g>
   <g id="line2d_23">
    <path d="M 100.933992 91.360807 
L 102.598575 86.237747 
" clip-path="url(#p3f346ce5bd)" style="fill: none; stroke: #f032e6; stroke-width: 2; stroke-linecap: square"/>
   </g>
   <g id="line2d_24">
    <path d="M 106.273718 74.926817 
L 102.598575 86.237747 
" clip-path="url(#p3f346ce5bd)" style="fill: none; stroke: #f032e6; stroke-width: 2; stroke-linecap: square"/>
   </g>
   <g id="line2d_25">
    <path d="M 107.772043 76.590876 
L 118.310027 74.350958 
" clip-path="url(#p3f346ce5bd)" style="fill: none; stroke: #f032e6; stroke-width: 2; stroke-linecap: square"/>
   </g>
   <g id="line2d_26">
    <path d="M 123.57902 73.230999 
L 118.310027 74.350958 
" clip-path="url(#p3f346ce5bd)" style="fill: none; stroke: #f032e6; stroke-width: 2; stroke-linecap: square"/>
   </g>
   <g id="line2d_27">
    <path d="M 62.271821 79.551603 
L 68.218329 89.851256 
" clip-path="url(#p3f346ce5bd)" style="fill: none; stroke: #f032e6; stroke-width: 2; stroke-linecap: square"/>
   </g>
   <g id="line2d_28">
    <path d="M 70.911681 94.516279 
L 68.218329 89.851256 
" clip-path="url(#p3f346ce5bd)" style="fill: none; stroke: #f032e6; stroke-width: 2; stroke-linecap: square"/>
   </g>
   <g id="line2d_29">
    <path d="M 58.913005 81.490817 
L 64.859512 91.79047 
" clip-path="url(#p3f346ce5bd)" style="fill: none; stroke: #f032e6; stroke-width: 2; stroke-linecap: square"/>
   </g>
   <g id="line2d_30">
    <path d="M 67.552864 96.455493 
L 64.859512 91.79047 
" clip-path="url(#p3f346ce5bd)" style="fill: none; stroke: #f032e6; stroke-width: 2; stroke-linecap: square"/>
   </g>
   <g id="text_1">
    <!-- CoA -->
    <g style="fill: #f032e6" transform="translate(18.860894 102.910284)scale(0.1 -0.1)">
     <defs>
      <path id="DejaVuSans-43" d="M 4122 4306 
L 4122 3641 
Q 3803 3938 3442 4084 
Q 3081 4231 2675 4231 
Q 1875 4231 1450 3742 
Q 1025 3253 1025 2328 
Q 1025 1406 1450 917 
Q 1875 428 2675 428 
Q 3081 428 3442 575 
Q 3803 722 4122 1019 
L 4122 359 
Q 3791 134 3420 21 
Q 3050 -91 2638 -91 
Q 1578 -91 968 557 
Q 359 1206 359 2328 
Q 359 3453 968 4101 
Q 1578 4750 2638 4750 
Q 3056 4750 3426 4639 
Q 3797 4528 4122 4306 
z
" transform="scale(0.015625)"/>
      <path id="DejaVuSans-6f" d="M 1959 3097 
Q 1497 3097 1228 2736 
Q 959 2375 959 1747 
Q 959 1119 1226 758 
Q 1494 397 1959 397 
Q 2419 397 2687 759 
Q 2956 1122 2956 1747 
Q 2956 2369 2687 2733 
Q 2419 3097 1959 3097 
z
M 1959 3584 
Q 2709 3584 3137 3096 
Q 3566 2609 3566 1747 
Q 3566 888 3137 398 
Q 2709 -91 1959 -91 
Q 1206 -91 779 398 
Q 353 888 353 1747 
Q 353 2609 779 3096 
Q 1206 3584 1959 3584 
z
" transform="scale(0.015625)"/>
      <path id="DejaVuSans-41" d="M 2188 4044 
L 1331 1722 
L 3047 1722 
L 2188 4044 
z
M 1831 4666 
L 2547 4666 
L 4325 0 
L 3669 0 
L 3244 1197 
L 1141 1197 
L 716 0 
L 50 0 
L 1831 4666 
z
" transform="scale(0.015625)"/>
     </defs>
     <use xlink:href="#DejaVuSans-43"/>
     <use xlink:href="#DejaVuSans-6f" x="69.824219"/>
     <use xlink:href="#DejaVuSans-41" x="131.005859"/>
    </g>
   </g>
   <g id="text_2">
    <!-- S -->
    <g style="fill: #f032e6" transform="translate(36.431179 84.250192)scale(0.1 -0.1)">
     <defs>
      <path id="DejaVuSans-53" d="M 3425 4513 
L 3425 3897 
Q 3066 4069 2747 4153 
Q 2428 4238 2131 4238 
Q 1616 4238 1336 4038 
Q 1056 3838 1056 3469 
Q 1056 3159 1242 3001 
Q 1428 2844 1947 2747 
L 2328 2669 
Q 3034 2534 3370 2195 
Q 3706 1856 3706 1288 
Q 3706 609 3251 259 
Q 2797 -91 1919 -91 
Q 1588 -91 1214 -16 
Q 841 59 441 206 
L 441 856 
Q 825 641 1194 531 
Q 1563 422 1919 422 
Q 2459 422 2753 634 
Q 3047 847 3047 1241 
Q 3047 1584 2836 1778 
Q 2625 1972 2144 2069 
L 1759 2144 
Q 1053 2284 737 2584 
Q 422 2884 422 3419 
Q 422 4038 858 4394 
Q 1294 4750 2059 4750 
Q 2388 4750 2728 4690 
Q 3069 4631 3425 4513 
z
" transform="scale(0.015625)"/>
     </defs>
     <use xlink:href="#DejaVuSans-53"/>
    </g>
   </g>
   <g id="text_3">
    <!-- O -->
    <g style="fill: #f032e6" transform="translate(97.177773 99.842493)scale(0.1 -0.1)">
     <defs>
      <path id="DejaVuSans-4f" d="M 2522 4238 
Q 1834 4238 1429 3725 
Q 1025 3213 1025 2328 
Q 1025 1447 1429 934 
Q 1834 422 2522 422 
Q 3209 422 3611 934 
Q 4013 1447 4013 2328 
Q 4013 3213 3611 3725 
Q 3209 4238 2522 4238 
z
M 2522 4750 
Q 3503 4750 4090 4092 
Q 4678 3434 4678 2328 
Q 4678 1225 4090 567 
Q 3503 -91 2522 -91 
Q 1538 -91 948 565 
Q 359 1222 359 2328 
Q 359 3434 948 4092 
Q 1538 4750 2522 4750 
z
" transform="scale(0.015625)"/>
     </defs>
     <use xlink:href="#DejaVuSans-4f"/>
    </g>
   </g>
   <g id="text_4">
    <!-- OH -->
    <g style="fill: #f032e6" transform="translate(124.538648 74.870415)scale(0.1 -0.1)">
     <defs>
      <path id="DejaVuSans-48" d="M 628 4666 
L 1259 4666 
L 1259 2753 
L 3553 2753 
L 3553 4666 
L 4184 4666 
L 4184 0 
L 3553 0 
L 3553 2222 
L 1259 2222 
L 1259 0 
L 628 0 
L 628 4666 
z
" transform="scale(0.015625)"/>
     </defs>
     <use xlink:href="#DejaVuSans-4f"/>
     <use xlink:href="#DejaVuSans-48" x="78.710938"/>
    </g>
   </g>
   <g id="text_5">
    <!-- O -->
    <g style="fill: #f032e6" transform="translate(67.989687 102.910284)scale(0.1 -0.1)">
     <use xlink:href="#DejaVuSans-4f"/>
    </g>
   </g>
  </g>
 </g>
 <defs>
  <clipPath id="p3f346ce5bd">
   <rect x="0.102897" y="0" width="157.474206" height="128.88"/>
  </clipPath>
 </defs>
</svg>
