<?xml version="1.0" encoding="utf-8" standalone="no"?>
<!DOCTYPE svg PUBLIC "-//W3C//DTD SVG 1.1//EN"
  "http://www.w3.org/Graphics/SVG/1.1/DTD/svg11.dtd">
<svg xmlns:xlink="http://www.w3.org/1999/xlink" width="144pt" height="300.779933pt" viewBox="0 0 144 300.779933" xmlns="http://www.w3.org/2000/svg" version="1.1">
 <metadata>
  <rdf:RDF xmlns:dc="http://purl.org/dc/elements/1.1/" xmlns:cc="http://creativecommons.org/ns#" xmlns:rdf="http://www.w3.org/1999/02/22-rdf-syntax-ns#">
   <cc:Work>
    <dc:type rdf:resource="http://purl.org/dc/dcmitype/StillImage"/>
    <dc:date>2022-05-03T10:54:17.426838</dc:date>
    <dc:format>image/svg+xml</dc:format>
    <dc:creator>
     <cc:Agent>
      <dc:title>Matplotlib v3.5.1, https://matplotlib.org/</dc:title>
     </cc:Agent>
    </dc:creator>
   </cc:Work>
  </rdf:RDF>
 </metadata>
 <defs>
  <style type="text/css">*{stroke-linejoin: round; stroke-linecap: butt}</style>
 </defs>
 <g id="figure_1">
  <g id="patch_1">
   <path d="M 0 300.779933 
L 144 300.779933 
L 144 0 
L 0 0 
z
" style="fill: #ffffff"/>
  </g>
  <g id="axes_1">
   <g id="patch_2">
    <path d="M 82.8 253.273785 
L 89.135307 262.086859 
L 87.264693 263.166859 
z
" clip-path="url(#pc06eb25e64)" style="stroke: #000000; stroke-linejoin: miter"/>
   </g>
   <g id="patch_3">
    <path d="M 95.470615 270.899933 
L 91.729385 273.059933 
L 87.264693 263.166859 
L 89.135307 262.086859 
z
" clip-path="url(#pc06eb25e64)" style="stroke: #000000; stroke-linejoin: miter"/>
   </g>
   <g id="patch_4">
    <path d="M 52.270615 196.075338 
L 48.529385 198.235338 
L 54.864693 207.048413 
L 56.735307 205.968413 
z
" clip-path="url(#pc06eb25e64)" style="stroke: #000000; stroke-linejoin: miter"/>
   </g>
   <g id="patch_5">
    <path d="M 61.2 215.861487 
L 56.735307 205.968413 
L 54.864693 207.048413 
z
" clip-path="url(#pc06eb25e64)" style="stroke: #000000; stroke-linejoin: miter"/>
   </g>
   <g id="patch_6">
    <path d="M 82.8 215.861487 
L 89.135307 207.048413 
L 87.264693 205.968413 
z
" clip-path="url(#pc06eb25e64)" style="stroke: #000000; stroke-linejoin: miter"/>
   </g>
   <g id="patch_7">
    <path d="M 95.470615 198.235338 
L 91.729385 196.075338 
L 87.264693 205.968413 
L 89.135307 207.048413 
z
" clip-path="url(#pc06eb25e64)" style="stroke: #000000; stroke-linejoin: miter"/>
   </g>
   <g id="patch_8">
    <path d="M 28.8 157.583041 
L 28.8 161.903041 
L 39.6 160.823041 
L 39.6 158.663041 
z
" clip-path="url(#pc06eb25e64)" style="stroke: #000000; stroke-linejoin: miter"/>
   </g>
   <g id="patch_9">
    <path d="M 50.4 159.743041 
L 39.6 158.663041 
L 39.6 160.823041 
z
" clip-path="url(#pc06eb25e64)" style="stroke: #000000; stroke-linejoin: miter"/>
   </g>
   <g id="patch_10">
    <path d="M 28.8 82.758446 
L 28.8 87.078446 
L 39.6 85.998446 
L 39.6 83.838446 
z
" clip-path="url(#pc06eb25e64)" style="stroke: #000000; stroke-linejoin: miter"/>
   </g>
   <g id="patch_11">
    <path d="M 50.4 84.918446 
L 39.6 83.838446 
L 39.6 85.998446 
z
" clip-path="url(#pc06eb25e64)" style="stroke: #000000; stroke-linejoin: miter"/>
   </g>
   <g id="patch_12">
    <path d="M 61.2 66.212297 
L 72 67.292297 
L 72 65.132297 
z
" clip-path="url(#pc06eb25e64)" style="stroke: #000000; stroke-linejoin: miter"/>
   </g>
   <g id="patch_13">
    <path d="M 77.4 68.372297 
L 77.4 64.052297 
L 72 65.132297 
L 72 67.292297 
z
" clip-path="url(#pc06eb25e64)" style="stroke: #000000; stroke-linejoin: miter"/>
   </g>
   <g id="line2d_1">
    <path d="M 55.323553 267.340089 
L 57.483553 263.598859 
" clip-path="url(#pc06eb25e64)" style="fill: none; stroke: #000000; stroke-width: 2; stroke-linecap: square"/>
   </g>
   <g id="line2d_2">
    <path d="M 63.444738 253.273785 
L 57.483553 263.598859 
" clip-path="url(#pc06eb25e64)" style="fill: none; stroke: #000000; stroke-width: 2; stroke-linecap: square"/>
   </g>
   <g id="line2d_3">
    <path d="M 51.956447 265.396089 
L 54.116447 261.654859 
" clip-path="url(#pc06eb25e64)" style="fill: none; stroke: #000000; stroke-width: 2; stroke-linecap: square"/>
   </g>
   <g id="line2d_4">
    <path d="M 60.077631 251.329785 
L 54.116447 261.654859 
" clip-path="url(#pc06eb25e64)" style="fill: none; stroke: #000000; stroke-width: 2; stroke-linecap: square"/>
   </g>
   <g id="line2d_5">
    <path d="M 61.2 253.273785 
L 72 253.273785 
" clip-path="url(#pc06eb25e64)" style="fill: none; stroke: #000000; stroke-width: 2; stroke-linecap: square"/>
   </g>
   <g id="line2d_6">
    <path d="M 82.8 253.273785 
L 72 253.273785 
" clip-path="url(#pc06eb25e64)" style="fill: none; stroke: #000000; stroke-width: 2; stroke-linecap: square"/>
   </g>
   <g id="line2d_7">
    <path d="M 53.1 239.244173 
L 55.8 243.92071 
" clip-path="url(#pc06eb25e64)" style="fill: none; stroke: #000000; stroke-width: 2; stroke-linecap: square"/>
   </g>
   <g id="line2d_8">
    <path d="M 61.2 253.273785 
L 55.8 243.92071 
" clip-path="url(#pc06eb25e64)" style="fill: none; stroke: #000000; stroke-width: 2; stroke-linecap: square"/>
   </g>
   <g id="line2d_9">
    <path d="M 82.8 253.273785 
L 88.2 243.92071 
" clip-path="url(#pc06eb25e64)" style="fill: none; stroke: #000000; stroke-width: 2; stroke-linecap: square"/>
   </g>
   <g id="line2d_10">
    <path d="M 93.6 234.567636 
L 88.2 243.92071 
" clip-path="url(#pc06eb25e64)" style="fill: none; stroke: #000000; stroke-width: 2; stroke-linecap: square"/>
   </g>
   <g id="line2d_11">
    <path d="M 53.1 229.891099 
L 55.8 225.214562 
" clip-path="url(#pc06eb25e64)" style="fill: none; stroke: #000000; stroke-width: 2; stroke-linecap: square"/>
   </g>
   <g id="line2d_12">
    <path d="M 61.2 215.861487 
L 55.8 225.214562 
" clip-path="url(#pc06eb25e64)" style="fill: none; stroke: #000000; stroke-width: 2; stroke-linecap: square"/>
   </g>
   <g id="line2d_13">
    <path d="M 61.2 215.861487 
L 72 215.861487 
" clip-path="url(#pc06eb25e64)" style="fill: none; stroke: #000000; stroke-width: 2; stroke-linecap: square"/>
   </g>
   <g id="line2d_14">
    <path d="M 82.8 215.861487 
L 72 215.861487 
" clip-path="url(#pc06eb25e64)" style="fill: none; stroke: #000000; stroke-width: 2; stroke-linecap: square"/>
   </g>
   <g id="line2d_15">
    <path d="M 50.4 197.155338 
L 55.8 187.802264 
" clip-path="url(#pc06eb25e64)" style="fill: none; stroke: #000000; stroke-width: 2; stroke-linecap: square"/>
   </g>
   <g id="line2d_16">
    <path d="M 61.2 178.44919 
L 55.8 187.802264 
" clip-path="url(#pc06eb25e64)" style="fill: none; stroke: #000000; stroke-width: 2; stroke-linecap: square"/>
   </g>
   <g id="line2d_17">
    <path d="M 28.8 197.155338 
L 39.6 197.155338 
" clip-path="url(#pc06eb25e64)" style="fill: none; stroke: #000000; stroke-width: 2; stroke-linecap: square"/>
   </g>
   <g id="line2d_18">
    <path d="M 50.4 197.155338 
L 39.6 197.155338 
" clip-path="url(#pc06eb25e64)" style="fill: none; stroke: #000000; stroke-width: 2; stroke-linecap: square"/>
   </g>
   <g id="line2d_19">
    <path d="M 93.6 234.567636 
L 93.6 234.567636 
" clip-path="url(#pc06eb25e64)" style="fill: none; stroke: #000000; stroke-width: 2; stroke-linecap: square"/>
   </g>
   <g id="line2d_20">
    <path d="M 97.92 234.999636 
L 97.92 234.135636 
" clip-path="url(#pc06eb25e64)" style="fill: none; stroke: #000000; stroke-width: 2; stroke-linecap: square"/>
   </g>
   <g id="line2d_21">
    <path d="M 102.24 235.431636 
L 102.24 233.703636 
" clip-path="url(#pc06eb25e64)" style="fill: none; stroke: #000000; stroke-width: 2; stroke-linecap: square"/>
   </g>
   <g id="line2d_22">
    <path d="M 106.56 235.863636 
L 106.56 233.271636 
" clip-path="url(#pc06eb25e64)" style="fill: none; stroke: #000000; stroke-width: 2; stroke-linecap: square"/>
   </g>
   <g id="line2d_23">
    <path d="M 82.8 215.861487 
L 88.2 225.214562 
" clip-path="url(#pc06eb25e64)" style="fill: none; stroke: #000000; stroke-width: 2; stroke-linecap: square"/>
   </g>
   <g id="line2d_24">
    <path d="M 93.6 234.567636 
L 88.2 225.214562 
" clip-path="url(#pc06eb25e64)" style="fill: none; stroke: #000000; stroke-width: 2; stroke-linecap: square"/>
   </g>
   <g id="line2d_25">
    <path d="M 50.4 159.743041 
L 55.8 169.096115 
" clip-path="url(#pc06eb25e64)" style="fill: none; stroke: #000000; stroke-width: 2; stroke-linecap: square"/>
   </g>
   <g id="line2d_26">
    <path d="M 61.2 178.44919 
L 55.8 169.096115 
" clip-path="url(#pc06eb25e64)" style="fill: none; stroke: #000000; stroke-width: 2; stroke-linecap: square"/>
   </g>
   <g id="line2d_27">
    <path d="M 50.4 159.743041 
L 55.8 150.389967 
" clip-path="url(#pc06eb25e64)" style="fill: none; stroke: #000000; stroke-width: 2; stroke-linecap: square"/>
   </g>
   <g id="line2d_28">
    <path d="M 61.2 141.036892 
L 55.8 150.389967 
" clip-path="url(#pc06eb25e64)" style="fill: none; stroke: #000000; stroke-width: 2; stroke-linecap: square"/>
   </g>
   <g id="line2d_29">
    <path d="M 50.4 122.330744 
L 55.8 131.683818 
" clip-path="url(#pc06eb25e64)" style="fill: none; stroke: #000000; stroke-width: 2; stroke-linecap: square"/>
   </g>
   <g id="line2d_30">
    <path d="M 61.2 141.036892 
L 55.8 131.683818 
" clip-path="url(#pc06eb25e64)" style="fill: none; stroke: #000000; stroke-width: 2; stroke-linecap: square"/>
   </g>
   <g id="line2d_31">
    <path d="M 60.077631 139.092892 
L 72 139.092892 
" clip-path="url(#pc06eb25e64)" style="fill: none; stroke: #000000; stroke-width: 2; stroke-linecap: square"/>
   </g>
   <g id="line2d_32">
    <path d="M 76.32 139.092892 
L 72 139.092892 
" clip-path="url(#pc06eb25e64)" style="fill: none; stroke: #000000; stroke-width: 2; stroke-linecap: square"/>
   </g>
   <g id="line2d_33">
    <path d="M 60.077631 142.980892 
L 72 142.980892 
" clip-path="url(#pc06eb25e64)" style="fill: none; stroke: #000000; stroke-width: 2; stroke-linecap: square"/>
   </g>
   <g id="line2d_34">
    <path d="M 76.32 142.980892 
L 72 142.980892 
" clip-path="url(#pc06eb25e64)" style="fill: none; stroke: #000000; stroke-width: 2; stroke-linecap: square"/>
   </g>
   <g id="line2d_35">
    <path d="M 50.4 122.330744 
L 55.8 112.977669 
" clip-path="url(#pc06eb25e64)" style="fill: none; stroke: #000000; stroke-width: 2; stroke-linecap: square"/>
   </g>
   <g id="line2d_36">
    <path d="M 61.2 103.624595 
L 55.8 112.977669 
" clip-path="url(#pc06eb25e64)" style="fill: none; stroke: #000000; stroke-width: 2; stroke-linecap: square"/>
   </g>
   <g id="line2d_37">
    <path d="M 28.8 124.490744 
L 28.8 120.170744 
" clip-path="url(#pc06eb25e64)" style="fill: none; stroke: #000000; stroke-width: 2; stroke-linecap: square"/>
   </g>
   <g id="line2d_38">
    <path d="M 33.12 124.058744 
L 33.12 120.602744 
" clip-path="url(#pc06eb25e64)" style="fill: none; stroke: #000000; stroke-width: 2; stroke-linecap: square"/>
   </g>
   <g id="line2d_39">
    <path d="M 37.44 123.626744 
L 37.44 121.034744 
" clip-path="url(#pc06eb25e64)" style="fill: none; stroke: #000000; stroke-width: 2; stroke-linecap: square"/>
   </g>
   <g id="line2d_40">
    <path d="M 50.4 122.330744 
L 50.4 122.330744 
" clip-path="url(#pc06eb25e64)" style="fill: none; stroke: #000000; stroke-width: 2; stroke-linecap: square"/>
   </g>
   <g id="line2d_41">
    <path d="M 46.08 121.898744 
L 46.08 122.762744 
" clip-path="url(#pc06eb25e64)" style="fill: none; stroke: #000000; stroke-width: 2; stroke-linecap: square"/>
   </g>
   <g id="line2d_42">
    <path d="M 41.76 123.194744 
L 41.76 121.466744 
" clip-path="url(#pc06eb25e64)" style="fill: none; stroke: #000000; stroke-width: 2; stroke-linecap: square"/>
   </g>
   <g id="line2d_43">
    <path d="M 50.4 84.918446 
L 55.8 94.271521 
" clip-path="url(#pc06eb25e64)" style="fill: none; stroke: #000000; stroke-width: 2; stroke-linecap: square"/>
   </g>
   <g id="line2d_44">
    <path d="M 61.2 103.624595 
L 55.8 94.271521 
" clip-path="url(#pc06eb25e64)" style="fill: none; stroke: #000000; stroke-width: 2; stroke-linecap: square"/>
   </g>
   <g id="line2d_45">
    <path d="M 61.2 103.624595 
L 61.2 103.624595 
" clip-path="url(#pc06eb25e64)" style="fill: none; stroke: #000000; stroke-width: 2; stroke-linecap: square"/>
   </g>
   <g id="line2d_46">
    <path d="M 65.52 104.056595 
L 65.52 103.192595 
" clip-path="url(#pc06eb25e64)" style="fill: none; stroke: #000000; stroke-width: 2; stroke-linecap: square"/>
   </g>
   <g id="line2d_47">
    <path d="M 69.84 104.488595 
L 69.84 102.760595 
" clip-path="url(#pc06eb25e64)" style="fill: none; stroke: #000000; stroke-width: 2; stroke-linecap: square"/>
   </g>
   <g id="line2d_48">
    <path d="M 74.16 104.920595 
L 74.16 102.328595 
" clip-path="url(#pc06eb25e64)" style="fill: none; stroke: #000000; stroke-width: 2; stroke-linecap: square"/>
   </g>
   <g id="line2d_49">
    <path d="M 50.4 84.918446 
L 55.8 75.565372 
" clip-path="url(#pc06eb25e64)" style="fill: none; stroke: #000000; stroke-width: 2; stroke-linecap: square"/>
   </g>
   <g id="line2d_50">
    <path d="M 61.2 66.212297 
L 55.8 75.565372 
" clip-path="url(#pc06eb25e64)" style="fill: none; stroke: #000000; stroke-width: 2; stroke-linecap: square"/>
   </g>
   <g id="line2d_51">
    <path d="M 50.4 47.506149 
L 55.8 56.859223 
" clip-path="url(#pc06eb25e64)" style="fill: none; stroke: #000000; stroke-width: 2; stroke-linecap: square"/>
   </g>
   <g id="line2d_52">
    <path d="M 61.2 66.212297 
L 55.8 56.859223 
" clip-path="url(#pc06eb25e64)" style="fill: none; stroke: #000000; stroke-width: 2; stroke-linecap: square"/>
   </g>
   <g id="line2d_53">
    <path d="M 50.4 47.506149 
L 55.8 38.153074 
" clip-path="url(#pc06eb25e64)" style="fill: none; stroke: #000000; stroke-width: 2; stroke-linecap: square"/>
   </g>
   <g id="line2d_54">
    <path d="M 61.2 28.8 
L 55.8 38.153074 
" clip-path="url(#pc06eb25e64)" style="fill: none; stroke: #000000; stroke-width: 2; stroke-linecap: square"/>
   </g>
   <g id="text_1">
    <!-- O -->
    <g transform="translate(46.464062 274.739308)scale(0.1 -0.1)">
     <defs>
      <path id="DejaVuSans-4f" d="M 2522 4238 
Q 1834 4238 1429 3725 
Q 1025 3213 1025 2328 
Q 1025 1447 1429 934 
Q 1834 422 2522 422 
Q 3209 422 3611 934 
Q 4013 1447 4013 2328 
Q 4013 3213 3611 3725 
Q 3209 4238 2522 4238 
z
M 2522 4750 
Q 3503 4750 4090 4092 
Q 4678 3434 4678 2328 
Q 4678 1225 4090 567 
Q 3503 -91 2522 -91 
Q 1538 -91 948 565 
Q 359 1222 359 2328 
Q 359 3434 948 4092 
Q 1538 4750 2522 4750 
z
" transform="scale(0.015625)"/>
     </defs>
     <use xlink:href="#DejaVuSans-4f"/>
    </g>
   </g>
   <g id="text_2">
    <!-- O -->
    <g transform="translate(46.464062 237.327011)scale(0.1 -0.1)">
     <use xlink:href="#DejaVuSans-4f"/>
    </g>
   </g>
   <g id="text_3">
    <!-- OH -->
    <g transform="translate(110.88 237.327011)scale(0.1 -0.1)">
     <defs>
      <path id="DejaVuSans-48" d="M 628 4666 
L 1259 4666 
L 1259 2753 
L 3553 2753 
L 3553 4666 
L 4184 4666 
L 4184 0 
L 3553 0 
L 3553 2222 
L 1259 2222 
L 1259 0 
L 628 0 
L 628 4666 
z
" transform="scale(0.015625)"/>
     </defs>
     <use xlink:href="#DejaVuSans-4f"/>
     <use xlink:href="#DejaVuSans-48" x="78.710938"/>
    </g>
   </g>
   <g id="text_4">
    <!-- O -->
    <g transform="translate(78.864063 143.796267)scale(0.1 -0.1)">
     <use xlink:href="#DejaVuSans-4f"/>
    </g>
   </g>
   <g id="text_5">
    <!-- OH -->
    <g transform="translate(78.48 106.38397)scale(0.1 -0.1)">
     <use xlink:href="#DejaVuSans-4f"/>
     <use xlink:href="#DejaVuSans-48" x="78.710938"/>
    </g>
   </g>
   <g id="text_6">
    <!-- OH -->
    <g transform="translate(78.48 68.971672)scale(0.1 -0.1)">
     <use xlink:href="#DejaVuSans-4f"/>
     <use xlink:href="#DejaVuSans-48" x="78.710938"/>
    </g>
   </g>
  </g>
 </g>
 <defs>
  <clipPath id="pc06eb25e64">
   <rect x="0" y="0" width="144" height="300.779933"/>
  </clipPath>
 </defs>
</svg>
