<svg width="289" height="252" viewBox="4 1 293 253" xmlns="http://www.w3.org/2000/svg"><style> line {stroke: black; stroke_width: 1px;} polygon {fill: black;} </style><g id="unlabeled">
<g id="atom_C_5">
<polygon points="139.59087894786876,170.6212824549729 138.40912105213124,173.3787175450271 145.70456052606562,175.68935877251354 146.29543947393438,174.31064122748646" />
<line x1="140.254330344238" y1="172.53757014753057" x2="136.14973872755112" y2="179.20753152464684" />
<line x1="137.98351833090257" y1="171.07592575536594" x2="133.85026127244888" y2="177.79246847535316" />
<line x1="139.0" y1="172.0" x2="133.5" y2="167.0" />
</g>
<g id="atom_C_6">
<polygon points="153.0,178.0 146.29543947393438,174.31064122748646 145.70456052606562,175.68935877251354" />
<line x1="153.0" y1="178.0" x2="150.0" y2="185.0" />
<line x1="153.0" y1="178.0" x2="160.5" y2="178.5" />
</g>
<g id="atom_O_13">
<line x1="134.14973872755112" y1="182.45753152464684" x2="136.14973872755112" y2="179.20753152464684" />
<line x1="131.85026127244888" y1="181.04246847535316" x2="133.85026127244888" y2="177.79246847535316" />
<g id="atom_O_13_text">
<text x="131" y="185" text-anchor="middle" font-family="verdana" font-size="8"><tspan y="185" dy="0.35em">O</tspan></text>
</g>
</g>
<g id="atom_O_120">
<line x1="130.75" y1="164.5" x2="133.5" y2="167.0" />
<line x1="126.25" y1="158.75" x2="124.5" y2="155.5" />
<g id="atom_O_120_text">
<text x="128" y="162" text-anchor="middle" font-family="verdana" font-size="8"><tspan y="162" dy="0.35em">O</tspan></text>
</g>
</g>
<g id="atom_C_7">
<line x1="147.0" y1="192.0" x2="150.0" y2="185.0" />
<line x1="147.0" y1="192.0" x2="152.5" y2="197.0" />
</g>
<g id="atom_N_15">
<line x1="164.25" y1="178.75" x2="160.5" y2="178.5" />
<line x1="168.75" y1="182.75" x2="169.5" y2="186.5" />
<line x1="171.5" y1="178.25" x2="175.0" y2="177.5" />
<g id="atom_N_15_text">
<text x="168" y="179" text-anchor="middle" font-family="verdana" font-size="8"><tspan y="179" dy="0.35em">N</tspan></text>
</g>
</g>
<g id="atom_C_8">
<line x1="158.0" y1="202.0" x2="152.5" y2="197.0" />
<polygon points="158.0,202.0 158.24833886839247,209.54988925789283 156.75166113160753,209.45011074210717" />
<line x1="158.0" y1="202.0" x2="164.5" y2="198.0" />
</g>
<g id="atom_C_9">
<polygon points="158.4966777367849,217.09977851578566 155.5033222632151,216.90022148421434 156.75166113160753,209.45011074210717 158.24833886839247,209.54988925789283" />
<line x1="157.0" y1="217.0" x2="150.5" y2="220.0" />
<line x1="154.56854292085328" y1="215.14850966184878" x2="149.3685429208533" y2="217.54850966184878" />
</g>
<g id="atom_C_16">
<line x1="171.0" y1="194.0" x2="164.5" y2="198.0" />
<line x1="171.0" y1="194.0" x2="169.5" y2="186.5" />
</g>
<g id="atom_C_10">
<line x1="144.0" y1="223.0" x2="150.5" y2="220.0" />
<line x1="144.1685429208533" y1="219.9485096618488" x2="149.3685429208533" y2="217.54850966184878" />
<line x1="144.0" y1="223.0" x2="137.5" y2="219.0" />
</g>
<g id="atom_C_11">
<line x1="131.0" y1="215.0" x2="137.5" y2="219.0" />
</g>
<g id="atom_C_107">
<line x1="121.0" y1="149.0" x2="124.5" y2="155.5" />
<line x1="121.0" y1="149.0" x2="119.5" y2="141.5" />
<g id="chiral-bond-back" stroke="black" stroke-width="1">
  <line x1="121.0" y1="149.0" x2="121.0" y2="149.0" />
  <line x1="118.09909908090056" y1="149.71747742652155" x2="118.30090091909945" y2="150.28252257347845" />
  <line x1="115.19819816180112" y1="150.4349548530431" x2="115.6018018381989" y2="151.5650451469569" />
</g>
</g>
<g id="atom_C_106">
<line x1="118.0" y1="134.0" x2="119.5" y2="141.5" />
<line x1="118.0" y1="134.0" x2="119.5" y2="126.5" />
<polygon points="118.0,134.0 111.85557486727626,129.83964667505836 111.14442513272374,131.16035332494164" />
</g>
<g id="atom_C_108">
<g id="chiral-bond-back" stroke="black" stroke-width="1">
  <line x1="106.49549540450276" y1="152.58738713260774" x2="107.50450459549724" y2="155.41261286739226" />
  <line x1="109.3963963236022" y1="151.8699097060862" x2="110.20360367639779" y2="154.1300902939138" />
  <line x1="112.29729724270166" y1="151.15243227956464" x2="112.90270275729833" y2="152.84756772043536" />
</g>
</g>
<g id="atom_C_24">
<line x1="182.0" y1="176.0" x2="175.0" y2="177.5" />
<g id="chiral-bond-back" stroke="black" stroke-width="1">
  <line x1="181.2138538615035" y1="174.72251252494317" x2="182.7861461384965" y2="177.27748747505683" />
  <line x1="183.97108308920278" y1="173.37801001995456" x2="185.2289169107972" y2="175.42198998004545" />
  <line x1="186.72831231690208" y1="172.03350751496592" x2="187.6716876830979" y2="173.5664924850341" />
</g>
<line x1="183.1579620260853" y1="175.28740798394753" x2="186.22574516907562" y2="181.93427146042663" />
<line x1="180.64696590952036" y1="176.28993587653133" x2="183.77425483092438" y2="183.06572853957337" />
</g>
<g id="atom_C_105">
<line x1="121.0" y1="119.0" x2="119.5" y2="126.5" />
<line x1="121.0" y1="119.0" x2="124.5" y2="112.5" />
<line x1="121.6472602739726" y1="117.79794520547945" x2="115.81" y2="113.42" />
<line x1="120.3527397260274" y1="120.20205479452055" x2="114.19" y2="115.58" />
</g>
<g id="atom_N_117">
<polygon points="108.96114973455252,127.42929335011674 107.53885026544748,130.07070664988325 111.14442513272374,131.16035332494164 111.85557486727626,129.83964667505836" />
<line x1="102.0" y1="128.75" x2="99.0" y2="130.5" />
<g id="atom_N_117_text">
<text x="105" y="127" text-anchor="middle" font-family="verdana" font-size="8"><tspan y="127" dy="0.35em">N</tspan></text>
<text x="105.0" y="120.0" text-anchor="middle" font-family="verdana" font-size="8"><tspan y="120.0" dy="0.35em">H</tspan></text>
</g>
</g>
<g id="atom_C_25">
<g id="chiral-bond-back" stroke="black" stroke-width="1">
  <line x1="195.0" y1="168.0" x2="195.0" y2="168.0" />
  <line x1="192.2427707723007" y1="169.34450250498864" x2="192.5572292276993" y2="169.85549749501135" />
  <line x1="189.4855415446014" y1="170.68900500997725" x2="190.11445845539862" y2="171.71099499002273" />
</g>
<line x1="195.0" y1="168.0" x2="190.0" y2="162.5" />
<line x1="195.0" y1="168.0" x2="199.5" y2="162.0" />
</g>
<g id="atom_O_32">
<line x1="187.72574516907562" y1="185.18427146042663" x2="186.22574516907562" y2="181.93427146042663" />
<line x1="185.27425483092438" y1="186.31572853957337" x2="183.77425483092438" y2="183.06572853957337" />
<g id="atom_O_32_text">
<text x="188" y="189" text-anchor="middle" font-family="verdana" font-size="8"><tspan y="189" dy="0.35em">O</tspan></text>
</g>
</g>
<g id="atom_C_26">
<line x1="185.0" y1="157.0" x2="190.0" y2="162.5" />
<line x1="185.0" y1="157.0" x2="187.0" y2="149.5" />
<polygon points="185.0,157.0 177.64708710135363,159.2354355067682 177.35291289864637,157.7645644932318" />
</g>
<g id="atom_N_34">
<line x1="201.75" y1="159.0" x2="199.5" y2="162.0" />
<line x1="205.25" y1="152.5" x2="206.5" y2="149.0" />
<g id="atom_N_34_text">
<text x="204" y="156" text-anchor="middle" font-family="verdana" font-size="8"><tspan y="156" dy="0.35em">N</tspan></text>
<text x="210.0" y="156.0" text-anchor="middle" font-family="verdana" font-size="8"><tspan y="156.0" dy="0.35em">H</tspan></text>
</g>
</g>
<g id="atom_C_27">
<line x1="189.0" y1="142.0" x2="187.0" y2="149.5" />
<line x1="189.0" y1="142.0" x2="183.5" y2="136.5" />
</g>
<g id="atom_C_37">
<polygon points="170.29417420270727,161.47087101353637 169.70582579729273,158.52912898646363 177.35291289864637,157.7645644932318 177.64708710135363,159.2354355067682" />
</g>
<g id="atom_C_28">
<line x1="178.0" y1="131.0" x2="183.5" y2="136.5" />
</g>
<g id="atom_N_94">
<line x1="126.25" y1="109.25" x2="124.5" y2="112.5" />
<line x1="130.75" y1="103.5" x2="133.5" y2="101.0" />
<g id="atom_N_94_text">
<text x="128" y="106" text-anchor="middle" font-family="verdana" font-size="8"><tspan y="106" dy="0.35em">N</tspan></text>
<text x="122.0" y="106.0" text-anchor="middle" font-family="verdana" font-size="8"><tspan y="106.0" dy="0.35em">H</tspan></text>
</g>
</g>
<g id="atom_O_115">
<line x1="112.81" y1="111.17" x2="115.81" y2="113.42" />
<line x1="111.19" y1="113.33" x2="114.19" y2="115.58" />
<g id="atom_O_115_text">
<text x="109" y="110" text-anchor="middle" font-family="verdana" font-size="8"><tspan y="110" dy="0.35em">O</tspan></text>
</g>
</g>
<g id="atom_C_124">
<line x1="93.0" y1="134.0" x2="99.0" y2="130.5" />
<line x1="93.0" y1="134.0" x2="86.0" y2="130.5" />
<line x1="94.35" y1="133.2125" x2="94.35" y2="141.5" />
<line x1="91.65" y1="133.325" x2="91.65" y2="141.5" />
</g>
<g id="atom_C_43">
<line x1="209.0" y1="142.0" x2="206.5" y2="149.0" />
<polygon points="210.5,142.0 207.5,142.0 208.25,134.5 209.75,134.5" />
<line x1="209.0" y1="140.63805286446208" x2="216.67842102212288" y2="141.66184233407844" />
<line x1="208.53569984015752" y1="143.30004044755893" x2="216.32157897787712" y2="144.33815766592156" />
</g>
<g id="atom_C_87">
<line x1="139.0" y1="96.0" x2="133.5" y2="101.0" />
<polygon points="139.0,96.0 146.29543947393438,93.68935877251354 145.70456052606562,92.31064122748646" />
<line x1="139.0" y1="96.0" x2="132.5" y2="92.5" />
</g>
<g id="atom_C_86">
<polygon points="153.59087894786876,91.37871754502709 152.40912105213124,88.62128245497291 145.70456052606562,92.31064122748646 146.29543947393438,93.68935877251354" />
<line x1="153.0" y1="90.0" x2="160.5" y2="89.5" />
<line x1="154.372770906547" y1="89.90848193956354" x2="152.30441716846167" y2="82.15215542174356" />
<line x1="151.74612435145593" y1="90.53737527794746" x2="149.69558283153833" y2="82.84784457825644" />
</g>
<g id="atom_C_88">
<line x1="126.0" y1="89.0" x2="132.5" y2="92.5" />
<g id="chiral-bond-back" stroke="black" stroke-width="1">
  <line x1="126.0" y1="89.0" x2="126.0" y2="89.0" />
  <line x1="123.22923700635091" y1="90.55334234250687" x2="123.5707629936491" y2="91.04665765749313" />
  <line x1="120.45847401270181" y1="92.10668468501373" x2="121.14152598729818" y2="93.09331531498626" />
</g>
<line x1="126.0" y1="89.0" x2="125.5" y2="81.5" />
</g>
<g id="atom_C_89">
<g id="chiral-bond-back" stroke="black" stroke-width="1">
  <line x1="112.14618503175454" y1="96.76671171253433" x2="113.85381496824546" y2="99.23328828746567" />
  <line x1="114.91694802540363" y1="95.21336937002746" x2="116.28305197459636" y2="97.18663062997254" />
  <line x1="117.68771101905273" y1="93.6600270275206" x2="118.71228898094728" y2="95.13997297247941" />
</g>
</g>
<g id="atom_C_97">
<line x1="125.0" y1="74.0" x2="125.5" y2="81.5" />
<line x1="125.0" y1="74.0" x2="131.0" y2="70.0" />
<line x1="124.70230947019188" y1="70.95346420528783" x2="129.50230947019188" y2="67.75346420528783" />
<line x1="125.0" y1="74.0" x2="118.0" y2="71.0" />
</g>
<g id="atom_C_125">
<line x1="79.0" y1="127.0" x2="86.0" y2="130.5" />
<line x1="79.0" y1="127.0" x2="73.0" y2="131.0" />
<g id="chiral-bond-back" stroke="black" stroke-width="1">
  <line x1="79.0" y1="127.0" x2="79.0" y2="127.0" />
  <line x1="78.7" y1="124.0" x2="79.3" y2="124.0" />
  <line x1="78.4" y1="121.0" x2="79.6" y2="121.0" />
</g>
</g>
<g id="atom_O_131">
<line x1="94.35" y1="145.25" x2="94.35" y2="141.5" />
<line x1="91.65" y1="145.25" x2="91.65" y2="141.5" />
<g id="atom_O_131_text">
<text x="93" y="149" text-anchor="middle" font-family="verdana" font-size="8"><tspan y="149" dy="0.35em">O</tspan></text>
</g>
</g>
<g id="atom_C_126">
<line x1="67.0" y1="135.0" x2="73.0" y2="131.0" />
<g id="chiral-bond-back" stroke="black" stroke-width="1">
  <line x1="65.5" y1="135.0" x2="68.5" y2="135.0" />
  <line x1="65.8" y1="138.0" x2="68.2" y2="138.0" />
  <line x1="66.1" y1="141.0" x2="67.9" y2="141.0" />
</g>
</g>
<g id="atom_N_133">
<g id="chiral-bond-back" stroke="black" stroke-width="1">
  <line x1="78.1" y1="118.0" x2="79.9" y2="118.0" />
</g>
<line x1="75.75" y1="110.25" x2="72.5" y2="108.5" />
<g id="atom_N_133_text">
<text x="79" y="112" text-anchor="middle" font-family="verdana" font-size="8"><tspan y="112" dy="0.35em">N</tspan></text>
<text x="85.0" y="112.0" text-anchor="middle" font-family="verdana" font-size="8"><tspan y="112.0" dy="0.35em">H</tspan></text>
</g>
</g>
<g id="atom_C_127">
<g id="chiral-bond-back" stroke="black" stroke-width="1">
  <line x1="67.0" y1="150.0" x2="67.0" y2="150.0" />
  <line x1="66.7" y1="147.0" x2="67.3" y2="147.0" />
  <line x1="66.4" y1="144.0" x2="67.6" y2="144.0" />
</g>
<line x1="67.0" y1="150.0" x2="71.0" y2="156.5" />
<line x1="67.0" y1="150.0" x2="63.5" y2="156.5" />
</g>
<g id="atom_C_128">
<line x1="75.0" y1="163.0" x2="71.0" y2="156.5" />
<line x1="75.0" y1="163.0" x2="67.5" y2="163.0" />
</g>
<g id="atom_C_129">
<line x1="60.0" y1="163.0" x2="63.5" y2="156.5" />
<line x1="60.0" y1="163.0" x2="67.5" y2="163.0" />
<polygon points="60.0,163.0 53.89307306924825,167.63874373752842 53.10692693075175,166.36125626247158" />
</g>
<g id="atom_N+_140">
<polygon points="51.036146138496505,170.27748747505683 49.463853861503495,167.72251252494317 53.10692693075175,166.36125626247158 53.89307306924825,167.63874373752842" />
<line x1="44.74773000155278" y1="168.02884495054482" x2="41.20753152464685" y2="165.85026127244888" />
<line x1="43.39623423767657" y1="170.36744073513478" x2="39.79246847535315" y2="168.14973872755112" />
<line x1="47.0" y1="174.75" x2="47.0" y2="178.5" />
<g id="atom_N+_140_text">
<text x="47" y="171" text-anchor="middle" font-family="verdana" font-size="8"><tspan y="171" dy="0.35em">N</tspan></text>
<text x="53.0" y="168.0" text-anchor="middle" font-family="verdana" font-size="6"><tspan y="168.0" dy="0.35em">+</tspan></text>
</g>
</g>
<g id="atom_C_44">
<polygon points="209.0,127.0 209.75,134.5 208.25,134.5" />
<line x1="209.0" y1="127.0" x2="214.5" y2="122.0" />
<line x1="209.0" y1="127.0" x2="206.5" y2="119.5" />
</g>
<g id="atom_O_50">
<line x1="220.42842102212288" y1="142.16184233407844" x2="216.67842102212288" y2="141.66184233407844" />
<line x1="220.07157897787712" y1="144.83815766592156" x2="216.32157897787712" y2="144.33815766592156" />
<g id="atom_O_50_text">
<text x="224" y="144" text-anchor="middle" font-family="verdana" font-size="8"><tspan y="144" dy="0.35em">O</tspan></text>
</g>
</g>
<g id="atom_C_45">
<line x1="220.0" y1="117.0" x2="214.5" y2="122.0" />
<g id="chiral-bond-back" stroke="black" stroke-width="1">
  <line x1="220.0" y1="117.0" x2="220.0" y2="117.0" />
  <line x1="219.3026316297952" y1="114.0396491160273" x2="219.8973683702048" y2="113.9603508839727" />
  <line x1="218.6052632595904" y1="111.07929823205461" x2="219.79473674040958" y2="110.92070176794539" />
</g>
<line x1="220.0" y1="117.0" x2="227.5" y2="119.5" />
</g>
<g id="atom_N_52">
<line x1="205.25" y1="115.75" x2="206.5" y2="119.5" />
<line x1="201.75" y1="109.0" x2="199.5" y2="106.0" />
<g id="atom_N_52_text">
<text x="204" y="112" text-anchor="middle" font-family="verdana" font-size="8"><tspan y="112" dy="0.35em">N</tspan></text>
<text x="210.0" y="112.0" text-anchor="middle" font-family="verdana" font-size="8"><tspan y="112.0" dy="0.35em">H</tspan></text>
</g>
</g>
<g id="atom_C_46">
<g id="chiral-bond-back" stroke="black" stroke-width="1">
  <line x1="216.51315814897606" y1="102.19824558013653" x2="219.48684185102394" y2="101.80175441986347" />
  <line x1="217.21052651918083" y1="105.15859646410922" x2="219.58947348081918" y2="104.84140353589078" />
  <line x1="217.90789488938563" y1="108.11894734808192" x2="219.6921051106144" y2="107.88105265191808" />
</g>
</g>
<g id="atom_C_55">
<line x1="235.0" y1="122.0" x2="227.5" y2="119.5" />
<line x1="235.0" y1="122.0" x2="236.0" y2="129.5" />
<line x1="237.8763153318431" y1="123.14315795575425" x2="238.6763153318431" y2="129.14315795575425" />
<line x1="235.0" y1="122.0" x2="240.5" y2="117.0" />
</g>
<g id="atom_N_77">
<line x1="164.25" y1="89.25" x2="160.5" y2="89.5" />
<line x1="171.5" y1="89.75" x2="175.0" y2="90.5" />
<g id="atom_N_77_text">
<text x="168" y="89" text-anchor="middle" font-family="verdana" font-size="8"><tspan y="89" dy="0.35em">N</tspan></text>
<text x="168.0" y="82.0" text-anchor="middle" font-family="verdana" font-size="8"><tspan y="82.0" dy="0.35em">H</tspan></text>
</g>
</g>
<g id="atom_O_92">
<line x1="151.30441716846167" y1="78.40215542174356" x2="152.30441716846167" y2="82.15215542174356" />
<line x1="148.69558283153833" y1="79.09784457825644" x2="149.69558283153833" y2="82.84784457825644" />
<g id="atom_O_92_text">
<text x="149" y="75" text-anchor="middle" font-family="verdana" font-size="8"><tspan y="75" dy="0.35em">O</tspan></text>
</g>
</g>
<g id="atom_C_98">
<line x1="137.0" y1="66.0" x2="131.0" y2="70.0" />
<line x1="134.3023094701919" y1="64.55346420528782" x2="129.50230947019188" y2="67.75346420528783" />
<line x1="137.0" y1="66.0" x2="136.5" y2="58.5" />
</g>
<g id="atom_C_102">
<line x1="111.0" y1="68.0" x2="118.0" y2="71.0" />
<line x1="111.0" y1="68.0" x2="110.5" y2="60.5" />
<line x1="113.59401992621285" y1="66.3203986715858" x2="113.19401992621285" y2="60.32039867158581" />
</g>
<g id="atom_C_99">
<line x1="136.0" y1="51.0" x2="136.5" y2="58.5" />
<line x1="136.0" y1="51.0" x2="129.0" y2="47.5" />
<line x1="133.39252329215012" y1="52.71495341569977" x2="127.79252329215012" y2="49.91495341569977" />
</g>
<g id="atom_C_100">
<line x1="122.0" y1="44.0" x2="129.0" y2="47.5" />
<line x1="122.19252329215011" y1="47.11495341569977" x2="127.79252329215012" y2="49.91495341569977" />
<line x1="122.0" y1="44.0" x2="116.0" y2="48.5" />
</g>
<g id="atom_C_101">
<line x1="110.0" y1="53.0" x2="116.0" y2="48.5" />
<line x1="110.0" y1="53.0" x2="110.5" y2="60.5" />
<line x1="112.79401992621284" y1="54.320398671585814" x2="113.19401992621285" y2="60.32039867158581" />
</g>
<g id="atom_C_142">
<line x1="66.0" y1="105.0" x2="72.5" y2="108.5" />
<line x1="66.0" y1="105.0" x2="66.0" y2="97.5" />
<line x1="67.37379037702263" y1="105.73973327993527" x2="60.20753152464685" y2="110.14973872755114" />
<line x1="66.0" y1="103.41485725728157" x2="58.79246847535315" y2="107.85026127244886" />
</g>
<g id="atom_O_141">
<line x1="37.95753152464685" y1="163.85026127244888" x2="41.20753152464685" y2="165.85026127244888" />
<line x1="36.54246847535315" y1="166.14973872755112" x2="39.79246847535315" y2="168.14973872755112" />
<g id="atom_O_141_text">
<text x="34" y="163" text-anchor="middle" font-family="verdana" font-size="8"><tspan y="163" dy="0.35em">O</tspan></text>
</g>
</g>
<g id="atom_O-_148">
<line x1="47.0" y1="182.25" x2="47.0" y2="178.5" />
<g id="atom_O-_148_text">
<text x="47" y="186" text-anchor="middle" font-family="verdana" font-size="8"><tspan y="186" dy="0.35em">O</tspan></text>
<text x="53.0" y="183.0" text-anchor="middle" font-family="verdana" font-size="6"><tspan y="183.0" dy="0.35em">-</tspan></text>
</g>
</g>
<g id="atom_C_63">
<line x1="195.0" y1="100.0" x2="199.5" y2="106.0" />
<line x1="195.0" y1="100.0" x2="188.5" y2="96.0" />
<line x1="195.82476134831012" y1="101.09968179774685" x2="200.99891909908453" y2="95.40810827189502" />
<line x1="193.83004705598458" y1="99.28002895752897" x2="199.00108090091547" y2="93.59189172810498" />
</g>
<g id="atom_C_56">
<line x1="237.0" y1="137.0" x2="236.0" y2="129.5" />
<line x1="239.47631533184313" y1="135.14315795575425" x2="238.6763153318431" y2="129.14315795575425" />
<line x1="237.0" y1="137.0" x2="244.0" y2="139.5" />
</g>
<g id="atom_C_60">
<line x1="246.0" y1="112.0" x2="240.5" y2="117.0" />
<line x1="246.0" y1="112.0" x2="253.0" y2="114.5" />
<line x1="246.49189172810497" y1="115.04270316130606" x2="252.091891728105" y2="117.04270316130606" />
</g>
<g id="atom_C_57">
<line x1="251.0" y1="142.0" x2="244.0" y2="139.5" />
<line x1="251.0" y1="142.0" x2="257.0" y2="137.0" />
<line x1="250.47150212090588" y1="138.9258025450871" x2="255.2715021209059" y2="134.9258025450871" />
</g>
<g id="atom_C_58">
<line x1="263.0" y1="132.0" x2="257.0" y2="137.0" />
<line x1="260.0715021209059" y1="130.9258025450871" x2="255.2715021209059" y2="134.9258025450871" />
<line x1="263.0" y1="132.0" x2="261.5" y2="124.5" />
</g>
<g id="atom_C_59">
<line x1="260.0" y1="117.0" x2="261.5" y2="124.5" />
<line x1="260.0" y1="117.0" x2="253.0" y2="114.5" />
<line x1="257.691891728105" y1="119.04270316130606" x2="252.091891728105" y2="117.04270316130606" />
</g>
<g id="atom_C_64">
<line x1="182.0" y1="92.0" x2="175.0" y2="90.5" />
<line x1="182.0" y1="92.0" x2="188.5" y2="96.0" />
<g id="chiral-bond-back" stroke="black" stroke-width="1">
  <line x1="182.0" y1="92.0" x2="182.0" y2="92.0" />
  <line x1="181.3026316297952" y1="89.0396491160273" x2="181.8973683702048" y2="88.9603508839727" />
  <line x1="180.6052632595904" y1="86.07929823205461" x2="181.79473674040958" y2="85.92070176794539" />
</g>
</g>
<g id="atom_C_65">
<g id="chiral-bond-back" stroke="black" stroke-width="1">
  <line x1="178.51315814897606" y1="77.19824558013653" x2="181.48684185102394" y2="76.80175441986347" />
  <line x1="179.21052651918083" y1="80.15859646410922" x2="181.58947348081918" y2="79.84140353589078" />
  <line x1="179.90789488938563" y1="83.11894734808192" x2="181.6921051106144" y2="82.88105265191808" />
</g>
<polygon points="180.9,78.2 179.1,75.8 185.55,71.9 186.45,73.1" />
</g>
<g id="atom_C_66">
<polygon points="192.0,68.0 186.45,73.1 185.55,71.9" />
<line x1="192.0" y1="68.0" x2="199.5" y2="67.0" />
<line x1="192.0" y1="68.0" x2="195.0" y2="61.0" />
</g>
<g id="atom_C_67">
<line x1="207.0" y1="66.0" x2="199.5" y2="67.0" />
<line x1="207.0" y1="66.0" x2="202.5" y2="60.0" />
</g>
<g id="atom_C_68">
<line x1="198.0" y1="54.0" x2="195.0" y2="61.0" />
<line x1="198.0" y1="54.0" x2="202.5" y2="60.0" />
<g id="chiral-bond-back" stroke="black" stroke-width="1">
  <line x1="198.0" y1="54.0" x2="198.0" y2="54.0" />
  <line x1="197.30301515190163" y1="51.242426406871196" x2="197.89698484809836" y2="51.15757359312881" />
  <line x1="196.6060303038033" y1="48.484852813742386" x2="197.79396969619668" y2="48.31514718625761" />
</g>
</g>
<g id="atom_N+_84">
<g id="chiral-bond-back" stroke="black" stroke-width="1">
  <line x1="195.90904545570496" y1="45.72727922061358" x2="197.69095454429507" y2="45.47272077938642" />
</g>
<line x1="199.51387096774192" y1="39.052096774193544" x2="202.81" y2="36.58" />
<line x1="197.8790909090909" y1="36.90318181818182" x2="201.19" y2="34.42" />
<line x1="192.5" y1="38.5" x2="189.0" y2="37.0" />
<g id="atom_N+_84_text">
<text x="196" y="40" text-anchor="middle" font-family="verdana" font-size="8"><tspan y="40" dy="0.35em">N</tspan></text>
<text x="202.0" y="37.0" text-anchor="middle" font-family="verdana" font-size="6"><tspan y="37.0" dy="0.35em">+</tspan></text>
</g>
</g>
<g id="atom_C_143">
<line x1="66.0" y1="90.0" x2="66.0" y2="97.5" />
<line x1="66.0" y1="90.0" x2="72.0" y2="85.5" />
<line x1="66.0" y1="90.0" x2="59.5" y2="85.5" />
<line x1="66.23686694284183" y1="86.88008108256179" x2="61.036866942841826" y2="83.2800810825618" />
</g>
<g id="atom_O_149">
<line x1="56.95753152464685" y1="112.14973872755114" x2="60.20753152464685" y2="110.14973872755114" />
<line x1="55.54246847535315" y1="109.85026127244886" x2="58.79246847535315" y2="107.85026127244886" />
<g id="atom_O_149_text">
<text x="53" y="113" text-anchor="middle" font-family="verdana" font-size="8"><tspan y="113" dy="0.35em">O</tspan></text>
</g>
</g>
<g id="atom_N_144">
<line x1="75.0" y1="83.25" x2="72.0" y2="85.5" />
<line x1="76.75" y1="77.5" x2="75.5" y2="74.0" />
<g id="atom_N_144_text">
<text x="78" y="81" text-anchor="middle" font-family="verdana" font-size="8"><tspan y="81" dy="0.35em">N</tspan></text>
<text x="84.0" y="81.0" text-anchor="middle" font-family="verdana" font-size="8"><tspan y="81.0" dy="0.35em">H</tspan></text>
</g>
</g>
<g id="atom_C_147">
<line x1="53.0" y1="81.0" x2="59.5" y2="85.5" />
<line x1="55.83686694284183" y1="79.6800810825618" x2="61.036866942841826" y2="83.2800810825618" />
<line x1="53.0" y1="81.0" x2="55.5" y2="74.0" />
</g>
<g id="atom_C_145">
<line x1="73.0" y1="67.0" x2="75.5" y2="74.0" />
<line x1="73.0" y1="67.0" x2="65.5" y2="67.0" />
<line x1="71.5" y1="69.7" x2="65.5" y2="69.7" />
</g>
<g id="atom_C_146">
<line x1="58.0" y1="67.0" x2="65.5" y2="67.0" />
<line x1="59.5" y1="69.7" x2="65.5" y2="69.7" />
<line x1="58.0" y1="67.0" x2="55.5" y2="74.0" />
</g>
<g id="atom_O_75">
<line x1="203.49891909908453" y1="92.65810827189502" x2="200.99891909908453" y2="95.40810827189502" />
<line x1="201.50108090091547" y1="90.84189172810498" x2="199.00108090091547" y2="93.59189172810498" />
<g id="atom_O_75_text">
<text x="205" y="89" text-anchor="middle" font-family="verdana" font-size="8"><tspan y="89" dy="0.35em">O</tspan></text>
</g>
</g>
<g id="atom_O_85">
<line x1="205.81" y1="34.33" x2="202.81" y2="36.58" />
<line x1="204.19" y1="32.17" x2="201.19" y2="34.42" />
<g id="atom_O_85_text">
<text x="208" y="31" text-anchor="middle" font-family="verdana" font-size="8"><tspan y="31" dy="0.35em">O</tspan></text>
</g>
</g>
<g id="atom_O-_91">
<line x1="185.5" y1="35.5" x2="189.0" y2="37.0" />
<g id="atom_O-_91_text">
<text x="182" y="34" text-anchor="middle" font-family="verdana" font-size="8"><tspan y="34" dy="0.35em">O</tspan></text>
<text x="188.0" y="31.0" text-anchor="middle" font-family="verdana" font-size="6"><tspan y="31.0" dy="0.35em">-</tspan></text>
</g>
</g>
</g>
</svg>