<svg width="279" height="288" viewBox="59 1 338 289" xmlns="http://www.w3.org/2000/svg"><style> line {stroke: black; stroke_width: 1px;} polygon {fill: black;} </style><g id="unlabeled">
<g id="atom_C_5">
<line x1="293.0" y1="84.0" x2="300.5" y2="82.0" />
<polygon points="294.1099101100939,82.99099080900554 291.8900898899061,85.00900919099446 287.44504494495305,79.00450459549724 288.55495505504695,77.99549540450276" />
<line x1="294.51981675523643" y1="83.59471553193696" x2="292.2980573293151" y2="91.37087352266146" />
<line x1="291.9317230053773" y1="82.824895305915" x2="289.7019426706849" y2="90.62912647733854" />
</g>
<g id="atom_O_0">
<line x1="304.25" y1="81.0" x2="300.5" y2="82.0" />
<g id="atom_O_0_text">
<text x="308" y="80" text-anchor="middle" font-family="verdana" font-size="8"><tspan y="80" dy="0.35em">O</tspan></text>
<text x="314.0" y="80.0" text-anchor="middle" font-family="verdana" font-size="8"><tspan y="80.0" dy="0.35em">H</tspan></text>
</g>
</g>
<g id="atom_C_6">
<polygon points="283.0,73.0 288.55495505504695,77.99549540450276 287.44504494495305,79.00450459549724" />
<line x1="283.0" y1="73.0" x2="284.0" y2="65.5" />
<line x1="283.0" y1="73.0" x2="275.5" y2="74.0" />
</g>
<g id="atom_O_13">
<line x1="291.2980573293151" y1="94.87087352266146" x2="292.2980573293151" y2="91.37087352266146" />
<line x1="288.7019426706849" y1="94.12912647733854" x2="289.7019426706849" y2="90.62912647733854" />
<g id="atom_O_13_text">
<text x="289" y="98" text-anchor="middle" font-family="verdana" font-size="8"><tspan y="98" dy="0.35em">O</tspan></text>
</g>
</g>
<g id="atom_C_7">
<line x1="285.0" y1="58.0" x2="284.0" y2="65.5" />
<line x1="285.0" y1="58.0" x2="278.5" y2="54.5" />
</g>
<g id="atom_N_15">
<line x1="271.75" y1="74.5" x2="275.5" y2="74.0" />
<line x1="266.25" y1="71.5" x2="264.5" y2="68.0" />
<line x1="266.25" y1="78.25" x2="264.5" y2="81.5" />
<g id="atom_N_15_text">
<text x="268" y="75" text-anchor="middle" font-family="verdana" font-size="8"><tspan y="75" dy="0.35em">N</tspan></text>
</g>
</g>
<g id="atom_C_8">
<line x1="272.0" y1="51.0" x2="278.5" y2="54.5" />
<polygon points="272.0,51.0 271.743420925512,43.400877209931735 270.256579074488,43.599122790068265" />
<line x1="272.0" y1="51.0" x2="266.5" y2="56.0" />
</g>
<g id="atom_C_9">
<polygon points="271.48684185102394,35.80175441986347 268.51315814897606,36.19824558013653 270.256579074488,43.599122790068265 271.743420925512,43.400877209931735" />
<line x1="270.0" y1="36.0" x2="263.0" y2="33.5" />
<line x1="267.691891728105" y1="38.04270316130606" x2="262.091891728105" y2="36.04270316130606" />
</g>
<g id="atom_C_16">
<line x1="261.0" y1="61.0" x2="266.5" y2="56.0" />
<line x1="261.0" y1="61.0" x2="264.5" y2="68.0" />
</g>
<g id="atom_C_10">
<line x1="256.0" y1="31.0" x2="263.0" y2="33.5" />
<line x1="256.491891728105" y1="34.04270316130606" x2="262.091891728105" y2="36.04270316130606" />
<line x1="256.0" y1="31.0" x2="250.0" y2="35.5" />
</g>
<g id="atom_C_11">
<line x1="244.0" y1="40.0" x2="250.0" y2="35.5" />
</g>
<g id="atom_C_24">
<line x1="261.0" y1="88.0" x2="264.5" y2="81.5" />
<g id="chiral-bond-back" stroke="black" stroke-width="1">
  <line x1="259.72251252494317" y1="87.2138538615035" x2="262.27748747505683" y2="88.7861461384965" />
  <line x1="258.3780100199545" y1="89.97108308920279" x2="260.42198998004545" y2="91.2289169107972" />
  <line x1="257.03350751496595" y1="92.7283123169021" x2="258.5664924850341" y2="93.6716876830979" />
</g>
<line x1="261.73973327993525" y1="86.62620962297733" x2="258.14973872755115" y2="80.79246847535315" />
<line x1="260.26026672006475" y1="89.37379037702267" x2="255.85026127244885" y2="82.20753152464685" />
</g>
<g id="atom_C_25">
<g id="chiral-bond-back" stroke="black" stroke-width="1">
  <line x1="253.0" y1="101.0" x2="253.0" y2="101.0" />
  <line x1="254.34450250498864" y1="98.2427707723007" x2="254.85549749501135" y2="98.55722922769931" />
  <line x1="255.68900500997725" y1="95.48554154460139" x2="256.7109949900227" y2="96.1144584553986" />
</g>
<line x1="253.0" y1="101.0" x2="257.0" y2="107.5" />
<line x1="253.0" y1="101.0" x2="245.5" y2="101.0" />
</g>
<g id="atom_O_32">
<line x1="256.14973872755115" y1="77.54246847535315" x2="258.14973872755115" y2="80.79246847535315" />
<line x1="253.85026127244885" y1="78.95753152464685" x2="255.85026127244885" y2="82.20753152464685" />
<g id="atom_O_32_text">
<text x="253" y="75" text-anchor="middle" font-family="verdana" font-size="8"><tspan y="75" dy="0.35em">O</tspan></text>
</g>
</g>
<g id="atom_C_26">
<line x1="261.0" y1="114.0" x2="257.0" y2="107.5" />
<line x1="261.0" y1="114.0" x2="268.5" y2="114.0" />
<g id="chiral-bond-back" stroke="black" stroke-width="1">
  <line x1="261.0" y1="114.0" x2="261.0" y2="114.0" />
  <line x1="259.1445025049886" y1="116.44277077230069" x2="259.65549749501133" y2="116.7572292276993" />
  <line x1="257.2890050099773" y1="118.8855415446014" x2="258.3109949900227" y2="119.51445845539861" />
</g>
</g>
<g id="atom_N_34">
<line x1="241.75" y1="101.0" x2="245.5" y2="101.0" />
<line x1="236.25" y1="104.25" x2="234.5" y2="107.5" />
<g id="atom_N_34_text">
<text x="238" y="101" text-anchor="middle" font-family="verdana" font-size="8"><tspan y="101" dy="0.35em">N</tspan></text>
<text x="238.0" y="94.0" text-anchor="middle" font-family="verdana" font-size="8"><tspan y="94.0" dy="0.35em">H</tspan></text>
</g>
</g>
<g id="atom_C_27">
<line x1="276.0" y1="114.0" x2="268.5" y2="114.0" />
<line x1="276.0" y1="114.0" x2="279.5" y2="120.5" />
</g>
<g id="atom_C_37">
<g id="chiral-bond-back" stroke="black" stroke-width="1">
  <line x1="251.7225125249432" y1="126.2138538615035" x2="254.2774874750568" y2="127.7861461384965" />
  <line x1="253.57801001995455" y1="123.7710830892028" x2="255.62198998004544" y2="125.02891691079721" />
  <line x1="255.4335075149659" y1="121.3283123169021" x2="256.96649248503405" y2="122.2716876830979" />
</g>
</g>
<g id="atom_C_28">
<line x1="283.0" y1="127.0" x2="279.5" y2="120.5" />
</g>
<g id="atom_C_43">
<line x1="231.0" y1="114.0" x2="234.5" y2="107.5" />
<polygon points="231.0,112.5 231.0,115.5 223.5,114.75 223.5,113.25" />
<line x1="231.7666350435121" y1="112.57624920490608" x2="235.68863598489494" y2="119.85996523890273" />
<line x1="229.46672991297575" y1="114.0" x2="233.31136401510506" y2="121.14003476109727" />
</g>
<g id="atom_C_44">
<polygon points="216.0,114.0 223.5,113.25 223.5,114.75" />
<line x1="216.0" y1="114.0" x2="212.0" y2="107.5" />
<line x1="216.0" y1="114.0" x2="212.0" y2="120.5" />
</g>
<g id="atom_O_50">
<line x1="237.43863598489494" y1="123.10996523890273" x2="235.68863598489494" y2="119.85996523890273" />
<line x1="235.06136401510506" y1="124.39003476109727" x2="233.31136401510506" y2="121.14003476109727" />
<g id="atom_O_50_text">
<text x="238" y="127" text-anchor="middle" font-family="verdana" font-size="8"><tspan y="127" dy="0.35em">O</tspan></text>
</g>
</g>
<g id="atom_C_45">
<line x1="208.0" y1="101.0" x2="212.0" y2="107.5" />
<g id="chiral-bond-back" stroke="black" stroke-width="1">
  <line x1="208.0" y1="101.0" x2="208.0" y2="101.0" />
  <line x1="205.0" y1="100.7" x2="205.0" y2="101.3" />
  <line x1="202.0" y1="100.4" x2="202.0" y2="101.6" />
</g>
<line x1="208.0" y1="101.0" x2="212.0" y2="94.5" />
</g>
<g id="atom_N_52">
<line x1="210.0" y1="123.75" x2="212.0" y2="120.5" />
<line x1="204.25" y1="127.0" x2="200.5" y2="127.0" />
<g id="atom_N_52_text">
<text x="208" y="127" text-anchor="middle" font-family="verdana" font-size="8"><tspan y="127" dy="0.35em">N</tspan></text>
<text x="208.0" y="134.0" text-anchor="middle" font-family="verdana" font-size="8"><tspan y="134.0" dy="0.35em">H</tspan></text>
</g>
</g>
<g id="atom_C_46">
<g id="chiral-bond-back" stroke="black" stroke-width="1">
  <line x1="193.0" y1="99.5" x2="193.0" y2="102.5" />
  <line x1="196.0" y1="99.8" x2="196.0" y2="102.2" />
  <line x1="199.0" y1="100.1" x2="199.0" y2="101.9" />
</g>
</g>
<g id="atom_C_55">
<line x1="216.0" y1="88.0" x2="212.0" y2="94.5" />
<line x1="216.0" y1="88.0" x2="223.5" y2="88.0" />
<line x1="217.5" y1="85.3" x2="223.5" y2="85.3" />
<line x1="216.0" y1="88.0" x2="212.0" y2="81.5" />
</g>
<g id="atom_C_63">
<line x1="193.0" y1="127.0" x2="200.5" y2="127.0" />
<polygon points="194.32070664988325,127.71114973455252 191.67929335011675,126.28885026544748 188.83964667505836,133.14442513272374 190.16035332494164,133.85557486727626" />
<line x1="194.53327008702425" y1="127.0" x2="190.68863598489494" y2="119.85996523890273" />
<line x1="192.2333649564879" y1="128.42375079509392" x2="188.31136401510506" y2="121.14003476109727" />
</g>
<g id="atom_C_56">
<line x1="231.0" y1="88.0" x2="223.5" y2="88.0" />
<line x1="229.5" y1="85.3" x2="223.5" y2="85.3" />
<line x1="231.0" y1="88.0" x2="234.5" y2="81.5" />
</g>
<g id="atom_C_60">
<line x1="208.0" y1="75.0" x2="212.0" y2="81.5" />
<line x1="208.0" y1="75.0" x2="212.0" y2="68.5" />
<line x1="211.0994774551023" y1="75.11506304929371" x2="214.29947745510228" y2="69.9150630492937" />
</g>
<g id="atom_C_57">
<line x1="238.0" y1="75.0" x2="234.5" y2="81.5" />
<line x1="238.0" y1="75.0" x2="234.5" y2="68.5" />
<line x1="234.92272803021015" y1="74.98006952219455" x2="232.12272803021014" y2="69.78006952219455" />
</g>
<g id="atom_C_58">
<line x1="231.0" y1="62.0" x2="234.5" y2="68.5" />
<line x1="229.32272803021013" y1="64.58006952219455" x2="232.12272803021014" y2="69.78006952219455" />
<line x1="231.0" y1="62.0" x2="223.5" y2="62.0" />
</g>
<g id="atom_C_59">
<line x1="216.0" y1="62.0" x2="223.5" y2="62.0" />
<line x1="216.0" y1="62.0" x2="212.0" y2="68.5" />
<line x1="217.49947745510227" y1="64.7150630492937" x2="214.29947745510228" y2="69.9150630492937" />
</g>
<g id="atom_C_64">
<polygon points="186.0,140.0 190.16035332494164,133.85557486727626 188.83964667505836,133.14442513272374" />
<line x1="186.0" y1="140.0" x2="189.5" y2="146.5" />
<line x1="186.0" y1="140.0" x2="178.5" y2="140.0" />
</g>
<g id="atom_O_75">
<line x1="188.93863598489494" y1="116.60996523890273" x2="190.68863598489494" y2="119.85996523890273" />
<line x1="186.56136401510506" y1="117.89003476109727" x2="188.31136401510506" y2="121.14003476109727" />
<g id="atom_O_75_text">
<text x="186" y="114" text-anchor="middle" font-family="verdana" font-size="8"><tspan y="114" dy="0.35em">O</tspan></text>
</g>
</g>
<g id="atom_C_65">
<line x1="193.0" y1="153.0" x2="189.5" y2="146.5" />
<polygon points="194.32070664988325,153.71114973455252 191.67929335011675,152.28885026544748 188.83964667505836,159.14442513272374 190.16035332494164,159.85557486727626" />
</g>
<g id="atom_N_77">
<line x1="174.75" y1="140.0" x2="178.5" y2="140.0" />
<line x1="169.25" y1="143.5" x2="167.5" y2="147.0" />
<g id="atom_N_77_text">
<text x="171" y="140" text-anchor="middle" font-family="verdana" font-size="8"><tspan y="140" dy="0.35em">N</tspan></text>
<text x="171.0" y="133.0" text-anchor="middle" font-family="verdana" font-size="8"><tspan y="133.0" dy="0.35em">H</tspan></text>
</g>
</g>
<g id="atom_C_66">
<polygon points="186.0,166.0 190.16035332494164,159.85557486727626 188.83964667505836,159.14442513272374" />
<line x1="186.0" y1="166.0" x2="179.5" y2="170.0" />
<line x1="186.0" y1="166.0" x2="186.0" y2="173.5" />
</g>
<g id="atom_C_67">
<line x1="173.0" y1="174.0" x2="179.5" y2="170.0" />
<line x1="173.0" y1="174.0" x2="179.5" y2="177.5" />
</g>
<g id="atom_C_68">
<line x1="186.0" y1="181.0" x2="186.0" y2="173.5" />
<line x1="186.0" y1="181.0" x2="179.5" y2="177.5" />
<g id="chiral-bond-back" stroke="black" stroke-width="1">
  <line x1="186.0" y1="181.0" x2="186.0" y2="181.0" />
  <line x1="187.13585867002337" y1="183.7422299469105" x2="187.66414132997664" y2="183.4577700530895" />
  <line x1="188.2717173400467" y1="186.484459893821" x2="189.32828265995332" y2="185.91554010617898" />
</g>
</g>
<g id="atom_N+_84">
<g id="chiral-bond-back" stroke="black" stroke-width="1">
  <line x1="189.40757601007004" y1="189.22668984073152" x2="190.99242398992993" y2="188.3733101592685" />
</g>
<line x1="192.6109530359596" y1="197.57001738054862" x2="190.68863598489494" y2="201.14003476109727" />
<line x1="190.27236448579646" y1="196.2181072219044" x2="188.31136401510506" y2="199.85996523890273" />
<line x1="196.75" y1="194.0" x2="200.5" y2="194.0" />
<g id="atom_N+_84_text">
<text x="193" y="194" text-anchor="middle" font-family="verdana" font-size="8"><tspan y="194" dy="0.35em">N</tspan></text>
<text x="199.0" y="191.0" text-anchor="middle" font-family="verdana" font-size="6"><tspan y="191.0" dy="0.35em">+</tspan></text>
</g>
</g>
<g id="atom_C_86">
<line x1="164.0" y1="154.0" x2="167.5" y2="147.0" />
<line x1="164.0" y1="154.0" x2="156.5" y2="154.0" />
<line x1="163.30017413411022" y1="155.39965173177956" x2="171.5898006642071" y2="154.84700996310642" />
<line x1="164.69982586588978" y1="152.60034826822044" x2="171.4101993357929" y2="152.15299003689358" />
</g>
<g id="atom_O_85">
<line x1="188.93863598489494" y1="204.39003476109727" x2="190.68863598489494" y2="201.14003476109727" />
<line x1="186.56136401510506" y1="203.10996523890273" x2="188.31136401510506" y2="199.85996523890273" />
<g id="atom_O_85_text">
<text x="186" y="207" text-anchor="middle" font-family="verdana" font-size="8"><tspan y="207" dy="0.35em">O</tspan></text>
</g>
</g>
<g id="atom_O-_91">
<line x1="204.25" y1="194.0" x2="200.5" y2="194.0" />
<g id="atom_O-_91_text">
<text x="208" y="194" text-anchor="middle" font-family="verdana" font-size="8"><tspan y="194" dy="0.35em">O</tspan></text>
<text x="214.0" y="191.0" text-anchor="middle" font-family="verdana" font-size="6"><tspan y="191.0" dy="0.35em">-</tspan></text>
</g>
</g>
<g id="atom_C_87">
<line x1="149.0" y1="154.0" x2="156.5" y2="154.0" />
<line x1="149.0" y1="154.0" x2="145.0" y2="147.5" />
<polygon points="149.0,154.0 145.63874373752842,160.89307306924826 144.36125626247158,160.10692693075174" />
</g>
<g id="atom_O_92">
<line x1="175.3398006642071" y1="154.59700996310642" x2="171.5898006642071" y2="154.84700996310642" />
<line x1="175.1601993357929" y1="151.90299003689358" x2="171.4101993357929" y2="152.15299003689358" />
<g id="atom_O_92_text">
<text x="179" y="153" text-anchor="middle" font-family="verdana" font-size="8"><tspan y="153" dy="0.35em">O</tspan></text>
</g>
</g>
<g id="atom_C_88">
<line x1="141.0" y1="141.0" x2="145.0" y2="147.5" />
<g id="chiral-bond-back" stroke="black" stroke-width="1">
  <line x1="141.0" y1="141.0" x2="141.0" y2="141.0" />
  <line x1="138.0" y1="140.7" x2="138.0" y2="141.3" />
  <line x1="135.0" y1="140.4" x2="135.0" y2="141.6" />
</g>
<line x1="141.0" y1="141.0" x2="144.5" y2="134.5" />
</g>
<g id="atom_N_94">
<polygon points="144.2774874750568,164.5361461384965 141.7225125249432,162.9638538615035 144.36125626247158,160.10692693075174 145.63874373752842,160.89307306924826" />
<line x1="137.25" y1="167.0" x2="133.5" y2="167.0" />
<g id="atom_N_94_text">
<text x="141" y="167" text-anchor="middle" font-family="verdana" font-size="8"><tspan y="167" dy="0.35em">N</tspan></text>
<text x="141.0" y="174.0" text-anchor="middle" font-family="verdana" font-size="8"><tspan y="174.0" dy="0.35em">H</tspan></text>
</g>
</g>
<g id="atom_C_89">
<g id="chiral-bond-back" stroke="black" stroke-width="1">
  <line x1="126.0" y1="139.5" x2="126.0" y2="142.5" />
  <line x1="129.0" y1="139.8" x2="129.0" y2="142.2" />
  <line x1="132.0" y1="140.1" x2="132.0" y2="141.9" />
</g>
</g>
<g id="atom_C_97">
<line x1="148.0" y1="128.0" x2="144.5" y2="134.5" />
<line x1="148.0" y1="128.0" x2="155.5" y2="128.0" />
<line x1="149.5" y1="125.3" x2="155.5" y2="125.3" />
<line x1="148.0" y1="128.0" x2="144.5" y2="121.5" />
</g>
<g id="atom_C_105">
<line x1="126.0" y1="167.0" x2="133.5" y2="167.0" />
<line x1="126.0" y1="167.0" x2="122.5" y2="173.5" />
<line x1="127.53327008702423" y1="167.0" x2="123.68863598489493" y2="159.85996523890273" />
<line x1="125.23336495648789" y1="168.42375079509392" x2="121.31136401510507" y2="161.14003476109727" />
</g>
<g id="atom_C_98">
<line x1="163.0" y1="128.0" x2="155.5" y2="128.0" />
<line x1="161.5" y1="125.3" x2="155.5" y2="125.3" />
<line x1="163.0" y1="128.0" x2="167.0" y2="121.0" />
</g>
<g id="atom_C_102">
<line x1="141.0" y1="115.0" x2="144.5" y2="121.5" />
<line x1="141.0" y1="115.0" x2="144.5" y2="108.5" />
<line x1="144.07727196978985" y1="114.98006952219455" x2="146.87727196978986" y2="109.78006952219455" />
</g>
<g id="atom_C_99">
<line x1="171.0" y1="114.0" x2="167.0" y2="121.0" />
<line x1="171.0" y1="114.0" x2="167.0" y2="108.0" />
<line x1="167.95346420528782" y1="114.29769052980812" x2="164.75346420528783" y2="109.49769052980812" />
</g>
<g id="atom_C_100">
<line x1="163.0" y1="102.0" x2="167.0" y2="108.0" />
<line x1="161.55346420528784" y1="104.69769052980813" x2="164.75346420528783" y2="109.49769052980812" />
<line x1="163.0" y1="102.0" x2="155.5" y2="102.0" />
</g>
<g id="atom_C_101">
<line x1="148.0" y1="102.0" x2="155.5" y2="102.0" />
<line x1="148.0" y1="102.0" x2="144.5" y2="108.5" />
<line x1="149.67727196978987" y1="104.58006952219455" x2="146.87727196978986" y2="109.78006952219455" />
</g>
<g id="atom_C_106">
<line x1="119.0" y1="180.0" x2="122.5" y2="173.5" />
<line x1="119.0" y1="180.0" x2="111.5" y2="180.5" />
<g id="chiral-bond-back" stroke="black" stroke-width="1">
  <line x1="119.0" y1="180.0" x2="119.0" y2="180.0" />
  <line x1="120.34450250498863" y1="182.7572292276993" x2="120.85549749501136" y2="182.4427707723007" />
  <line x1="121.68900500997728" y1="185.5144584553986" x2="122.71099499002273" y2="184.88554154460138" />
</g>
</g>
<g id="atom_O_115">
<line x1="121.93863598489493" y1="156.60996523890273" x2="123.68863598489493" y2="159.85996523890273" />
<line x1="119.56136401510507" y1="157.89003476109727" x2="121.31136401510507" y2="161.14003476109727" />
<g id="atom_O_115_text">
<text x="119" y="154" text-anchor="middle" font-family="verdana" font-size="8"><tspan y="154" dy="0.35em">O</tspan></text>
</g>
</g>
<g id="atom_C_107">
<line x1="104.0" y1="181.0" x2="111.5" y2="180.5" />
<polygon points="104.0,181.0 101.16035332494162,187.85557486727626 99.83964667505838,187.14442513272374" />
<line x1="104.0" y1="181.0" x2="100.0" y2="174.5" />
</g>
<g id="atom_N_117">
<g id="chiral-bond-back" stroke="black" stroke-width="1">
  <line x1="123.0335075149659" y1="188.27168768309792" x2="124.56649248503409" y2="187.3283123169021" />
</g>
<line x1="130.75" y1="193.0" x2="134.5" y2="193.0" />
<g id="atom_N_117_text">
<text x="127" y="193" text-anchor="middle" font-family="verdana" font-size="8"><tspan y="193" dy="0.35em">N</tspan></text>
<text x="127.0" y="200.0" text-anchor="middle" font-family="verdana" font-size="8"><tspan y="200.0" dy="0.35em">H</tspan></text>
</g>
</g>
<g id="atom_C_108">
<polygon points="98.32070664988326,194.71114973455252 95.67929335011674,193.28885026544748 99.83964667505838,187.14442513272374 101.16035332494162,187.85557486727626" />
</g>
<g id="atom_O_120">
<line x1="98.0" y1="171.25" x2="100.0" y2="174.5" />
<g id="atom_O_120_text">
<text x="96" y="168" text-anchor="middle" font-family="verdana" font-size="8"><tspan y="168" dy="0.35em">O</tspan></text>
<text x="90.0" y="168.0" text-anchor="middle" font-family="verdana" font-size="8"><tspan y="168.0" dy="0.35em">H</tspan></text>
</g>
</g>
<g id="atom_C_124">
<line x1="142.0" y1="193.0" x2="134.5" y2="193.0" />
<line x1="142.0" y1="193.0" x2="146.0" y2="199.5" />
<line x1="142.81774404641294" y1="194.32883407542099" x2="146.68863598489494" y2="187.14003476109727" />
<line x1="140.46672991297575" y1="193.0" x2="144.31136401510506" y2="185.85996523890273" />
</g>
<g id="atom_C_125">
<line x1="150.0" y1="206.0" x2="146.0" y2="199.5" />
<line x1="150.0" y1="206.0" x2="157.5" y2="205.5" />
<g id="chiral-bond-back" stroke="black" stroke-width="1">
  <line x1="150.0" y1="206.0" x2="150.0" y2="206.0" />
  <line x1="147.0" y1="205.7" x2="147.0" y2="206.3" />
  <line x1="144.0" y1="205.4" x2="144.0" y2="206.6" />
</g>
</g>
<g id="atom_O_131">
<line x1="148.43863598489494" y1="183.89003476109727" x2="146.68863598489494" y2="187.14003476109727" />
<line x1="146.06136401510506" y1="182.60996523890273" x2="144.31136401510506" y2="185.85996523890273" />
<g id="atom_O_131_text">
<text x="149" y="180" text-anchor="middle" font-family="verdana" font-size="8"><tspan y="180" dy="0.35em">O</tspan></text>
</g>
</g>
<g id="atom_C_126">
<line x1="165.0" y1="205.0" x2="157.5" y2="205.5" />
<g id="chiral-bond-back" stroke="black" stroke-width="1">
  <line x1="163.7225125249432" y1="205.7861461384965" x2="166.2774874750568" y2="204.2138538615035" />
  <line x1="165.57801001995455" y1="208.2289169107972" x2="167.62198998004544" y2="206.97108308920278" />
  <line x1="167.4335075149659" y1="210.6716876830979" x2="168.96649248503408" y2="209.72831231690208" />
</g>
</g>
<g id="atom_N_133">
<g id="chiral-bond-back" stroke="black" stroke-width="1">
  <line x1="141.0" y1="205.1" x2="141.0" y2="206.9" />
</g>
<line x1="133.25" y1="209.5" x2="131.5" y2="213.0" />
<g id="atom_N_133_text">
<text x="135" y="206" text-anchor="middle" font-family="verdana" font-size="8"><tspan y="206" dy="0.35em">N</tspan></text>
<text x="135.0" y="199.0" text-anchor="middle" font-family="verdana" font-size="8"><tspan y="199.0" dy="0.35em">H</tspan></text>
</g>
</g>
<g id="atom_C_127">
<g id="chiral-bond-back" stroke="black" stroke-width="1">
  <line x1="173.0" y1="218.0" x2="173.0" y2="218.0" />
  <line x1="171.14450250498865" y1="215.5572292276993" x2="171.65549749501136" y2="215.2427707723007" />
  <line x1="169.28900500997727" y1="213.11445845539862" x2="170.31099499002275" y2="212.4855415446014" />
</g>
<line x1="173.0" y1="218.0" x2="179.5" y2="221.5" />
<line x1="173.0" y1="218.0" x2="173.5" y2="225.5" />
</g>
<g id="atom_C_128">
<line x1="186.0" y1="225.0" x2="179.5" y2="221.5" />
<line x1="186.0" y1="225.0" x2="180.0" y2="229.0" />
</g>
<g id="atom_C_129">
<line x1="174.0" y1="233.0" x2="173.5" y2="225.5" />
<line x1="174.0" y1="233.0" x2="180.0" y2="229.0" />
<polygon points="174.0,233.0 171.16035332494164,239.85557486727626 169.83964667505836,239.14442513272374" />
</g>
<g id="atom_N+_140">
<polygon points="170.07070664988325,243.46114973455252 167.42929335011675,242.03885026544748 169.83964667505836,239.14442513272374 171.16035332494164,239.85557486727626" />
<line x1="163.6948008268977" y1="247.5733432855937" x2="159.5898006642071" y2="247.84700996310642" />
<line x1="163.58293118591672" y1="244.874807913552" x2="159.4101993357929" y2="245.15299003689358" />
<line x1="169.0" y1="249.25" x2="171.0" y2="252.5" />
<g id="atom_N+_140_text">
<text x="167" y="246" text-anchor="middle" font-family="verdana" font-size="8"><tspan y="246" dy="0.35em">N</tspan></text>
<text x="173.0" y="243.0" text-anchor="middle" font-family="verdana" font-size="6"><tspan y="243.0" dy="0.35em">+</tspan></text>
</g>
</g>
<g id="atom_C_142">
<line x1="128.0" y1="220.0" x2="131.5" y2="213.0" />
<line x1="128.0" y1="220.0" x2="120.5" y2="220.0" />
<line x1="128.6953563174109" y1="218.60928736517818" x2="133.1232678973561" y2="225.25115473509595" />
<line x1="126.37750192604122" y1="220.0" x2="130.8767321026439" y2="226.74884526490405" />
</g>
<g id="atom_O_141">
<line x1="155.8398006642071" y1="248.09700996310642" x2="159.5898006642071" y2="247.84700996310642" />
<line x1="155.6601993357929" y1="245.40299003689358" x2="159.4101993357929" y2="245.15299003689358" />
<g id="atom_O_141_text">
<text x="152" y="247" text-anchor="middle" font-family="verdana" font-size="8"><tspan y="247" dy="0.35em">O</tspan></text>
</g>
</g>
<g id="atom_O-_148">
<line x1="173.0" y1="255.75" x2="171.0" y2="252.5" />
<g id="atom_O-_148_text">
<text x="175" y="259" text-anchor="middle" font-family="verdana" font-size="8"><tspan y="259" dy="0.35em">O</tspan></text>
<text x="181.0" y="256.0" text-anchor="middle" font-family="verdana" font-size="6"><tspan y="256.0" dy="0.35em">-</tspan></text>
</g>
</g>
<g id="atom_C_143">
<line x1="113.0" y1="220.0" x2="120.5" y2="220.0" />
<line x1="113.0" y1="220.0" x2="108.0" y2="214.0" />
<line x1="113.0" y1="220.0" x2="108.5" y2="226.5" />
<line x1="109.88008108256179" y1="219.76313305715817" x2="106.2800810825618" y2="224.96313305715816" />
</g>
<g id="atom_O_149">
<line x1="135.1232678973561" y1="228.25115473509595" x2="133.1232678973561" y2="225.25115473509595" />
<line x1="132.8767321026439" y1="229.74884526490405" x2="130.8767321026439" y2="226.74884526490405" />
<g id="atom_O_149_text">
<text x="136" y="232" text-anchor="middle" font-family="verdana" font-size="8"><tspan y="232" dy="0.35em">O</tspan></text>
</g>
</g>
<g id="atom_N_144">
<line x1="105.5" y1="211.0" x2="108.0" y2="214.0" />
<line x1="99.5" y1="209.25" x2="96.0" y2="210.5" />
<g id="atom_N_144_text">
<text x="103" y="208" text-anchor="middle" font-family="verdana" font-size="8"><tspan y="208" dy="0.35em">N</tspan></text>
<text x="103.0" y="201.0" text-anchor="middle" font-family="verdana" font-size="8"><tspan y="201.0" dy="0.35em">H</tspan></text>
</g>
</g>
<g id="atom_C_147">
<line x1="104.0" y1="233.0" x2="108.5" y2="226.5" />
<line x1="102.6800810825618" y1="230.16313305715815" x2="106.2800810825618" y2="224.96313305715816" />
<line x1="104.0" y1="233.0" x2="97.0" y2="230.5" />
</g>
<g id="atom_C_145">
<line x1="89.0" y1="213.0" x2="96.0" y2="210.5" />
<line x1="89.0" y1="213.0" x2="89.5" y2="220.5" />
<line x1="91.79401992621284" y1="214.32039867158582" x2="92.19401992621285" y2="220.32039867158582" />
</g>
<g id="atom_C_146">
<line x1="90.0" y1="228.0" x2="89.5" y2="220.5" />
<line x1="92.59401992621285" y1="226.32039867158582" x2="92.19401992621285" y2="220.32039867158582" />
<line x1="90.0" y1="228.0" x2="97.0" y2="230.5" />
</g>
</g>
</svg>