<svg width="908.8" height="409.1959594928933" viewBox="0 0 908.8 409.1959594928933" xmlns="http://www.w3.org/2000/svg">
<style> line {stroke: black; stroke_width: 1px;} polygon {fill: black;} </style>
<g id="domain_circles_True">
<g id="domain_bubble_0_True">
<circle r="14" cx="287" cy="255" stroke="#5858b6"
        fill="#8181f7" stroke-width="1"/>
<text x="287.0" y="255" fill="#000000" text-anchor="middle" font-family="verdana" font-size = "10">                    <tspan y="255" dy="0.35em">S</tspan></text>
</g>
<g id="domain_bubble_1_True">
<circle r="14" cx="259" cy="255" stroke="#3d79d6"
        fill="#81bef7" stroke-width="1"/>
<text x="259.0" y="255" fill="#000000" text-anchor="middle" font-family="verdana" font-size = "10">                    <tspan y="255" dy="0.35em">A</tspan></text>
</g>
<g id="domain_bubble_2_True">
<circle r="14" cx="231" cy="255" stroke="#df5d5d"
        fill="#f78181" stroke-width="1"/>
<text x="231.0" y="255" fill="#000000" text-anchor="middle" font-family="verdana" font-size = "10">                    <tspan y="255" dy="0.35em">D</tspan></text>
</g>
<g id="domain_bubble_3_True">
<circle r="14" cx="203" cy="255" stroke="#3d79d6"
        fill="#81bef7" stroke-width="1"/>
<text x="203.0" y="255" fill="#000000" text-anchor="middle" font-family="verdana" font-size = "10">                    <tspan y="255" dy="0.35em">V</tspan></text>
</g>
<g id="domain_bubble_4_True">
<circle r="14" cx="175" cy="255" stroke="#3d79d6"
        fill="#81bef7" stroke-width="1"/>
<text x="175.0" y="255" fill="#000000" text-anchor="middle" font-family="verdana" font-size = "10">                    <tspan y="255" dy="0.35em">G</tspan></text>
</g>
<g id="domain_bubble_5_True">
<circle r="14" cx="147" cy="255" stroke="#3d79d6"
        fill="#81bef7" stroke-width="1"/>
<text x="147.0" y="255" fill="#000000" text-anchor="middle" font-family="verdana" font-size = "10">                    <tspan y="255" dy="0.35em">G</tspan></text>
</g>
<g id="domain_bubble_6_True">
<circle r="14" cx="119" cy="255" stroke="#3d79d6"
        fill="#81bef7" stroke-width="1"/>
<text x="119.0" y="255" fill="#000000" text-anchor="middle" font-family="verdana" font-size = "10">                    <tspan y="255" dy="0.35em">L</tspan></text>
</g>
<g id="domain_bubble_7_True">
<circle r="14" cx="91" cy="255" stroke="#3d79d6"
        fill="#81bef7" stroke-width="1"/>
<text x="91.0" y="255" fill="#000000" text-anchor="middle" font-family="verdana" font-size = "10">                    <tspan y="255" dy="0.35em">A</tspan></text>
</g>
<g id="domain_bubble_8_True">
<circle r="14" cx="63" cy="255" stroke="#df5d5d"
        fill="#f78181" stroke-width="1"/>
<text x="63.0" y="255" fill="#000000" text-anchor="middle" font-family="verdana" font-size = "10">                    <tspan y="255" dy="0.35em">E</tspan></text>
</g>
<g id="domain_bubble_9_True">
<circle r="14" cx="35" cy="255" stroke="#df5d5d"
        fill="#f78181" stroke-width="1"/>
<text x="35.0" y="255" fill="#000000" text-anchor="middle" font-family="verdana" font-size = "10">                    <tspan y="255" dy="0.35em">E</tspan></text>
</g>
<g id="domain_bubble_10_True">
<circle r="14" cx="15" cy="274" stroke="#5858b6"
        fill="#8181f7" stroke-width="1"/>
<text x="15.20101012677667" y="274.7989898732233" fill="#000000" text-anchor="middle" font-family="verdana" font-size = "10">                    <tspan y="274.7989898732233" dy="0.35em">S</tspan></text>
</g>
<g id="domain_bubble_11_True">
<circle r="14" cx="35" cy="294" stroke="#3d79d6"
        fill="#81bef7" stroke-width="1"/>
<text x="35.0" y="294.59797974644664" fill="#000000" text-anchor="middle" font-family="verdana" font-size = "10">                    <tspan y="294.59797974644664" dy="0.35em">L</tspan></text>
</g>
<g id="domain_bubble_12_True">
<circle r="14" cx="63" cy="294" stroke="#df5d5d"
        fill="#f78181" stroke-width="1"/>
<text x="63.0" y="294.59797974644664" fill="#000000" text-anchor="middle" font-family="verdana" font-size = "10">                    <tspan y="294.59797974644664" dy="0.35em">E</tspan></text>
</g>
<g id="domain_bubble_13_True">
<circle r="14" cx="91" cy="294" stroke="#3d79d6"
        fill="#81bef7" stroke-width="1"/>
<text x="91.0" y="294.59797974644664" fill="#000000" text-anchor="middle" font-family="verdana" font-size = "10">                    <tspan y="294.59797974644664" dy="0.35em">A</tspan></text>
</g>
<g id="domain_bubble_14_True">
<circle r="14" cx="119" cy="294" stroke="#3d79d6"
        fill="#81bef7" stroke-width="1"/>
<text x="119.0" y="294.59797974644664" fill="#000000" text-anchor="middle" font-family="verdana" font-size = "10">                    <tspan y="294.59797974644664" dy="0.35em">L</tspan></text>
</g>
<g id="domain_bubble_15_True">
<circle r="14" cx="147" cy="294" stroke="#5fbb87"
        fill="#80f680" stroke-width="1"/>
<text x="147.0" y="294.59797974644664" fill="#000000" text-anchor="middle" font-family="verdana" font-size = "10">                    <tspan y="294.59797974644664" dy="0.35em">Q</tspan></text>
</g>
<g id="domain_bubble_16_True">
<circle r="14" cx="175" cy="294" stroke="#5858b6"
        fill="#8181f7" stroke-width="1"/>
<text x="175.0" y="294.59797974644664" fill="#000000" text-anchor="middle" font-family="verdana" font-size = "10">                    <tspan y="294.59797974644664" dy="0.35em">S</tspan></text>
</g>
<g id="domain_bubble_17_True">
<circle r="14" cx="203" cy="294" stroke="#5858b6"
        fill="#8181f7" stroke-width="1"/>
<text x="203.0" y="294.59797974644664" fill="#000000" text-anchor="middle" font-family="verdana" font-size = "10">                    <tspan y="294.59797974644664" dy="0.35em">S</tspan></text>
</g>
<g id="domain_bubble_18_True">
<circle r="14" cx="231" cy="294" stroke="#3d79d6"
        fill="#81bef7" stroke-width="1"/>
<text x="231.0" y="294.59797974644664" fill="#000000" text-anchor="middle" font-family="verdana" font-size = "10">                    <tspan y="294.59797974644664" dy="0.35em">L</tspan></text>
</g>
<g id="domain_bubble_19_True">
<circle r="14" cx="259" cy="294" stroke="#5fbb87"
        fill="#80f680" stroke-width="1"/>
<text x="259.0" y="294.59797974644664" fill="#000000" text-anchor="middle" font-family="verdana" font-size = "10">                    <tspan y="294.59797974644664" dy="0.35em">Q</tspan></text>
</g>
<g id="domain_bubble_20_True">
<circle r="14" cx="278" cy="314" stroke="#3d79d6"
        fill="#81bef7" stroke-width="1"/>
<text x="278.7989898732233" y="314.39696961966996" fill="#000000" text-anchor="middle" font-family="verdana" font-size = "10">                    <tspan y="314.39696961966996" dy="0.35em">G</tspan></text>
</g>
<g id="domain_bubble_21_True">
<circle r="14" cx="259" cy="334" stroke="#3d79d6"
        fill="#81bef7" stroke-width="1"/>
<text x="259.0" y="334.1959594928933" fill="#000000" text-anchor="middle" font-family="verdana" font-size = "10">                    <tspan y="334.1959594928933" dy="0.35em">A</tspan></text>
</g>
<g id="domain_bubble_22_True">
<circle r="14" cx="231" cy="334" stroke="#5858b6"
        fill="#8181f7" stroke-width="1"/>
<text x="231.0" y="334.1959594928933" fill="#000000" text-anchor="middle" font-family="verdana" font-size = "10">                    <tspan y="334.1959594928933" dy="0.35em">T</tspan></text>
</g>
<g id="domain_bubble_23_True">
<circle r="14" cx="203" cy="334" stroke="#3d79d6"
        fill="#81bef7" stroke-width="1"/>
<text x="203.0" y="334.1959594928933" fill="#000000" text-anchor="middle" font-family="verdana" font-size = "10">                    <tspan y="334.1959594928933" dy="0.35em">L</tspan></text>
</g>
<g id="domain_bubble_24_True">
<circle r="14" cx="175" cy="334" stroke="#5fc65f"
        fill="#81f781" stroke-width="1"/>
<text x="175.0" y="334.1959594928933" fill="#000000" text-anchor="middle" font-family="verdana" font-size = "10">                    <tspan y="334.1959594928933" dy="0.35em">R</tspan></text>
</g>
<g id="domain_bubble_25_True">
<circle r="14" cx="147" cy="334" stroke="#3d79d6"
        fill="#81bef7" stroke-width="1"/>
<text x="147.0" y="334.1959594928933" fill="#000000" text-anchor="middle" font-family="verdana" font-size = "10">                    <tspan y="334.1959594928933" dy="0.35em">I</tspan></text>
</g>
<g id="domain_bubble_26_True">
<circle r="14" cx="119" cy="334" stroke="#3d79d6"
        fill="#81bef7" stroke-width="1"/>
<text x="119.0" y="334.1959594928933" fill="#000000" text-anchor="middle" font-family="verdana" font-size = "10">                    <tspan y="334.1959594928933" dy="0.35em">V</tspan></text>
</g>
<g id="domain_bubble_27_True">
<circle r="14" cx="91" cy="334" stroke="#a25ba0"
        fill="#f5c4f2" stroke-width="1"/>
<text x="91.0" y="334.1959594928933" fill="#000000" text-anchor="middle" font-family="verdana" font-size = "10">                    <tspan y="334.1959594928933" dy="0.35em">P</tspan></text>
</g>
<g id="domain_bubble_28_True">
<circle r="14" cx="63" cy="334" stroke="#5fbb87"
        fill="#80f680" stroke-width="1"/>
<text x="63.0" y="334.1959594928933" fill="#000000" text-anchor="middle" font-family="verdana" font-size = "10">                    <tspan y="334.1959594928933" dy="0.35em">Q</tspan></text>
</g>
<g id="domain_bubble_29_True">
<circle r="14" cx="35" cy="334" stroke="#3d79d6"
        fill="#81bef7" stroke-width="1"/>
<text x="35.0" y="334.1959594928933" fill="#000000" text-anchor="middle" font-family="verdana" font-size = "10">                    <tspan y="334.1959594928933" dy="0.35em">G</tspan></text>
</g>
<g id="domain_bubble_30_True">
<circle r="14" cx="15" cy="353" stroke="#3d79d6"
        fill="#81bef7" stroke-width="1"/>
<text x="15.20101012677667" y="353.9949493661166" fill="#000000" text-anchor="middle" font-family="verdana" font-size = "10">                    <tspan y="353.9949493661166" dy="0.35em">L</tspan></text>
</g>
<g id="domain_bubble_31_True">
<circle r="14" cx="35" cy="373" stroke="#5fbb87"
        fill="#80f680" stroke-width="1"/>
<text x="35.0" y="373.7939392393399" fill="#000000" text-anchor="middle" font-family="verdana" font-size = "10">                    <tspan y="373.7939392393399" dy="0.35em">Q</tspan></text>
</g>
<g id="domain_bubble_32_True">
<circle r="14" cx="63" cy="373" stroke="#a25ba0"
        fill="#f5c4f2" stroke-width="1"/>
<text x="63.0" y="373.7939392393399" fill="#000000" text-anchor="middle" font-family="verdana" font-size = "10">                    <tspan y="373.7939392393399" dy="0.35em">P</tspan></text>
</g>
<g id="domain_bubble_33_True">
<circle r="14" cx="91" cy="373" stroke="#3d79d6"
        fill="#81bef7" stroke-width="1"/>
<text x="91.0" y="373.7939392393399" fill="#000000" text-anchor="middle" font-family="verdana" font-size = "10">                    <tspan y="373.7939392393399" dy="0.35em">L</tspan></text>
</g>
<g id="domain_bubble_34_True">
<circle r="14" cx="119" cy="373" stroke="#3d79d6"
        fill="#81bef7" stroke-width="1"/>
<text x="119.0" y="373.7939392393399" fill="#000000" text-anchor="middle" font-family="verdana" font-size = "10">                    <tspan y="373.7939392393399" dy="0.35em">I</tspan></text>
</g>
<g id="domain_bubble_35_True">
<circle r="14" cx="147" cy="373" stroke="#5fbb87"
        fill="#80f680" stroke-width="1"/>
<text x="147.0" y="373.7939392393399" fill="#000000" text-anchor="middle" font-family="verdana" font-size = "10">                    <tspan y="373.7939392393399" dy="0.35em">N</tspan></text>
</g>
<g id="domain_bubble_36_True">
<circle r="14" cx="175" cy="373" stroke="#5fc65f"
        fill="#81f781" stroke-width="1"/>
<text x="175.0" y="373.7939392393399" fill="#000000" text-anchor="middle" font-family="verdana" font-size = "10">                    <tspan y="373.7939392393399" dy="0.35em">K</tspan></text>
</g>
<g id="domain_bubble_37_True">
<circle r="14" cx="203" cy="373" stroke="#5fc65f"
        fill="#81f781" stroke-width="1"/>
<text x="203.0" y="373.7939392393399" fill="#000000" text-anchor="middle" font-family="verdana" font-size = "10">                    <tspan y="373.7939392393399" dy="0.35em">K</tspan></text>
</g>
<g id="domain_bubble_38_True">
<circle r="14" cx="231" cy="373" stroke="#5fbb87"
        fill="#80f680" stroke-width="1"/>
<text x="231.0" y="373.7939392393399" fill="#000000" text-anchor="middle" font-family="verdana" font-size = "10">                    <tspan y="373.7939392393399" dy="0.35em">N</tspan></text>
</g>
<g id="domain_bubble_39_True">
<circle r="14" cx="259" cy="373" stroke="#3d79d6"
        fill="#81bef7" stroke-width="1"/>
<text x="259.0" y="373.7939392393399" fill="#000000" text-anchor="middle" font-family="verdana" font-size = "10">                    <tspan y="373.7939392393399" dy="0.35em">M</tspan></text>
</g>
</g>
<g id="domain_circles_False">
<g id="domain_bubble_0_False">
<circle r="14" cx="614" cy="255" stroke="#5858b6"
        fill="#8181f7" stroke-width="1"/>
<text x="614.8" y="255" fill="#000000" text-anchor="middle" font-family="verdana" font-size = "10">                    <tspan y="255" dy="0.35em">S</tspan></text>
</g>
<g id="domain_bubble_1_False">
<circle r="14" cx="642" cy="255" stroke="#61bbad"
        fill="#81f7f3" stroke-width="1"/>
<text x="642.8" y="255" fill="#000000" text-anchor="middle" font-family="verdana" font-size = "10">                    <tspan y="255" dy="0.35em">Y</tspan></text>
</g>
<g id="domain_bubble_2_False">
<circle r="14" cx="670" cy="255" stroke="#df5d5d"
        fill="#f78181" stroke-width="1"/>
<text x="670.8" y="255" fill="#000000" text-anchor="middle" font-family="verdana" font-size = "10">                    <tspan y="255" dy="0.35em">D</tspan></text>
</g>
<g id="domain_bubble_3_False">
<circle r="14" cx="698" cy="255" stroke="#3d79d6"
        fill="#81bef7" stroke-width="1"/>
<text x="698.8" y="255" fill="#000000" text-anchor="middle" font-family="verdana" font-size = "10">                    <tspan y="255" dy="0.35em">G</tspan></text>
</g>
<g id="domain_bubble_4_False">
<circle r="14" cx="726" cy="255" stroke="#3d79d6"
        fill="#81bef7" stroke-width="1"/>
<text x="726.8" y="255" fill="#000000" text-anchor="middle" font-family="verdana" font-size = "10">                    <tspan y="255" dy="0.35em">V</tspan></text>
</g>
<g id="domain_bubble_5_False">
<circle r="14" cx="754" cy="255" stroke="#df5d5d"
        fill="#f78181" stroke-width="1"/>
<text x="754.8" y="255" fill="#000000" text-anchor="middle" font-family="verdana" font-size = "10">                    <tspan y="255" dy="0.35em">D</tspan></text>
</g>
<g id="domain_bubble_6_False">
<circle r="14" cx="782" cy="255" stroke="#3d79d6"
        fill="#81bef7" stroke-width="1"/>
<text x="782.8" y="255" fill="#000000" text-anchor="middle" font-family="verdana" font-size = "10">                    <tspan y="255" dy="0.35em">A</tspan></text>
</g>
<g id="domain_bubble_7_False">
<circle r="14" cx="810" cy="255" stroke="#5858b6"
        fill="#8181f7" stroke-width="1"/>
<text x="810.8" y="255" fill="#000000" text-anchor="middle" font-family="verdana" font-size = "10">                    <tspan y="255" dy="0.35em">S</tspan></text>
</g>
<g id="domain_bubble_8_False">
<circle r="14" cx="838" cy="255" stroke="#5858b6"
        fill="#8181f7" stroke-width="1"/>
<text x="838.8" y="255" fill="#000000" text-anchor="middle" font-family="verdana" font-size = "10">                    <tspan y="255" dy="0.35em">S</tspan></text>
</g>
<g id="domain_bubble_9_False">
<circle r="14" cx="866" cy="255" stroke="#61bbad"
        fill="#81f7f3" stroke-width="1"/>
<text x="866.8" y="255" fill="#000000" text-anchor="middle" font-family="verdana" font-size = "10">                    <tspan y="255" dy="0.35em">Y</tspan></text>
</g>
<g id="domain_bubble_10_False">
<circle r="14" cx="886" cy="274" stroke="#df5d5d"
        fill="#f78181" stroke-width="1"/>
<text x="886.5989898732233" y="274.7989898732233" fill="#000000" text-anchor="middle" font-family="verdana" font-size = "10">                    <tspan y="274.7989898732233" dy="0.35em">D</tspan></text>
</g>
<g id="domain_bubble_11_False">
<circle r="14" cx="866" cy="294" stroke="#3d79d6"
        fill="#81bef7" stroke-width="1"/>
<text x="866.8" y="294.59797974644664" fill="#000000" text-anchor="middle" font-family="verdana" font-size = "10">                    <tspan y="294.59797974644664" dy="0.35em">G</tspan></text>
</g>
<g id="domain_bubble_12_False">
<circle r="14" cx="838" cy="294" stroke="#3d79d6"
        fill="#81bef7" stroke-width="1"/>
<text x="838.8" y="294.59797974644664" fill="#000000" text-anchor="middle" font-family="verdana" font-size = "10">                    <tspan y="294.59797974644664" dy="0.35em">V</tspan></text>
</g>
<g id="domain_bubble_13_False">
<circle r="14" cx="810" cy="294" stroke="#df5d5d"
        fill="#f78181" stroke-width="1"/>
<text x="810.8" y="294.59797974644664" fill="#000000" text-anchor="middle" font-family="verdana" font-size = "10">                    <tspan y="294.59797974644664" dy="0.35em">D</tspan></text>
</g>
<g id="domain_bubble_14_False">
<circle r="14" cx="782" cy="294" stroke="#3d79d6"
        fill="#81bef7" stroke-width="1"/>
<text x="782.8" y="294.59797974644664" fill="#000000" text-anchor="middle" font-family="verdana" font-size = "10">                    <tspan y="294.59797974644664" dy="0.35em">A</tspan></text>
</g>
<g id="domain_bubble_15_False">
<circle r="14" cx="754" cy="294" stroke="#5858b6"
        fill="#8181f7" stroke-width="1"/>
<text x="754.8" y="294.59797974644664" fill="#000000" text-anchor="middle" font-family="verdana" font-size = "10">                    <tspan y="294.59797974644664" dy="0.35em">S</tspan></text>
</g>
<g id="domain_bubble_16_False">
<circle r="14" cx="726" cy="294" stroke="#5858b6"
        fill="#8181f7" stroke-width="1"/>
<text x="726.8" y="294.59797974644664" fill="#000000" text-anchor="middle" font-family="verdana" font-size = "10">                    <tspan y="294.59797974644664" dy="0.35em">S</tspan></text>
</g>
<g id="domain_bubble_17_False">
<circle r="14" cx="698" cy="294" stroke="#61bbad"
        fill="#81f7f3" stroke-width="1"/>
<text x="698.8" y="294.59797974644664" fill="#000000" text-anchor="middle" font-family="verdana" font-size = "10">                    <tspan y="294.59797974644664" dy="0.35em">Y</tspan></text>
</g>
<g id="domain_bubble_18_False">
<circle r="14" cx="670" cy="294" stroke="#df5d5d"
        fill="#f78181" stroke-width="1"/>
<text x="670.8" y="294.59797974644664" fill="#000000" text-anchor="middle" font-family="verdana" font-size = "10">                    <tspan y="294.59797974644664" dy="0.35em">D</tspan></text>
</g>
<g id="domain_bubble_19_False">
<circle r="14" cx="642" cy="294" stroke="#df5d5d"
        fill="#f78181" stroke-width="1"/>
<text x="642.8" y="294.59797974644664" fill="#000000" text-anchor="middle" font-family="verdana" font-size = "10">                    <tspan y="294.59797974644664" dy="0.35em">D</tspan></text>
</g>
</g>
<g id="unlabeled">
<g id="atom_N_0">
<polygon points="314.76114973455253,254.57070664988325 313.3388502654475,251.92929335011675 316.9444251327237,250.83964667505836 317.6555748672763,252.16035332494164" />
<line x1="307.3" y1="255.0" x2="303.8" y2="255.0" />
<g id="atom_N_0_text">
<text x="310.8" y="255" text-anchor="middle" font-family="verdana" font-size="8"><tspan y="255" dy="0.35em">N</tspan></text>
<text x="310.8" y="262.0" text-anchor="middle" font-family="verdana" font-size="8"><tspan y="262.0" dy="0.35em">H</tspan></text>
</g>
</g>
<g id="atom_C_1">
<polygon points="323.8,248.0 317.6555748672763,252.16035332494164 316.9444251327237,250.83964667505836" />
<line x1="323.8" y1="248.0" x2="323.8" y2="240.5" />
<line x1="323.8" y1="248.0" x2="330.3" y2="251.5" />
</g>
<g id="atom_Leader_59">
<line x1="300.3" y1="255.0" x2="303.8" y2="255.0" />
</g>
<g id="atom_C_3">
<line x1="323.8" y1="233.0" x2="323.8" y2="240.5" />
<line x1="323.8" y1="233.0" x2="317.3" y2="229.0" />
<g id="chiral-bond-back" stroke="black" stroke-width="1">
  <line x1="323.8" y1="233.0" x2="323.8" y2="233.0" />
  <line x1="326.24277077230073" y1="231.14450250498865" x2="326.55722922769934" y2="231.65549749501136" />
  <line x1="328.6855415446014" y1="229.28900500997727" x2="329.3144584553986" y2="230.31099499002275" />
</g>
</g>
<g id="atom_C_7">
<line x1="336.8" y1="255.0" x2="330.3" y2="251.5" />
<line x1="338.1500000000001" y1="254.2730769230769" x2="338.15000000000003" y2="262.5" />
<line x1="335.45" y1="254.27307692307693" x2="335.45" y2="262.5" />
<line x1="336.8" y1="255.0" x2="343.3" y2="251.5" />
</g>
<g id="atom_O_5">
<line x1="314.05" y1="227.0" x2="317.3" y2="229.0" />
<g id="atom_O_5_text">
<text x="310.8" y="225" text-anchor="middle" font-family="verdana" font-size="8"><tspan y="225" dy="0.35em">O</tspan></text>
<text x="304.8" y="225.0" text-anchor="middle" font-family="verdana" font-size="8"><tspan y="225.0" dy="0.35em">H</tspan></text>
</g>
</g>
<g id="atom_C_6">
<g id="chiral-bond-back" stroke="black" stroke-width="1">
  <line x1="336.0138538615035" y1="223.72251252494317" x2="337.58614613849653" y2="226.27748747505683" />
  <line x1="333.5710830892028" y1="225.57801001995455" x2="334.8289169107972" y2="227.62198998004544" />
  <line x1="331.1283123169021" y1="227.4335075149659" x2="332.07168768309793" y2="228.96649248503408" />
</g>
</g>
<g id="atom_O_8">
<line x1="338.15000000000003" y1="266.25" x2="338.15000000000003" y2="262.5" />
<line x1="335.45" y1="266.25" x2="335.45" y2="262.5" />
<g id="atom_O_8_text">
<text x="336.8" y="270" text-anchor="middle" font-family="verdana" font-size="8"><tspan y="270" dy="0.35em">O</tspan></text>
</g>
</g>
<g id="atom_N_9">
<line x1="346.55" y1="249.75" x2="343.3" y2="251.5" />
<line x1="353.05" y1="249.75" x2="356.3" y2="251.5" />
<g id="atom_N_9_text">
<text x="349.8" y="248" text-anchor="middle" font-family="verdana" font-size="8"><tspan y="248" dy="0.35em">N</tspan></text>
<text x="349.8" y="241.0" text-anchor="middle" font-family="verdana" font-size="8"><tspan y="241.0" dy="0.35em">H</tspan></text>
</g>
</g>
<g id="atom_C_10">
<line x1="362.8" y1="255.0" x2="356.3" y2="251.5" />
<g id="chiral-bond-back" stroke="black" stroke-width="1">
  <line x1="362.8" y1="255.0" x2="362.8" y2="255.0" />
  <line x1="362.5" y1="258.0" x2="363.1" y2="258.0" />
  <line x1="362.2" y1="261.0" x2="363.40000000000003" y2="261.0" />
</g>
<line x1="362.8" y1="255.0" x2="369.3" y2="251.5" />
</g>
<g id="atom_C_12">
<g id="chiral-bond-back" stroke="black" stroke-width="1">
  <line x1="361.3" y1="270.0" x2="364.3" y2="270.0" />
  <line x1="361.6" y1="267.0" x2="364.0" y2="267.0" />
  <line x1="361.90000000000003" y1="264.0" x2="363.7" y2="264.0" />
</g>
<line x1="362.8" y1="270.0" x2="369.3" y2="274.0" />
</g>
<g id="atom_C_14">
<line x1="375.8" y1="248.0" x2="369.3" y2="251.5" />
<line x1="377.1500000000001" y1="248.7269230769231" x2="377.15000000000003" y2="240.5" />
<line x1="374.45" y1="248.72692307692307" x2="374.45" y2="240.5" />
<line x1="375.8" y1="248.0" x2="382.3" y2="251.5" />
</g>
<g id="atom_O_13">
<line x1="372.55" y1="276.0" x2="369.3" y2="274.0" />
<g id="atom_O_13_text">
<text x="375.8" y="278" text-anchor="middle" font-family="verdana" font-size="8"><tspan y="278" dy="0.35em">O</tspan></text>
<text x="381.8" y="278.0" text-anchor="middle" font-family="verdana" font-size="8"><tspan y="278.0" dy="0.35em">H</tspan></text>
</g>
</g>
<g id="atom_O_15">
<line x1="377.15000000000003" y1="236.75" x2="377.15000000000003" y2="240.5" />
<line x1="374.45" y1="236.75" x2="374.45" y2="240.5" />
<g id="atom_O_15_text">
<text x="375.8" y="233" text-anchor="middle" font-family="verdana" font-size="8"><tspan y="233" dy="0.35em">O</tspan></text>
</g>
</g>
<g id="atom_N_16">
<line x1="385.55" y1="253.25" x2="382.3" y2="251.5" />
<polygon points="392.76114973455253,254.57070664988325 391.3388502654475,251.92929335011675 394.9444251327237,250.83964667505836 395.6555748672763,252.16035332494164" />
<g id="atom_N_16_text">
<text x="388.8" y="255" text-anchor="middle" font-family="verdana" font-size="8"><tspan y="255" dy="0.35em">N</tspan></text>
<text x="388.8" y="262.0" text-anchor="middle" font-family="verdana" font-size="8"><tspan y="262.0" dy="0.35em">H</tspan></text>
</g>
</g>
<g id="atom_C_17">
<polygon points="401.8,248.0 395.6555748672763,252.16035332494164 394.9444251327237,250.83964667505836" />
<line x1="401.8" y1="248.0" x2="401.8" y2="240.5" />
<line x1="401.8" y1="248.0" x2="408.3" y2="251.5" />
</g>
<g id="atom_C_19">
<line x1="401.8" y1="233.0" x2="401.8" y2="240.5" />
<line x1="401.8" y1="233.0" x2="408.3" y2="229.0" />
<polygon points="401.8,233.0 395.69307306924827,228.36125626247158 394.90692693075175,229.63874373752842" />
</g>
<g id="atom_C_24">
<line x1="414.8" y1="255.0" x2="408.3" y2="251.5" />
<line x1="416.1500000000001" y1="254.2730769230769" x2="416.15000000000003" y2="262.5" />
<line x1="413.45" y1="254.27307692307693" x2="413.45" y2="262.5" />
<line x1="414.8" y1="255.0" x2="421.3" y2="251.5" />
</g>
<g id="atom_C_21">
<line x1="414.8" y1="225.0" x2="408.3" y2="229.0" />
<line x1="414.8" y1="225.0" x2="414.8" y2="217.5" />
</g>
<g id="atom_C_23">
<polygon points="389.58614613849653,223.72251252494317 388.0138538615035,226.27748747505683 394.90692693075175,229.63874373752842 395.69307306924827,228.36125626247158" />
</g>
<g id="atom_O_25">
<line x1="416.15000000000003" y1="266.25" x2="416.15000000000003" y2="262.5" />
<line x1="413.45" y1="266.25" x2="413.45" y2="262.5" />
<g id="atom_O_25_text">
<text x="414.8" y="270" text-anchor="middle" font-family="verdana" font-size="8"><tspan y="270" dy="0.35em">O</tspan></text>
</g>
</g>
<g id="atom_N_26">
<line x1="424.55" y1="249.75" x2="421.3" y2="251.5" />
<line x1="431.05" y1="249.75" x2="434.3" y2="251.5" />
<g id="atom_N_26_text">
<text x="427.8" y="248" text-anchor="middle" font-family="verdana" font-size="8"><tspan y="248" dy="0.35em">N</tspan></text>
<text x="427.8" y="241.0" text-anchor="middle" font-family="verdana" font-size="8"><tspan y="241.0" dy="0.35em">H</tspan></text>
</g>
</g>
<g id="atom_C_22">
<line x1="414.8" y1="210.0" x2="414.8" y2="217.5" />
</g>
<g id="atom_C_27">
<line x1="440.8" y1="255.0" x2="434.3" y2="251.5" />
<g id="chiral-bond-back" stroke="black" stroke-width="1">
  <line x1="440.8" y1="255.0" x2="440.8" y2="255.0" />
  <line x1="440.5" y1="258.0" x2="441.1" y2="258.0" />
  <line x1="440.2" y1="261.0" x2="441.40000000000003" y2="261.0" />
</g>
<line x1="440.8" y1="255.0" x2="447.3" y2="251.5" />
</g>
<g id="atom_C_29">
<g id="chiral-bond-back" stroke="black" stroke-width="1">
  <line x1="439.3" y1="270.0" x2="442.3" y2="270.0" />
  <line x1="439.6" y1="267.0" x2="442.0" y2="267.0" />
  <line x1="439.90000000000003" y1="264.0" x2="441.7" y2="264.0" />
</g>
</g>
<g id="atom_C_30">
<line x1="453.8" y1="248.0" x2="447.3" y2="251.5" />
<line x1="455.1500000000001" y1="248.7269230769231" x2="455.15000000000003" y2="240.5" />
<line x1="452.45" y1="248.72692307692307" x2="452.45" y2="240.5" />
<line x1="453.8" y1="248.0" x2="460.3" y2="251.5" />
</g>
<g id="atom_O_31">
<line x1="455.15000000000003" y1="236.75" x2="455.15000000000003" y2="240.5" />
<line x1="452.45" y1="236.75" x2="452.45" y2="240.5" />
<g id="atom_O_31_text">
<text x="453.8" y="233" text-anchor="middle" font-family="verdana" font-size="8"><tspan y="233" dy="0.35em">O</tspan></text>
</g>
</g>
<g id="atom_N_32">
<line x1="463.55" y1="253.25" x2="460.3" y2="251.5" />
<line x1="470.55" y1="255.0" x2="474.3" y2="255.0" />
<line x1="465.8" y1="258.5" x2="464.8" y2="262.0" />
<g id="atom_N_32_text">
<text x="466.8" y="255" text-anchor="middle" font-family="verdana" font-size="8"><tspan y="255" dy="0.35em">N</tspan></text>
</g>
</g>
<g id="atom_C_33">
<line x1="481.8" y1="255.0" x2="474.3" y2="255.0" />
<line x1="481.8" y1="255.0" x2="484.3" y2="262.0" />
<g id="chiral-bond-back" stroke="black" stroke-width="1">
  <line x1="481.8" y1="255.0" x2="481.8" y2="255.0" />
  <line x1="484.25777005308953" y1="253.33585867002336" x2="484.54222994691054" y2="253.86414132997663" />
  <line x1="486.715540106179" y1="251.67171734004668" x2="487.284459893821" y2="252.7282826599533" />
</g>
</g>
<g id="atom_C_37">
<line x1="462.8" y1="269.0" x2="464.8" y2="262.0" />
<line x1="462.8" y1="269.0" x2="468.8" y2="273.5" />
</g>
<g id="atom_C_35">
<line x1="486.8" y1="269.0" x2="484.3" y2="262.0" />
<line x1="486.8" y1="269.0" x2="480.8" y2="273.5" />
</g>
<g id="atom_C_38">
<g id="chiral-bond-back" stroke="black" stroke-width="1">
  <line x1="494.0888502654475" y1="246.67929335011675" x2="495.51114973455253" y2="249.32070664988325" />
  <line x1="491.631080212358" y1="248.3434346800934" x2="492.768919787642" y2="250.45656531990662" />
  <line x1="489.1733101592685" y1="250.00757601007007" x2="490.02668984073154" y2="251.59242398992996" />
</g>
<line x1="496.1500000000001" y1="248.7269230769231" x2="496.15000000000003" y2="240.5" />
<line x1="493.45" y1="248.72692307692307" x2="493.45" y2="240.5" />
<line x1="494.8" y1="248.0" x2="501.3" y2="251.5" />
</g>
<g id="atom_C_36">
<line x1="474.8" y1="278.0" x2="468.8" y2="273.5" />
<line x1="474.8" y1="278.0" x2="480.8" y2="273.5" />
</g>
<g id="atom_O_39">
<line x1="496.15000000000003" y1="236.75" x2="496.15000000000003" y2="240.5" />
<line x1="493.45" y1="236.75" x2="493.45" y2="240.5" />
<g id="atom_O_39_text">
<text x="494.8" y="233" text-anchor="middle" font-family="verdana" font-size="8"><tspan y="233" dy="0.35em">O</tspan></text>
</g>
</g>
<g id="atom_N_40">
<line x1="504.55" y1="253.25" x2="501.3" y2="251.5" />
<line x1="511.04999999999995" y1="253.25" x2="514.3" y2="251.5" />
<g id="atom_N_40_text">
<text x="507.8" y="255" text-anchor="middle" font-family="verdana" font-size="8"><tspan y="255" dy="0.35em">N</tspan></text>
<text x="507.8" y="262.0" text-anchor="middle" font-family="verdana" font-size="8"><tspan y="262.0" dy="0.35em">H</tspan></text>
</g>
</g>
<g id="atom_C_41">
<line x1="520.8" y1="248.0" x2="514.3" y2="251.5" />
<polygon points="520.8,248.0 521.55,240.5 520.05,240.5" />
<line x1="520.8" y1="248.0" x2="527.3" y2="251.5" />
</g>
<g id="atom_C_43">
<polygon points="522.3,233.0 519.3,233.0 520.05,240.5 521.55,240.5" />
<line x1="520.8" y1="233.0" x2="527.3" y2="229.0" />
</g>
<g id="atom_C_50">
<line x1="533.8" y1="255.0" x2="527.3" y2="251.5" />
<line x1="535.15" y1="254.27307692307684" x2="535.15" y2="262.5" />
<line x1="532.4499999999999" y1="254.27307692307693" x2="532.4499999999999" y2="262.5" />
<line x1="533.8" y1="255.0" x2="540.3" y2="251.5" />
</g>
<g id="atom_C_44">
<line x1="533.8" y1="225.0" x2="527.3" y2="229.0" />
<line x1="533.8" y1="225.0" x2="540.3" y2="229.0" />
<line x1="536.5150630492936" y1="223.50052254489773" x2="541.7150630492937" y2="226.70052254489772" />
<line x1="533.8" y1="225.0" x2="533.8" y2="217.5" />
</g>
<g id="atom_C_45">
<line x1="546.8" y1="233.0" x2="540.3" y2="229.0" />
<line x1="546.9150630492937" y1="229.9005225448977" x2="541.7150630492937" y2="226.70052254489772" />
<line x1="546.8" y1="233.0" x2="553.3" y2="229.0" />
</g>
<g id="atom_C_49">
<line x1="533.8" y1="210.0" x2="533.8" y2="217.5" />
<line x1="533.8" y1="210.0" x2="540.3" y2="206.5" />
<line x1="536.3800695221945" y1="211.67727196978987" x2="541.5800695221945" y2="208.87727196978986" />
</g>
<g id="atom_C_46">
<line x1="559.8" y1="225.0" x2="553.3" y2="229.0" />
<line x1="559.8" y1="225.0" x2="559.8" y2="217.5" />
<line x1="557.0999999999999" y1="223.5" x2="557.0999999999999" y2="217.5" />
</g>
<g id="atom_C_47">
<line x1="559.8" y1="210.0" x2="559.8" y2="217.5" />
<line x1="557.0999999999999" y1="211.5" x2="557.0999999999999" y2="217.5" />
<line x1="559.8" y1="210.0" x2="553.3" y2="206.5" />
</g>
<g id="atom_C_48">
<line x1="546.8" y1="203.0" x2="553.3" y2="206.5" />
<line x1="546.8" y1="203.0" x2="540.3" y2="206.5" />
<line x1="546.7800695221946" y1="206.07727196978985" x2="541.5800695221945" y2="208.87727196978986" />
</g>
<g id="atom_O_51">
<line x1="535.15" y1="266.25" x2="535.15" y2="262.5" />
<line x1="532.4499999999999" y1="266.25" x2="532.4499999999999" y2="262.5" />
<g id="atom_O_51_text">
<text x="533.8" y="270" text-anchor="middle" font-family="verdana" font-size="8"><tspan y="270" dy="0.35em">O</tspan></text>
</g>
</g>
<g id="atom_N_52">
<line x1="543.55" y1="249.75" x2="540.3" y2="251.5" />
<line x1="550.05" y1="249.75" x2="553.3" y2="251.5" />
<g id="atom_N_52_text">
<text x="546.8" y="248" text-anchor="middle" font-family="verdana" font-size="8"><tspan y="248" dy="0.35em">N</tspan></text>
<text x="546.8" y="241.0" text-anchor="middle" font-family="verdana" font-size="8"><tspan y="241.0" dy="0.35em">H</tspan></text>
</g>
</g>
<g id="atom_C_53">
<line x1="559.8" y1="255.0" x2="553.3" y2="251.5" />
<g id="chiral-bond-back" stroke="black" stroke-width="1">
  <line x1="559.8" y1="255.0" x2="559.8" y2="255.0" />
  <line x1="559.5" y1="258.0" x2="560.0999999999999" y2="258.0" />
  <line x1="559.1999999999999" y1="261.0" x2="560.4" y2="261.0" />
</g>
<line x1="559.8" y1="255.0" x2="566.3" y2="251.5" />
</g>
<g id="atom_C_55">
<g id="chiral-bond-back" stroke="black" stroke-width="1">
  <line x1="558.3" y1="270.0" x2="561.3" y2="270.0" />
  <line x1="558.5999999999999" y1="267.0" x2="561.0" y2="267.0" />
  <line x1="558.9" y1="264.0" x2="560.6999999999999" y2="264.0" />
</g>
<line x1="559.8" y1="270.0" x2="566.3" y2="274.0" />
</g>
<g id="atom_C_57">
<line x1="572.8" y1="248.0" x2="566.3" y2="251.5" />
<line x1="574.15" y1="248.7269230769231" x2="574.15" y2="240.5" />
<line x1="571.4499999999998" y1="248.72692307692307" x2="571.4499999999999" y2="240.5" />
<line x1="572.8" y1="248.0" x2="579.3" y2="251.5" />
</g>
<g id="atom_S_56">
<line x1="569.55" y1="276.0" x2="566.3" y2="274.0" />
<g id="atom_S_56_text">
<text x="572.8" y="278" text-anchor="middle" font-family="verdana" font-size="8"><tspan y="278" dy="0.35em">S</tspan></text>
<text x="578.8" y="278.0" text-anchor="middle" font-family="verdana" font-size="8"><tspan y="278.0" dy="0.35em">H</tspan></text>
</g>
</g>
<g id="atom_O_58">
<line x1="574.15" y1="236.75" x2="574.15" y2="240.5" />
<line x1="571.4499999999999" y1="236.75" x2="571.4499999999999" y2="240.5" />
<g id="atom_O_58_text">
<text x="572.8" y="233" text-anchor="middle" font-family="verdana" font-size="8"><tspan y="233" dy="0.35em">O</tspan></text>
</g>
</g>
<g id="atom_N_103">
<line x1="582.55" y1="253.25" x2="579.3" y2="251.5" />
<line x1="589.55" y1="255.0" x2="593.3" y2="255.0" />
<g id="atom_N_103_text">
<text x="585.8" y="255" text-anchor="middle" font-family="verdana" font-size="8"><tspan y="255" dy="0.35em">N</tspan></text>
<text x="585.8" y="262.0" text-anchor="middle" font-family="verdana" font-size="8"><tspan y="262.0" dy="0.35em">H</tspan></text>
</g>
</g>
<g id="atom_Follower_102">
<line x1="597.05" y1="255.0" x2="593.3" y2="255.0" />
</g>
</g>
</svg>