<svg width="943" height="187" viewBox="0 0 943 187" xmlns="http://www.w3.org/2000/svg">
<style> line {stroke: black; stroke_width: 1px;} polygon {fill: black;} </style>
<g id="arrows">
<g id="labelled_arrow_0">
<g id="arrow_0">
<line x1="252" x2="292" y1="78.5" y2="78.5" stroke-width="2" stroke="black" />
<line x1="287" x2="292" y1="73.5" y2="78.5" stroke-width="2" stroke="black" />
<line x1="287" x2="292" y1="83.5" y2="78.5" stroke-width="2" stroke="black" />
</g>
<text x="272.0" y="67.5" fill="'black" text-anchor="middle" font-family="verdana" font-size = "12"><tspan y="67.5" dy="0.35em">truD</tspan></text>
</g>
<g id="labelled_arrow_1">
<g id="arrow_1">
<line x1="544" x2="584" y1="78.5" y2="78.5" stroke-width="2" stroke="black" />
<line x1="579" x2="584" y1="73.5" y2="78.5" stroke-width="2" stroke="black" />
<line x1="579" x2="584" y1="83.5" y2="78.5" stroke-width="2" stroke="black" />
</g>
<text x="564.0" y="67.5" fill="'black" text-anchor="middle" font-family="verdana" font-size = "12"><tspan y="67.5" dy="0.35em">truF</tspan></text>
</g>
</g>
<g id="unlabeled_s0">
<g id="atom_C_1_s0">
<polygon points="37.0,118.0 41.63874373752841,124.10692693075175 40.36125626247159,124.89307306924825" />
<line x1="37.0" y1="118.0" x2="29.5" y2="118.0" />
<line x1="37.0" y1="118.0" x2="41.0" y2="111.5" />
</g>
<g id="atom_N_0_s0">
<polygon points="44.277487475056816,126.9638538615035 41.722512524943184,128.5361461384965 40.36125626247159,124.89307306924825 41.63874373752841,124.10692693075175" />
<g id="atom_N_0_s0_text">
<text x="45.0" y="131.0" text-anchor="middle" font-family="verdana" font-size="8"><tspan y="131.0" dy="0.35em">N</tspan></text>
<text x="51.0" y="131.0" text-anchor="middle" font-family="verdana" font-size="8"><tspan y="131.0" dy="0.35em">H</tspan></text>
<text x="56.0" y="134.0" text-anchor="middle" font-family="verdana" font-size="6"><tspan y="134.0" dy="0.35em">2</tspan></text>
</g>
</g>
<g id="atom_C_3_s0">
<line x1="22.0" y1="118.0" x2="29.5" y2="118.0" />
<line x1="22.0" y1="118.0" x2="18.5" y2="124.5" />
<g id="chiral-bond-back" stroke="black" stroke-width="1">
  <line x1="22.0" y1="118.0" x2="22.0" y2="118.0" />
  <line x1="20.33585867002335" y1="115.54222994691051" x2="20.864141329976654" y2="115.2577700530895" />
  <line x1="18.671717340046694" y1="113.084459893821" x2="19.728282659953305" y2="112.51554010617899" />
</g>
</g>
<g id="atom_O_5_s0">
<line x1="16.75" y1="127.75" x2="18.5" y2="124.5" />
<g id="atom_O_5_s0_text">
<text x="15.0" y="131.0" text-anchor="middle" font-family="verdana" font-size="8"><tspan y="131.0" dy="0.35em">O</tspan></text>
<text x="9.0" y="131.0" text-anchor="middle" font-family="verdana" font-size="8"><tspan y="131.0" dy="0.35em">H</tspan></text>
</g>
</g>
<g id="atom_C_6_s0">
<g id="chiral-bond-back" stroke="black" stroke-width="1">
  <line x1="13.679293350116737" y1="105.71114973455252" x2="16.320706649883263" y2="104.28885026544748" />
  <line x1="15.343434680093388" y1="108.16891978764201" x2="17.45656531990661" y2="107.03108021235798" />
  <line x1="17.007576010070043" y1="110.62668984073152" x2="18.59242398992996" y2="109.77331015926849" />
</g>
</g>
<g id="atom_C_7_s0">
<line x1="45.0" y1="105.0" x2="41.0" y2="111.5" />
<line x1="46.585142742718425" y1="105.0" x2="42.14973872755113" y2="97.79246847535315" />
<line x1="44.207428628640784" y1="106.28792847845872" x2="39.85026127244887" y2="99.20753152464685" />
<line x1="45.0" y1="105.0" x2="52.5" y2="105.0" />
</g>
<g id="atom_O_8_s0">
<line x1="40.14973872755113" y1="94.54246847535315" x2="42.14973872755113" y2="97.79246847535315" />
<line x1="37.85026127244887" y1="95.95753152464685" x2="39.85026127244887" y2="99.20753152464685" />
<g id="atom_O_8_s0_text">
<text x="37.0" y="92.0" text-anchor="middle" font-family="verdana" font-size="8"><tspan y="92.0" dy="0.35em">O</tspan></text>
</g>
</g>
<g id="atom_N_9_s0">
<line x1="56.25" y1="105.0" x2="52.5" y2="105.0" />
<line x1="61.75" y1="101.75" x2="63.5" y2="98.5" />
<g id="atom_N_9_s0_text">
<text x="60.0" y="105.0" text-anchor="middle" font-family="verdana" font-size="8"><tspan y="105.0" dy="0.35em">N</tspan></text>
<text x="60.0" y="112.0" text-anchor="middle" font-family="verdana" font-size="8"><tspan y="112.0" dy="0.35em">H</tspan></text>
</g>
</g>
<g id="atom_C_10_s0">
<line x1="67.0" y1="92.0" x2="63.5" y2="98.5" />
<polygon points="67.0,92.0 63.63874373752841,85.10692693075175 62.36125626247159,85.89307306924825" />
<line x1="67.0" y1="92.0" x2="74.5" y2="92.0" />
</g>
<g id="atom_C_12_s0">
<polygon points="60.277487475056816,78.2138538615035 57.722512524943184,79.7861461384965 62.36125626247159,85.89307306924825 63.63874373752841,85.10692693075175" />
<line x1="59.0" y1="79.0" x2="51.5" y2="79.0" />
</g>
<g id="atom_O_13_s0">
<line x1="47.75" y1="79.0" x2="51.5" y2="79.0" />
<g id="atom_O_13_s0_text">
<text x="44.0" y="79.0" text-anchor="middle" font-family="verdana" font-size="8"><tspan y="79.0" dy="0.35em">O</tspan></text>
<text x="38.0" y="79.0" text-anchor="middle" font-family="verdana" font-size="8"><tspan y="79.0" dy="0.35em">H</tspan></text>
</g>
</g>
<g id="atom_C_14_s0">
<line x1="82.0" y1="92.0" x2="74.5" y2="92.0" />
<line x1="82.73973327993528" y1="90.62620962297736" x2="87.14973872755114" y2="97.79246847535315" />
<line x1="80.41485725728157" y1="92.0" x2="84.85026127244886" y2="99.20753152464685" />
<line x1="82.0" y1="92.0" x2="85.5" y2="85.5" />
</g>
<g id="atom_O_15_s0">
<line x1="89.14973872755114" y1="101.04246847535315" x2="87.14973872755114" y2="97.79246847535315" />
<line x1="86.85026127244886" y1="102.45753152464685" x2="84.85026127244886" y2="99.20753152464685" />
<g id="atom_O_15_s0_text">
<text x="90.0" y="105.0" text-anchor="middle" font-family="verdana" font-size="8"><tspan y="105.0" dy="0.35em">O</tspan></text>
</g>
</g>
<g id="atom_N_16_s0">
<line x1="87.25" y1="82.25" x2="85.5" y2="85.5" />
<g id="chiral-bond-back" stroke="black" stroke-width="1">
  <line x1="95.0" y1="78.1" x2="95.0" y2="79.9" />
</g>
<g id="atom_N_16_s0_text">
<text x="89.0" y="79.0" text-anchor="middle" font-family="verdana" font-size="8"><tspan y="79.0" dy="0.35em">N</tspan></text>
<text x="89.0" y="72.0" text-anchor="middle" font-family="verdana" font-size="8"><tspan y="72.0" dy="0.35em">H</tspan></text>
</g>
</g>
<g id="atom_C_17_s0">
<g id="chiral-bond-back" stroke="black" stroke-width="1">
  <line x1="104.0" y1="79.0" x2="104.0" y2="79.0" />
  <line x1="101.0" y1="78.7" x2="101.0" y2="79.3" />
  <line x1="98.0" y1="78.4" x2="98.0" y2="79.6" />
</g>
<line x1="104.0" y1="79.0" x2="108.0" y2="85.5" />
<line x1="104.0" y1="79.0" x2="108.0" y2="72.5" />
</g>
<g id="atom_C_19_s0">
<line x1="112.0" y1="92.0" x2="108.0" y2="85.5" />
<line x1="112.0" y1="92.0" x2="108.5" y2="98.5" />
<polygon points="112.0,92.0 119.5,91.25 119.5,92.75" />
</g>
<g id="atom_C_21_s0">
<line x1="105.0" y1="105.0" x2="108.5" y2="98.5" />
<line x1="105.0" y1="105.0" x2="108.5" y2="111.5" />
</g>
<g id="atom_C_22_s0">
<line x1="112.0" y1="118.0" x2="108.5" y2="111.5" />
</g>
<g id="atom_C_23_s0">
<polygon points="127.0,90.5 127.0,93.5 119.5,92.75 119.5,91.25" />
</g>
<g id="atom_C_24_s0">
<line x1="112.0" y1="66.0" x2="108.0" y2="72.5" />
<line x1="113.58514274271845" y1="66.0" x2="109.14973872755114" y2="58.79246847535315" />
<line x1="111.20742862864078" y1="67.28792847845874" x2="106.85026127244886" y2="60.20753152464685" />
<line x1="112.0" y1="66.0" x2="119.5" y2="66.0" />
</g>
<g id="atom_O_25_s0">
<line x1="107.14973872755114" y1="55.54246847535315" x2="109.14973872755114" y2="58.79246847535315" />
<line x1="104.85026127244886" y1="56.95753152464685" x2="106.85026127244886" y2="60.20753152464685" />
<g id="atom_O_25_s0_text">
<text x="104.0" y="53.0" text-anchor="middle" font-family="verdana" font-size="8"><tspan y="53.0" dy="0.35em">O</tspan></text>
</g>
</g>
<g id="atom_N_26_s0">
<line x1="123.25" y1="66.0" x2="119.5" y2="66.0" />
<line x1="128.75" y1="62.75" x2="130.5" y2="59.5" />
<g id="atom_N_26_s0_text">
<text x="127.0" y="66.0" text-anchor="middle" font-family="verdana" font-size="8"><tspan y="66.0" dy="0.35em">N</tspan></text>
<text x="127.0" y="73.0" text-anchor="middle" font-family="verdana" font-size="8"><tspan y="73.0" dy="0.35em">H</tspan></text>
</g>
</g>
<g id="atom_C_27_s0">
<line x1="134.0" y1="53.0" x2="130.5" y2="59.5" />
<polygon points="134.0,53.0 131.16035332494164,46.14442513272374 129.83964667505836,46.85557486727626" />
<line x1="134.0" y1="53.0" x2="141.5" y2="53.0" />
</g>
<g id="atom_C_29_s0">
<polygon points="128.32070664988325,39.28885026544747 125.67929335011674,40.71114973455253 129.83964667505836,46.85557486727626 131.16035332494164,46.14442513272374" />
</g>
<g id="atom_C_30_s0">
<line x1="149.0" y1="53.0" x2="141.5" y2="53.0" />
<line x1="149.7925713713592" y1="51.71207152154128" x2="154.14973872755112" y2="58.79246847535315" />
<line x1="147.41485725728157" y1="53.0" x2="151.85026127244888" y2="60.20753152464685" />
<line x1="149.0" y1="53.0" x2="153.0" y2="46.5" />
</g>
<g id="atom_O_31_s0">
<line x1="156.14973872755112" y1="62.04246847535315" x2="154.14973872755112" y2="58.79246847535315" />
<line x1="153.85026127244888" y1="63.45753152464685" x2="151.85026127244888" y2="60.20753152464685" />
<g id="atom_O_31_s0_text">
<text x="157.0" y="66.0" text-anchor="middle" font-family="verdana" font-size="8"><tspan y="66.0" dy="0.35em">O</tspan></text>
</g>
</g>
<g id="atom_N_32_s0">
<line x1="155.0" y1="43.25" x2="153.0" y2="46.5" />
<line x1="160.75" y1="39.75" x2="164.5" y2="39.5" />
<line x1="155.5" y1="36.75" x2="154.0" y2="33.5" />
<g id="atom_N_32_s0_text">
<text x="157.0" y="40.0" text-anchor="middle" font-family="verdana" font-size="8"><tspan y="40.0" dy="0.35em">N</tspan></text>
</g>
</g>
<g id="atom_C_33_s0">
<line x1="172.0" y1="39.0" x2="164.5" y2="39.5" />
<line x1="172.0" y1="39.0" x2="173.5" y2="31.5" />
<polygon points="172.0,39.0 177.55495505504695,43.99549540450277 176.44504494495305,45.00450459549723" />
</g>
<g id="atom_C_35_s0">
<line x1="175.0" y1="24.0" x2="173.5" y2="31.5" />
<line x1="175.0" y1="24.0" x2="168.5" y2="20.5" />
</g>
<g id="atom_C_36_s0">
<line x1="162.0" y1="17.0" x2="168.5" y2="20.5" />
<line x1="162.0" y1="17.0" x2="156.5" y2="22.0" />
</g>
<g id="atom_C_37_s0">
<line x1="151.0" y1="27.0" x2="156.5" y2="22.0" />
<line x1="151.0" y1="27.0" x2="154.0" y2="33.5" />
</g>
<g id="atom_C_38_s0">
<polygon points="183.10991011009392,48.99099080900553 180.89008988990608,51.00900919099447 176.44504494495305,45.00450459549723 177.55495505504695,43.99549540450277" />
<line x1="181.47048643512693" y1="51.48263798164467" x2="189.76475678243654" y2="49.82378391218274" />
<line x1="180.94097287025383" y1="48.83507015727919" x2="189.23524321756346" y2="47.17621608781726" />
<line x1="182.0" y1="50.0" x2="179.5" y2="57.0" />
</g>
<g id="atom_O_39_s0">
<line x1="193.51475678243654" y1="49.07378391218274" x2="189.76475678243654" y2="49.82378391218274" />
<line x1="192.98524321756346" y1="46.42621608781726" x2="189.23524321756346" y2="47.17621608781726" />
<g id="atom_O_39_s0_text">
<text x="197.0" y="47.0" text-anchor="middle" font-family="verdana" font-size="8"><tspan y="47.0" dy="0.35em">O</tspan></text>
</g>
</g>
<g id="atom_N_40_s0">
<line x1="178.25" y1="60.5" x2="179.5" y2="57.0" />
<line x1="179.5" y1="66.75" x2="182.0" y2="69.5" />
<g id="atom_N_40_s0_text">
<text x="177.0" y="64.0" text-anchor="middle" font-family="verdana" font-size="8"><tspan y="64.0" dy="0.35em">N</tspan></text>
<text x="171.0" y="64.0" text-anchor="middle" font-family="verdana" font-size="8"><tspan y="64.0" dy="0.35em">H</tspan></text>
</g>
</g>
<g id="atom_C_41_s0">
<line x1="187.0" y1="75.0" x2="182.0" y2="69.5" />
<polygon points="187.0,75.0 194.64708710135363,74.23543550676818 194.35291289864637,72.76456449323182" />
<line x1="187.0" y1="75.0" x2="185.0" y2="82.0" />
</g>
<g id="atom_C_43_s0">
<polygon points="202.29417420270727,73.47087101353638 201.70582579729273,70.52912898646362 194.35291289864637,72.76456449323182 194.64708710135363,74.23543550676818" />
<line x1="202.0" y1="72.0" x2="207.0" y2="77.5" />
</g>
<g id="atom_C_44_s0">
<line x1="212.0" y1="83.0" x2="207.0" y2="77.5" />
<line x1="212.0" y1="83.0" x2="209.5" y2="90.5" />
<line x1="214.0614449047364" y1="85.35381496824546" x2="212.0614449047364" y2="91.35381496824546" />
<line x1="212.0" y1="83.0" x2="219.5" y2="81.5" />
</g>
<g id="atom_C_45_s0">
<line x1="207.0" y1="98.0" x2="209.5" y2="90.5" />
<line x1="210.0614449047364" y1="97.35381496824546" x2="212.0614449047364" y2="91.35381496824546" />
<line x1="207.0" y1="98.0" x2="212.0" y2="103.5" />
</g>
<g id="atom_C_46_s0">
<line x1="217.0" y1="109.0" x2="212.0" y2="103.5" />
<line x1="217.0" y1="109.0" x2="224.5" y2="107.5" />
<line x1="217.9704864351269" y1="106.05243217563452" x2="223.9704864351269" y2="104.85243217563452" />
</g>
<g id="atom_C_47_s0">
<line x1="232.0" y1="106.0" x2="224.5" y2="107.5" />
<line x1="229.9704864351269" y1="103.65243217563452" x2="223.9704864351269" y2="104.85243217563452" />
<line x1="232.0" y1="106.0" x2="234.5" y2="98.5" />
</g>
<g id="atom_C_48_s0">
<line x1="237.0" y1="91.0" x2="234.5" y2="98.5" />
<line x1="237.0" y1="91.0" x2="232.0" y2="85.5" />
<line x1="234.00216180183097" y1="91.71621654379005" x2="230.00216180183097" y2="87.31621654379005" />
</g>
<g id="atom_C_49_s0">
<line x1="227.0" y1="80.0" x2="232.0" y2="85.5" />
<line x1="226.00216180183097" y1="82.91621654379004" x2="230.00216180183097" y2="87.31621654379005" />
<line x1="227.0" y1="80.0" x2="219.5" y2="81.5" />
</g>
<g id="atom_C_50_s0">
<line x1="183.0" y1="89.0" x2="185.0" y2="82.0" />
<line x1="183.95261981090684" y1="90.14314377308823" x2="175.84784457825646" y2="92.30441716846168" />
<line x1="183.4321162028856" y1="87.48759328990045" x2="175.15215542174354" y2="89.69558283153832" />
<line x1="183.0" y1="89.0" x2="188.0" y2="95.0" />
</g>
<g id="atom_O_51_s0">
<line x1="172.09784457825646" y1="93.30441716846168" x2="175.84784457825646" y2="92.30441716846168" />
<line x1="171.40215542174354" y1="90.69558283153832" x2="175.15215542174354" y2="89.69558283153832" />
<g id="atom_O_51_s0_text">
<text x="168.0" y="93.0" text-anchor="middle" font-family="verdana" font-size="8"><tspan y="93.0" dy="0.35em">O</tspan></text>
</g>
</g>
<g id="atom_N_52_s0">
<line x1="190.5" y1="98.0" x2="188.0" y2="95.0" />
<line x1="191.75" y1="104.5" x2="190.5" y2="108.0" />
<g id="atom_N_52_s0_text">
<text x="193.0" y="101.0" text-anchor="middle" font-family="verdana" font-size="8"><tspan y="101.0" dy="0.35em">N</tspan></text>
<text x="199.0" y="101.0" text-anchor="middle" font-family="verdana" font-size="8"><tspan y="101.0" dy="0.35em">H</tspan></text>
</g>
</g>
<g id="atom_C_53_s0">
<line x1="188.0" y1="115.0" x2="190.5" y2="108.0" />
<g id="chiral-bond-back" stroke="black" stroke-width="1">
  <line x1="188.0" y1="115.0" x2="188.0" y2="115.0" />
  <line x1="184.94116515945854" y1="115.30582579729271" x2="185.05883484054146" y2="115.89417420270728" />
  <line x1="181.8823303189171" y1="115.61165159458545" x2="182.1176696810829" y2="116.78834840541455" />
</g>
<line x1="188.0" y1="115.0" x2="193.0" y2="120.5" />
</g>
<g id="atom_C_55_s0">
<g id="chiral-bond-back" stroke="black" stroke-width="1">
  <line x1="172.70582579729273" y1="116.52912898646362" x2="173.29417420270727" y2="119.47087101353638" />
  <line x1="175.76466063783417" y1="116.2233031891709" x2="176.23533936216583" y2="118.5766968108291" />
  <line x1="178.82349547837563" y1="115.91747739187817" x2="179.17650452162437" y2="117.68252260812183" />
</g>
<line x1="173.0" y1="118.0" x2="171.0" y2="125.0" />
</g>
<g id="atom_S_56_s0">
<line x1="170.0" y1="128.5" x2="171.0" y2="125.0" />
<g id="atom_S_56_s0_text">
<text x="169.0" y="132.0" text-anchor="middle" font-family="verdana" font-size="8"><tspan y="132.0" dy="0.35em">S</tspan></text>
<text x="163.0" y="132.0" text-anchor="middle" font-family="verdana" font-size="8"><tspan y="132.0" dy="0.35em">H</tspan></text>
</g>
</g>
<g id="atom_C_57_s0">
<line x1="198.0" y1="126.0" x2="193.0" y2="120.5" />
<line x1="199.4891133864437" y1="125.70217732271125" x2="197.2980573293151" y2="133.37087352266147" />
<line x1="196.93172300537734" y1="124.82489530591506" x2="194.7019426706849" y2="132.62912647733853" />
<line x1="198.0" y1="126.0" x2="205.5" y2="124.5" />
</g>
<g id="atom_O_58_s0">
<line x1="196.2980573293151" y1="136.87087352266147" x2="197.2980573293151" y2="133.37087352266147" />
<line x1="193.7019426706849" y1="136.12912647733853" x2="194.7019426706849" y2="132.62912647733853" />
<g id="atom_O_58_s0_text">
<text x="194.0" y="140.0" text-anchor="middle" font-family="verdana" font-size="8"><tspan y="140.0" dy="0.35em">O</tspan></text>
</g>
</g>
<g id="atom_O_59_s0">
<line x1="209.25" y1="123.75" x2="205.5" y2="124.5" />
<g id="atom_O_59_s0_text">
<text x="213.0" y="123.0" text-anchor="middle" font-family="verdana" font-size="8"><tspan y="123.0" dy="0.35em">O</tspan></text>
<text x="219.0" y="123.0" text-anchor="middle" font-family="verdana" font-size="8"><tspan y="123.0" dy="0.35em">H</tspan></text>
</g>
</g>
</g>
<g id="unlabeled_s1">
<g id="atom_C_1_s1">
<polygon points="329.0,121.5 333.6387437375284,127.60692693075175 332.3612562624716,128.39307306924826" />
<line x1="329.0" y1="121.5" x2="321.5" y2="121.5" />
<line x1="329.0" y1="121.5" x2="333.0" y2="115.0" />
</g>
<g id="atom_N_0_s1">
<polygon points="336.27748747505683,130.4638538615035 333.72251252494317,132.0361461384965 332.3612562624716,128.39307306924826 333.6387437375284,127.60692693075175" />
<g id="atom_N_0_s1_text">
<text x="337.0" y="134.5" text-anchor="middle" font-family="verdana" font-size="8"><tspan y="134.5" dy="0.35em">N</tspan></text>
<text x="343.0" y="134.5" text-anchor="middle" font-family="verdana" font-size="8"><tspan y="134.5" dy="0.35em">H</tspan></text>
<text x="348.0" y="137.5" text-anchor="middle" font-family="verdana" font-size="6"><tspan y="137.5" dy="0.35em">2</tspan></text>
</g>
</g>
<g id="atom_C_3_s1">
<line x1="314.0" y1="121.5" x2="321.5" y2="121.5" />
<line x1="314.0" y1="121.5" x2="310.5" y2="128.0" />
<g id="chiral-bond-back" stroke="black" stroke-width="1">
  <line x1="314.0" y1="121.5" x2="314.0" y2="121.5" />
  <line x1="312.33585867002336" y1="119.04222994691051" x2="312.8641413299767" y2="118.7577700530895" />
  <line x1="310.6717173400467" y1="116.584459893821" x2="311.72828265995327" y2="116.01554010617899" />
</g>
</g>
<g id="atom_C_7_s1">
<line x1="337.0" y1="108.5" x2="333.0" y2="115.0" />
<line x1="338.5851427427184" y1="108.5" x2="334.14973872755115" y2="101.29246847535315" />
<line x1="336.20742862864074" y1="109.78792847845874" x2="331.85026127244885" y2="102.70753152464685" />
<line x1="337.0" y1="108.5" x2="344.5" y2="108.5" />
</g>
<g id="atom_O_5_s1">
<line x1="308.75" y1="131.25" x2="310.5" y2="128.0" />
<g id="atom_O_5_s1_text">
<text x="307.0" y="134.5" text-anchor="middle" font-family="verdana" font-size="8"><tspan y="134.5" dy="0.35em">O</tspan></text>
<text x="301.0" y="134.5" text-anchor="middle" font-family="verdana" font-size="8"><tspan y="134.5" dy="0.35em">H</tspan></text>
</g>
</g>
<g id="atom_C_6_s1">
<g id="chiral-bond-back" stroke="black" stroke-width="1">
  <line x1="305.6792933501167" y1="109.21114973455252" x2="308.3207066498833" y2="107.78885026544748" />
  <line x1="307.34343468009337" y1="111.66891978764201" x2="309.4565653199066" y2="110.53108021235798" />
  <line x1="309.00757601007007" y1="114.12668984073152" x2="310.59242398992996" y2="113.27331015926849" />
</g>
</g>
<g id="atom_O_8_s1">
<line x1="332.14973872755115" y1="98.04246847535315" x2="334.14973872755115" y2="101.29246847535315" />
<line x1="329.85026127244885" y1="99.45753152464685" x2="331.85026127244885" y2="102.70753152464685" />
<g id="atom_O_8_s1_text">
<text x="329.0" y="95.5" text-anchor="middle" font-family="verdana" font-size="8"><tspan y="95.5" dy="0.35em">O</tspan></text>
</g>
</g>
<g id="atom_N_9_s1">
<line x1="348.25" y1="108.5" x2="344.5" y2="108.5" />
<line x1="353.75" y1="105.25" x2="355.5" y2="102.0" />
<g id="atom_N_9_s1_text">
<text x="352.0" y="108.5" text-anchor="middle" font-family="verdana" font-size="8"><tspan y="108.5" dy="0.35em">N</tspan></text>
<text x="352.0" y="115.5" text-anchor="middle" font-family="verdana" font-size="8"><tspan y="115.5" dy="0.35em">H</tspan></text>
</g>
</g>
<g id="atom_C_10_s1">
<line x1="359.0" y1="95.5" x2="355.5" y2="102.0" />
<polygon points="359.0,95.5 355.6387437375284,88.60692693075175 354.3612562624716,89.39307306924825" />
<line x1="359.0" y1="95.5" x2="366.5" y2="95.5" />
</g>
<g id="atom_C_12_s1">
<polygon points="352.27748747505683,81.7138538615035 349.72251252494317,83.2861461384965 354.3612562624716,89.39307306924825 355.6387437375284,88.60692693075175" />
<line x1="351.0" y1="82.5" x2="343.5" y2="82.5" />
</g>
<g id="atom_C_14_s1">
<line x1="374.0" y1="95.5" x2="366.5" y2="95.5" />
<line x1="374.73973327993525" y1="94.12620962297738" x2="379.14973872755115" y2="101.29246847535315" />
<line x1="372.4148572572816" y1="95.5" x2="376.85026127244885" y2="102.70753152464685" />
<line x1="374.0" y1="95.5" x2="377.5" y2="89.0" />
</g>
<g id="atom_O_13_s1">
<line x1="339.75" y1="82.5" x2="343.5" y2="82.5" />
<g id="atom_O_13_s1_text">
<text x="336.0" y="82.5" text-anchor="middle" font-family="verdana" font-size="8"><tspan y="82.5" dy="0.35em">O</tspan></text>
<text x="330.0" y="82.5" text-anchor="middle" font-family="verdana" font-size="8"><tspan y="82.5" dy="0.35em">H</tspan></text>
</g>
</g>
<g id="atom_O_15_s1">
<line x1="381.14973872755115" y1="104.54246847535315" x2="379.14973872755115" y2="101.29246847535315" />
<line x1="378.85026127244885" y1="105.95753152464685" x2="376.85026127244885" y2="102.70753152464685" />
<g id="atom_O_15_s1_text">
<text x="382.0" y="108.5" text-anchor="middle" font-family="verdana" font-size="8"><tspan y="108.5" dy="0.35em">O</tspan></text>
</g>
</g>
<g id="atom_N_16_s1">
<line x1="379.25" y1="85.75" x2="377.5" y2="89.0" />
<g id="chiral-bond-back" stroke="black" stroke-width="1">
  <line x1="387.0" y1="81.6" x2="387.0" y2="83.4" />
</g>
<g id="atom_N_16_s1_text">
<text x="381.0" y="82.5" text-anchor="middle" font-family="verdana" font-size="8"><tspan y="82.5" dy="0.35em">N</tspan></text>
<text x="381.0" y="75.5" text-anchor="middle" font-family="verdana" font-size="8"><tspan y="75.5" dy="0.35em">H</tspan></text>
</g>
</g>
<g id="atom_C_17_s1">
<g id="chiral-bond-back" stroke="black" stroke-width="1">
  <line x1="396.0" y1="82.5" x2="396.0" y2="82.5" />
  <line x1="393.0" y1="82.2" x2="393.0" y2="82.8" />
  <line x1="390.0" y1="81.9" x2="390.0" y2="83.1" />
</g>
<line x1="396.0" y1="82.5" x2="400.0" y2="89.0" />
<line x1="396.0" y1="82.5" x2="400.0" y2="76.0" />
</g>
<g id="atom_C_19_s1">
<line x1="404.0" y1="95.5" x2="400.0" y2="89.0" />
<line x1="404.0" y1="95.5" x2="400.5" y2="102.0" />
<polygon points="404.0,95.5 411.5,94.75 411.5,96.25" />
</g>
<g id="atom_C_24_s1">
<line x1="404.0" y1="69.5" x2="400.0" y2="76.0" />
<line x1="405.5851427427184" y1="69.5" x2="401.14973872755115" y2="62.29246847535315" />
<line x1="403.20742862864074" y1="70.7879284784587" x2="398.85026127244885" y2="63.70753152464685" />
<line x1="404.0" y1="69.5" x2="411.5" y2="69.5" />
</g>
<g id="atom_C_21_s1">
<line x1="397.0" y1="108.5" x2="400.5" y2="102.0" />
<line x1="397.0" y1="108.5" x2="400.5" y2="115.0" />
</g>
<g id="atom_C_23_s1">
<polygon points="419.0,94.0 419.0,97.0 411.5,96.25 411.5,94.75" />
</g>
<g id="atom_O_25_s1">
<line x1="399.14973872755115" y1="59.04246847535315" x2="401.14973872755115" y2="62.29246847535315" />
<line x1="396.85026127244885" y1="60.45753152464685" x2="398.85026127244885" y2="63.70753152464685" />
<g id="atom_O_25_s1_text">
<text x="396.0" y="56.5" text-anchor="middle" font-family="verdana" font-size="8"><tspan y="56.5" dy="0.35em">O</tspan></text>
</g>
</g>
<g id="atom_N_26_s1">
<line x1="415.25" y1="69.5" x2="411.5" y2="69.5" />
<line x1="420.75" y1="66.25" x2="422.5" y2="63.0" />
<g id="atom_N_26_s1_text">
<text x="419.0" y="69.5" text-anchor="middle" font-family="verdana" font-size="8"><tspan y="69.5" dy="0.35em">N</tspan></text>
<text x="419.0" y="76.5" text-anchor="middle" font-family="verdana" font-size="8"><tspan y="76.5" dy="0.35em">H</tspan></text>
</g>
</g>
<g id="atom_C_22_s1">
<line x1="404.0" y1="121.5" x2="400.5" y2="115.0" />
</g>
<g id="atom_C_27_s1">
<line x1="426.0" y1="56.5" x2="422.5" y2="63.0" />
<polygon points="426.0,56.5 423.16035332494164,49.64442513272374 421.83964667505836,50.35557486727626" />
<line x1="426.0" y1="56.5" x2="433.5" y2="56.5" />
</g>
<g id="atom_C_29_s1">
<polygon points="420.3207066498833,42.78885026544747 417.6792933501167,44.21114973455253 421.83964667505836,50.35557486727626 423.16035332494164,49.64442513272374" />
</g>
<g id="atom_C_30_s1">
<line x1="441.0" y1="56.5" x2="433.5" y2="56.5" />
<line x1="441.79257137135926" y1="55.21207152154133" x2="446.14973872755115" y2="62.29246847535315" />
<line x1="439.4148572572816" y1="56.5" x2="443.85026127244885" y2="63.70753152464685" />
<line x1="441.0" y1="56.5" x2="445.0" y2="50.0" />
</g>
<g id="atom_O_31_s1">
<line x1="448.14973872755115" y1="65.54246847535315" x2="446.14973872755115" y2="62.29246847535315" />
<line x1="445.85026127244885" y1="66.95753152464685" x2="443.85026127244885" y2="63.70753152464685" />
<g id="atom_O_31_s1_text">
<text x="449.0" y="69.5" text-anchor="middle" font-family="verdana" font-size="8"><tspan y="69.5" dy="0.35em">O</tspan></text>
</g>
</g>
<g id="atom_N_32_s1">
<line x1="447.0" y1="46.75" x2="445.0" y2="50.0" />
<line x1="452.75" y1="43.25" x2="456.5" y2="43.0" />
<line x1="447.5" y1="40.25" x2="446.0" y2="37.0" />
<g id="atom_N_32_s1_text">
<text x="449.0" y="43.5" text-anchor="middle" font-family="verdana" font-size="8"><tspan y="43.5" dy="0.35em">N</tspan></text>
</g>
</g>
<g id="atom_C_33_s1">
<line x1="464.0" y1="42.5" x2="456.5" y2="43.0" />
<line x1="464.0" y1="42.5" x2="465.5" y2="35.0" />
<polygon points="464.0,42.5 469.55495505504695,47.49549540450277 468.44504494495305,48.50450459549723" />
</g>
<g id="atom_C_37_s1">
<line x1="443.0" y1="30.5" x2="446.0" y2="37.0" />
<line x1="443.0" y1="30.5" x2="448.5" y2="25.5" />
</g>
<g id="atom_C_35_s1">
<line x1="467.0" y1="27.5" x2="465.5" y2="35.0" />
<line x1="467.0" y1="27.5" x2="460.5" y2="24.0" />
</g>
<g id="atom_C_38_s1">
<polygon points="475.1099101100939,52.49099080900553 472.8900898899061,54.50900919099447 468.44504494495305,48.50450459549723 469.55495505504695,47.49549540450277" />
<line x1="473.47048643512693" y1="54.98263798164467" x2="481.76475678243656" y2="53.32378391218274" />
<line x1="472.94097287025386" y1="52.3350701572792" x2="481.23524321756344" y2="50.67621608781726" />
<line x1="474.0" y1="53.5" x2="471.5" y2="60.5" />
</g>
<g id="atom_C_36_s1">
<line x1="454.0" y1="20.5" x2="448.5" y2="25.5" />
<line x1="454.0" y1="20.5" x2="460.5" y2="24.0" />
</g>
<g id="atom_O_39_s1">
<line x1="485.51475678243656" y1="52.57378391218274" x2="481.76475678243656" y2="53.32378391218274" />
<line x1="484.98524321756344" y1="49.92621608781726" x2="481.23524321756344" y2="50.67621608781726" />
<g id="atom_O_39_s1_text">
<text x="489.0" y="50.5" text-anchor="middle" font-family="verdana" font-size="8"><tspan y="50.5" dy="0.35em">O</tspan></text>
</g>
</g>
<g id="atom_N_40_s1">
<line x1="470.25" y1="64.0" x2="471.5" y2="60.5" />
<line x1="471.5" y1="70.25" x2="474.0" y2="73.0" />
<g id="atom_N_40_s1_text">
<text x="469.0" y="67.5" text-anchor="middle" font-family="verdana" font-size="8"><tspan y="67.5" dy="0.35em">N</tspan></text>
<text x="463.0" y="67.5" text-anchor="middle" font-family="verdana" font-size="8"><tspan y="67.5" dy="0.35em">H</tspan></text>
</g>
</g>
<g id="atom_C_41_s1">
<line x1="479.0" y1="78.5" x2="474.0" y2="73.0" />
<polygon points="479.0,78.5 486.64708710135363,77.73543550676818 486.35291289864637,76.26456449323182" />
<line x1="479.0" y1="78.5" x2="477.0" y2="85.5" />
</g>
<g id="atom_C_43_s1">
<polygon points="494.29417420270727,76.97087101353638 493.70582579729273,74.02912898646362 486.35291289864637,76.26456449323182 486.64708710135363,77.73543550676818" />
<line x1="494.0" y1="75.5" x2="499.0" y2="81.0" />
</g>
<g id="atom_C_50_s1">
<line x1="475.0" y1="92.5" x2="477.0" y2="85.5" />
<line x1="475.0" y1="92.5" x2="467.5" y2="95.0" />
<line x1="474.35381496824544" y1="95.56144490473639" x2="468.35381496824544" y2="97.56144490473639" />
<line x1="475.0" y1="92.5" x2="479.5" y2="99.0" />
</g>
<g id="atom_C_44_s1">
<line x1="504.0" y1="86.5" x2="499.0" y2="81.0" />
<line x1="504.0" y1="86.5" x2="501.5" y2="94.0" />
<line x1="506.0614449047364" y1="88.85381496824546" x2="504.0614449047364" y2="94.85381496824546" />
<line x1="504.0" y1="86.5" x2="511.5" y2="85.0" />
</g>
<g id="atom_C_45_s1">
<line x1="499.0" y1="101.5" x2="501.5" y2="94.0" />
<line x1="502.0614449047364" y1="100.85381496824546" x2="504.0614449047364" y2="94.85381496824546" />
<line x1="499.0" y1="101.5" x2="504.0" y2="107.0" />
</g>
<g id="atom_C_49_s1">
<line x1="519.0" y1="83.5" x2="511.5" y2="85.0" />
<line x1="519.0" y1="83.5" x2="524.0" y2="89.0" />
<line x1="518.002161801831" y1="86.41621654379004" x2="522.002161801831" y2="90.81621654379005" />
</g>
<g id="atom_C_46_s1">
<line x1="509.0" y1="112.5" x2="504.0" y2="107.0" />
<line x1="509.0" y1="112.5" x2="516.5" y2="111.0" />
<line x1="509.97048643512693" y1="109.55243217563452" x2="515.9704864351269" y2="108.35243217563452" />
</g>
<g id="atom_C_47_s1">
<line x1="524.0" y1="109.5" x2="516.5" y2="111.0" />
<line x1="521.9704864351269" y1="107.15243217563452" x2="515.9704864351269" y2="108.35243217563452" />
<line x1="524.0" y1="109.5" x2="526.5" y2="102.0" />
</g>
<g id="atom_C_48_s1">
<line x1="529.0" y1="94.5" x2="526.5" y2="102.0" />
<line x1="529.0" y1="94.5" x2="524.0" y2="89.0" />
<line x1="526.002161801831" y1="95.21621654379005" x2="522.002161801831" y2="90.81621654379005" />
</g>
<g id="atom_N_52_s1">
<line x1="463.75" y1="96.25" x2="467.5" y2="95.0" />
<line x1="462.35381496824544" y1="99.56144490473639" x2="468.35381496824544" y2="97.56144490473639" />
<line x1="460.0" y1="101.25" x2="460.0" y2="105.0" />
<g id="atom_N_52_s1_text">
<text x="460.0" y="97.5" text-anchor="middle" font-family="verdana" font-size="8"><tspan y="97.5" dy="0.35em">N</tspan></text>
</g>
</g>
<g id="atom_S_56_s1">
<line x1="481.75" y1="102.25" x2="479.5" y2="99.0" />
<line x1="481.75" y1="108.5" x2="479.5" y2="111.5" />
<g id="atom_S_56_s1_text">
<text x="484.0" y="105.5" text-anchor="middle" font-family="verdana" font-size="8"><tspan y="105.5" dy="0.35em">S</tspan></text>
</g>
</g>
<g id="atom_C_53_s1">
<line x1="460.0" y1="112.5" x2="460.0" y2="105.0" />
<line x1="460.0" y1="112.5" x2="467.5" y2="115.0" />
<polygon points="460.0,112.5 454.45,117.6 453.55,116.4" />
</g>
<g id="atom_C_55_s1">
<line x1="475.0" y1="117.5" x2="467.5" y2="115.0" />
<line x1="475.0" y1="117.5" x2="479.5" y2="111.5" />
</g>
<g id="atom_C_57_s1">
<polygon points="448.9,122.7 447.1,120.3 453.55,116.4 454.45,117.6" />
<line x1="449.22724180542366" y1="120.57956864593224" x2="442.06572853957334" y2="117.27425483092439" />
<line x1="448.2112465402779" y1="123.08434905208385" x2="440.93427146042666" y2="119.72574516907561" />
<line x1="448.0" y1="121.5" x2="449.0" y2="129.0" />
</g>
<g id="atom_O_58_s1">
<line x1="438.81572853957334" y1="115.77425483092439" x2="442.06572853957334" y2="117.27425483092439" />
<line x1="437.68427146042666" y1="118.22574516907561" x2="440.93427146042666" y2="119.72574516907561" />
<g id="atom_O_58_s1_text">
<text x="435.0" y="115.5" text-anchor="middle" font-family="verdana" font-size="8"><tspan y="115.5" dy="0.35em">O</tspan></text>
</g>
</g>
<g id="atom_O_59_s1">
<line x1="449.5" y1="132.75" x2="449.0" y2="129.0" />
<g id="atom_O_59_s1_text">
<text x="450.0" y="136.5" text-anchor="middle" font-family="verdana" font-size="8"><tspan y="136.5" dy="0.35em">O</tspan></text>
<text x="456.0" y="136.5" text-anchor="middle" font-family="verdana" font-size="8"><tspan y="136.5" dy="0.35em">H</tspan></text>
</g>
</g>
</g>
<g id="unlabeled_s2">
<g id="atom_C_1_s2">
<polygon points="658.0,116.0 662.6387437375284,122.10692693075175 661.3612562624716,122.89307306924825" />
<line x1="658.0" y1="116.0" x2="650.5" y2="116.0" />
<line x1="658.0" y1="116.0" x2="662.0" y2="109.5" />
</g>
<g id="atom_N_0_s2">
<polygon points="665.2774874750568,124.9638538615035 662.7225125249432,126.5361461384965 661.3612562624716,122.89307306924825 662.6387437375284,122.10692693075175" />
<g id="atom_N_0_s2_text">
<text x="666.0" y="129.0" text-anchor="middle" font-family="verdana" font-size="8"><tspan y="129.0" dy="0.35em">N</tspan></text>
<text x="672.0" y="129.0" text-anchor="middle" font-family="verdana" font-size="8"><tspan y="129.0" dy="0.35em">H</tspan></text>
<text x="677.0" y="132.0" text-anchor="middle" font-family="verdana" font-size="6"><tspan y="132.0" dy="0.35em">2</tspan></text>
</g>
</g>
<g id="atom_C_3_s2">
<line x1="643.0" y1="116.0" x2="650.5" y2="116.0" />
<line x1="643.0" y1="116.0" x2="639.5" y2="122.5" />
<g id="chiral-bond-back" stroke="black" stroke-width="1">
  <line x1="643.0" y1="116.0" x2="643.0" y2="116.0" />
  <line x1="641.3358586700234" y1="113.54222994691051" x2="641.8641413299766" y2="113.2577700530895" />
  <line x1="639.6717173400467" y1="111.084459893821" x2="640.7282826599534" y2="110.51554010617899" />
</g>
</g>
<g id="atom_C_7_s2">
<line x1="666.0" y1="103.0" x2="662.0" y2="109.5" />
<line x1="667.5851427427185" y1="103.0" x2="663.1497387275512" y2="95.79246847535315" />
<line x1="665.2074286286407" y1="104.28792847845874" x2="660.8502612724488" y2="97.20753152464685" />
<line x1="666.0" y1="103.0" x2="673.5" y2="103.0" />
</g>
<g id="atom_O_5_s2">
<line x1="637.75" y1="125.75" x2="639.5" y2="122.5" />
<line x1="632.25" y1="129.0" x2="628.5" y2="129.0" />
<g id="atom_O_5_s2_text">
<text x="636.0" y="129.0" text-anchor="middle" font-family="verdana" font-size="8"><tspan y="129.0" dy="0.35em">O</tspan></text>
</g>
</g>
<g id="atom_C_6_s2">
<g id="chiral-bond-back" stroke="black" stroke-width="1">
  <line x1="634.6792933501167" y1="103.71114973455252" x2="637.3207066498833" y2="102.28885026544748" />
  <line x1="636.3434346800934" y1="106.16891978764201" x2="638.4565653199065" y2="105.03108021235798" />
  <line x1="638.00757601007" y1="108.62668984073152" x2="639.5924239899299" y2="107.77331015926849" />
</g>
</g>
<g id="atom_O_8_s2">
<line x1="661.1497387275512" y1="92.54246847535315" x2="663.1497387275512" y2="95.79246847535315" />
<line x1="658.8502612724488" y1="93.95753152464685" x2="660.8502612724488" y2="97.20753152464685" />
<g id="atom_O_8_s2_text">
<text x="658.0" y="90.0" text-anchor="middle" font-family="verdana" font-size="8"><tspan y="90.0" dy="0.35em">O</tspan></text>
</g>
</g>
<g id="atom_N_9_s2">
<line x1="677.25" y1="103.0" x2="673.5" y2="103.0" />
<line x1="682.75" y1="99.75" x2="684.5" y2="96.5" />
<g id="atom_N_9_s2_text">
<text x="681.0" y="103.0" text-anchor="middle" font-family="verdana" font-size="8"><tspan y="103.0" dy="0.35em">N</tspan></text>
<text x="681.0" y="110.0" text-anchor="middle" font-family="verdana" font-size="8"><tspan y="110.0" dy="0.35em">H</tspan></text>
</g>
</g>
<g id="atom_C_69_s2">
<line x1="621.0" y1="129.0" x2="628.5" y2="129.0" />
<line x1="621.0" y1="129.0" x2="614.5" y2="125.5" />
<line x1="621.0" y1="129.0" x2="621.0" y2="121.5" />
<line x1="621.0" y1="129.0" x2="617.5" y2="135.5" />
</g>
<g id="atom_C_104_s2">
<line x1="608.0" y1="122.0" x2="614.5" y2="125.5" />
</g>
<g id="atom_C_114_s2">
<line x1="621.0" y1="114.0" x2="621.0" y2="121.5" />
</g>
<g id="atom_C_115_s2">
<line x1="614.0" y1="142.0" x2="617.5" y2="135.5" />
<line x1="614.0" y1="142.0" x2="606.5" y2="142.0" />
<line x1="614.0" y1="139.3" x2="606.5" y2="139.3" />
</g>
<g id="atom_C_10_s2">
<line x1="688.0" y1="90.0" x2="684.5" y2="96.5" />
<polygon points="688.0,90.0 685.1603533249416,83.14442513272374 683.8396466750584,83.85557486727626" />
<line x1="688.0" y1="90.0" x2="695.5" y2="90.0" />
</g>
<g id="atom_C_12_s2">
<polygon points="682.3207066498833,76.28885026544748 679.6792933501167,77.71114973455252 683.8396466750584,83.85557486727626 685.1603533249416,83.14442513272374" />
<line x1="681.0" y1="77.0" x2="673.5" y2="77.0" />
</g>
<g id="atom_C_14_s2">
<line x1="703.0" y1="90.0" x2="695.5" y2="90.0" />
<line x1="703.7925713713593" y1="88.71207152154126" x2="708.1497387275512" y2="95.79246847535315" />
<line x1="701.4148572572815" y1="90.0" x2="705.8502612724488" y2="97.20753152464685" />
<line x1="703.0" y1="90.0" x2="707.0" y2="83.5" />
</g>
<g id="atom_C_116_s2">
<line x1="599.0" y1="142.0" x2="606.5" y2="142.0" />
<line x1="599.0" y1="139.3" x2="606.5" y2="139.3" />
</g>
<g id="atom_O_13_s2">
<line x1="669.75" y1="77.0" x2="673.5" y2="77.0" />
<line x1="664.0" y1="73.75" x2="662.0" y2="70.5" />
<g id="atom_O_13_s2_text">
<text x="666.0" y="77.0" text-anchor="middle" font-family="verdana" font-size="8"><tspan y="77.0" dy="0.35em">O</tspan></text>
</g>
</g>
<g id="atom_C_51_s2">
<line x1="658.0" y1="64.0" x2="662.0" y2="70.5" />
<line x1="658.0" y1="64.0" x2="658.0" y2="56.5" />
<line x1="658.0" y1="64.0" x2="664.5" y2="60.5" />
<line x1="658.0" y1="64.0" x2="650.5" y2="64.0" />
</g>
<g id="atom_C_97_s2">
<line x1="658.0" y1="49.0" x2="658.0" y2="56.5" />
</g>
<g id="atom_C_100_s2">
<line x1="671.0" y1="57.0" x2="664.5" y2="60.5" />
</g>
<g id="atom_C_102_s2">
<line x1="643.0" y1="64.0" x2="650.5" y2="64.0" />
<line x1="643.0" y1="64.0" x2="639.5" y2="57.5" />
<line x1="645.3772719697898" y1="62.719930477805455" x2="641.8772719697898" y2="56.219930477805455" />
</g>
<g id="atom_O_15_s2">
<line x1="710.1497387275512" y1="99.04246847535315" x2="708.1497387275512" y2="95.79246847535315" />
<line x1="707.8502612724488" y1="100.45753152464685" x2="705.8502612724488" y2="97.20753152464685" />
<g id="atom_O_15_s2_text">
<text x="711.0" y="103.0" text-anchor="middle" font-family="verdana" font-size="8"><tspan y="103.0" dy="0.35em">O</tspan></text>
</g>
</g>
<g id="atom_N_16_s2">
<line x1="709.0" y1="80.25" x2="707.0" y2="83.5" />
<g id="chiral-bond-back" stroke="black" stroke-width="1">
  <line x1="717.0" y1="76.1" x2="717.0" y2="77.9" />
</g>
<g id="atom_N_16_s2_text">
<text x="711.0" y="77.0" text-anchor="middle" font-family="verdana" font-size="8"><tspan y="77.0" dy="0.35em">N</tspan></text>
<text x="711.0" y="70.0" text-anchor="middle" font-family="verdana" font-size="8"><tspan y="70.0" dy="0.35em">H</tspan></text>
</g>
</g>
<g id="atom_C_103_s2">
<line x1="636.0" y1="51.0" x2="639.5" y2="57.5" />
<line x1="638.3772719697898" y1="49.719930477805455" x2="641.8772719697898" y2="56.219930477805455" />
</g>
<g id="atom_C_17_s2">
<g id="chiral-bond-back" stroke="black" stroke-width="1">
  <line x1="726.0" y1="77.0" x2="726.0" y2="77.0" />
  <line x1="723.0" y1="76.7" x2="723.0" y2="77.3" />
  <line x1="720.0" y1="76.4" x2="720.0" y2="77.6" />
</g>
<line x1="726.0" y1="77.0" x2="729.5" y2="83.5" />
<line x1="726.0" y1="77.0" x2="729.5" y2="70.5" />
</g>
<g id="atom_C_19_s2">
<line x1="733.0" y1="90.0" x2="729.5" y2="83.5" />
<line x1="733.0" y1="90.0" x2="729.5" y2="96.5" />
<polygon points="733.0,90.0 740.5,89.25 740.5,90.75" />
</g>
<g id="atom_C_24_s2">
<line x1="733.0" y1="64.0" x2="729.5" y2="70.5" />
<line x1="734.5332700870243" y1="64.0" x2="730.688635984895" y2="56.859965238902724" />
<line x1="732.2333649564879" y1="65.42375079509387" x2="728.311364015105" y2="58.14003476109727" />
<line x1="733.0" y1="64.0" x2="740.5" y2="64.0" />
</g>
<g id="atom_C_21_s2">
<line x1="726.0" y1="103.0" x2="729.5" y2="96.5" />
<line x1="726.0" y1="103.0" x2="729.5" y2="109.5" />
</g>
<g id="atom_C_23_s2">
<polygon points="748.0,88.5 748.0,91.5 740.5,90.75 740.5,89.25" />
</g>
<g id="atom_O_25_s2">
<line x1="728.938635984895" y1="53.609965238902724" x2="730.688635984895" y2="56.859965238902724" />
<line x1="726.561364015105" y1="54.89003476109727" x2="728.311364015105" y2="58.14003476109727" />
<g id="atom_O_25_s2_text">
<text x="726.0" y="51.0" text-anchor="middle" font-family="verdana" font-size="8"><tspan y="51.0" dy="0.35em">O</tspan></text>
</g>
</g>
<g id="atom_N_26_s2">
<line x1="744.25" y1="64.0" x2="740.5" y2="64.0" />
<line x1="750.0" y1="60.75" x2="752.0" y2="57.5" />
<g id="atom_N_26_s2_text">
<text x="748.0" y="64.0" text-anchor="middle" font-family="verdana" font-size="8"><tspan y="64.0" dy="0.35em">N</tspan></text>
<text x="748.0" y="71.0" text-anchor="middle" font-family="verdana" font-size="8"><tspan y="71.0" dy="0.35em">H</tspan></text>
</g>
</g>
<g id="atom_C_22_s2">
<line x1="733.0" y1="116.0" x2="729.5" y2="109.5" />
</g>
<g id="atom_C_27_s2">
<line x1="756.0" y1="51.0" x2="752.0" y2="57.5" />
<polygon points="756.0,51.0 752.6387437375284,44.10692693075175 751.3612562624716,44.89307306924825" />
<line x1="756.0" y1="51.0" x2="763.5" y2="51.0" />
</g>
<g id="atom_C_29_s2">
<polygon points="749.2774874750568,37.213853861503495 746.7225125249432,38.786146138496505 751.3612562624716,44.89307306924825 752.6387437375284,44.10692693075175" />
</g>
<g id="atom_C_30_s2">
<line x1="771.0" y1="51.0" x2="763.5" y2="51.0" />
<line x1="771.7666350435122" y1="49.57624920490607" x2="775.688635984895" y2="56.859965238902724" />
<line x1="769.4667299129757" y1="51.0" x2="773.311364015105" y2="58.14003476109727" />
<line x1="771.0" y1="51.0" x2="774.5" y2="44.5" />
</g>
<g id="atom_O_31_s2">
<line x1="777.438635984895" y1="60.109965238902724" x2="775.688635984895" y2="56.859965238902724" />
<line x1="775.061364015105" y1="61.39003476109727" x2="773.311364015105" y2="58.14003476109727" />
<g id="atom_O_31_s2_text">
<text x="778.0" y="64.0" text-anchor="middle" font-family="verdana" font-size="8"><tspan y="64.0" dy="0.35em">O</tspan></text>
</g>
</g>
<g id="atom_N_32_s2">
<line x1="776.25" y1="41.25" x2="774.5" y2="44.5" />
<line x1="781.75" y1="37.75" x2="785.5" y2="37.5" />
<line x1="776.5" y1="34.75" x2="775.0" y2="31.5" />
<g id="atom_N_32_s2_text">
<text x="778.0" y="38.0" text-anchor="middle" font-family="verdana" font-size="8"><tspan y="38.0" dy="0.35em">N</tspan></text>
</g>
</g>
<g id="atom_C_33_s2">
<line x1="793.0" y1="37.0" x2="785.5" y2="37.5" />
<line x1="793.0" y1="37.0" x2="795.0" y2="29.5" />
<polygon points="793.0,37.0 798.554955055047,41.99549540450277 797.445044944953,43.00450459549723" />
</g>
<g id="atom_C_37_s2">
<line x1="772.0" y1="25.0" x2="775.0" y2="31.5" />
<line x1="772.0" y1="25.0" x2="778.0" y2="20.0" />
</g>
<g id="atom_C_35_s2">
<line x1="797.0" y1="22.0" x2="795.0" y2="29.5" />
<line x1="797.0" y1="22.0" x2="790.5" y2="18.5" />
</g>
<g id="atom_C_38_s2">
<polygon points="804.1099101100939,46.99099080900553 801.8900898899061,49.00900919099447 797.445044944953,43.00450459549723 798.554955055047,41.99549540450277" />
<line x1="802.5828074943424" y1="49.46017376980157" x2="810.7647567824365" y2="47.82378391218274" />
<line x1="801.9409728702539" y1="46.835070157279176" x2="810.2352432175635" y2="45.17621608781726" />
<line x1="803.0" y1="48.0" x2="801.0" y2="55.0" />
</g>
<g id="atom_C_36_s2">
<line x1="784.0" y1="15.0" x2="778.0" y2="20.0" />
<line x1="784.0" y1="15.0" x2="790.5" y2="18.5" />
</g>
<g id="atom_O_39_s2">
<line x1="814.5147567824365" y1="47.07378391218274" x2="810.7647567824365" y2="47.82378391218274" />
<line x1="813.9852432175635" y1="44.42621608781726" x2="810.2352432175635" y2="45.17621608781726" />
<g id="atom_O_39_s2_text">
<text x="818.0" y="45.0" text-anchor="middle" font-family="verdana" font-size="8"><tspan y="45.0" dy="0.35em">O</tspan></text>
</g>
</g>
<g id="atom_N_40_s2">
<line x1="800.0" y1="58.5" x2="801.0" y2="55.0" />
<line x1="801.5" y1="64.75" x2="804.0" y2="67.5" />
<g id="atom_N_40_s2_text">
<text x="799.0" y="62.0" text-anchor="middle" font-family="verdana" font-size="8"><tspan y="62.0" dy="0.35em">N</tspan></text>
<text x="793.0" y="62.0" text-anchor="middle" font-family="verdana" font-size="8"><tspan y="62.0" dy="0.35em">H</tspan></text>
</g>
</g>
<g id="atom_C_41_s2">
<line x1="809.0" y1="73.0" x2="804.0" y2="67.5" />
<polygon points="809.0,73.0 816.6470871013537,72.23543550676818 816.3529128986463,70.76456449323182" />
<line x1="809.0" y1="73.0" x2="806.5" y2="80.0" />
</g>
<g id="atom_C_43_s2">
<polygon points="824.2941742027073,71.47087101353638 823.7058257972927,68.52912898646362 816.3529128986463,70.76456449323182 816.6470871013537,72.23543550676818" />
<line x1="824.0" y1="70.0" x2="829.0" y2="75.5" />
</g>
<g id="atom_C_50_s2">
<line x1="804.0" y1="87.0" x2="806.5" y2="80.0" />
<line x1="804.0" y1="87.0" x2="797.0" y2="89.5" />
<line x1="803.508108271895" y1="90.04270316130606" x2="797.908108271895" y2="92.04270316130606" />
<line x1="804.0" y1="87.0" x2="808.5" y2="93.5" />
</g>
<g id="atom_C_44_s2">
<line x1="834.0" y1="81.0" x2="829.0" y2="75.5" />
<line x1="834.0" y1="81.0" x2="831.5" y2="88.5" />
<line x1="836.0614449047364" y1="83.35381496824546" x2="834.0614449047364" y2="89.35381496824546" />
<line x1="834.0" y1="81.0" x2="841.0" y2="79.5" />
</g>
<g id="atom_C_45_s2">
<line x1="829.0" y1="96.0" x2="831.5" y2="88.5" />
<line x1="832.0614449047364" y1="95.35381496824546" x2="834.0614449047364" y2="89.35381496824546" />
<line x1="829.0" y1="96.0" x2="834.0" y2="101.5" />
</g>
<g id="atom_C_49_s2">
<line x1="848.0" y1="78.0" x2="841.0" y2="79.5" />
<line x1="848.0" y1="78.0" x2="853.0" y2="83.5" />
<line x1="847.002161801831" y1="80.91621654379004" x2="851.002161801831" y2="85.31621654379005" />
</g>
<g id="atom_C_46_s2">
<line x1="839.0" y1="107.0" x2="834.0" y2="101.5" />
<line x1="839.0" y1="107.0" x2="846.5" y2="105.5" />
<line x1="839.9704864351269" y1="104.05243217563452" x2="845.9704864351269" y2="102.85243217563452" />
</g>
<g id="atom_C_47_s2">
<line x1="854.0" y1="104.0" x2="846.5" y2="105.5" />
<line x1="851.9704864351269" y1="101.65243217563452" x2="845.9704864351269" y2="102.85243217563452" />
<line x1="854.0" y1="104.0" x2="856.0" y2="96.5" />
</g>
<g id="atom_C_48_s2">
<line x1="858.0" y1="89.0" x2="856.0" y2="96.5" />
<line x1="858.0" y1="89.0" x2="853.0" y2="83.5" />
<line x1="855.002161801831" y1="89.71621654379005" x2="851.002161801831" y2="85.31621654379005" />
</g>
<g id="atom_N_52_s2">
<line x1="793.5" y1="90.75" x2="797.0" y2="89.5" />
<line x1="792.308108271895" y1="94.04270316130606" x2="797.908108271895" y2="92.04270316130606" />
<line x1="790.0" y1="95.75" x2="790.0" y2="99.5" />
<g id="atom_N_52_s2_text">
<text x="790.0" y="92.0" text-anchor="middle" font-family="verdana" font-size="8"><tspan y="92.0" dy="0.35em">N</tspan></text>
</g>
</g>
<g id="atom_S_56_s2">
<line x1="810.75" y1="96.75" x2="808.5" y2="93.5" />
<line x1="810.75" y1="103.0" x2="808.5" y2="106.0" />
<g id="atom_S_56_s2_text">
<text x="813.0" y="100.0" text-anchor="middle" font-family="verdana" font-size="8"><tspan y="100.0" dy="0.35em">S</tspan></text>
</g>
</g>
<g id="atom_C_53_s2">
<line x1="790.0" y1="107.0" x2="790.0" y2="99.5" />
<line x1="790.0" y1="107.0" x2="797.0" y2="109.5" />
<polygon points="790.0,107.0 784.45,112.1 783.55,110.9" />
</g>
<g id="atom_C_55_s2">
<line x1="804.0" y1="112.0" x2="797.0" y2="109.5" />
<line x1="804.0" y1="112.0" x2="808.5" y2="106.0" />
</g>
<g id="atom_C_57_s2">
<polygon points="778.9,117.2 777.1,114.8 783.55,110.9 784.45,112.1" />
<line x1="779.2462174173231" y1="115.06533693700766" x2="771.5317910530819" y2="111.75915420947562" />
<line x1="778.1007969969893" y1="117.51195495484058" x2="770.4682089469181" y2="114.24084579052438" />
<line x1="778.0" y1="116.0" x2="778.5" y2="123.5" />
</g>
<g id="atom_O_58_s2">
<line x1="768.0317910530819" y1="110.25915420947562" x2="771.5317910530819" y2="111.75915420947562" />
<line x1="766.9682089469181" y1="112.74084579052438" x2="770.4682089469181" y2="114.24084579052438" />
<g id="atom_O_58_s2_text">
<text x="764.0" y="110.0" text-anchor="middle" font-family="verdana" font-size="8"><tspan y="110.0" dy="0.35em">O</tspan></text>
</g>
</g>
<g id="atom_O_59_s2">
<line x1="778.75" y1="127.25" x2="778.5" y2="123.5" />
<g id="atom_O_59_s2_text">
<text x="779.0" y="131.0" text-anchor="middle" font-family="verdana" font-size="8"><tspan y="131.0" dy="0.35em">O</tspan></text>
<text x="785.0" y="131.0" text-anchor="middle" font-family="verdana" font-size="8"><tspan y="131.0" dy="0.35em">H</tspan></text>
</g>
</g>
</g>
</svg>