<svg width="1115" height="257" viewBox="0 0 1115 257" xmlns="http://www.w3.org/2000/svg">
<style> line {stroke: black; stroke_width: 1px;} polygon {fill: black;} </style>
<g id="arrows">
<g id="labelled_arrow_0">
<g id="arrow_0">
<line x1="252" x2="292" y1="113.5" y2="113.5" stroke-width="2" stroke="black" />
<line x1="287" x2="292" y1="108.5" y2="113.5" stroke-width="2" stroke="black" />
<line x1="287" x2="292" y1="118.5" y2="113.5" stroke-width="2" stroke="black" />
</g>
<text x="272.0" y="102.5" fill="'black" text-anchor="middle" font-family="verdana" font-size = "12"><tspan y="102.5" dy="0.35em">truD</tspan></text>
</g>
<g id="labelled_arrow_1">
<g id="arrow_1">
<line x1="544" x2="584" y1="113.5" y2="113.5" stroke-width="2" stroke="black" />
<line x1="579" x2="584" y1="108.5" y2="113.5" stroke-width="2" stroke="black" />
<line x1="579" x2="584" y1="118.5" y2="113.5" stroke-width="2" stroke="black" />
</g>
<text x="564.0" y="102.5" fill="'black" text-anchor="middle" font-family="verdana" font-size = "12"><tspan y="102.5" dy="0.35em">truF</tspan></text>
</g>
<g id="labelled_arrow_2">
<g id="arrow_2">
<line x1="873" x2="913" y1="113.5" y2="113.5" stroke-width="2" stroke="black" />
<line x1="908" x2="913" y1="108.5" y2="113.5" stroke-width="2" stroke="black" />
<line x1="908" x2="913" y1="118.5" y2="113.5" stroke-width="2" stroke="black" />
</g>
<text x="893.0" y="102.5" fill="'black" text-anchor="middle" font-family="verdana" font-size = "12"><tspan y="102.5" dy="0.35em"></tspan></text>
</g>
</g>
<g id="unlabeled_s0">
<g id="atom_C_1_s0">
<polygon points="37.0,153.0 41.63874373752841,159.10692693075174 40.36125626247159,159.89307306924826" />
<line x1="37.0" y1="153.0" x2="29.5" y2="153.0" />
<line x1="37.0" y1="153.0" x2="41.0" y2="146.5" />
</g>
<g id="atom_N_0_s0">
<polygon points="44.277487475056816,161.9638538615035 41.722512524943184,163.5361461384965 40.36125626247159,159.89307306924826 41.63874373752841,159.10692693075174" />
<g id="atom_N_0_s0_text">
<text x="45.0" y="166.0" text-anchor="middle" font-family="verdana" font-size="8"><tspan y="166.0" dy="0.35em">N</tspan></text>
<text x="51.0" y="166.0" text-anchor="middle" font-family="verdana" font-size="8"><tspan y="166.0" dy="0.35em">H</tspan></text>
<text x="56.0" y="169.0" text-anchor="middle" font-family="verdana" font-size="6"><tspan y="169.0" dy="0.35em">2</tspan></text>
</g>
</g>
<g id="atom_C_3_s0">
<line x1="22.0" y1="153.0" x2="29.5" y2="153.0" />
<line x1="22.0" y1="153.0" x2="18.5" y2="159.5" />
<g id="chiral-bond-back" stroke="black" stroke-width="1">
  <line x1="22.0" y1="153.0" x2="22.0" y2="153.0" />
  <line x1="20.33585867002335" y1="150.5422299469105" x2="20.864141329976654" y2="150.2577700530895" />
  <line x1="18.671717340046694" y1="148.08445989382102" x2="19.728282659953305" y2="147.515540106179" />
</g>
</g>
<g id="atom_O_5_s0">
<line x1="16.75" y1="162.75" x2="18.5" y2="159.5" />
<g id="atom_O_5_s0_text">
<text x="15.0" y="166.0" text-anchor="middle" font-family="verdana" font-size="8"><tspan y="166.0" dy="0.35em">O</tspan></text>
<text x="9.0" y="166.0" text-anchor="middle" font-family="verdana" font-size="8"><tspan y="166.0" dy="0.35em">H</tspan></text>
</g>
</g>
<g id="atom_C_6_s0">
<g id="chiral-bond-back" stroke="black" stroke-width="1">
  <line x1="13.679293350116737" y1="140.71114973455252" x2="16.320706649883263" y2="139.28885026544748" />
  <line x1="15.343434680093388" y1="143.168919787642" x2="17.45656531990661" y2="142.03108021235798" />
  <line x1="17.007576010070043" y1="145.6266898407315" x2="18.59242398992996" y2="144.77331015926848" />
</g>
</g>
<g id="atom_C_7_s0">
<line x1="45.0" y1="140.0" x2="41.0" y2="146.5" />
<line x1="46.58514274271841" y1="140.0" x2="42.14973872755113" y2="132.79246847535316" />
<line x1="44.20742862864079" y1="141.2879284784587" x2="39.85026127244887" y2="134.20753152464684" />
<line x1="45.0" y1="140.0" x2="52.5" y2="140.0" />
</g>
<g id="atom_O_8_s0">
<line x1="40.14973872755113" y1="129.54246847535316" x2="42.14973872755113" y2="132.79246847535316" />
<line x1="37.85026127244887" y1="130.95753152464684" x2="39.85026127244887" y2="134.20753152464684" />
<g id="atom_O_8_s0_text">
<text x="37.0" y="127.0" text-anchor="middle" font-family="verdana" font-size="8"><tspan y="127.0" dy="0.35em">O</tspan></text>
</g>
</g>
<g id="atom_N_9_s0">
<line x1="56.25" y1="140.0" x2="52.5" y2="140.0" />
<line x1="61.75" y1="136.75" x2="63.5" y2="133.5" />
<g id="atom_N_9_s0_text">
<text x="60.0" y="140.0" text-anchor="middle" font-family="verdana" font-size="8"><tspan y="140.0" dy="0.35em">N</tspan></text>
<text x="60.0" y="147.0" text-anchor="middle" font-family="verdana" font-size="8"><tspan y="147.0" dy="0.35em">H</tspan></text>
</g>
</g>
<g id="atom_C_10_s0">
<line x1="67.0" y1="127.0" x2="63.5" y2="133.5" />
<polygon points="67.0,127.0 63.63874373752841,120.10692693075175 62.36125626247159,120.89307306924825" />
<line x1="67.0" y1="127.0" x2="74.5" y2="127.0" />
</g>
<g id="atom_C_12_s0">
<polygon points="60.277487475056816,113.2138538615035 57.722512524943184,114.7861461384965 62.36125626247159,120.89307306924825 63.63874373752841,120.10692693075175" />
<line x1="59.0" y1="114.0" x2="51.5" y2="114.0" />
</g>
<g id="atom_O_13_s0">
<line x1="47.75" y1="114.0" x2="51.5" y2="114.0" />
<g id="atom_O_13_s0_text">
<text x="44.0" y="114.0" text-anchor="middle" font-family="verdana" font-size="8"><tspan y="114.0" dy="0.35em">O</tspan></text>
<text x="38.0" y="114.0" text-anchor="middle" font-family="verdana" font-size="8"><tspan y="114.0" dy="0.35em">H</tspan></text>
</g>
</g>
<g id="atom_C_14_s0">
<line x1="82.0" y1="127.0" x2="74.5" y2="127.0" />
<line x1="82.73973327993527" y1="125.62620962297736" x2="87.14973872755114" y2="132.79246847535316" />
<line x1="80.41485725728157" y1="127.00000000000001" x2="84.85026127244886" y2="134.20753152464684" />
<line x1="82.0" y1="127.0" x2="85.5" y2="120.5" />
</g>
<g id="atom_O_15_s0">
<line x1="89.14973872755114" y1="136.04246847535316" x2="87.14973872755114" y2="132.79246847535316" />
<line x1="86.85026127244886" y1="137.45753152464684" x2="84.85026127244886" y2="134.20753152464684" />
<g id="atom_O_15_s0_text">
<text x="90.0" y="140.0" text-anchor="middle" font-family="verdana" font-size="8"><tspan y="140.0" dy="0.35em">O</tspan></text>
</g>
</g>
<g id="atom_N_16_s0">
<line x1="87.25" y1="117.25" x2="85.5" y2="120.5" />
<g id="chiral-bond-back" stroke="black" stroke-width="1">
  <line x1="95.0" y1="113.1" x2="95.0" y2="114.9" />
</g>
<g id="atom_N_16_s0_text">
<text x="89.0" y="114.0" text-anchor="middle" font-family="verdana" font-size="8"><tspan y="114.0" dy="0.35em">N</tspan></text>
<text x="89.0" y="107.0" text-anchor="middle" font-family="verdana" font-size="8"><tspan y="107.0" dy="0.35em">H</tspan></text>
</g>
</g>
<g id="atom_C_17_s0">
<g id="chiral-bond-back" stroke="black" stroke-width="1">
  <line x1="104.0" y1="114.0" x2="104.0" y2="114.0" />
  <line x1="101.0" y1="113.7" x2="101.0" y2="114.3" />
  <line x1="98.0" y1="113.4" x2="98.0" y2="114.6" />
</g>
<line x1="104.0" y1="114.0" x2="108.0" y2="120.5" />
<line x1="104.0" y1="114.0" x2="108.0" y2="107.5" />
</g>
<g id="atom_C_19_s0">
<line x1="112.0" y1="127.0" x2="108.0" y2="120.5" />
<line x1="112.0" y1="127.0" x2="108.5" y2="133.5" />
<polygon points="112.0,127.0 119.5,126.25 119.5,127.75" />
</g>
<g id="atom_C_21_s0">
<line x1="105.0" y1="140.0" x2="108.5" y2="133.5" />
<line x1="105.0" y1="140.0" x2="108.5" y2="146.5" />
</g>
<g id="atom_C_22_s0">
<line x1="112.0" y1="153.0" x2="108.5" y2="146.5" />
</g>
<g id="atom_C_23_s0">
<polygon points="127.0,125.5 127.0,128.5 119.5,127.75 119.5,126.25" />
</g>
<g id="atom_C_24_s0">
<line x1="112.0" y1="101.0" x2="108.0" y2="107.5" />
<line x1="113.58514274271845" y1="101.0" x2="109.14973872755114" y2="93.79246847535315" />
<line x1="111.20742862864078" y1="102.28792847845874" x2="106.85026127244886" y2="95.20753152464685" />
<line x1="112.0" y1="101.0" x2="119.5" y2="101.0" />
</g>
<g id="atom_O_25_s0">
<line x1="107.14973872755114" y1="90.54246847535315" x2="109.14973872755114" y2="93.79246847535315" />
<line x1="104.85026127244886" y1="91.95753152464685" x2="106.85026127244886" y2="95.20753152464685" />
<g id="atom_O_25_s0_text">
<text x="104.0" y="88.0" text-anchor="middle" font-family="verdana" font-size="8"><tspan y="88.0" dy="0.35em">O</tspan></text>
</g>
</g>
<g id="atom_N_26_s0">
<line x1="123.25" y1="101.0" x2="119.5" y2="101.0" />
<line x1="128.75" y1="97.75" x2="130.5" y2="94.5" />
<g id="atom_N_26_s0_text">
<text x="127.0" y="101.0" text-anchor="middle" font-family="verdana" font-size="8"><tspan y="101.0" dy="0.35em">N</tspan></text>
<text x="127.0" y="108.0" text-anchor="middle" font-family="verdana" font-size="8"><tspan y="108.0" dy="0.35em">H</tspan></text>
</g>
</g>
<g id="atom_C_27_s0">
<line x1="134.0" y1="88.0" x2="130.5" y2="94.5" />
<polygon points="134.0,88.0 131.16035332494164,81.14442513272374 129.83964667505836,81.85557486727626" />
<line x1="134.0" y1="88.0" x2="141.5" y2="88.0" />
</g>
<g id="atom_C_29_s0">
<polygon points="128.32070664988325,74.28885026544748 125.67929335011674,75.71114973455252 129.83964667505836,81.85557486727626 131.16035332494164,81.14442513272374" />
</g>
<g id="atom_C_30_s0">
<line x1="149.0" y1="88.0" x2="141.5" y2="88.0" />
<line x1="149.7925713713592" y1="86.71207152154126" x2="154.14973872755112" y2="93.79246847535315" />
<line x1="147.41485725728157" y1="88.0" x2="151.85026127244888" y2="95.20753152464685" />
<line x1="149.0" y1="88.0" x2="153.0" y2="81.5" />
</g>
<g id="atom_O_31_s0">
<line x1="156.14973872755112" y1="97.04246847535315" x2="154.14973872755112" y2="93.79246847535315" />
<line x1="153.85026127244888" y1="98.45753152464685" x2="151.85026127244888" y2="95.20753152464685" />
<g id="atom_O_31_s0_text">
<text x="157.0" y="101.0" text-anchor="middle" font-family="verdana" font-size="8"><tspan y="101.0" dy="0.35em">O</tspan></text>
</g>
</g>
<g id="atom_N_32_s0">
<line x1="155.0" y1="78.25" x2="153.0" y2="81.5" />
<line x1="160.75" y1="74.75" x2="164.5" y2="74.5" />
<line x1="155.5" y1="71.75" x2="154.0" y2="68.5" />
<g id="atom_N_32_s0_text">
<text x="157.0" y="75.0" text-anchor="middle" font-family="verdana" font-size="8"><tspan y="75.0" dy="0.35em">N</tspan></text>
</g>
</g>
<g id="atom_C_33_s0">
<line x1="172.0" y1="74.0" x2="164.5" y2="74.5" />
<line x1="172.0" y1="74.0" x2="173.5" y2="66.5" />
<polygon points="172.0,74.0 177.55495505504695,78.99549540450276 176.44504494495305,80.00450459549724" />
</g>
<g id="atom_C_35_s0">
<line x1="175.0" y1="59.0" x2="173.5" y2="66.5" />
<line x1="175.0" y1="59.0" x2="168.5" y2="55.5" />
</g>
<g id="atom_C_36_s0">
<line x1="162.0" y1="52.0" x2="168.5" y2="55.5" />
<line x1="162.0" y1="52.0" x2="156.5" y2="57.0" />
</g>
<g id="atom_C_37_s0">
<line x1="151.0" y1="62.0" x2="156.5" y2="57.0" />
<line x1="151.0" y1="62.0" x2="154.0" y2="68.5" />
</g>
<g id="atom_C_38_s0">
<polygon points="183.10991011009392,83.99099080900554 180.89008988990608,86.00900919099446 176.44504494495305,80.00450459549724 177.55495505504695,78.99549540450276" />
<line x1="181.47048643512693" y1="86.48263798164467" x2="189.76475678243654" y2="84.82378391218275" />
<line x1="180.94097287025383" y1="83.83507015727919" x2="189.23524321756346" y2="82.17621608781725" />
<line x1="182.0" y1="85.0" x2="179.5" y2="92.0" />
</g>
<g id="atom_O_39_s0">
<line x1="193.51475678243654" y1="84.07378391218275" x2="189.76475678243654" y2="84.82378391218275" />
<line x1="192.98524321756346" y1="81.42621608781725" x2="189.23524321756346" y2="82.17621608781725" />
<g id="atom_O_39_s0_text">
<text x="197.0" y="82.0" text-anchor="middle" font-family="verdana" font-size="8"><tspan y="82.0" dy="0.35em">O</tspan></text>
</g>
</g>
<g id="atom_N_40_s0">
<line x1="178.25" y1="95.5" x2="179.5" y2="92.0" />
<line x1="179.5" y1="101.75" x2="182.0" y2="104.5" />
<g id="atom_N_40_s0_text">
<text x="177.0" y="99.0" text-anchor="middle" font-family="verdana" font-size="8"><tspan y="99.0" dy="0.35em">N</tspan></text>
<text x="171.0" y="99.0" text-anchor="middle" font-family="verdana" font-size="8"><tspan y="99.0" dy="0.35em">H</tspan></text>
</g>
</g>
<g id="atom_C_41_s0">
<line x1="187.0" y1="110.0" x2="182.0" y2="104.5" />
<polygon points="187.0,110.0 194.64708710135363,109.23543550676818 194.35291289864637,107.76456449323182" />
<line x1="187.0" y1="110.0" x2="185.0" y2="117.0" />
</g>
<g id="atom_C_43_s0">
<polygon points="202.29417420270727,108.47087101353638 201.70582579729273,105.52912898646362 194.35291289864637,107.76456449323182 194.64708710135363,109.23543550676818" />
<line x1="202.0" y1="107.0" x2="207.0" y2="112.5" />
</g>
<g id="atom_C_44_s0">
<line x1="212.0" y1="118.0" x2="207.0" y2="112.5" />
<line x1="212.0" y1="118.0" x2="209.5" y2="125.5" />
<line x1="214.0614449047364" y1="120.35381496824546" x2="212.0614449047364" y2="126.35381496824547" />
<line x1="212.0" y1="118.0" x2="219.5" y2="116.5" />
</g>
<g id="atom_C_45_s0">
<line x1="207.0" y1="133.0" x2="209.5" y2="125.5" />
<line x1="210.0614449047364" y1="132.35381496824547" x2="212.0614449047364" y2="126.35381496824547" />
<line x1="207.0" y1="133.0" x2="212.0" y2="138.5" />
</g>
<g id="atom_C_46_s0">
<line x1="217.0" y1="144.0" x2="212.0" y2="138.5" />
<line x1="217.0" y1="144.0" x2="224.5" y2="142.5" />
<line x1="217.9704864351269" y1="141.0524321756345" x2="223.9704864351269" y2="139.8524321756345" />
</g>
<g id="atom_C_47_s0">
<line x1="232.0" y1="141.0" x2="224.5" y2="142.5" />
<line x1="229.9704864351269" y1="138.65243217563452" x2="223.9704864351269" y2="139.8524321756345" />
<line x1="232.0" y1="141.0" x2="234.5" y2="133.5" />
</g>
<g id="atom_C_48_s0">
<line x1="237.0" y1="126.0" x2="234.5" y2="133.5" />
<line x1="237.0" y1="126.0" x2="232.0" y2="120.5" />
<line x1="234.00216180183097" y1="126.71621654379005" x2="230.00216180183097" y2="122.31621654379005" />
</g>
<g id="atom_C_49_s0">
<line x1="227.0" y1="115.0" x2="232.0" y2="120.5" />
<line x1="226.00216180183097" y1="117.91621654379004" x2="230.00216180183097" y2="122.31621654379005" />
<line x1="227.0" y1="115.0" x2="219.5" y2="116.5" />
</g>
<g id="atom_C_50_s0">
<line x1="183.0" y1="124.0" x2="185.0" y2="117.0" />
<line x1="183.95261981090687" y1="125.14314377308825" x2="175.84784457825646" y2="127.30441716846167" />
<line x1="183.43211620288557" y1="122.48759328990045" x2="175.15215542174354" y2="124.69558283153832" />
<line x1="183.0" y1="124.0" x2="188.0" y2="130.0" />
</g>
<g id="atom_O_51_s0">
<line x1="172.09784457825646" y1="128.30441716846167" x2="175.84784457825646" y2="127.30441716846167" />
<line x1="171.40215542174354" y1="125.69558283153832" x2="175.15215542174354" y2="124.69558283153832" />
<g id="atom_O_51_s0_text">
<text x="168.0" y="128.0" text-anchor="middle" font-family="verdana" font-size="8"><tspan y="128.0" dy="0.35em">O</tspan></text>
</g>
</g>
<g id="atom_N_52_s0">
<line x1="190.5" y1="133.0" x2="188.0" y2="130.0" />
<line x1="191.75" y1="139.5" x2="190.5" y2="143.0" />
<g id="atom_N_52_s0_text">
<text x="193.0" y="136.0" text-anchor="middle" font-family="verdana" font-size="8"><tspan y="136.0" dy="0.35em">N</tspan></text>
<text x="199.0" y="136.0" text-anchor="middle" font-family="verdana" font-size="8"><tspan y="136.0" dy="0.35em">H</tspan></text>
</g>
</g>
<g id="atom_C_53_s0">
<line x1="188.0" y1="150.0" x2="190.5" y2="143.0" />
<g id="chiral-bond-back" stroke="black" stroke-width="1">
  <line x1="188.0" y1="150.0" x2="188.0" y2="150.0" />
  <line x1="184.94116515945854" y1="150.30582579729273" x2="185.05883484054146" y2="150.89417420270726" />
  <line x1="181.8823303189171" y1="150.61165159458542" x2="182.1176696810829" y2="151.78834840541455" />
</g>
<line x1="188.0" y1="150.0" x2="193.0" y2="155.5" />
</g>
<g id="atom_C_55_s0">
<g id="chiral-bond-back" stroke="black" stroke-width="1">
  <line x1="172.70582579729273" y1="151.52912898646363" x2="173.29417420270727" y2="154.47087101353637" />
  <line x1="175.76466063783417" y1="151.2233031891709" x2="176.23533936216583" y2="153.5766968108291" />
  <line x1="178.82349547837563" y1="150.91747739187818" x2="179.17650452162437" y2="152.68252260812184" />
</g>
<line x1="173.0" y1="153.0" x2="171.0" y2="160.0" />
</g>
<g id="atom_S_56_s0">
<line x1="170.0" y1="163.5" x2="171.0" y2="160.0" />
<g id="atom_S_56_s0_text">
<text x="169.0" y="167.0" text-anchor="middle" font-family="verdana" font-size="8"><tspan y="167.0" dy="0.35em">S</tspan></text>
<text x="163.0" y="167.0" text-anchor="middle" font-family="verdana" font-size="8"><tspan y="167.0" dy="0.35em">H</tspan></text>
</g>
</g>
<g id="atom_C_57_s0">
<line x1="198.0" y1="161.0" x2="193.0" y2="155.5" />
<line x1="199.48911338644376" y1="160.70217732271126" x2="197.2980573293151" y2="168.37087352266147" />
<line x1="196.93172300537734" y1="159.82489530591505" x2="194.7019426706849" y2="167.62912647733853" />
<line x1="198.0" y1="161.0" x2="205.5" y2="159.5" />
</g>
<g id="atom_O_58_s0">
<line x1="196.2980573293151" y1="171.87087352266147" x2="197.2980573293151" y2="168.37087352266147" />
<line x1="193.7019426706849" y1="171.12912647733853" x2="194.7019426706849" y2="167.62912647733853" />
<g id="atom_O_58_s0_text">
<text x="194.0" y="175.0" text-anchor="middle" font-family="verdana" font-size="8"><tspan y="175.0" dy="0.35em">O</tspan></text>
</g>
</g>
<g id="atom_O_59_s0">
<line x1="209.25" y1="158.75" x2="205.5" y2="159.5" />
<g id="atom_O_59_s0_text">
<text x="213.0" y="158.0" text-anchor="middle" font-family="verdana" font-size="8"><tspan y="158.0" dy="0.35em">O</tspan></text>
<text x="219.0" y="158.0" text-anchor="middle" font-family="verdana" font-size="8"><tspan y="158.0" dy="0.35em">H</tspan></text>
</g>
</g>
</g>
<g id="unlabeled_s1">
<g id="atom_C_1_s1">
<polygon points="329.0,156.5 333.6387437375284,162.60692693075174 332.3612562624716,163.39307306924826" />
<line x1="329.0" y1="156.5" x2="321.5" y2="156.5" />
<line x1="329.0" y1="156.5" x2="333.0" y2="150.0" />
</g>
<g id="atom_N_0_s1">
<polygon points="336.27748747505683,165.4638538615035 333.72251252494317,167.0361461384965 332.3612562624716,163.39307306924826 333.6387437375284,162.60692693075174" />
<g id="atom_N_0_s1_text">
<text x="337.0" y="169.5" text-anchor="middle" font-family="verdana" font-size="8"><tspan y="169.5" dy="0.35em">N</tspan></text>
<text x="343.0" y="169.5" text-anchor="middle" font-family="verdana" font-size="8"><tspan y="169.5" dy="0.35em">H</tspan></text>
<text x="348.0" y="172.5" text-anchor="middle" font-family="verdana" font-size="6"><tspan y="172.5" dy="0.35em">2</tspan></text>
</g>
</g>
<g id="atom_C_3_s1">
<line x1="314.0" y1="156.5" x2="321.5" y2="156.5" />
<line x1="314.0" y1="156.5" x2="310.5" y2="163.0" />
<g id="chiral-bond-back" stroke="black" stroke-width="1">
  <line x1="314.0" y1="156.5" x2="314.0" y2="156.5" />
  <line x1="312.33585867002336" y1="154.0422299469105" x2="312.8641413299767" y2="153.7577700530895" />
  <line x1="310.6717173400467" y1="151.58445989382102" x2="311.72828265995327" y2="151.015540106179" />
</g>
</g>
<g id="atom_C_7_s1">
<line x1="337.0" y1="143.5" x2="333.0" y2="150.0" />
<line x1="338.5851427427184" y1="143.5" x2="334.14973872755115" y2="136.29246847535316" />
<line x1="336.20742862864074" y1="144.7879284784587" x2="331.85026127244885" y2="137.70753152464684" />
<line x1="337.0" y1="143.5" x2="344.5" y2="143.5" />
</g>
<g id="atom_O_5_s1">
<line x1="308.75" y1="166.25" x2="310.5" y2="163.0" />
<g id="atom_O_5_s1_text">
<text x="307.0" y="169.5" text-anchor="middle" font-family="verdana" font-size="8"><tspan y="169.5" dy="0.35em">O</tspan></text>
<text x="301.0" y="169.5" text-anchor="middle" font-family="verdana" font-size="8"><tspan y="169.5" dy="0.35em">H</tspan></text>
</g>
</g>
<g id="atom_C_6_s1">
<g id="chiral-bond-back" stroke="black" stroke-width="1">
  <line x1="305.6792933501167" y1="144.21114973455252" x2="308.3207066498833" y2="142.78885026544748" />
  <line x1="307.34343468009337" y1="146.668919787642" x2="309.4565653199066" y2="145.53108021235798" />
  <line x1="309.00757601007007" y1="149.1266898407315" x2="310.59242398992996" y2="148.27331015926848" />
</g>
</g>
<g id="atom_O_8_s1">
<line x1="332.14973872755115" y1="133.04246847535316" x2="334.14973872755115" y2="136.29246847535316" />
<line x1="329.85026127244885" y1="134.45753152464684" x2="331.85026127244885" y2="137.70753152464684" />
<g id="atom_O_8_s1_text">
<text x="329.0" y="130.5" text-anchor="middle" font-family="verdana" font-size="8"><tspan y="130.5" dy="0.35em">O</tspan></text>
</g>
</g>
<g id="atom_N_9_s1">
<line x1="348.25" y1="143.5" x2="344.5" y2="143.5" />
<line x1="353.75" y1="140.25" x2="355.5" y2="137.0" />
<g id="atom_N_9_s1_text">
<text x="352.0" y="143.5" text-anchor="middle" font-family="verdana" font-size="8"><tspan y="143.5" dy="0.35em">N</tspan></text>
<text x="352.0" y="150.5" text-anchor="middle" font-family="verdana" font-size="8"><tspan y="150.5" dy="0.35em">H</tspan></text>
</g>
</g>
<g id="atom_C_10_s1">
<line x1="359.0" y1="130.5" x2="355.5" y2="137.0" />
<polygon points="359.0,130.5 355.6387437375284,123.60692693075175 354.3612562624716,124.39307306924825" />
<line x1="359.0" y1="130.5" x2="366.5" y2="130.5" />
</g>
<g id="atom_C_12_s1">
<polygon points="352.27748747505683,116.7138538615035 349.72251252494317,118.2861461384965 354.3612562624716,124.39307306924825 355.6387437375284,123.60692693075175" />
<line x1="351.0" y1="117.5" x2="343.5" y2="117.5" />
</g>
<g id="atom_C_14_s1">
<line x1="374.0" y1="130.5" x2="366.5" y2="130.5" />
<line x1="374.73973327993525" y1="129.1262096229774" x2="379.14973872755115" y2="136.29246847535316" />
<line x1="372.4148572572816" y1="130.5" x2="376.85026127244885" y2="137.70753152464684" />
<line x1="374.0" y1="130.5" x2="377.5" y2="124.0" />
</g>
<g id="atom_O_13_s1">
<line x1="339.75" y1="117.5" x2="343.5" y2="117.5" />
<g id="atom_O_13_s1_text">
<text x="336.0" y="117.5" text-anchor="middle" font-family="verdana" font-size="8"><tspan y="117.5" dy="0.35em">O</tspan></text>
<text x="330.0" y="117.5" text-anchor="middle" font-family="verdana" font-size="8"><tspan y="117.5" dy="0.35em">H</tspan></text>
</g>
</g>
<g id="atom_O_15_s1">
<line x1="381.14973872755115" y1="139.54246847535316" x2="379.14973872755115" y2="136.29246847535316" />
<line x1="378.85026127244885" y1="140.95753152464684" x2="376.85026127244885" y2="137.70753152464684" />
<g id="atom_O_15_s1_text">
<text x="382.0" y="143.5" text-anchor="middle" font-family="verdana" font-size="8"><tspan y="143.5" dy="0.35em">O</tspan></text>
</g>
</g>
<g id="atom_N_16_s1">
<line x1="379.25" y1="120.75" x2="377.5" y2="124.0" />
<g id="chiral-bond-back" stroke="black" stroke-width="1">
  <line x1="387.0" y1="116.6" x2="387.0" y2="118.4" />
</g>
<g id="atom_N_16_s1_text">
<text x="381.0" y="117.5" text-anchor="middle" font-family="verdana" font-size="8"><tspan y="117.5" dy="0.35em">N</tspan></text>
<text x="381.0" y="110.5" text-anchor="middle" font-family="verdana" font-size="8"><tspan y="110.5" dy="0.35em">H</tspan></text>
</g>
</g>
<g id="atom_C_17_s1">
<g id="chiral-bond-back" stroke="black" stroke-width="1">
  <line x1="396.0" y1="117.5" x2="396.0" y2="117.5" />
  <line x1="393.0" y1="117.2" x2="393.0" y2="117.8" />
  <line x1="390.0" y1="116.9" x2="390.0" y2="118.1" />
</g>
<line x1="396.0" y1="117.5" x2="400.0" y2="124.0" />
<line x1="396.0" y1="117.5" x2="400.0" y2="111.0" />
</g>
<g id="atom_C_19_s1">
<line x1="404.0" y1="130.5" x2="400.0" y2="124.0" />
<line x1="404.0" y1="130.5" x2="400.5" y2="137.0" />
<polygon points="404.0,130.5 411.5,129.75 411.5,131.25" />
</g>
<g id="atom_C_24_s1">
<line x1="404.0" y1="104.5" x2="400.0" y2="111.0" />
<line x1="405.5851427427184" y1="104.5" x2="401.14973872755115" y2="97.29246847535315" />
<line x1="403.20742862864074" y1="105.7879284784587" x2="398.85026127244885" y2="98.70753152464685" />
<line x1="404.0" y1="104.5" x2="411.5" y2="104.5" />
</g>
<g id="atom_C_21_s1">
<line x1="397.0" y1="143.5" x2="400.5" y2="137.0" />
<line x1="397.0" y1="143.5" x2="400.5" y2="150.0" />
</g>
<g id="atom_C_23_s1">
<polygon points="419.0,129.0 419.0,132.0 411.5,131.25 411.5,129.75" />
</g>
<g id="atom_O_25_s1">
<line x1="399.14973872755115" y1="94.04246847535315" x2="401.14973872755115" y2="97.29246847535315" />
<line x1="396.85026127244885" y1="95.45753152464685" x2="398.85026127244885" y2="98.70753152464685" />
<g id="atom_O_25_s1_text">
<text x="396.0" y="91.5" text-anchor="middle" font-family="verdana" font-size="8"><tspan y="91.5" dy="0.35em">O</tspan></text>
</g>
</g>
<g id="atom_N_26_s1">
<line x1="415.25" y1="104.5" x2="411.5" y2="104.5" />
<line x1="420.75" y1="101.25" x2="422.5" y2="98.0" />
<g id="atom_N_26_s1_text">
<text x="419.0" y="104.5" text-anchor="middle" font-family="verdana" font-size="8"><tspan y="104.5" dy="0.35em">N</tspan></text>
<text x="419.0" y="111.5" text-anchor="middle" font-family="verdana" font-size="8"><tspan y="111.5" dy="0.35em">H</tspan></text>
</g>
</g>
<g id="atom_C_22_s1">
<line x1="404.0" y1="156.5" x2="400.5" y2="150.0" />
</g>
<g id="atom_C_27_s1">
<line x1="426.0" y1="91.5" x2="422.5" y2="98.0" />
<polygon points="426.0,91.5 423.16035332494164,84.64442513272374 421.83964667505836,85.35557486727626" />
<line x1="426.0" y1="91.5" x2="433.5" y2="91.5" />
</g>
<g id="atom_C_29_s1">
<polygon points="420.3207066498833,77.78885026544748 417.6792933501167,79.21114973455252 421.83964667505836,85.35557486727626 423.16035332494164,84.64442513272374" />
</g>
<g id="atom_C_30_s1">
<line x1="441.0" y1="91.5" x2="433.5" y2="91.5" />
<line x1="441.79257137135926" y1="90.2120715215413" x2="446.14973872755115" y2="97.29246847535315" />
<line x1="439.4148572572816" y1="91.5" x2="443.85026127244885" y2="98.70753152464685" />
<line x1="441.0" y1="91.5" x2="445.0" y2="85.0" />
</g>
<g id="atom_O_31_s1">
<line x1="448.14973872755115" y1="100.54246847535315" x2="446.14973872755115" y2="97.29246847535315" />
<line x1="445.85026127244885" y1="101.95753152464685" x2="443.85026127244885" y2="98.70753152464685" />
<g id="atom_O_31_s1_text">
<text x="449.0" y="104.5" text-anchor="middle" font-family="verdana" font-size="8"><tspan y="104.5" dy="0.35em">O</tspan></text>
</g>
</g>
<g id="atom_N_32_s1">
<line x1="447.0" y1="81.75" x2="445.0" y2="85.0" />
<line x1="452.75" y1="78.25" x2="456.5" y2="78.0" />
<line x1="447.5" y1="75.25" x2="446.0" y2="72.0" />
<g id="atom_N_32_s1_text">
<text x="449.0" y="78.5" text-anchor="middle" font-family="verdana" font-size="8"><tspan y="78.5" dy="0.35em">N</tspan></text>
</g>
</g>
<g id="atom_C_33_s1">
<line x1="464.0" y1="77.5" x2="456.5" y2="78.0" />
<line x1="464.0" y1="77.5" x2="465.5" y2="70.0" />
<polygon points="464.0,77.5 469.55495505504695,82.49549540450276 468.44504494495305,83.50450459549724" />
</g>
<g id="atom_C_37_s1">
<line x1="443.0" y1="65.5" x2="446.0" y2="72.0" />
<line x1="443.0" y1="65.5" x2="448.5" y2="60.5" />
</g>
<g id="atom_C_35_s1">
<line x1="467.0" y1="62.5" x2="465.5" y2="70.0" />
<line x1="467.0" y1="62.5" x2="460.5" y2="59.0" />
</g>
<g id="atom_C_38_s1">
<polygon points="475.1099101100939,87.49099080900554 472.8900898899061,89.50900919099446 468.44504494495305,83.50450459549724 469.55495505504695,82.49549540450276" />
<line x1="473.47048643512693" y1="89.98263798164471" x2="481.76475678243656" y2="88.32378391218275" />
<line x1="472.94097287025386" y1="87.33507015727916" x2="481.23524321756344" y2="85.67621608781725" />
<line x1="474.0" y1="88.5" x2="471.5" y2="95.5" />
</g>
<g id="atom_C_36_s1">
<line x1="454.0" y1="55.5" x2="448.5" y2="60.5" />
<line x1="454.0" y1="55.5" x2="460.5" y2="59.0" />
</g>
<g id="atom_O_39_s1">
<line x1="485.51475678243656" y1="87.57378391218275" x2="481.76475678243656" y2="88.32378391218275" />
<line x1="484.98524321756344" y1="84.92621608781725" x2="481.23524321756344" y2="85.67621608781725" />
<g id="atom_O_39_s1_text">
<text x="489.0" y="85.5" text-anchor="middle" font-family="verdana" font-size="8"><tspan y="85.5" dy="0.35em">O</tspan></text>
</g>
</g>
<g id="atom_N_40_s1">
<line x1="470.25" y1="99.0" x2="471.5" y2="95.5" />
<line x1="471.5" y1="105.25" x2="474.0" y2="108.0" />
<g id="atom_N_40_s1_text">
<text x="469.0" y="102.5" text-anchor="middle" font-family="verdana" font-size="8"><tspan y="102.5" dy="0.35em">N</tspan></text>
<text x="463.0" y="102.5" text-anchor="middle" font-family="verdana" font-size="8"><tspan y="102.5" dy="0.35em">H</tspan></text>
</g>
</g>
<g id="atom_C_41_s1">
<line x1="479.0" y1="113.5" x2="474.0" y2="108.0" />
<polygon points="479.0,113.5 486.64708710135363,112.73543550676818 486.35291289864637,111.26456449323182" />
<line x1="479.0" y1="113.5" x2="477.0" y2="120.5" />
</g>
<g id="atom_C_43_s1">
<polygon points="494.29417420270727,111.97087101353638 493.70582579729273,109.02912898646362 486.35291289864637,111.26456449323182 486.64708710135363,112.73543550676818" />
<line x1="494.0" y1="110.5" x2="499.0" y2="116.0" />
</g>
<g id="atom_C_50_s1">
<line x1="475.0" y1="127.5" x2="477.0" y2="120.5" />
<line x1="475.0" y1="127.5" x2="467.5" y2="130.0" />
<line x1="474.35381496824544" y1="130.5614449047364" x2="468.35381496824544" y2="132.5614449047364" />
<line x1="475.0" y1="127.5" x2="479.5" y2="134.0" />
</g>
<g id="atom_C_44_s1">
<line x1="504.0" y1="121.5" x2="499.0" y2="116.0" />
<line x1="504.0" y1="121.5" x2="501.5" y2="129.0" />
<line x1="506.0614449047364" y1="123.85381496824546" x2="504.0614449047364" y2="129.85381496824547" />
<line x1="504.0" y1="121.5" x2="511.5" y2="120.0" />
</g>
<g id="atom_C_45_s1">
<line x1="499.0" y1="136.5" x2="501.5" y2="129.0" />
<line x1="502.0614449047364" y1="135.85381496824547" x2="504.0614449047364" y2="129.85381496824547" />
<line x1="499.0" y1="136.5" x2="504.0" y2="142.0" />
</g>
<g id="atom_C_49_s1">
<line x1="519.0" y1="118.5" x2="511.5" y2="120.0" />
<line x1="519.0" y1="118.5" x2="524.0" y2="124.0" />
<line x1="518.002161801831" y1="121.41621654379004" x2="522.002161801831" y2="125.81621654379003" />
</g>
<g id="atom_C_46_s1">
<line x1="509.0" y1="147.5" x2="504.0" y2="142.0" />
<line x1="509.0" y1="147.5" x2="516.5" y2="146.0" />
<line x1="509.97048643512693" y1="144.5524321756345" x2="515.9704864351269" y2="143.3524321756345" />
</g>
<g id="atom_C_47_s1">
<line x1="524.0" y1="144.5" x2="516.5" y2="146.0" />
<line x1="521.9704864351269" y1="142.15243217563452" x2="515.9704864351269" y2="143.3524321756345" />
<line x1="524.0" y1="144.5" x2="526.5" y2="137.0" />
</g>
<g id="atom_C_48_s1">
<line x1="529.0" y1="129.5" x2="526.5" y2="137.0" />
<line x1="529.0" y1="129.5" x2="524.0" y2="124.0" />
<line x1="526.002161801831" y1="130.21621654379004" x2="522.002161801831" y2="125.81621654379003" />
</g>
<g id="atom_N_52_s1">
<line x1="463.75" y1="131.25" x2="467.5" y2="130.0" />
<line x1="462.35381496824544" y1="134.5614449047364" x2="468.35381496824544" y2="132.5614449047364" />
<line x1="460.0" y1="136.25" x2="460.0" y2="140.0" />
<g id="atom_N_52_s1_text">
<text x="460.0" y="132.5" text-anchor="middle" font-family="verdana" font-size="8"><tspan y="132.5" dy="0.35em">N</tspan></text>
</g>
</g>
<g id="atom_S_56_s1">
<line x1="481.75" y1="137.25" x2="479.5" y2="134.0" />
<line x1="481.75" y1="143.5" x2="479.5" y2="146.5" />
<g id="atom_S_56_s1_text">
<text x="484.0" y="140.5" text-anchor="middle" font-family="verdana" font-size="8"><tspan y="140.5" dy="0.35em">S</tspan></text>
</g>
</g>
<g id="atom_C_53_s1">
<line x1="460.0" y1="147.5" x2="460.0" y2="140.0" />
<line x1="460.0" y1="147.5" x2="467.5" y2="150.0" />
<polygon points="460.0,147.5 454.45,152.6 453.55,151.4" />
</g>
<g id="atom_C_55_s1">
<line x1="475.0" y1="152.5" x2="467.5" y2="150.0" />
<line x1="475.0" y1="152.5" x2="479.5" y2="146.5" />
</g>
<g id="atom_C_57_s1">
<polygon points="448.9,157.7 447.1,155.3 453.55,151.4 454.45,152.6" />
<line x1="449.22724180542366" y1="155.57956864593223" x2="442.06572853957334" y2="152.27425483092438" />
<line x1="448.2112465402779" y1="158.0843490520839" x2="440.93427146042666" y2="154.72574516907562" />
<line x1="448.0" y1="156.5" x2="449.0" y2="164.0" />
</g>
<g id="atom_O_58_s1">
<line x1="438.81572853957334" y1="150.77425483092438" x2="442.06572853957334" y2="152.27425483092438" />
<line x1="437.68427146042666" y1="153.22574516907562" x2="440.93427146042666" y2="154.72574516907562" />
<g id="atom_O_58_s1_text">
<text x="435.0" y="150.5" text-anchor="middle" font-family="verdana" font-size="8"><tspan y="150.5" dy="0.35em">O</tspan></text>
</g>
</g>
<g id="atom_O_59_s1">
<line x1="449.5" y1="167.75" x2="449.0" y2="164.0" />
<g id="atom_O_59_s1_text">
<text x="450.0" y="171.5" text-anchor="middle" font-family="verdana" font-size="8"><tspan y="171.5" dy="0.35em">O</tspan></text>
<text x="456.0" y="171.5" text-anchor="middle" font-family="verdana" font-size="8"><tspan y="171.5" dy="0.35em">H</tspan></text>
</g>
</g>
</g>
<g id="unlabeled_s2">
<g id="atom_C_1_s2">
<polygon points="658.0,151.0 662.6387437375284,157.10692693075174 661.3612562624716,157.89307306924826" />
<line x1="658.0" y1="151.0" x2="650.5" y2="151.0" />
<line x1="658.0" y1="151.0" x2="662.0" y2="144.5" />
</g>
<g id="atom_N_0_s2">
<polygon points="665.2774874750568,159.9638538615035 662.7225125249432,161.5361461384965 661.3612562624716,157.89307306924826 662.6387437375284,157.10692693075174" />
<g id="atom_N_0_s2_text">
<text x="666.0" y="164.0" text-anchor="middle" font-family="verdana" font-size="8"><tspan y="164.0" dy="0.35em">N</tspan></text>
<text x="672.0" y="164.0" text-anchor="middle" font-family="verdana" font-size="8"><tspan y="164.0" dy="0.35em">H</tspan></text>
<text x="677.0" y="167.0" text-anchor="middle" font-family="verdana" font-size="6"><tspan y="167.0" dy="0.35em">2</tspan></text>
</g>
</g>
<g id="atom_C_3_s2">
<line x1="643.0" y1="151.0" x2="650.5" y2="151.0" />
<line x1="643.0" y1="151.0" x2="639.5" y2="157.5" />
<g id="chiral-bond-back" stroke="black" stroke-width="1">
  <line x1="643.0" y1="151.0" x2="643.0" y2="151.0" />
  <line x1="641.3358586700234" y1="148.5422299469105" x2="641.8641413299766" y2="148.2577700530895" />
  <line x1="639.6717173400467" y1="146.08445989382102" x2="640.7282826599534" y2="145.515540106179" />
</g>
</g>
<g id="atom_C_7_s2">
<line x1="666.0" y1="138.0" x2="662.0" y2="144.5" />
<line x1="667.5851427427184" y1="138.0" x2="663.1497387275512" y2="130.79246847535316" />
<line x1="665.2074286286407" y1="139.28792847845867" x2="660.8502612724488" y2="132.20753152464684" />
<line x1="666.0" y1="138.0" x2="673.5" y2="138.0" />
</g>
<g id="atom_O_5_s2">
<line x1="637.75" y1="160.75" x2="639.5" y2="157.5" />
<line x1="632.25" y1="164.0" x2="628.5" y2="164.0" />
<g id="atom_O_5_s2_text">
<text x="636.0" y="164.0" text-anchor="middle" font-family="verdana" font-size="8"><tspan y="164.0" dy="0.35em">O</tspan></text>
</g>
</g>
<g id="atom_C_6_s2">
<g id="chiral-bond-back" stroke="black" stroke-width="1">
  <line x1="634.6792933501167" y1="138.71114973455252" x2="637.3207066498833" y2="137.28885026544748" />
  <line x1="636.3434346800934" y1="141.168919787642" x2="638.4565653199065" y2="140.03108021235798" />
  <line x1="638.00757601007" y1="143.6266898407315" x2="639.5924239899299" y2="142.77331015926848" />
</g>
</g>
<g id="atom_O_8_s2">
<line x1="661.1497387275512" y1="127.54246847535316" x2="663.1497387275512" y2="130.79246847535316" />
<line x1="658.8502612724488" y1="128.95753152464684" x2="660.8502612724488" y2="132.20753152464684" />
<g id="atom_O_8_s2_text">
<text x="658.0" y="125.0" text-anchor="middle" font-family="verdana" font-size="8"><tspan y="125.0" dy="0.35em">O</tspan></text>
</g>
</g>
<g id="atom_N_9_s2">
<line x1="677.25" y1="138.0" x2="673.5" y2="138.0" />
<line x1="682.75" y1="134.75" x2="684.5" y2="131.5" />
<g id="atom_N_9_s2_text">
<text x="681.0" y="138.0" text-anchor="middle" font-family="verdana" font-size="8"><tspan y="138.0" dy="0.35em">N</tspan></text>
<text x="681.0" y="145.0" text-anchor="middle" font-family="verdana" font-size="8"><tspan y="145.0" dy="0.35em">H</tspan></text>
</g>
</g>
<g id="atom_C_69_s2">
<line x1="621.0" y1="164.0" x2="628.5" y2="164.0" />
<line x1="621.0" y1="164.0" x2="614.5" y2="160.5" />
<line x1="621.0" y1="164.0" x2="621.0" y2="156.5" />
<line x1="621.0" y1="164.0" x2="617.5" y2="170.5" />
</g>
<g id="atom_C_104_s2">
<line x1="608.0" y1="157.0" x2="614.5" y2="160.5" />
</g>
<g id="atom_C_114_s2">
<line x1="621.0" y1="149.0" x2="621.0" y2="156.5" />
</g>
<g id="atom_C_115_s2">
<line x1="614.0" y1="177.0" x2="617.5" y2="170.5" />
<line x1="614.0" y1="177.0" x2="606.5" y2="177.0" />
<line x1="614.0" y1="174.3" x2="606.5" y2="174.3" />
</g>
<g id="atom_C_10_s2">
<line x1="688.0" y1="125.0" x2="684.5" y2="131.5" />
<polygon points="688.0,125.0 685.1603533249416,118.14442513272374 683.8396466750584,118.85557486727626" />
<line x1="688.0" y1="125.0" x2="695.5" y2="125.0" />
</g>
<g id="atom_C_12_s2">
<polygon points="682.3207066498833,111.28885026544748 679.6792933501167,112.71114973455252 683.8396466750584,118.85557486727626 685.1603533249416,118.14442513272374" />
<line x1="681.0" y1="112.0" x2="673.5" y2="112.0" />
</g>
<g id="atom_C_14_s2">
<line x1="703.0" y1="125.0" x2="695.5" y2="125.0" />
<line x1="703.7925713713593" y1="123.71207152154133" x2="708.1497387275512" y2="130.79246847535316" />
<line x1="701.4148572572817" y1="125.00000000000001" x2="705.8502612724488" y2="132.20753152464684" />
<line x1="703.0" y1="125.0" x2="707.0" y2="118.5" />
</g>
<g id="atom_C_116_s2">
<line x1="599.0" y1="177.0" x2="606.5" y2="177.0" />
<line x1="599.0" y1="174.3" x2="606.5" y2="174.3" />
</g>
<g id="atom_O_13_s2">
<line x1="669.75" y1="112.0" x2="673.5" y2="112.0" />
<line x1="664.0" y1="108.75" x2="662.0" y2="105.5" />
<g id="atom_O_13_s2_text">
<text x="666.0" y="112.0" text-anchor="middle" font-family="verdana" font-size="8"><tspan y="112.0" dy="0.35em">O</tspan></text>
</g>
</g>
<g id="atom_C_51_s2">
<line x1="658.0" y1="99.0" x2="662.0" y2="105.5" />
<line x1="658.0" y1="99.0" x2="658.0" y2="91.5" />
<line x1="658.0" y1="99.0" x2="664.5" y2="95.5" />
<line x1="658.0" y1="99.0" x2="650.5" y2="99.0" />
</g>
<g id="atom_C_97_s2">
<line x1="658.0" y1="84.0" x2="658.0" y2="91.5" />
</g>
<g id="atom_C_100_s2">
<line x1="671.0" y1="92.0" x2="664.5" y2="95.5" />
</g>
<g id="atom_C_102_s2">
<line x1="643.0" y1="99.0" x2="650.5" y2="99.0" />
<line x1="643.0" y1="99.0" x2="639.5" y2="92.5" />
<line x1="645.3772719697898" y1="97.71993047780545" x2="641.8772719697898" y2="91.21993047780545" />
</g>
<g id="atom_O_15_s2">
<line x1="710.1497387275512" y1="134.04246847535316" x2="708.1497387275512" y2="130.79246847535316" />
<line x1="707.8502612724488" y1="135.45753152464684" x2="705.8502612724488" y2="132.20753152464684" />
<g id="atom_O_15_s2_text">
<text x="711.0" y="138.0" text-anchor="middle" font-family="verdana" font-size="8"><tspan y="138.0" dy="0.35em">O</tspan></text>
</g>
</g>
<g id="atom_N_16_s2">
<line x1="709.0" y1="115.25" x2="707.0" y2="118.5" />
<g id="chiral-bond-back" stroke="black" stroke-width="1">
  <line x1="717.0" y1="111.1" x2="717.0" y2="112.9" />
</g>
<g id="atom_N_16_s2_text">
<text x="711.0" y="112.0" text-anchor="middle" font-family="verdana" font-size="8"><tspan y="112.0" dy="0.35em">N</tspan></text>
<text x="711.0" y="105.0" text-anchor="middle" font-family="verdana" font-size="8"><tspan y="105.0" dy="0.35em">H</tspan></text>
</g>
</g>
<g id="atom_C_103_s2">
<line x1="636.0" y1="86.0" x2="639.5" y2="92.5" />
<line x1="638.3772719697898" y1="84.71993047780545" x2="641.8772719697898" y2="91.21993047780545" />
</g>
<g id="atom_C_17_s2">
<g id="chiral-bond-back" stroke="black" stroke-width="1">
  <line x1="726.0" y1="112.0" x2="726.0" y2="112.0" />
  <line x1="723.0" y1="111.7" x2="723.0" y2="112.3" />
  <line x1="720.0" y1="111.4" x2="720.0" y2="112.6" />
</g>
<line x1="726.0" y1="112.0" x2="729.5" y2="118.5" />
<line x1="726.0" y1="112.0" x2="729.5" y2="105.5" />
</g>
<g id="atom_C_19_s2">
<line x1="733.0" y1="125.0" x2="729.5" y2="118.5" />
<line x1="733.0" y1="125.0" x2="729.5" y2="131.5" />
<polygon points="733.0,125.0 740.5,124.25 740.5,125.75" />
</g>
<g id="atom_C_24_s2">
<line x1="733.0" y1="99.0" x2="729.5" y2="105.5" />
<line x1="734.5332700870243" y1="99.0" x2="730.688635984895" y2="91.85996523890273" />
<line x1="732.2333649564878" y1="100.42375079509392" x2="728.311364015105" y2="93.14003476109727" />
<line x1="733.0" y1="99.0" x2="740.5" y2="99.0" />
</g>
<g id="atom_C_21_s2">
<line x1="726.0" y1="138.0" x2="729.5" y2="131.5" />
<line x1="726.0" y1="138.0" x2="729.5" y2="144.5" />
</g>
<g id="atom_C_23_s2">
<polygon points="748.0,123.5 748.0,126.5 740.5,125.75 740.5,124.25" />
</g>
<g id="atom_O_25_s2">
<line x1="728.938635984895" y1="88.60996523890273" x2="730.688635984895" y2="91.85996523890273" />
<line x1="726.561364015105" y1="89.89003476109727" x2="728.311364015105" y2="93.14003476109727" />
<g id="atom_O_25_s2_text">
<text x="726.0" y="86.0" text-anchor="middle" font-family="verdana" font-size="8"><tspan y="86.0" dy="0.35em">O</tspan></text>
</g>
</g>
<g id="atom_N_26_s2">
<line x1="744.25" y1="99.0" x2="740.5" y2="99.0" />
<line x1="750.0" y1="95.75" x2="752.0" y2="92.5" />
<g id="atom_N_26_s2_text">
<text x="748.0" y="99.0" text-anchor="middle" font-family="verdana" font-size="8"><tspan y="99.0" dy="0.35em">N</tspan></text>
<text x="748.0" y="106.0" text-anchor="middle" font-family="verdana" font-size="8"><tspan y="106.0" dy="0.35em">H</tspan></text>
</g>
</g>
<g id="atom_C_22_s2">
<line x1="733.0" y1="151.0" x2="729.5" y2="144.5" />
</g>
<g id="atom_C_27_s2">
<line x1="756.0" y1="86.0" x2="752.0" y2="92.5" />
<polygon points="756.0,86.0 752.6387437375284,79.10692693075175 751.3612562624716,79.89307306924825" />
<line x1="756.0" y1="86.0" x2="763.5" y2="86.0" />
</g>
<g id="atom_C_29_s2">
<polygon points="749.2774874750568,72.2138538615035 746.7225125249432,73.7861461384965 751.3612562624716,79.89307306924825 752.6387437375284,79.10692693075175" />
</g>
<g id="atom_C_30_s2">
<line x1="771.0" y1="86.0" x2="763.5" y2="86.0" />
<line x1="771.7666350435122" y1="84.57624920490608" x2="775.688635984895" y2="91.85996523890273" />
<line x1="769.4667299129757" y1="86.0" x2="773.311364015105" y2="93.14003476109727" />
<line x1="771.0" y1="86.0" x2="774.5" y2="79.5" />
</g>
<g id="atom_O_31_s2">
<line x1="777.438635984895" y1="95.10996523890273" x2="775.688635984895" y2="91.85996523890273" />
<line x1="775.061364015105" y1="96.39003476109727" x2="773.311364015105" y2="93.14003476109727" />
<g id="atom_O_31_s2_text">
<text x="778.0" y="99.0" text-anchor="middle" font-family="verdana" font-size="8"><tspan y="99.0" dy="0.35em">O</tspan></text>
</g>
</g>
<g id="atom_N_32_s2">
<line x1="776.25" y1="76.25" x2="774.5" y2="79.5" />
<line x1="781.75" y1="72.75" x2="785.5" y2="72.5" />
<line x1="776.5" y1="69.75" x2="775.0" y2="66.5" />
<g id="atom_N_32_s2_text">
<text x="778.0" y="73.0" text-anchor="middle" font-family="verdana" font-size="8"><tspan y="73.0" dy="0.35em">N</tspan></text>
</g>
</g>
<g id="atom_C_33_s2">
<line x1="793.0" y1="72.0" x2="785.5" y2="72.5" />
<line x1="793.0" y1="72.0" x2="795.0" y2="64.5" />
<polygon points="793.0,72.0 798.554955055047,76.99549540450276 797.445044944953,78.00450459549724" />
</g>
<g id="atom_C_37_s2">
<line x1="772.0" y1="60.0" x2="775.0" y2="66.5" />
<line x1="772.0" y1="60.0" x2="778.0" y2="55.0" />
</g>
<g id="atom_C_35_s2">
<line x1="797.0" y1="57.0" x2="795.0" y2="64.5" />
<line x1="797.0" y1="57.0" x2="790.5" y2="53.5" />
</g>
<g id="atom_C_38_s2">
<polygon points="804.1099101100939,81.99099080900554 801.8900898899061,84.00900919099446 797.445044944953,78.00450459549724 798.554955055047,76.99549540450276" />
<line x1="802.5828074943424" y1="84.46017376980157" x2="810.7647567824365" y2="82.82378391218275" />
<line x1="801.9409728702539" y1="81.83507015727918" x2="810.2352432175635" y2="80.17621608781725" />
<line x1="803.0" y1="83.0" x2="801.0" y2="90.0" />
</g>
<g id="atom_C_36_s2">
<line x1="784.0" y1="50.0" x2="778.0" y2="55.0" />
<line x1="784.0" y1="50.0" x2="790.5" y2="53.5" />
</g>
<g id="atom_O_39_s2">
<line x1="814.5147567824365" y1="82.07378391218275" x2="810.7647567824365" y2="82.82378391218275" />
<line x1="813.9852432175635" y1="79.42621608781725" x2="810.2352432175635" y2="80.17621608781725" />
<g id="atom_O_39_s2_text">
<text x="818.0" y="80.0" text-anchor="middle" font-family="verdana" font-size="8"><tspan y="80.0" dy="0.35em">O</tspan></text>
</g>
</g>
<g id="atom_N_40_s2">
<line x1="800.0" y1="93.5" x2="801.0" y2="90.0" />
<line x1="801.5" y1="99.75" x2="804.0" y2="102.5" />
<g id="atom_N_40_s2_text">
<text x="799.0" y="97.0" text-anchor="middle" font-family="verdana" font-size="8"><tspan y="97.0" dy="0.35em">N</tspan></text>
<text x="793.0" y="97.0" text-anchor="middle" font-family="verdana" font-size="8"><tspan y="97.0" dy="0.35em">H</tspan></text>
</g>
</g>
<g id="atom_C_41_s2">
<line x1="809.0" y1="108.0" x2="804.0" y2="102.5" />
<polygon points="809.0,108.0 816.6470871013537,107.23543550676818 816.3529128986463,105.76456449323182" />
<line x1="809.0" y1="108.0" x2="806.5" y2="115.0" />
</g>
<g id="atom_C_43_s2">
<polygon points="824.2941742027073,106.47087101353638 823.7058257972927,103.52912898646362 816.3529128986463,105.76456449323182 816.6470871013537,107.23543550676818" />
<line x1="824.0" y1="105.0" x2="829.0" y2="110.5" />
</g>
<g id="atom_C_50_s2">
<line x1="804.0" y1="122.0" x2="806.5" y2="115.0" />
<line x1="804.0" y1="122.0" x2="797.0" y2="124.5" />
<line x1="803.508108271895" y1="125.04270316130606" x2="797.908108271895" y2="127.04270316130606" />
<line x1="804.0" y1="122.0" x2="808.5" y2="128.5" />
</g>
<g id="atom_C_44_s2">
<line x1="834.0" y1="116.0" x2="829.0" y2="110.5" />
<line x1="834.0" y1="116.0" x2="831.5" y2="123.5" />
<line x1="836.0614449047364" y1="118.35381496824546" x2="834.0614449047364" y2="124.35381496824547" />
<line x1="834.0" y1="116.0" x2="841.0" y2="114.5" />
</g>
<g id="atom_C_45_s2">
<line x1="829.0" y1="131.0" x2="831.5" y2="123.5" />
<line x1="832.0614449047364" y1="130.35381496824547" x2="834.0614449047364" y2="124.35381496824547" />
<line x1="829.0" y1="131.0" x2="834.0" y2="136.5" />
</g>
<g id="atom_C_49_s2">
<line x1="848.0" y1="113.0" x2="841.0" y2="114.5" />
<line x1="848.0" y1="113.0" x2="853.0" y2="118.5" />
<line x1="847.002161801831" y1="115.91621654379004" x2="851.002161801831" y2="120.31621654379005" />
</g>
<g id="atom_C_46_s2">
<line x1="839.0" y1="142.0" x2="834.0" y2="136.5" />
<line x1="839.0" y1="142.0" x2="846.5" y2="140.5" />
<line x1="839.9704864351269" y1="139.0524321756345" x2="845.9704864351269" y2="137.8524321756345" />
</g>
<g id="atom_C_47_s2">
<line x1="854.0" y1="139.0" x2="846.5" y2="140.5" />
<line x1="851.9704864351269" y1="136.65243217563452" x2="845.9704864351269" y2="137.8524321756345" />
<line x1="854.0" y1="139.0" x2="856.0" y2="131.5" />
</g>
<g id="atom_C_48_s2">
<line x1="858.0" y1="124.0" x2="856.0" y2="131.5" />
<line x1="858.0" y1="124.0" x2="853.0" y2="118.5" />
<line x1="855.002161801831" y1="124.71621654379005" x2="851.002161801831" y2="120.31621654379005" />
</g>
<g id="atom_N_52_s2">
<line x1="793.5" y1="125.75" x2="797.0" y2="124.5" />
<line x1="792.308108271895" y1="129.04270316130606" x2="797.908108271895" y2="127.04270316130606" />
<line x1="790.0" y1="130.75" x2="790.0" y2="134.5" />
<g id="atom_N_52_s2_text">
<text x="790.0" y="127.0" text-anchor="middle" font-family="verdana" font-size="8"><tspan y="127.0" dy="0.35em">N</tspan></text>
</g>
</g>
<g id="atom_S_56_s2">
<line x1="810.75" y1="131.75" x2="808.5" y2="128.5" />
<line x1="810.75" y1="138.0" x2="808.5" y2="141.0" />
<g id="atom_S_56_s2_text">
<text x="813.0" y="135.0" text-anchor="middle" font-family="verdana" font-size="8"><tspan y="135.0" dy="0.35em">S</tspan></text>
</g>
</g>
<g id="atom_C_53_s2">
<line x1="790.0" y1="142.0" x2="790.0" y2="134.5" />
<line x1="790.0" y1="142.0" x2="797.0" y2="144.5" />
<polygon points="790.0,142.0 784.45,147.1 783.55,145.9" />
</g>
<g id="atom_C_55_s2">
<line x1="804.0" y1="147.0" x2="797.0" y2="144.5" />
<line x1="804.0" y1="147.0" x2="808.5" y2="141.0" />
</g>
<g id="atom_C_57_s2">
<polygon points="778.9,152.2 777.1,149.8 783.55,145.9 784.45,147.1" />
<line x1="779.2462174173231" y1="150.06533693700763" x2="771.5317910530819" y2="146.7591542094756" />
<line x1="778.1007969969893" y1="152.5119549548406" x2="770.4682089469181" y2="149.2408457905244" />
<line x1="778.0" y1="151.0" x2="778.5" y2="158.5" />
</g>
<g id="atom_O_58_s2">
<line x1="768.0317910530819" y1="145.2591542094756" x2="771.5317910530819" y2="146.7591542094756" />
<line x1="766.9682089469181" y1="147.7408457905244" x2="770.4682089469181" y2="149.2408457905244" />
<g id="atom_O_58_s2_text">
<text x="764.0" y="145.0" text-anchor="middle" font-family="verdana" font-size="8"><tspan y="145.0" dy="0.35em">O</tspan></text>
</g>
</g>
<g id="atom_O_59_s2">
<line x1="778.75" y1="162.25" x2="778.5" y2="158.5" />
<g id="atom_O_59_s2_text">
<text x="779.0" y="166.0" text-anchor="middle" font-family="verdana" font-size="8"><tspan y="166.0" dy="0.35em">O</tspan></text>
<text x="785.0" y="166.0" text-anchor="middle" font-family="verdana" font-size="8"><tspan y="166.0" dy="0.35em">H</tspan></text>
</g>
</g>
</g>
<g id="unlabeled_s3">
<g id="atom_N_0_s3">
<line x1="1055.0" y1="120.75" x2="1055.0" y2="116.5" />
<line x1="1053.75" y1="129.0" x2="1052.5" y2="133.0" />
<g id="atom_N_0_s3_text">
<text x="1055.0" y="125.0" text-anchor="middle" font-family="verdana" font-size="8"><tspan y="125.0" dy="0.35em">N</tspan></text>
<text x="1061.0" y="125.0" text-anchor="middle" font-family="verdana" font-size="8"><tspan y="125.0" dy="0.35em">H</tspan></text>
</g>
</g>
<g id="atom_C_1_s3">
<line x1="1055.0" y1="108.0" x2="1055.0" y2="116.5" />
<line x1="1055.0" y1="108.0" x2="1047.5" y2="109.0" />
<polygon points="1055.0,108.0 1053.2195241261784,99.28837525700634 1051.7804758738216,99.71162474299366" />
</g>
<g id="atom_C_57_s3">
<line x1="1050.0" y1="141.0" x2="1052.5" y2="133.0" />
<line x1="1050.0" y1="141.0" x2="1045.0" y2="148.0" />
<line x1="1050.4047753422408" y1="139.7047189048295" x2="1057.5317910530819" y2="142.7591542094756" />
<line x1="1049.1967739302409" y1="142.12451649766268" x2="1056.4682089469181" y2="145.2408457905244" />
</g>
<g id="atom_C_3_s3">
<line x1="1040.0" y1="110.0" x2="1047.5" y2="109.0" />
<line x1="1040.0" y1="110.0" x2="1035.5" y2="104.0" />
<polygon points="1040.0,110.0 1038.2063064336962,117.25225229774861 1036.7936935663038,116.74774770225139" />
</g>
<g id="atom_C_7_s3">
<polygon points="1051.439048252357,90.57675051401267 1048.560951747643,91.42324948598733 1051.7804758738216,99.71162474299366 1053.2195241261784,99.28837525700634" />
<line x1="1050.0" y1="91.0" x2="1045.5" y2="84.0" />
<line x1="1050.383630361676" y1="92.30434322969829" x2="1057.5317910530819" y2="89.24084579052438" />
<line x1="1049.25974685411" y1="89.84849510639341" x2="1056.4682089469181" y2="86.75915420947562" />
</g>
<g id="atom_C_53_s3">
<line x1="1040.0" y1="155.0" x2="1045.0" y2="148.0" />
<line x1="1040.0" y1="155.0" x2="1032.0" y2="157.0" />
<g id="chiral-bond-back" stroke="black" stroke-width="1">
  <line x1="1040.0" y1="155.0" x2="1040.0" y2="155.0" />
  <line x1="1039.9005176880476" y1="158.41761660658545" x2="1040.4994823119525" y2="158.38238339341456" />
  <line x1="1039.8010353760951" y1="161.83523321317088" x2="1040.998964623905" y2="161.76476678682914" />
</g>
</g>
<g id="atom_O_58_s3">
<line x1="1061.0317910530819" y1="144.2591542094756" x2="1057.5317910530819" y2="142.7591542094756" />
<line x1="1059.9682089469181" y1="146.7408457905244" x2="1056.4682089469181" y2="145.2408457905244" />
<g id="atom_O_58_s3_text">
<text x="1064.0" y="147.0" text-anchor="middle" font-family="verdana" font-size="8"><tspan y="147.0" dy="0.35em">O</tspan></text>
</g>
</g>
<g id="atom_N_52_s3">
<line x1="1028.0" y1="158.0" x2="1032.0" y2="157.0" />
<line x1="1021.0" y1="162.0" x2="1018.0" y2="165.0" />
<line x1="1024.7091883092037" y1="162.10918830920366" x2="1019.9091883092037" y2="166.90918830920367" />
<g id="atom_N_52_s3_text">
<text x="1024.0" y="159.0" text-anchor="middle" font-family="verdana" font-size="8"><tspan y="159.0" dy="0.35em">N</tspan></text>
</g>
</g>
<g id="atom_C_55_s3">
<g id="chiral-bond-back" stroke="black" stroke-width="1">
  <line x1="1039.5025884402376" y1="172.08808303292722" x2="1042.4974115597624" y2="171.91191696707278" />
  <line x1="1039.60207075219" y1="168.67046642634176" x2="1041.99792924781" y2="168.52953357365823" />
  <line x1="1039.7015530641424" y1="165.2528498197563" x2="1041.4984469358574" y2="165.14715018024367" />
</g>
<line x1="1041.0" y1="172.0" x2="1033.0" y2="176.0" />
</g>
<g id="atom_C_50_s3">
<line x1="1012.0" y1="171.0" x2="1018.0" y2="165.0" />
<line x1="1015.1091883092038" y1="171.70918830920368" x2="1019.9091883092037" y2="166.90918830920367" />
<line x1="1012.0" y1="171.0" x2="1003.5" y2="171.0" />
<line x1="1012.0" y1="171.0" x2="1018.5" y2="175.5" />
</g>
<g id="atom_C_41_s3">
<line x1="995.0" y1="171.0" x2="1003.5" y2="171.0" />
<line x1="995.0" y1="171.0" x2="986.5" y2="169.0" />
<g id="chiral-bond-back" stroke="black" stroke-width="1">
  <line x1="995.0" y1="171.0" x2="995.0" y2="171.0" />
  <line x1="994.1058257972927" y1="173.94116515945854" x2="994.6941742027072" y2="174.05883484054146" />
  <line x1="993.2116515945854" y1="176.8823303189171" x2="994.3883484054145" y2="177.1176696810829" />
</g>
</g>
<g id="atom_S_56_s3">
<line x1="1021.75" y1="177.75" x2="1018.5" y2="175.5" />
<line x1="1029.0" y1="178.0" x2="1033.0" y2="176.0" />
<g id="atom_S_56_s3_text">
<text x="1025.0" y="180.0" text-anchor="middle" font-family="verdana" font-size="8"><tspan y="180.0" dy="0.35em">S</tspan></text>
</g>
</g>
<g id="atom_N_40_s3">
<line x1="982.25" y1="168.0" x2="986.5" y2="169.0" />
<line x1="974.5" y1="164.75" x2="971.0" y2="162.5" />
<g id="atom_N_40_s3_text">
<text x="978.0" y="167.0" text-anchor="middle" font-family="verdana" font-size="8"><tspan y="167.0" dy="0.35em">N</tspan></text>
<text x="978.0" y="174.0" text-anchor="middle" font-family="verdana" font-size="8"><tspan y="174.0" dy="0.35em">H</tspan></text>
</g>
</g>
<g id="atom_C_43_s3">
<g id="chiral-bond-back" stroke="black" stroke-width="1">
  <line x1="990.5291289864637" y1="185.70582579729273" x2="993.4708710135363" y2="186.29417420270727" />
  <line x1="991.423303189171" y1="182.76466063783417" x2="993.7766968108291" y2="183.23533936216583" />
  <line x1="992.3174773918782" y1="179.82349547837563" x2="994.0825226081218" y2="180.17650452162437" />
</g>
<line x1="992.0" y1="186.0" x2="985.0" y2="189.0" />
</g>
<g id="atom_C_38_s3">
<line x1="964.0" y1="158.0" x2="971.0" y2="162.5" />
<line x1="964.0" y1="158.0" x2="958.0" y2="151.5" />
<line x1="965.1515110628046" y1="158.74025711180295" x2="959.9989190990846" y2="164.40810827189503" />
<line x1="963.0808003293643" y1="157.00420035681128" x2="958.0010809009154" y2="162.59189172810497" />
</g>
<g id="atom_C_33_s3">
<line x1="952.0" y1="145.0" x2="958.0" y2="151.5" />
<line x1="952.0" y1="145.0" x2="948.5" y2="137.0" />
<g id="chiral-bond-back" stroke="black" stroke-width="1">
  <line x1="952.0" y1="145.0" x2="952.0" y2="145.0" />
  <line x1="949.7993105805133" y1="146.57701175612587" x2="950.2006894194867" y2="147.02298824387415" />
  <line x1="947.5986211610266" y1="148.15402351225168" x2="948.4013788389734" y2="149.0459764877483" />
</g>
</g>
<g id="atom_O_39_s3">
<line x1="957.4989190990846" y1="167.15810827189503" x2="959.9989190990846" y2="164.40810827189503" />
<line x1="955.5010809009154" y1="165.34189172810497" x2="958.0010809009154" y2="162.59189172810497" />
<g id="atom_O_39_s3_text">
<text x="954.0" y="169.0" text-anchor="middle" font-family="verdana" font-size="8"><tspan y="169.0" dy="0.35em">O</tspan></text>
</g>
</g>
<g id="atom_N_32_s3">
<line x1="946.75" y1="133.0" x2="948.5" y2="137.0" />
<line x1="944.25" y1="124.75" x2="943.5" y2="120.5" />
<line x1="941.25" y1="130.0" x2="937.5" y2="131.0" />
<g id="atom_N_32_s3_text">
<text x="945.0" y="129.0" text-anchor="middle" font-family="verdana" font-size="8"><tspan y="129.0" dy="0.35em">N</tspan></text>
</g>
</g>
<g id="atom_C_35_s3">
<g id="chiral-bond-back" stroke="black" stroke-width="1">
  <line x1="940.9965529025663" y1="152.88505878062924" x2="943.0034470974337" y2="155.11494121937076" />
  <line x1="943.1972423220531" y1="151.3080470245034" x2="944.8027576779469" y2="153.09195297549658" />
  <line x1="945.3979317415398" y1="149.73103526837755" x2="946.6020682584602" y2="151.06896473162246" />
</g>
<line x1="942.0" y1="154.0" x2="935.0" y2="151.0" />
</g>
<g id="atom_C_30_s3">
<line x1="942.0" y1="112.0" x2="943.5" y2="120.5" />
<line x1="942.0" y1="112.0" x2="943.5" y2="103.5" />
<line x1="942.2382352941177" y1="110.65" x2="935.0" y2="110.65" />
<line x1="942.2382352941177" y1="113.35" x2="935.0" y2="113.35" />
</g>
<g id="atom_C_37_s3">
<line x1="930.0" y1="133.0" x2="937.5" y2="131.0" />
<line x1="930.0" y1="133.0" x2="929.0" y2="140.5" />
</g>
<g id="atom_C_27_s3">
<line x1="945.0" y1="95.0" x2="943.5" y2="103.5" />
<line x1="945.0" y1="95.0" x2="948.5" y2="87.5" />
<g id="chiral-bond-back" stroke="black" stroke-width="1">
  <line x1="945.0" y1="95.0" x2="945.0" y2="95.0" />
  <line x1="941.9227012048319" y1="94.48987048188037" x2="942.0772987951681" y2="93.91012951811963" />
  <line x1="938.8454024096638" y1="93.97974096376075" x2="939.1545975903362" y2="92.82025903623926" />
</g>
</g>
<g id="atom_O_31_s3">
<line x1="931.5" y1="110.65" x2="935.0" y2="110.65" />
<line x1="931.5" y1="113.35" x2="935.0" y2="113.35" />
<g id="atom_O_31_s3_text">
<text x="928.0" y="112.0" text-anchor="middle" font-family="verdana" font-size="8"><tspan y="112.0" dy="0.35em">O</tspan></text>
</g>
</g>
<g id="atom_N_26_s3">
<line x1="950.25" y1="83.75" x2="948.5" y2="87.5" />
<line x1="955.0" y1="76.75" x2="958.0" y2="73.5" />
<g id="atom_N_26_s3_text">
<text x="952.0" y="80.0" text-anchor="middle" font-family="verdana" font-size="8"><tspan y="80.0" dy="0.35em">N</tspan></text>
<text x="946.0" y="80.0" text-anchor="middle" font-family="verdana" font-size="8"><tspan y="80.0" dy="0.35em">H</tspan></text>
</g>
</g>
<g id="atom_C_29_s3">
<g id="chiral-bond-back" stroke="black" stroke-width="1">
  <line x1="929.6135060241595" y1="92.44935240940187" x2="930.3864939758405" y2="89.55064759059813" />
  <line x1="932.6908048193276" y1="92.9594819275215" x2="933.3091951806724" y2="90.6405180724785" />
  <line x1="935.7681036144957" y1="93.46961144564112" x2="936.2318963855043" y2="91.73038855435887" />
</g>
</g>
<g id="atom_C_24_s3">
<line x1="964.0" y1="67.0" x2="958.0" y2="73.5" />
<g id="chiral-bond-back" stroke="black" stroke-width="1">
  <line x1="963.2941176470588" y1="65.67647058823529" x2="964.7058823529412" y2="68.32352941176471" />
  <line x1="966.435294117647" y1="64.34117647058824" x2="967.564705882353" y2="66.45882352941177" />
  <line x1="969.5764705882353" y1="63.00588235294117" x2="970.4235294117647" y2="64.59411764705882" />
</g>
<line x1="965.2165965841316" y1="66.35114848846315" x2="960.0370987274565" y2="60.13575106045295" />
<line x1="963.0764522281044" y1="68.00051008622012" x2="957.9629012725435" y2="61.86424893954705" />
</g>
<g id="atom_C_17_s3">
<g id="chiral-bond-back" stroke="black" stroke-width="1">
  <line x1="979.0" y1="59.0" x2="979.0" y2="59.0" />
  <line x1="975.8588235294118" y1="60.33529411764706" x2="976.1411764705882" y2="60.86470588235294" />
  <line x1="972.7176470588236" y1="61.67058823529412" x2="973.2823529411764" y2="62.72941176470589" />
</g>
<line x1="979.0" y1="59.0" x2="987.5" y2="57.5" />
<line x1="979.0" y1="59.0" x2="980.0" y2="51.5" />
</g>
<g id="atom_O_25_s3">
<line x1="957.5370987274565" y1="57.13575106045295" x2="960.0370987274565" y2="60.13575106045295" />
<line x1="955.4629012725435" y1="58.86424893954705" x2="957.9629012725435" y2="61.86424893954705" />
<g id="atom_O_25_s3_text">
<text x="954.0" y="55.0" text-anchor="middle" font-family="verdana" font-size="8"><tspan y="55.0" dy="0.35em">O</tspan></text>
</g>
</g>
<g id="atom_N_16_s3">
<line x1="991.75" y1="56.75" x2="987.5" y2="57.5" />
<line x1="1000.0" y1="56.5" x2="1004.0" y2="57.0" />
<g id="atom_N_16_s3_text">
<text x="996.0" y="56.0" text-anchor="middle" font-family="verdana" font-size="8"><tspan y="56.0" dy="0.35em">N</tspan></text>
<text x="996.0" y="49.0" text-anchor="middle" font-family="verdana" font-size="8"><tspan y="49.0" dy="0.35em">H</tspan></text>
</g>
</g>
<g id="atom_C_19_s3">
<line x1="981.0" y1="44.0" x2="980.0" y2="51.5" />
<line x1="981.0" y1="44.0" x2="988.0" y2="41.5" />
<polygon points="981.0,44.0 975.45,38.9 974.55,40.1" />
</g>
<g id="atom_C_14_s3">
<line x1="1012.0" y1="58.0" x2="1004.0" y2="57.0" />
<line x1="1012.0" y1="58.0" x2="1020.0" y2="61.5" />
<line x1="1013.2397956947569" y1="58.54241061645622" x2="1015.771351580653" y2="51.45405413594751" />
<line x1="1010.6277475002476" y1="57.828468437530944" x2="1013.228648419347" y2="50.54594586405249" />
</g>
<g id="atom_C_10_s3">
<line x1="1028.0" y1="65.0" x2="1020.0" y2="61.5" />
<line x1="1028.0" y1="65.0" x2="1034.5" y2="71.0" />
<g id="chiral-bond-back" stroke="black" stroke-width="1">
  <line x1="1028.0" y1="65.0" x2="1028.0" y2="65.0" />
  <line x1="1030.4577700530895" y1="63.33585867002335" x2="1030.7422299469104" y2="63.864141329976654" />
  <line x1="1032.915540106179" y1="61.6717173400467" x2="1033.4844598938212" y2="62.72828265995331" />
</g>
</g>
<g id="atom_O_15_s3">
<line x1="1017.021351580653" y1="47.95405413594751" x2="1015.771351580653" y2="51.45405413594751" />
<line x1="1014.478648419347" y1="47.04594586405249" x2="1013.228648419347" y2="50.54594586405249" />
<g id="atom_O_15_s3_text">
<text x="1017.0" y="44.0" text-anchor="middle" font-family="verdana" font-size="8"><tspan y="44.0" dy="0.35em">O</tspan></text>
</g>
</g>
<g id="atom_N_9_s3">
<line x1="1037.75" y1="74.0" x2="1034.5" y2="71.0" />
<line x1="1043.25" y1="80.5" x2="1045.5" y2="84.0" />
<g id="atom_N_9_s3_text">
<text x="1041.0" y="77.0" text-anchor="middle" font-family="verdana" font-size="8"><tspan y="77.0" dy="0.35em">N</tspan></text>
<text x="1047.0" y="77.0" text-anchor="middle" font-family="verdana" font-size="8"><tspan y="77.0" dy="0.35em">H</tspan></text>
</g>
</g>
<g id="atom_C_12_s3">
<g id="chiral-bond-back" stroke="black" stroke-width="1">
  <line x1="1040.2888502654475" y1="56.67929335011674" x2="1041.7111497345525" y2="59.32070664988326" />
  <line x1="1037.831080212358" y1="58.34343468009339" x2="1038.968919787642" y2="60.45656531990661" />
  <line x1="1035.3733101592684" y1="60.00757601007004" x2="1036.2266898407315" y2="61.592423989929955" />
</g>
<line x1="1041.0" y1="58.0" x2="1041.5" y2="50.5" />
</g>
<g id="atom_O_8_s3">
<line x1="1061.0317910530819" y1="87.74084579052438" x2="1057.5317910530819" y2="89.24084579052438" />
<line x1="1059.9682089469181" y1="85.25915420947562" x2="1056.4682089469181" y2="86.75915420947562" />
<g id="atom_O_8_s3_text">
<text x="1064.0" y="85.0" text-anchor="middle" font-family="verdana" font-size="8"><tspan y="85.0" dy="0.35em">O</tspan></text>
</g>
</g>
<g id="atom_O_5_s3">
<line x1="1033.25" y1="101.0" x2="1035.5" y2="104.0" />
<line x1="1027.25" y1="98.5" x2="1023.5" y2="99.0" />
<g id="atom_O_5_s3_text">
<text x="1031.0" y="98.0" text-anchor="middle" font-family="verdana" font-size="8"><tspan y="98.0" dy="0.35em">O</tspan></text>
</g>
</g>
<g id="atom_C_6_s3">
<polygon points="1036.4126128673922,124.50450459549724 1033.5873871326078,123.49549540450276 1036.7936935663038,116.74774770225139 1038.2063064336962,117.25225229774861" />
</g>
<g id="atom_C_44_s3">
<line x1="978.0" y1="192.0" x2="985.0" y2="189.0" />
<line x1="978.0" y1="192.0" x2="972.5" y2="187.0" />
<line x1="975.08378345621" y1="192.99783819816903" x2="970.68378345621" y2="188.99783819816903" />
<line x1="978.0" y1="192.0" x2="977.0" y2="199.0" />
</g>
<g id="atom_C_45_s3">
<line x1="967.0" y1="182.0" x2="972.5" y2="187.0" />
<line x1="966.28378345621" y1="184.99783819816903" x2="970.68378345621" y2="188.99783819816903" />
<line x1="967.0" y1="182.0" x2="960.0" y2="185.0" />
</g>
<g id="atom_C_49_s3">
<line x1="976.0" y1="206.0" x2="977.0" y2="199.0" />
<line x1="976.0" y1="206.0" x2="969.0" y2="209.0" />
<line x1="973.5364178938363" y1="204.11830841895124" x2="967.9364178938363" y2="206.51830841895125" />
</g>
<g id="atom_C_46_s3">
<line x1="953.0" y1="188.0" x2="960.0" y2="185.0" />
<line x1="953.0" y1="188.0" x2="951.5" y2="195.0" />
<line x1="955.340066518009" y1="189.96572853957338" x2="954.140066518009" y2="195.56572853957337" />
</g>
<g id="atom_C_47_s3">
<line x1="950.0" y1="202.0" x2="951.5" y2="195.0" />
<line x1="952.940066518009" y1="201.16572853957337" x2="954.140066518009" y2="195.56572853957337" />
<line x1="950.0" y1="202.0" x2="956.0" y2="207.0" />
</g>
<g id="atom_C_48_s3">
<line x1="962.0" y1="212.0" x2="956.0" y2="207.0" />
<line x1="962.0" y1="212.0" x2="969.0" y2="209.0" />
<line x1="962.3364178938363" y1="208.91830841895126" x2="967.9364178938363" y2="206.51830841895125" />
</g>
<g id="atom_C_36_s3">
<line x1="928.0" y1="148.0" x2="935.0" y2="151.0" />
<line x1="928.0" y1="148.0" x2="929.0" y2="140.5" />
</g>
<g id="atom_C_21_s3">
<line x1="995.0" y1="39.0" x2="988.0" y2="41.5" />
<line x1="995.0" y1="39.0" x2="996.5" y2="31.5" />
</g>
<g id="atom_C_23_s3">
<polygon points="969.9,33.8 968.1,36.2 974.55,40.1 975.45,38.9" />
</g>
<g id="atom_O_13_s3">
<line x1="1041.75" y1="46.75" x2="1041.5" y2="50.5" />
<line x1="1045.25" y1="41.25" x2="1048.5" y2="39.5" />
<g id="atom_O_13_s3_text">
<text x="1042.0" y="43.0" text-anchor="middle" font-family="verdana" font-size="8"><tspan y="43.0" dy="0.35em">O</tspan></text>
</g>
</g>
<g id="atom_C_51_s3">
<line x1="1055.0" y1="36.0" x2="1048.5" y2="39.5" />
<line x1="1055.0" y1="36.0" x2="1062.5" y2="36.5" />
<line x1="1055.0" y1="36.0" x2="1058.5" y2="43.0" />
<line x1="1055.0" y1="36.0" x2="1055.5" y2="28.5" />
</g>
<g id="atom_C_97_s3">
<line x1="1070.0" y1="37.0" x2="1062.5" y2="36.5" />
</g>
<g id="atom_C_100_s3">
<line x1="1062.0" y1="50.0" x2="1058.5" y2="43.0" />
</g>
<g id="atom_C_102_s3">
<line x1="1056.0" y1="21.0" x2="1055.5" y2="28.5" />
<line x1="1056.0" y1="21.0" x2="1062.5" y2="18.0" />
<line x1="1057.1314570791467" y1="23.45149033815122" x2="1063.6314570791467" y2="20.45149033815122" />
</g>
<g id="atom_C_69_s3">
<line x1="1016.0" y1="100.0" x2="1023.5" y2="99.0" />
<line x1="1016.0" y1="100.0" x2="1010.0" y2="105.0" />
<line x1="1016.0" y1="100.0" x2="1017.0" y2="107.5" />
<line x1="1016.0" y1="100.0" x2="1011.0" y2="94.5" />
</g>
<g id="atom_C_104_s3">
<line x1="1004.0" y1="110.0" x2="1010.0" y2="105.0" />
</g>
<g id="atom_C_114_s3">
<line x1="1018.0" y1="115.0" x2="1017.0" y2="107.5" />
</g>
<g id="atom_C_115_s3">
<line x1="1006.0" y1="89.0" x2="1011.0" y2="94.5" />
<line x1="1006.0" y1="89.0" x2="999.0" y2="90.0" />
<line x1="1006.3818376618408" y1="91.67286363288515" x2="999.3818376618408" y2="92.67286363288515" />
</g>
<g id="atom_C_22_s3">
<line x1="998.0" y1="24.0" x2="996.5" y2="31.5" />
</g>
<g id="atom_C_103_s3">
<line x1="1069.0" y1="15.0" x2="1062.5" y2="18.0" />
<line x1="1070.1314570791467" y1="17.45149033815122" x2="1063.6314570791467" y2="20.45149033815122" />
</g>
<g id="atom_C_116_s3">
<line x1="992.0" y1="91.0" x2="999.0" y2="90.0" />
<line x1="992.3818376618408" y1="93.67286363288515" x2="999.3818376618408" y2="92.67286363288515" />
</g>
</g>
</svg>