<svg width="165" height="157" viewBox="1 1 166 158" xmlns="http://www.w3.org/2000/svg"><style> line {stroke: black; stroke_width: 1px;} polygon {fill: black;} </style><g id="unlabeled">
<g id="atom_O_61">
<line x1="66.93863598489493" y1="118.39003476109727" x2="68.68863598489493" y2="115.14003476109727" />
<line x1="64.56136401510507" y1="117.10996523890273" x2="66.31136401510507" y2="113.85996523890273" />
<g id="atom_O_61_text">
<text x="64" y="121" text-anchor="middle" font-family="verdana" font-size="8"><tspan y="121" dy="0.35em">O</tspan></text>
</g>
</g>
<g id="atom_C_62">
<line x1="72.28596846008485" y1="108.4592744500303" x2="68.68863598489493" y2="115.14003476109727" />
<line x1="69.97062149087105" y1="107.06420135533733" x2="66.31136401510507" y2="113.85996523890273" />
<line x1="71.0" y1="108.0" x2="78.0" y2="110.5" />
<line x1="71.0" y1="108.0" x2="65.5" y2="103.0" />
</g>
<g id="atom_C_63">
<line x1="85.0" y1="113.0" x2="78.0" y2="110.5" />
<polygon points="85.0,113.0 85.24833886839245,120.54988925789283 83.75166113160755,120.45011074210717" />
<line x1="85.0" y1="113.0" x2="92.5" y2="111.5" />
</g>
<g id="atom_O_4">
<line x1="62.75" y1="100.5" x2="65.5" y2="103.0" />
<line x1="58.75" y1="94.5" x2="57.5" y2="91.0" />
<g id="atom_O_4_text">
<text x="60" y="98" text-anchor="middle" font-family="verdana" font-size="8"><tspan y="98" dy="0.35em">O</tspan></text>
</g>
</g>
<g id="atom_C_64">
<polygon points="85.49667773678492,128.09977851578566 82.50332226321508,127.90022148421434 83.75166113160755,120.45011074210717 85.24833886839245,120.54988925789283" />
</g>
<g id="atom_C_52">
<line x1="100.0" y1="110.0" x2="92.5" y2="111.5" />
<g id="chiral-bond-back" stroke="black" stroke-width="1">
  <line x1="100.0" y1="110.0" x2="100.0" y2="110.0" />
  <line x1="100.92425649099458" y1="112.91817578957375" x2="101.47574350900543" y2="112.68182421042624" />
  <line x1="101.84851298198917" y1="115.83635157914749" x2="102.95148701801084" y2="115.3636484208525" />
</g>
<line x1="100.0" y1="110.0" x2="106.5" y2="106.0" />
</g>
<g id="atom_C_3">
<line x1="55.0" y1="84.0" x2="57.5" y2="91.0" />
<line x1="55.0" y1="84.0" x2="55.5" y2="76.5" />
<g id="chiral-bond-back" stroke="black" stroke-width="1">
  <line x1="55.0" y1="84.0" x2="55.0" y2="84.0" />
  <line x1="51.960350883972694" y1="84.10263162979521" x2="52.039649116027306" y2="84.6973683702048" />
  <line x1="48.92070176794539" y1="84.20526325959041" x2="49.07929823205461" y2="85.39473674040958" />
</g>
</g>
<g id="atom_C_9">
<line x1="56.0" y1="69.0" x2="55.5" y2="76.5" />
<line x1="56.0" y1="69.0" x2="59.5" y2="62.5" />
<g id="chiral-bond-back" stroke="black" stroke-width="1">
  <line x1="56.0" y1="69.0" x2="56.0" y2="69.0" />
  <line x1="52.9227012048319" y1="68.48987048188037" x2="53.0772987951681" y2="67.91012951811963" />
  <line x1="49.8454024096638" y1="67.97974096376075" x2="50.1545975903362" y2="66.82025903623926" />
</g>
</g>
<g id="atom_C_6">
<g id="chiral-bond-back" stroke="black" stroke-width="1">
  <line x1="39.80175441986347" y1="84.51315814897605" x2="40.19824558013653" y2="87.48684185102395" />
  <line x1="42.84140353589078" y1="84.41052651918083" x2="43.15859646410922" y2="86.78947348081915" />
  <line x1="45.88105265191808" y1="84.30789488938564" x2="46.11894734808192" y2="86.09210511061437" />
</g>
<line x1="40.0" y1="86.0" x2="35.5" y2="80.5" />
</g>
<g id="atom_C_7">
<line x1="31.0" y1="75.0" x2="35.5" y2="80.5" />
</g>
<g id="atom_O_51">
<g id="chiral-bond-back" stroke="black" stroke-width="1">
  <line x1="102.77276947298374" y1="118.75452736872126" x2="104.42723052701625" y2="118.04547263127876" />
</g>
<g id="atom_O_51_text">
<text x="106" y="124" text-anchor="middle" font-family="verdana" font-size="8"><tspan y="124" dy="0.35em">O</tspan></text>
<text x="112.0" y="124.0" text-anchor="middle" font-family="verdana" font-size="8"><tspan y="124.0" dy="0.35em">H</tspan></text>
</g>
</g>
<g id="atom_C_53">
<line x1="113.0" y1="102.0" x2="106.5" y2="106.0" />
<polygon points="113.0,102.0 119.00450459549724,106.44504494495304 117.99549540450276,107.55495505504696" />
<line x1="113.0" y1="102.0" x2="116.5" y2="95.5" />
</g>
<g id="atom_C_10">
<line x1="63.0" y1="56.0" x2="59.5" y2="62.5" />
<line x1="63.0" y1="56.0" x2="69.5" y2="52.0" />
<g id="chiral-bond-back" stroke="black" stroke-width="1">
  <line x1="63.0" y1="56.0" x2="63.0" y2="56.0" />
  <line x1="60.5981981618011" y1="54.221982022018786" x2="61.001801838198894" y2="53.778017977981214" />
  <line x1="58.196396323602215" y1="52.443964044037564" x2="59.00360367639779" y2="51.556035955962436" />
</g>
</g>
<g id="atom_C_18">
<g id="chiral-bond-back" stroke="black" stroke-width="1">
  <line x1="40.6135060241595" y1="66.44935240940187" x2="41.3864939758405" y2="63.55064759059813" />
  <line x1="43.6908048193276" y1="66.9594819275215" x2="44.3091951806724" y2="64.6405180724785" />
  <line x1="46.7681036144957" y1="67.46961144564112" x2="47.2318963855043" y2="65.73038855435887" />
</g>
</g>
<g id="atom_C_21">
<line x1="76.0" y1="48.0" x2="69.5" y2="52.0" />
<line x1="76.0" y1="48.0" x2="83.5" y2="46.5" />
<polygon points="76.0,48.0 73.68935877251354,40.70456052606563 72.31064122748646,41.29543947393437" />
</g>
<g id="atom_O_11">
<g id="chiral-bond-back" stroke="black" stroke-width="1">
  <line x1="55.794594485403316" y1="50.66594606605635" x2="57.00540551459668" y2="49.33405393394365" />
</g>
<g id="atom_O_11_text">
<text x="52" y="46" text-anchor="middle" font-family="verdana" font-size="8"><tspan y="46" dy="0.35em">O</tspan></text>
<text x="46.0" y="46.0" text-anchor="middle" font-family="verdana" font-size="8"><tspan y="46.0" dy="0.35em">H</tspan></text>
</g>
</g>
<g id="atom_C_54">
<polygon points="125.00900919099446,110.89008988990608 122.99099080900554,113.10991011009392 117.99549540450276,107.55495505504696 119.00450459549724,106.44504494495304" />
</g>
<g id="atom_C_33">
<line x1="120.0" y1="89.0" x2="116.5" y2="95.5" />
<line x1="120.0" y1="89.0" x2="120.5" y2="81.5" />
<g id="chiral-bond-back" stroke="black" stroke-width="1">
  <line x1="120.0" y1="89.0" x2="120.0" y2="89.0" />
  <line x1="122.9227012048319" y1="90.08987048188037" x2="123.0772987951681" y2="89.51012951811963" />
  <line x1="125.8454024096638" y1="91.17974096376074" x2="126.1545975903362" y2="90.02025903623925" />
</g>
</g>
<g id="atom_C_22">
<line x1="91.0" y1="45.0" x2="83.5" y2="46.5" />
<line x1="91.0" y1="45.0" x2="98.0" y2="47.5" />
<line x1="92.31977184686558" y1="45.471347088166276" x2="92.84656924477149" y2="38.09618351748368" />
<line x1="89.62694543881996" y1="45.27461091223601" x2="90.15343075522851" y2="37.90381648251632" />
</g>
<g id="atom_C_27">
<polygon points="71.37871754502709,33.40912105213125 68.62128245497291,34.59087894786875 72.31064122748646,41.29543947393437 73.68935877251354,40.70456052606563" />
</g>
<g id="atom_C_30">
<line x1="105.0" y1="50.0" x2="98.0" y2="47.5" />
<line x1="105.0" y1="50.0" x2="110.5" y2="55.0" />
<g id="chiral-bond-back" stroke="black" stroke-width="1">
  <line x1="105.0" y1="50.0" x2="105.0" y2="50.0" />
  <line x1="106.13585867002335" y1="47.257770053089494" x2="106.66414132997666" y2="47.5422299469105" />
  <line x1="107.27171734004669" y1="44.51554010617899" x2="108.3282826599533" y2="45.084459893821005" />
</g>
</g>
<g id="atom_O_23">
<line x1="93.09656924477149" y1="34.59618351748368" x2="92.84656924477149" y2="38.09618351748368" />
<line x1="90.40343075522851" y1="34.40381648251632" x2="90.15343075522851" y2="37.90381648251632" />
<g id="atom_O_23_text">
<text x="92" y="31" text-anchor="middle" font-family="verdana" font-size="8"><tspan y="31" dy="0.35em">O</tspan></text>
</g>
</g>
<g id="atom_C_32">
<line x1="121.0" y1="74.0" x2="120.5" y2="81.5" />
<line x1="121.0" y1="74.0" x2="118.5" y2="67.0" />
<line x1="121.0" y1="74.0" x2="128.5" y2="73.0" />
</g>
<g id="atom_O_34">
<g id="chiral-bond-back" stroke="black" stroke-width="1">
  <line x1="128.76810361449571" y1="92.26961144564113" x2="129.23189638550429" y2="90.53038855435888" />
</g>
<g id="atom_O_34_text">
<text x="135" y="93" text-anchor="middle" font-family="verdana" font-size="8"><tspan y="93" dy="0.35em">O</tspan></text>
<text x="141.0" y="93.0" text-anchor="middle" font-family="verdana" font-size="8"><tspan y="93.0" dy="0.35em">H</tspan></text>
</g>
</g>
<g id="atom_C_31">
<line x1="116.0" y1="60.0" x2="110.5" y2="55.0" />
<line x1="116.0" y1="60.0" x2="118.5" y2="67.0" />
</g>
<g id="atom_C_37">
<g id="chiral-bond-back" stroke="black" stroke-width="1">
  <line x1="110.67929335011674" y1="36.28885026544747" x2="113.32070664988326" y2="37.71114973455253" />
  <line x1="109.54343468009338" y1="39.03108021235798" x2="111.6565653199066" y2="40.168919787642025" />
  <line x1="108.40757601007004" y1="41.77331015926849" x2="109.99242398992996" y2="42.626689840731515" />
</g>
</g>
<g id="atom_C_41">
<line x1="136.0" y1="72.0" x2="128.5" y2="73.0" />
</g>
</g>
</svg>