<svg width="170" height="147" viewBox="1 1 171 148" xmlns="http://www.w3.org/2000/svg"><style> line {stroke: black; stroke_width: 1px;} polygon {fill: black;} </style><g id="unlabeled">
<g id="atom_O_61">
<line x1="77.93863598489493" y1="110.39003476109727" x2="79.68863598489493" y2="107.14003476109727" />
<line x1="75.56136401510507" y1="109.10996523890273" x2="77.31136401510507" y2="105.85996523890273" />
<g id="atom_O_61_text">
<text x="75" y="113" text-anchor="middle" font-family="verdana" font-size="8"><tspan y="113" dy="0.35em">O</tspan></text>
</g>
</g>
<g id="atom_C_62">
<line x1="83.38420216189688" y1="100.27684043237939" x2="79.68863598489493" y2="107.14003476109727" />
<line x1="81.03707675694129" y1="98.94078443263543" x2="77.31136401510507" y2="105.85996523890273" />
<line x1="82.0" y1="100.0" x2="89.5" y2="101.5" />
<line x1="82.0" y1="100.0" x2="77.0" y2="94.5" />
</g>
<g id="atom_C_63">
<line x1="97.0" y1="103.0" x2="89.5" y2="101.5" />
<polygon points="97.0,103.0 97.75,110.5 96.25,110.5" />
<line x1="97.0" y1="103.0" x2="104.0" y2="101.5" />
</g>
<g id="atom_O_11">
<line x1="74.5" y1="91.75" x2="77.0" y2="94.5" />
<polygon points="72.44935240940187,84.8635060241595 69.55064759059813,85.6364939758405 69.27532379529906,81.69324698792025 70.72467620470094,81.30675301207975" />
<g id="atom_O_11_text">
<text x="72" y="89" text-anchor="middle" font-family="verdana" font-size="8"><tspan y="89" dy="0.35em">O</tspan></text>
</g>
</g>
<g id="atom_C_64">
<polygon points="98.5,118.0 95.5,118.0 96.25,110.5 97.75,110.5" />
</g>
<g id="atom_C_52">
<line x1="111.0" y1="100.0" x2="104.0" y2="101.5" />
<g id="chiral-bond-back" stroke="black" stroke-width="1">
  <line x1="111.0" y1="100.0" x2="111.0" y2="100.0" />
  <line x1="112.34450250498863" y1="102.7572292276993" x2="112.85549749501136" y2="102.44277077230069" />
  <line x1="113.68900500997728" y1="105.51445845539861" x2="114.71099499002273" y2="104.8855415446014" />
</g>
<line x1="111.0" y1="100.0" x2="116.5" y2="94.5" />
</g>
<g id="atom_C_10">
<polygon points="68.0,74.0 70.72467620470094,81.30675301207975 69.27532379529906,81.69324698792025" />
<line x1="68.0" y1="74.0" x2="70.0" y2="67.0" />
<line x1="68.0" y1="74.0" x2="60.5" y2="74.0" />
</g>
<g id="atom_C_21">
<line x1="72.0" y1="60.0" x2="70.0" y2="67.0" />
<line x1="72.0" y1="60.0" x2="77.0" y2="54.5" />
<polygon points="72.0,60.0 65.89307306924825,55.36125626247159 65.10692693075175,56.63874373752841" />
</g>
<g id="atom_C_9">
<line x1="53.0" y1="74.0" x2="60.5" y2="74.0" />
<line x1="53.0" y1="74.0" x2="49.5" y2="80.5" />
<g id="chiral-bond-back" stroke="black" stroke-width="1">
  <line x1="53.0" y1="74.0" x2="53.0" y2="74.0" />
  <line x1="51.33585867002335" y1="71.54222994691051" x2="51.864141329976654" y2="71.2577700530895" />
  <line x1="49.6717173400467" y1="69.084459893821" x2="50.72828265995331" y2="68.51554010617899" />
</g>
</g>
<g id="atom_C_3">
<line x1="46.0" y1="87.0" x2="49.5" y2="80.5" />
<polygon points="46.0,87.0 38.5,86.25 38.5,87.75" />
<line x1="46.0" y1="87.0" x2="49.5" y2="93.5" />
</g>
<g id="atom_C_18">
<g id="chiral-bond-back" stroke="black" stroke-width="1">
  <line x1="44.67929335011674" y1="61.71114973455253" x2="47.32070664988326" y2="60.28885026544747" />
  <line x1="46.34343468009339" y1="64.16891978764203" x2="48.45656531990661" y2="63.03108021235798" />
  <line x1="48.00757601007004" y1="66.62668984073152" x2="49.592423989929955" y2="65.77331015926849" />
</g>
</g>
<g id="atom_O_51">
<g id="chiral-bond-back" stroke="black" stroke-width="1">
  <line x1="115.0335075149659" y1="108.2716876830979" x2="116.56649248503409" y2="107.3283123169021" />
</g>
<g id="atom_O_51_text">
<text x="119" y="113" text-anchor="middle" font-family="verdana" font-size="8"><tspan y="113" dy="0.35em">O</tspan></text>
<text x="125.0" y="113.0" text-anchor="middle" font-family="verdana" font-size="8"><tspan y="113.0" dy="0.35em">H</tspan></text>
</g>
</g>
<g id="atom_C_53">
<line x1="122.0" y1="89.0" x2="116.5" y2="94.5" />
<polygon points="122.0,89.0 128.85557486727626,91.83964667505838 128.14442513272374,93.16035332494162" />
<line x1="122.0" y1="89.0" x2="124.0" y2="81.5" />
</g>
<g id="atom_C_22">
<line x1="82.0" y1="49.0" x2="77.0" y2="54.5" />
<line x1="82.0" y1="49.0" x2="89.5" y2="47.5" />
<line x1="83.38420216189688" y1="48.72315956762063" x2="79.68863598489493" y2="41.859965238902724" />
<line x1="81.03707675694132" y1="50.05921556736456" x2="77.31136401510507" y2="43.140034761097276" />
</g>
<g id="atom_C_27">
<polygon points="59.786146138496505,50.722512524943184 58.213853861503495,53.277487475056816 65.10692693075175,56.63874373752841 65.89307306924825,55.36125626247159" />
</g>
<g id="atom_C_30">
<line x1="97.0" y1="46.0" x2="89.5" y2="47.5" />
<line x1="97.0" y1="46.0" x2="104.0" y2="47.5" />
<g id="chiral-bond-back" stroke="black" stroke-width="1">
  <line x1="97.0" y1="46.0" x2="97.0" y2="46.0" />
  <line x1="96.7" y1="43.0" x2="97.3" y2="43.0" />
  <line x1="96.4" y1="40.0" x2="97.6" y2="40.0" />
</g>
</g>
<g id="atom_O_23">
<line x1="77.93863598489493" y1="38.609965238902724" x2="79.68863598489493" y2="41.859965238902724" />
<line x1="75.56136401510507" y1="39.890034761097276" x2="77.31136401510507" y2="43.140034761097276" />
<g id="atom_O_23_text">
<text x="75" y="36" text-anchor="middle" font-family="verdana" font-size="8"><tspan y="36" dy="0.35em">O</tspan></text>
</g>
</g>
<g id="atom_O_4">
<polygon points="34.75,85.5 34.75,88.5 38.5,87.75 38.5,86.25" />
<g id="atom_O_4_text">
<text x="31" y="87" text-anchor="middle" font-family="verdana" font-size="8"><tspan y="87" dy="0.35em">O</tspan></text>
<text x="25.0" y="87.0" text-anchor="middle" font-family="verdana" font-size="8"><tspan y="87.0" dy="0.35em">H</tspan></text>
</g>
</g>
<g id="atom_C_6">
<line x1="53.0" y1="100.0" x2="49.5" y2="93.5" />
<line x1="53.0" y1="100.0" x2="49.0" y2="106.5" />
</g>
<g id="atom_C_54">
<polygon points="135.71114973455252,94.67929335011674 134.28885026544748,97.32070664988326 128.14442513272374,93.16035332494162 128.85557486727626,91.83964667505838" />
</g>
<g id="atom_C_33">
<line x1="126.0" y1="74.0" x2="124.0" y2="81.5" />
<line x1="126.0" y1="74.0" x2="124.0" y2="67.0" />
<g id="chiral-bond-back" stroke="black" stroke-width="1">
  <line x1="126.0" y1="74.0" x2="126.0" y2="74.0" />
  <line x1="129.0" y1="73.7" x2="129.0" y2="74.3" />
  <line x1="132.0" y1="73.4" x2="132.0" y2="74.6" />
</g>
</g>
<g id="atom_C_31">
<line x1="111.0" y1="49.0" x2="104.0" y2="47.5" />
<line x1="111.0" y1="49.0" x2="116.5" y2="54.5" />
</g>
<g id="atom_C_37">
<g id="chiral-bond-back" stroke="black" stroke-width="1">
  <line x1="95.5" y1="31.0" x2="98.5" y2="31.0" />
  <line x1="95.8" y1="34.0" x2="98.2" y2="34.0" />
  <line x1="96.1" y1="37.0" x2="97.9" y2="37.0" />
</g>
</g>
<g id="atom_C_32">
<line x1="122.0" y1="60.0" x2="116.5" y2="54.5" />
<line x1="122.0" y1="60.0" x2="124.0" y2="67.0" />
<line x1="122.0" y1="60.0" x2="128.5" y2="56.0" />
</g>
<g id="atom_C_41">
<line x1="135.0" y1="52.0" x2="128.5" y2="56.0" />
</g>
<g id="atom_O_34">
<g id="chiral-bond-back" stroke="black" stroke-width="1">
  <line x1="135.0" y1="73.1" x2="135.0" y2="74.9" />
</g>
<g id="atom_O_34_text">
<text x="141" y="74" text-anchor="middle" font-family="verdana" font-size="8"><tspan y="74" dy="0.35em">O</tspan></text>
<text x="147.0" y="74.0" text-anchor="middle" font-family="verdana" font-size="8"><tspan y="74.0" dy="0.35em">H</tspan></text>
</g>
</g>
<g id="atom_C_7">
<line x1="45.0" y1="113.0" x2="49.0" y2="106.5" />
</g>
</g>
</svg>