<svg width="254.0" height="217" viewBox="0 0 254.0 217" xmlns="http://www.w3.org/2000/svg">
<style> line {stroke: black; stroke_width: 1px;} polygon {fill: black;} </style>
<g id="domain_circles">
<g id="domain_bubble_0">
<circle r="14" cx="30" cy="80" stroke="#74399b"
       fill="#bc7ff5" stroke-width="1"/>
<text x="30.0" y="80" fill="black" text-anchor="middle" font-family="verdana" font-size = "13"><tspan y="80" dy="0.35em">A</tspan></text>
</g>
<g id="domain_bubble_1">
<circle r="14" cx="59" cy="80" stroke="#306dd2"
       fill="#81bef7" stroke-width="1"/>
<text x="59.0" y="80" fill="black" text-anchor="middle" font-family="verdana" font-size = "13"><tspan y="80" dy="0.35em">CP</tspan></text>
</g>
<g id="domain_bubble_2">
<circle r="14" cx="98" cy="80" stroke="#5858b6"
       fill="#8181f7" stroke-width="1"/>
<text x="98.0" y="80" fill="black" text-anchor="middle" font-family="verdana" font-size = "13"><tspan y="80" dy="0.35em">C</tspan></text>
</g>
<g id="domain_bubble_3">
<circle r="14" cx="127" cy="80" stroke="#74399b"
       fill="#bc7ff5" stroke-width="1"/>
<text x="127.0" y="80" fill="black" text-anchor="middle" font-family="verdana" font-size = "13"><tspan y="80" dy="0.35em">A</tspan></text>
</g>
<g id="domain_bubble_4">
<circle r="14" cx="156" cy="80" stroke="#306dd2"
       fill="#81bef7" stroke-width="1"/>
<text x="156.0" y="80" fill="black" text-anchor="middle" font-family="verdana" font-size = "13"><tspan y="80" dy="0.35em">CP</tspan></text>
</g>
<g id="domain_bubble_5">
<circle r="14" cx="185" cy="80" stroke="#a25ba0"
       fill="#f5c4f2" stroke-width="1"/>
<text x="185.0" y="80" fill="black" text-anchor="middle" font-family="verdana" font-size = "13"><tspan y="80" dy="0.35em">TE</tspan></text>
</g>
</g>
<g id="gene_rectangles">
<g id="gene_banner_gene 1"><rect x="15.0" y="5" width="185.0" height="12" fill="black" /><text x="107.5" y="11.0" fill="white" text-anchor="middle" font-family="verdana" font-size = "8"><tspan y="11.0" dy="0.35em">gene 1</tspan></text></g>
</g>
<g id="module_labels">
<g id="module_label_0"><line x1="15.0" x2="73.0" y1="54" y2="54" stroke-width="2" stroke="black" />
<text x="44.0" y="46" fill="'black" text-anchor="middle" font-family="verdana" font-size = "12"><tspan y="46" dy="0.35em">Module 1</tspan></text>
</g>
<g id="module_label_1"><line x1="83.0" x2="199.0" y1="54" y2="54" stroke-width="2" stroke="black" />
<text x="141.0" y="46" fill="'black" text-anchor="middle" font-family="verdana" font-size = "12"><tspan y="46" dy="0.35em">Module 2</tspan></text>
</g>
</g>
<g id="unlabeled_s0">
<g id="atom_C_8_s0">
<line x1="51.0" y1="122.0" x2="55.0" y2="116.0" />
<line x1="51.0" y1="122.0" x2="55.0" y2="128.5" />
<line x1="51.9" y1="120.65" x2="43.5" y2="120.65" />
<line x1="51.83076923076923" y1="123.35" x2="43.5" y2="123.35" />
</g>
<g id="atom_S_1_s0">
<line x1="57.0" y1="113.0" x2="55.0" y2="116.0" />
<g id="atom_S_1_s0_text">
<text x="59.0" y="110" text-anchor="middle" font-family="verdana" font-size="8"><tspan y="110" dy="0.35em">S</tspan></text>
</g>
</g>
<g id="atom_C_6_s0">
<line x1="59.0" y1="135.0" x2="55.0" y2="128.5" />
<line x1="59.0" y1="135.0" x2="66.5" y2="135.0" />
<g id="chiral-bond-back" stroke="black" stroke-width="1">
  <line x1="59.0" y1="135.0" x2="59.0" y2="135.0" />
  <line x1="57.33585867002335" y1="137.4577700530895" x2="57.864141329976654" y2="137.7422299469105" />
  <line x1="55.6717173400467" y1="139.91554010617898" x2="56.72828265995331" y2="140.484459893821" />
</g>
</g>
<g id="atom_O_9_s0">
<line x1="39.75" y1="120.65" x2="43.5" y2="120.65" />
<line x1="39.75" y1="123.35" x2="43.5" y2="123.35" />
<g id="atom_O_9_s0_text">
<text x="36.0" y="122" text-anchor="middle" font-family="verdana" font-size="8"><tspan y="122" dy="0.35em">O</tspan></text>
</g>
</g>
<g id="atom_C_4_s0">
<line x1="74.0" y1="135.0" x2="66.5" y2="135.0" />
<polygon points="74.0,135.0 78.6387437375284,128.89307306924826 77.3612562624716,128.10692693075174" />
<line x1="74.0" y1="135.0" x2="78.0" y2="141.5" />
</g>
<g id="atom_N_11_s0">
<g id="chiral-bond-back" stroke="black" stroke-width="1">
  <line x1="54.00757601007004" y1="142.3733101592685" x2="55.592423989929955" y2="143.22668984073152" />
</g>
<g id="atom_N_11_s0_text">
<text x="52.0" y="148" text-anchor="middle" font-family="verdana" font-size="8"><tspan y="148" dy="0.35em">N</tspan></text>
<text x="42.0" y="148.0" text-anchor="middle" font-family="verdana" font-size="8"><tspan y="148.0" dy="0.35em">H</tspan></text>
<text x="47.0" y="151.0" text-anchor="middle" font-family="verdana" font-size="6"><tspan y="151.0" dy="0.35em">2</tspan></text>
</g>
</g>
<g id="atom_C_3_s0">
<polygon points="83.27748747505682,122.7861461384965 80.72251252494318,121.2138538615035 77.3612562624716,128.10692693075174 78.6387437375284,128.89307306924826" />
</g>
<g id="atom_O_12_s0">
<line x1="80.0" y1="144.75" x2="78.0" y2="141.5" />
<g id="atom_O_12_s0_text">
<text x="82.0" y="148" text-anchor="middle" font-family="verdana" font-size="8"><tspan y="148" dy="0.35em">O</tspan></text>
<text x="88.0" y="148.0" text-anchor="middle" font-family="verdana" font-size="8"><tspan y="148.0" dy="0.35em">H</tspan></text>
</g>
</g>
</g>
<g id="unlabeled_s1">
<g id="atom_C_5_s1">
<line x1="149.0" y1="122.0" x2="152.5" y2="116.0" />
<line x1="149.0" y1="122.0" x2="153.0" y2="128.5" />
<line x1="149.7875" y1="120.65" x2="141.5" y2="120.65" />
<line x1="148.2125" y1="123.35" x2="141.5" y2="123.35" />
</g>
<g id="atom_S_1_s1">
<line x1="154.25" y1="113.0" x2="152.5" y2="116.0" />
<g id="atom_S_1_s1_text">
<text x="156.0" y="110" text-anchor="middle" font-family="verdana" font-size="8"><tspan y="110" dy="0.35em">S</tspan></text>
</g>
</g>
<g id="atom_C_4_s1">
<line x1="157.0" y1="135.0" x2="153.0" y2="128.5" />
<line x1="157.0" y1="135.0" x2="153.0" y2="141.5" />
</g>
<g id="atom_O_6_s1">
<line x1="137.75" y1="120.65" x2="141.5" y2="120.65" />
<line x1="137.75" y1="123.35" x2="141.5" y2="123.35" />
<g id="atom_O_6_s1_text">
<text x="134.0" y="122" text-anchor="middle" font-family="verdana" font-size="8"><tspan y="122" dy="0.35em">O</tspan></text>
</g>
</g>
<g id="atom_N_3_s1">
<line x1="151.0" y1="144.75" x2="153.0" y2="141.5" />
<line x1="151.0" y1="151.25" x2="153.0" y2="154.5" />
<g id="atom_N_3_s1_text">
<text x="149.0" y="148" text-anchor="middle" font-family="verdana" font-size="8"><tspan y="148" dy="0.35em">N</tspan></text>
<text x="143.0" y="148.0" text-anchor="middle" font-family="verdana" font-size="8"><tspan y="148.0" dy="0.35em">H</tspan></text>
</g>
</g>
<g id="atom_C_8_s1">
<line x1="157.0" y1="161.0" x2="153.0" y2="154.5" />
<line x1="157.0" y1="161.0" x2="153.0" y2="167.5" />
<line x1="156.16923076923078" y1="159.65" x2="164.5" y2="159.65" />
<line x1="156.16923076923078" y1="162.35" x2="164.5" y2="162.35" />
</g>
<g id="atom_C_9_s1">
<line x1="149.0" y1="174.0" x2="153.0" y2="167.5" />
<line x1="149.0" y1="174.0" x2="141.5" y2="174.0" />
<polygon points="149.0,174.0 153.63874373752842,180.10692693075174 152.36125626247158,180.89307306924826" />
</g>
<g id="atom_O_17_s1">
<line x1="168.25" y1="159.65" x2="164.5" y2="159.65" />
<line x1="168.25" y1="162.35" x2="164.5" y2="162.35" />
<g id="atom_O_17_s1_text">
<text x="172.0" y="161" text-anchor="middle" font-family="verdana" font-size="8"><tspan y="161" dy="0.35em">O</tspan></text>
</g>
</g>
<g id="atom_C_10_s1">
<line x1="134.0" y1="174.0" x2="141.5" y2="174.0" />
<g id="chiral-bond-back" stroke="black" stroke-width="1">
  <line x1="134.0" y1="174.0" x2="134.0" y2="174.0" />
  <line x1="132.33585867002336" y1="171.5422299469105" x2="132.86414132997663" y2="171.2577700530895" />
  <line x1="130.67171734004668" y1="169.08445989382102" x2="131.7282826599533" y2="168.515540106179" />
</g>
<line x1="134.0" y1="174.0" x2="130.5" y2="180.5" />
</g>
<g id="atom_N_19_s1">
<polygon points="156.2774874750568,182.9638538615035 153.7225125249432,184.5361461384965 152.36125626247158,180.89307306924826 153.63874373752842,180.10692693075174" />
<g id="atom_N_19_s1_text">
<text x="157.0" y="187" text-anchor="middle" font-family="verdana" font-size="8"><tspan y="187" dy="0.35em">N</tspan></text>
<text x="163.0" y="187.0" text-anchor="middle" font-family="verdana" font-size="8"><tspan y="187.0" dy="0.35em">H</tspan></text>
<text x="168.0" y="190.0" text-anchor="middle" font-family="verdana" font-size="6"><tspan y="190.0" dy="0.35em">2</tspan></text>
</g>
</g>
<g id="atom_C_11_s1">
<g id="chiral-bond-back" stroke="black" stroke-width="1">
  <line x1="125.67929335011674" y1="161.71114973455252" x2="128.32070664988325" y2="160.28885026544748" />
  <line x1="127.3434346800934" y1="164.168919787642" x2="129.45656531990662" y2="163.03108021235798" />
  <line x1="129.00757601007007" y1="166.6266898407315" x2="130.59242398992996" y2="165.77331015926848" />
</g>
</g>
<g id="atom_O_22_s1">
<line x1="128.75" y1="183.75" x2="130.5" y2="180.5" />
<g id="atom_O_22_s1_text">
<text x="127.0" y="187" text-anchor="middle" font-family="verdana" font-size="8"><tspan y="187" dy="0.35em">O</tspan></text>
<text x="121.0" y="187.0" text-anchor="middle" font-family="verdana" font-size="8"><tspan y="187.0" dy="0.35em">H</tspan></text>
</g>
</g>
</g>
<path d="M 59.0 105 Q 54.0 105.0, 59.0 100.0 T 59.0 95" stroke="grey" fill="white"/><path d="M 156.0 105 Q 151.0 105.0, 156.0 100.0 T 156.0 95" stroke="grey" fill="white"/></svg>