<svg width="281.0" height="217" viewBox="0 0 281.0 217" xmlns="http://www.w3.org/2000/svg">
<style> line {stroke: black; stroke_width: 1px;} polygon {fill: black;} </style>
<g id="domain_circles">
<g id="domain_bubble_0">
<circle r="14" cx="30" cy="80" stroke="#74399b"
       fill="#bc7ff5" stroke-width="1"/>
<text x="30.0" y="80" fill="black" text-anchor="middle" font-family="verdana" font-size = "13"><tspan y="80" dy="0.35em">A</tspan></text>
</g>
<g id="domain_bubble_1">
<circle r="14" cx="59" cy="80" stroke="#306dd2"
       fill="#81bef7" stroke-width="1"/>
<text x="59.0" y="80" fill="black" text-anchor="middle" font-family="verdana" font-size = "13"><tspan y="80" dy="0.35em">CP</tspan></text>
</g>
<g id="domain_bubble_2">
<circle r="14" cx="98" cy="80" stroke="#5858b6"
       fill="#8181f7" stroke-width="1"/>
<text x="98.0" y="80" fill="black" text-anchor="middle" font-family="verdana" font-size = "13"><tspan y="80" dy="0.35em">C</tspan></text>
</g>
<g id="domain_bubble_3">
<circle r="14" cx="126" cy="73" stroke="#a2a2a2"
       fill="#dadada" stroke-width="1"/>
<text x="126.0" y="73" fill="black" text-anchor="middle" font-family="verdana" font-size = "13"><tspan y="73" dy="0.35em">Cy</tspan></text>
</g>
<g id="domain_bubble_4">
<circle r="14" cx="154" cy="80" stroke="#74399b"
       fill="#bc7ff5" stroke-width="1"/>
<text x="154.0" y="80" fill="black" text-anchor="middle" font-family="verdana" font-size = "13"><tspan y="80" dy="0.35em">A</tspan></text>
</g>
<g id="domain_bubble_5">
<circle r="14" cx="183" cy="80" stroke="#306dd2"
       fill="#81bef7" stroke-width="1"/>
<text x="183.0" y="80" fill="black" text-anchor="middle" font-family="verdana" font-size = "13"><tspan y="80" dy="0.35em">CP</tspan></text>
</g>
<g id="domain_bubble_6">
<circle r="14" cx="212" cy="80" stroke="#a25ba0"
       fill="#f5c4f2" stroke-width="1"/>
<text x="212.0" y="80" fill="black" text-anchor="middle" font-family="verdana" font-size = "13"><tspan y="80" dy="0.35em">TE</tspan></text>
</g>
</g>
<g id="gene_rectangles">
<g id="gene_banner_gene 1"><rect x="15.0" y="5" width="212.0" height="12" fill="black" /><text x="121.0" y="11.0" fill="white" text-anchor="middle" font-family="verdana" font-size = "8"><tspan y="11.0" dy="0.35em">gene 1</tspan></text></g>
</g>
<g id="module_labels">
<g id="module_label_0"><line x1="15.0" x2="73.0" y1="54" y2="54" stroke-width="2" stroke="black" />
<text x="44.0" y="46" fill="'black" text-anchor="middle" font-family="verdana" font-size = "12"><tspan y="46" dy="0.35em">Module 1</tspan></text>
</g>
<g id="module_label_1"><line x1="83.0" x2="226.0" y1="54" y2="54" stroke-width="2" stroke="black" />
<text x="154.5" y="46" fill="'black" text-anchor="middle" font-family="verdana" font-size = "12"><tspan y="46" dy="0.35em">Module 2</tspan></text>
</g>
</g>
<g id="unlabeled_s0">
<g id="atom_C_5_s0">
<line x1="51.0" y1="122.0" x2="55.0" y2="116.0" />
<line x1="51.0" y1="122.0" x2="55.0" y2="128.5" />
<line x1="51.9" y1="120.65" x2="43.5" y2="120.65" />
<line x1="51.83076923076923" y1="123.35" x2="43.5" y2="123.35" />
</g>
<g id="atom_S_1_s0">
<line x1="57.0" y1="113.0" x2="55.0" y2="116.0" />
<g id="atom_S_1_s0_text">
<text x="59.0" y="110" text-anchor="middle" font-family="verdana" font-size="8"><tspan y="110" dy="0.35em">S</tspan></text>
</g>
</g>
<g id="atom_C_4_s0">
<line x1="59.0" y1="135.0" x2="55.0" y2="128.5" />
<line x1="59.0" y1="135.0" x2="55.5" y2="141.5" />
</g>
<g id="atom_O_6_s0">
<line x1="39.75" y1="120.65" x2="43.5" y2="120.65" />
<line x1="39.75" y1="123.35" x2="43.5" y2="123.35" />
<g id="atom_O_6_s0_text">
<text x="36.0" y="122" text-anchor="middle" font-family="verdana" font-size="8"><tspan y="122" dy="0.35em">O</tspan></text>
</g>
</g>
<g id="atom_N_3_s0">
<line x1="53.75" y1="144.75" x2="55.5" y2="141.5" />
<g id="atom_N_3_s0_text">
<text x="52.0" y="148" text-anchor="middle" font-family="verdana" font-size="8"><tspan y="148" dy="0.35em">N</tspan></text>
<text x="42.0" y="148.0" text-anchor="middle" font-family="verdana" font-size="8"><tspan y="148.0" dy="0.35em">H</tspan></text>
<text x="47.0" y="151.0" text-anchor="middle" font-family="verdana" font-size="6"><tspan y="151.0" dy="0.35em">2</tspan></text>
</g>
</g>
</g>
<g id="unlabeled_s1">
<g id="atom_C_13_s1">
<line x1="176.0" y1="122.0" x2="179.5" y2="116.0" />
<g id="chiral-bond-back" stroke="black" stroke-width="1">
  <line x1="174.67929335011675" y1="122.71114973455252" x2="177.32070664988325" y2="121.28885026544748" />
  <line x1="176.3434346800934" y1="125.16891978764201" x2="178.45656531990662" y2="124.03108021235798" />
  <line x1="178.00757601007007" y1="127.62668984073152" x2="179.59242398992996" y2="126.77331015926849" />
</g>
<line x1="176.7875" y1="120.65" x2="168.5" y2="120.65" />
<line x1="176.72692307692307" y1="123.35" x2="168.5" y2="123.35" />
</g>
<g id="atom_S_1_s1">
<line x1="181.25" y1="113.0" x2="179.5" y2="116.0" />
<g id="atom_S_1_s1_text">
<text x="183.0" y="110" text-anchor="middle" font-family="verdana" font-size="8"><tspan y="110" dy="0.35em">S</tspan></text>
</g>
</g>
<g id="atom_C_9_s1">
<g id="chiral-bond-back" stroke="black" stroke-width="1">
  <line x1="183.0" y1="135.0" x2="183.0" y2="135.0" />
  <line x1="181.33585867002336" y1="132.5422299469105" x2="181.86414132997663" y2="132.2577700530895" />
  <line x1="179.67171734004668" y1="130.08445989382102" x2="180.7282826599533" y2="129.515540106179" />
</g>
<line x1="183.0" y1="135.0" x2="190.5" y2="137.0" />
<line x1="183.0" y1="135.0" x2="179.5" y2="141.5" />
</g>
<g id="atom_O_14_s1">
<line x1="164.75" y1="120.65" x2="168.5" y2="120.65" />
<line x1="164.75" y1="123.35" x2="168.5" y2="123.35" />
<g id="atom_O_14_s1_text">
<text x="161.0" y="122" text-anchor="middle" font-family="verdana" font-size="8"><tspan y="122" dy="0.35em">O</tspan></text>
</g>
</g>
<g id="atom_C_4_s1">
<line x1="198.0" y1="139.0" x2="190.5" y2="137.0" />
<polygon points="198.0,139.0 204.00450459549722,134.55495505504695 202.99549540450278,133.44504494495305" />
<line x1="198.0" y1="139.0" x2="199.0" y2="146.5" />
</g>
<g id="atom_N_15_s1">
<line x1="177.75" y1="144.75" x2="179.5" y2="141.5" />
<line x1="177.75" y1="151.25" x2="179.5" y2="154.5" />
<line x1="179.07727196978985" y1="148.01993047780547" x2="181.87727196978986" y2="153.21993047780546" />
<g id="atom_N_15_s1_text">
<text x="176.0" y="148" text-anchor="middle" font-family="verdana" font-size="8"><tspan y="148" dy="0.35em">N</tspan></text>
</g>
</g>
<g id="atom_C_3_s1">
<polygon points="210.00900919099448,130.10991011009392 207.99099080900552,127.89008988990608 202.99549540450278,133.44504494495305 204.00450459549722,134.55495505504695" />
</g>
<g id="atom_O_11_s1">
<line x1="199.5" y1="150.25" x2="199.0" y2="146.5" />
<line x1="195.75" y1="155.75" x2="191.5" y2="157.5" />
<g id="atom_O_11_s1_text">
<text x="200.0" y="154" text-anchor="middle" font-family="verdana" font-size="8"><tspan y="154" dy="0.35em">O</tspan></text>
</g>
</g>
<g id="atom_C_19_s1">
<line x1="183.0" y1="161.0" x2="179.5" y2="154.5" />
<line x1="184.67727196978987" y1="158.41993047780545" x2="181.87727196978986" y2="153.21993047780546" />
<line x1="183.0" y1="161.0" x2="191.5" y2="157.5" />
<line x1="183.0" y1="161.0" x2="179.5" y2="167.5" />
</g>
<g id="atom_C_20_s1">
<line x1="176.0" y1="174.0" x2="179.5" y2="167.5" />
<line x1="176.0" y1="174.0" x2="179.5" y2="180.5" />
</g>
<g id="atom_N_21_s1">
<line x1="181.25" y1="183.75" x2="179.5" y2="180.5" />
<g id="atom_N_21_s1_text">
<text x="183.0" y="187" text-anchor="middle" font-family="verdana" font-size="8"><tspan y="187" dy="0.35em">N</tspan></text>
<text x="189.0" y="187.0" text-anchor="middle" font-family="verdana" font-size="8"><tspan y="187.0" dy="0.35em">H</tspan></text>
<text x="194.0" y="190.0" text-anchor="middle" font-family="verdana" font-size="6"><tspan y="190.0" dy="0.35em">2</tspan></text>
</g>
</g>
</g>
<path d="M 59.0 105 Q 54.0 105.0, 59.0 100.0 T 59.0 95" stroke="grey" fill="white"/><path d="M 183.0 105 Q 178.0 105.0, 183.0 100.0 T 183.0 95" stroke="grey" fill="white"/></svg>