<svg width="242" height="308" viewBox="0 0 242 308" xmlns="http://www.w3.org/2000/svg">
<style> line {stroke: black; stroke_width: 1px;} polygon {fill: black;} </style>
<g id="arrows">
<g id="labelled_arrow_0">
<g id="arrow_0">
<line x1="80" x2="110" y1="134.0" y2="134.0" stroke-width="2" stroke="black" />
<line x1="105" x2="110" y1="129.0" y2="134.0" stroke-width="2" stroke="black" />
<line x1="105" x2="110" y1="139.0" y2="134.0" stroke-width="2" stroke="black" />
</g>
<g id="arrow_0">
<line x1="90" x2="120" y1="144.0" y2="144.0" stroke-width="2" stroke="black" />
<line x1="115" x2="120" y1="139.0" y2="144.0" stroke-width="2" stroke="black" />
<line x1="115" x2="120" y1="149.0" y2="144.0" stroke-width="2" stroke="black" />
</g>
</g>
</g>
<g id="unlabeled_s0">
<g id="atom_P_1_s0">
<line x1="55.14973872755114" y1="245.45753152464687" x2="57.14973872755113" y2="242.20753152464684" />
<line x1="52.85026127244886" y1="244.04246847535313" x2="54.85026127244887" y2="240.79246847535316" />
<line x1="52.0" y1="251.75" x2="52.0" y2="255.5" />
<line x1="55.25" y1="250.0" x2="58.5" y2="252.0" />
<line x1="48.25" y1="248.0" x2="44.5" y2="248.0" />
<g id="atom_P_1_s0_text">
<text x="52.0" y="248.0" text-anchor="middle" font-family="verdana" font-size="8"><tspan y="248.0" dy="0.35em">P</tspan></text>
</g>
</g>
<g id="atom_O_0_s0">
<line x1="59.14973872755113" y1="238.95753152464684" x2="57.14973872755113" y2="242.20753152464684" />
<line x1="56.85026127244887" y1="237.54246847535316" x2="54.85026127244887" y2="240.79246847535316" />
<g id="atom_O_0_s0_text">
<text x="60.0" y="235.0" text-anchor="middle" font-family="verdana" font-size="8"><tspan y="235.0" dy="0.35em">O</tspan></text>
</g>
</g>
<g id="atom_O_2_s0">
<line x1="52.0" y1="259.25" x2="52.0" y2="255.5" />
<g id="atom_O_2_s0_text">
<text x="52.0" y="263.0" text-anchor="middle" font-family="verdana" font-size="8"><tspan y="263.0" dy="0.35em">O</tspan></text>
<text x="58.0" y="263.0" text-anchor="middle" font-family="verdana" font-size="8"><tspan y="263.0" dy="0.35em">H</tspan></text>
</g>
</g>
<g id="atom_O_3_s0">
<line x1="61.75" y1="254.0" x2="58.5" y2="252.0" />
<g id="atom_O_3_s0_text">
<text x="65.0" y="256.0" text-anchor="middle" font-family="verdana" font-size="8"><tspan y="256.0" dy="0.35em">O</tspan></text>
<text x="71.0" y="256.0" text-anchor="middle" font-family="verdana" font-size="8"><tspan y="256.0" dy="0.35em">H</tspan></text>
</g>
</g>
<g id="atom_O_4_s0">
<line x1="40.75" y1="248.0" x2="44.5" y2="248.0" />
<line x1="35.25" y1="244.75" x2="33.5" y2="241.5" />
<g id="atom_O_4_s0_text">
<text x="37.0" y="248.0" text-anchor="middle" font-family="verdana" font-size="8"><tspan y="248.0" dy="0.35em">O</tspan></text>
</g>
</g>
<g id="atom_P_5_s0">
<line x1="31.75" y1="238.25" x2="33.5" y2="241.5" />
<line x1="27.734434418259134" y1="232.24680998434604" x2="24.140034761097272" y2="230.31136401510506" />
<line x1="25.765565581740866" y1="234.25319001565396" x2="22.859965238902728" y2="232.68863598489494" />
<line x1="26.75" y1="237.0" x2="23.5" y2="239.0" />
<line x1="31.75" y1="231.75" x2="33.5" y2="228.5" />
<g id="atom_P_5_s0_text">
<text x="30.0" y="235.0" text-anchor="middle" font-family="verdana" font-size="8"><tspan y="235.0" dy="0.35em">P</tspan></text>
</g>
</g>
<g id="atom_O_6_s0">
<line x1="20.890034761097272" y1="228.56136401510506" x2="24.140034761097272" y2="230.31136401510506" />
<line x1="19.609965238902728" y1="230.93863598489494" x2="22.859965238902728" y2="232.68863598489494" />
<g id="atom_O_6_s0_text">
<text x="17.0" y="228.0" text-anchor="middle" font-family="verdana" font-size="8"><tspan y="228.0" dy="0.35em">O</tspan></text>
</g>
</g>
<g id="atom_O_7_s0">
<line x1="20.25" y1="241.0" x2="23.5" y2="239.0" />
<g id="atom_O_7_s0_text">
<text x="17.0" y="243.0" text-anchor="middle" font-family="verdana" font-size="8"><tspan y="243.0" dy="0.35em">O</tspan></text>
<text x="11.0" y="243.0" text-anchor="middle" font-family="verdana" font-size="8"><tspan y="243.0" dy="0.35em">H</tspan></text>
</g>
</g>
<g id="atom_O_8_s0">
<line x1="35.25" y1="225.25" x2="33.5" y2="228.5" />
<line x1="35.25" y1="218.75" x2="33.5" y2="215.5" />
<g id="atom_O_8_s0_text">
<text x="37.0" y="222.0" text-anchor="middle" font-family="verdana" font-size="8"><tspan y="222.0" dy="0.35em">O</tspan></text>
</g>
</g>
<g id="atom_C_9_s0">
<line x1="30.0" y1="209.0" x2="33.5" y2="215.5" />
<line x1="30.0" y1="209.0" x2="33.5" y2="202.5" />
</g>
<g id="atom_C_10_s0">
<line x1="37.0" y1="196.0" x2="33.5" y2="202.5" />
<line x1="37.0" y1="196.0" x2="33.5" y2="189.5" />
<line x1="33.92272803021012" y1="195.98006952219453" x2="31.122728030210126" y2="190.78006952219454" />
</g>
<g id="atom_C_11_s0">
<line x1="30.0" y1="183.0" x2="33.5" y2="189.5" />
<line x1="28.322728030210126" y1="185.58006952219455" x2="31.122728030210126" y2="190.78006952219454" />
<line x1="30.0" y1="183.0" x2="33.5" y2="176.5" />
<line x1="30.0" y1="183.0" x2="22.5" y2="183.0" />
</g>
<g id="atom_C_12_s0">
<line x1="37.0" y1="170.0" x2="33.5" y2="176.5" />
<line x1="37.0" y1="170.0" x2="33.5" y2="163.5" />
</g>
<g id="atom_C_13_s0">
<line x1="30.0" y1="157.0" x2="33.5" y2="163.5" />
<line x1="30.0" y1="157.0" x2="33.5" y2="150.5" />
</g>
<g id="atom_C_14_s0">
<line x1="37.0" y1="144.0" x2="33.5" y2="150.5" />
<line x1="37.0" y1="144.0" x2="33.5" y2="137.5" />
<line x1="33.92272803021012" y1="143.98006952219453" x2="31.122728030210126" y2="138.78006952219454" />
</g>
<g id="atom_C_15_s0">
<line x1="30.0" y1="131.0" x2="33.5" y2="137.5" />
<line x1="28.322728030210126" y1="133.58006952219455" x2="31.122728030210126" y2="138.78006952219454" />
<line x1="30.0" y1="131.0" x2="22.5" y2="131.0" />
<line x1="30.0" y1="131.0" x2="33.5" y2="124.5" />
</g>
<g id="atom_C_16_s0">
<line x1="15.0" y1="131.0" x2="22.5" y2="131.0" />
</g>
<g id="atom_C_17_s0">
<line x1="37.0" y1="118.0" x2="33.5" y2="124.5" />
<line x1="37.0" y1="118.0" x2="33.5" y2="111.5" />
</g>
<g id="atom_C_18_s0">
<line x1="30.0" y1="105.0" x2="33.5" y2="111.5" />
<line x1="30.0" y1="105.0" x2="33.5" y2="98.5" />
</g>
<g id="atom_C_19_s0">
<line x1="37.0" y1="92.0" x2="33.5" y2="98.5" />
<line x1="37.0" y1="92.0" x2="33.5" y2="85.5" />
<line x1="33.92272803021012" y1="91.98006952219455" x2="31.122728030210126" y2="86.78006952219455" />
</g>
<g id="atom_C_20_s0">
<line x1="30.0" y1="79.0" x2="33.5" y2="85.5" />
<line x1="28.322728030210126" y1="81.58006952219455" x2="31.122728030210126" y2="86.78006952219455" />
<line x1="30.0" y1="79.0" x2="22.5" y2="79.0" />
<line x1="30.0" y1="79.0" x2="33.5" y2="72.5" />
</g>
<g id="atom_C_21_s0">
<line x1="15.0" y1="79.0" x2="22.5" y2="79.0" />
</g>
<g id="atom_C_22_s0">
<line x1="37.0" y1="66.0" x2="33.5" y2="72.5" />
<line x1="37.0" y1="66.0" x2="33.5" y2="59.5" />
</g>
<g id="atom_C_23_s0">
<line x1="30.0" y1="53.0" x2="33.5" y2="59.5" />
<line x1="30.0" y1="53.0" x2="33.5" y2="46.5" />
</g>
<g id="atom_C_24_s0">
<line x1="37.0" y1="40.0" x2="33.5" y2="46.5" />
<line x1="37.0" y1="40.0" x2="33.5" y2="33.5" />
<line x1="33.92272803021012" y1="39.98006952219455" x2="31.122728030210126" y2="34.78006952219455" />
</g>
<g id="atom_C_25_s0">
<line x1="30.0" y1="27.0" x2="33.5" y2="33.5" />
<line x1="28.322728030210126" y1="29.58006952219455" x2="31.122728030210126" y2="34.78006952219455" />
<line x1="30.0" y1="27.0" x2="22.5" y2="27.0" />
<line x1="30.0" y1="27.0" x2="33.5" y2="21.0" />
</g>
<g id="atom_C_26_s0">
<line x1="15.0" y1="27.0" x2="22.5" y2="27.0" />
</g>
<g id="atom_C_27_s0">
<line x1="37.0" y1="15.0" x2="33.5" y2="21.0" />
</g>
<g id="atom_C_28_s0">
<line x1="15.0" y1="183.0" x2="22.5" y2="183.0" />
</g>
</g>
<g id="unlabeled_s1">
<g id="atom_C_10_s1">
<line x1="170.0" y1="196.5" x2="176.5" y2="203.0" />
<line x1="170.0" y1="196.5" x2="168.5" y2="189.0" />
<line x1="170.0" y1="196.5" x2="163.5" y2="195.5" />
</g>
<g id="atom_C_9_s1">
<line x1="183.0" y1="209.5" x2="176.5" y2="203.0" />
<line x1="183.0" y1="209.5" x2="184.0" y2="203.5" />
</g>
<g id="atom_C_14_s1">
<line x1="185.0" y1="197.5" x2="184.0" y2="203.5" />
<line x1="185.0" y1="197.5" x2="176.0" y2="203.0" />
<line x1="185.0" y1="197.5" x2="184.0" y2="189.5" />
</g>
<g id="atom_C_11_s1">
<line x1="167.0" y1="181.5" x2="168.5" y2="189.0" />
<line x1="167.0" y1="181.5" x2="162.0" y2="188.0" />
<line x1="167.0" y1="181.5" x2="164.0" y2="174.5" />
<line x1="167.0" y1="181.5" x2="175.0" y2="181.5" />
</g>
<g id="atom_C_12_s1">
<line x1="157.0" y1="194.5" x2="163.5" y2="195.5" />
<line x1="157.0" y1="194.5" x2="162.0" y2="188.0" />
<line x1="157.0" y1="194.5" x2="162.0" y2="201.5" />
</g>
<g id="atom_C_28_s1">
<line x1="161.0" y1="167.5" x2="164.0" y2="174.5" />
</g>
<g id="atom_C_15_s1">
<line x1="183.0" y1="181.5" x2="175.0" y2="181.5" />
<line x1="183.0" y1="181.5" x2="184.0" y2="189.5" />
<line x1="183.0" y1="181.5" x2="190.0" y2="179.0" />
<line x1="183.0" y1="181.5" x2="184.5" y2="174.0" />
</g>
<g id="atom_C_13_s1">
<line x1="167.0" y1="208.5" x2="162.0" y2="201.5" />
<line x1="167.0" y1="208.5" x2="176.0" y2="203.0" />
</g>
<g id="atom_C_16_s1">
<line x1="197.0" y1="176.5" x2="190.0" y2="179.0" />
</g>
<g id="atom_C_17_s1">
<line x1="186.0" y1="166.5" x2="184.5" y2="174.0" />
<line x1="186.0" y1="166.5" x2="180.5" y2="161.5" />
</g>
<g id="atom_C_18_s1">
<line x1="175.0" y1="156.5" x2="180.5" y2="161.5" />
<line x1="175.0" y1="156.5" x2="176.0" y2="149.0" />
</g>
<g id="atom_C_19_s1">
<line x1="177.0" y1="141.5" x2="176.0" y2="149.0" />
<line x1="177.0" y1="141.5" x2="171.5" y2="137.0" />
<line x1="176.7993080719112" y1="143.005189460666" x2="184.4540541359475" y2="140.27135158065303" />
<line x1="175.78032529890783" y1="140.50208433547007" x2="183.5459458640525" y2="137.72864841934697" />
</g>
<g id="atom_C_20_s1">
<line x1="166.0" y1="132.5" x2="171.5" y2="137.0" />
<line x1="166.0" y1="132.5" x2="158.5" y2="131.0" />
<line x1="166.0" y1="132.5" x2="167.5" y2="125.0" />
<line x1="166.0" y1="132.5" x2="161.0" y2="138.0" />
</g>
<g id="atom_O_71_s1">
<line x1="187.9540541359475" y1="139.02135158065303" x2="184.4540541359475" y2="140.27135158065303" />
<line x1="187.0459458640525" y1="136.47864841934697" x2="183.5459458640525" y2="137.72864841934697" />
<g id="atom_O_71_s1_text">
<text x="191.0" y="136.5" text-anchor="middle" font-family="verdana" font-size="8"><tspan y="136.5" dy="0.35em">O</tspan></text>
</g>
</g>
<g id="atom_C_21_s1">
<line x1="151.0" y1="129.5" x2="158.5" y2="131.0" />
</g>
<g id="atom_C_22_s1">
<line x1="169.0" y1="117.5" x2="167.5" y2="125.0" />
<line x1="169.0" y1="117.5" x2="163.0" y2="112.5" />
</g>
<g id="atom_O_47_s1">
<line x1="158.5" y1="140.75" x2="161.0" y2="138.0" />
<g id="atom_O_47_s1_text">
<text x="156.0" y="143.5" text-anchor="middle" font-family="verdana" font-size="8"><tspan y="143.5" dy="0.35em">O</tspan></text>
<text x="150.0" y="143.5" text-anchor="middle" font-family="verdana" font-size="8"><tspan y="143.5" dy="0.35em">H</tspan></text>
</g>
</g>
<g id="atom_C_23_s1">
<line x1="157.0" y1="107.5" x2="163.0" y2="112.5" />
<line x1="157.0" y1="107.5" x2="158.5" y2="100.0" />
</g>
<g id="atom_C_24_s1">
<line x1="160.0" y1="92.5" x2="158.5" y2="100.0" />
<line x1="160.0" y1="92.5" x2="154.5" y2="88.0" />
<line x1="157.1902579663054" y1="93.68968470784895" x2="152.7902579663054" y2="90.08968470784896" />
</g>
<g id="atom_C_25_s1">
<line x1="149.0" y1="83.5" x2="154.5" y2="88.0" />
<line x1="148.3902579663054" y1="86.48968470784897" x2="152.7902579663054" y2="90.08968470784896" />
<line x1="149.0" y1="83.5" x2="142.0" y2="86.0" />
<line x1="149.0" y1="83.5" x2="150.0" y2="76.0" />
</g>
<g id="atom_C_26_s1">
<line x1="135.0" y1="88.5" x2="142.0" y2="86.0" />
</g>
<g id="atom_C_27_s1">
<line x1="151.0" y1="68.5" x2="150.0" y2="76.0" />
</g>
</g>
</svg>