<?xml version="1.0" encoding="utf-8" standalone="no"?>
<!DOCTYPE svg PUBLIC "-//W3C//DTD SVG 1.1//EN"
  "http://www.w3.org/Graphics/SVG/1.1/DTD/svg11.dtd">
<svg xmlns:xlink="http://www.w3.org/1999/xlink" width="176.4pt" height="290.16pt" viewBox="0 0 176.4 290.16" xmlns="http://www.w3.org/2000/svg" version="1.1">
 <metadata>
  <rdf:RDF xmlns:dc="http://purl.org/dc/elements/1.1/" xmlns:cc="http://creativecommons.org/ns#" xmlns:rdf="http://www.w3.org/1999/02/22-rdf-syntax-ns#">
   <cc:Work>
    <dc:type rdf:resource="http://purl.org/dc/dcmitype/StillImage"/>
    <dc:date>2023-05-07T20:03:40.520660</dc:date>
    <dc:format>image/svg+xml</dc:format>
    <dc:creator>
     <cc:Agent>
      <dc:title>Matplotlib v3.7.1, https://matplotlib.org/</dc:title>
     </cc:Agent>
    </dc:creator>
   </cc:Work>
  </rdf:RDF>
 </metadata>
 <defs>
  <style type="text/css">*{stroke-linejoin: round; stroke-linecap: butt}</style>
 </defs>
 <g id="figure_1">
  <g id="patch_1">
   <path d="M 0 290.16 
L 176.4 290.16 
L 176.4 0 
L 0 0 
z
" style="fill: #ffffff"/>
  </g>
  <g id="axes_1">
   <g id="line2d_1">
    <path d="M 94.042029 227.263283 
L 103.30382 236.970681 
" clip-path="url(#pfe5d03d10b)" style="fill: none; stroke: #000000; stroke-width: 2; stroke-linecap: square"/>
   </g>
   <g id="line2d_2">
    <path d="M 112.565611 246.678079 
L 103.30382 236.970681 
" clip-path="url(#pfe5d03d10b)" style="fill: none; stroke: #000000; stroke-width: 2; stroke-linecap: square"/>
   </g>
   <g id="line2d_3">
    <path d="M 112.565611 246.678079 
L 114.131085 237.945329 
" clip-path="url(#pfe5d03d10b)" style="fill: none; stroke: #000000; stroke-width: 2; stroke-linecap: square"/>
   </g>
   <g id="line2d_4">
    <path d="M 115.696559 229.212579 
L 114.131085 237.945329 
" clip-path="url(#pfe5d03d10b)" style="fill: none; stroke: #000000; stroke-width: 2; stroke-linecap: square"/>
   </g>
   <g id="line2d_5">
    <path d="M 89.221957 206.138503 
L 91.631993 216.700893 
" clip-path="url(#pfe5d03d10b)" style="fill: none; stroke: #000000; stroke-width: 2; stroke-linecap: square"/>
   </g>
   <g id="line2d_6">
    <path d="M 94.042029 227.263283 
L 91.631993 216.700893 
" clip-path="url(#pfe5d03d10b)" style="fill: none; stroke: #000000; stroke-width: 2; stroke-linecap: square"/>
   </g>
   <g id="line2d_7">
    <path d="M 74.921003 224.988937 
L 84.481516 226.12611 
" clip-path="url(#pfe5d03d10b)" style="fill: none; stroke: #000000; stroke-width: 2; stroke-linecap: square"/>
   </g>
   <g id="line2d_8">
    <path d="M 94.042029 227.263283 
L 84.481516 226.12611 
" clip-path="url(#pfe5d03d10b)" style="fill: none; stroke: #000000; stroke-width: 2; stroke-linecap: square"/>
   </g>
   <g id="line2d_9">
    <path d="M 74.921003 224.988937 
L 82.07148 215.56372 
" clip-path="url(#pfe5d03d10b)" style="fill: none; stroke: #000000; stroke-width: 2; stroke-linecap: square"/>
   </g>
   <g id="line2d_10">
    <path d="M 89.221957 206.138503 
L 82.07148 215.56372 
" clip-path="url(#pfe5d03d10b)" style="fill: none; stroke: #000000; stroke-width: 2; stroke-linecap: square"/>
   </g>
   <g id="line2d_11">
    <path d="M 81.822938 185.917291 
L 85.522448 196.027897 
" clip-path="url(#pfe5d03d10b)" style="fill: none; stroke: #000000; stroke-width: 2; stroke-linecap: square"/>
   </g>
   <g id="line2d_12">
    <path d="M 89.221957 206.138503 
L 85.522448 196.027897 
" clip-path="url(#pfe5d03d10b)" style="fill: none; stroke: #000000; stroke-width: 2; stroke-linecap: square"/>
   </g>
   <g id="line2d_13">
    <path d="M 89.221957 206.138503 
L 101.126502 205.730089 
" clip-path="url(#pfe5d03d10b)" style="fill: none; stroke: #000000; stroke-width: 2; stroke-linecap: square"/>
   </g>
   <g id="line2d_14">
    <path d="M 113.031046 205.321675 
L 101.126502 205.730089 
" clip-path="url(#pfe5d03d10b)" style="fill: none; stroke: #000000; stroke-width: 2; stroke-linecap: square"/>
   </g>
   <g id="line2d_15">
    <path d="M 74.921003 224.988937 
L 82.089655 234.59458 
" clip-path="url(#pfe5d03d10b)" style="fill: none; stroke: #000000; stroke-width: 2; stroke-linecap: square"/>
   </g>
   <g id="line2d_16">
    <path d="M 89.258308 244.200223 
L 82.089655 234.59458 
" clip-path="url(#pfe5d03d10b)" style="fill: none; stroke: #000000; stroke-width: 2; stroke-linecap: square"/>
   </g>
   <g id="line2d_17">
    <path d="M 89.258308 244.200223 
L 102.477433 236.706401 
" clip-path="url(#pfe5d03d10b)" style="fill: none; stroke: #000000; stroke-width: 2; stroke-linecap: square"/>
   </g>
   <g id="line2d_18">
    <path d="M 115.696559 229.212579 
L 102.477433 236.706401 
" clip-path="url(#pfe5d03d10b)" style="fill: none; stroke: #000000; stroke-width: 2; stroke-linecap: square"/>
   </g>
   <g id="line2d_19">
    <path d="M 113.031046 205.321675 
L 114.363802 217.267127 
" clip-path="url(#pfe5d03d10b)" style="fill: none; stroke: #000000; stroke-width: 2; stroke-linecap: square"/>
   </g>
   <g id="line2d_20">
    <path d="M 115.696559 229.212579 
L 114.363802 217.267127 
" clip-path="url(#pfe5d03d10b)" style="fill: none; stroke: #000000; stroke-width: 2; stroke-linecap: square"/>
   </g>
   <g id="line2d_21">
    <path d="M 113.031046 205.321675 
L 123.183154 201.737622 
" clip-path="url(#pfe5d03d10b)" style="fill: none; stroke: #000000; stroke-width: 2; stroke-linecap: square"/>
   </g>
   <g id="line2d_22">
    <path d="M 133.335262 198.15357 
L 123.183154 201.737622 
" clip-path="url(#pfe5d03d10b)" style="fill: none; stroke: #000000; stroke-width: 2; stroke-linecap: square"/>
   </g>
   <g id="line2d_23">
    <path d="M 113.031046 205.321675 
L 115.003219 194.737665 
" clip-path="url(#pfe5d03d10b)" style="fill: none; stroke: #000000; stroke-width: 2; stroke-linecap: square"/>
   </g>
   <g id="line2d_24">
    <path d="M 116.975392 184.153655 
L 115.003219 194.737665 
" clip-path="url(#pfe5d03d10b)" style="fill: none; stroke: #000000; stroke-width: 2; stroke-linecap: square"/>
   </g>
   <g id="line2d_25">
    <path d="M 100.615523 170.153741 
L 108.795458 177.153698 
" clip-path="url(#pfe5d03d10b)" style="fill: none; stroke: #000000; stroke-width: 2; stroke-linecap: square"/>
   </g>
   <g id="line2d_26">
    <path d="M 116.975392 184.153655 
L 108.795458 177.153698 
" clip-path="url(#pfe5d03d10b)" style="fill: none; stroke: #000000; stroke-width: 2; stroke-linecap: square"/>
   </g>
   <g id="line2d_27">
    <path d="M 100.615523 170.153741 
L 102.587696 159.569731 
" clip-path="url(#pfe5d03d10b)" style="fill: none; stroke: #000000; stroke-width: 2; stroke-linecap: square"/>
   </g>
   <g id="line2d_28">
    <path d="M 104.559869 148.985722 
L 102.587696 159.569731 
" clip-path="url(#pfe5d03d10b)" style="fill: none; stroke: #000000; stroke-width: 2; stroke-linecap: square"/>
   </g>
   <g id="line2d_29">
    <path d="M 88.2 134.985808 
L 96.379935 141.985765 
" clip-path="url(#pfe5d03d10b)" style="fill: none; stroke: #000000; stroke-width: 2; stroke-linecap: square"/>
   </g>
   <g id="line2d_30">
    <path d="M 104.559869 148.985722 
L 96.379935 141.985765 
" clip-path="url(#pfe5d03d10b)" style="fill: none; stroke: #000000; stroke-width: 2; stroke-linecap: square"/>
   </g>
   <g id="line2d_31">
    <path d="M 104.149961 151.185567 
L 115.357107 147.229048 
" clip-path="url(#pfe5d03d10b)" style="fill: none; stroke: #000000; stroke-width: 2; stroke-linecap: square"/>
   </g>
   <g id="line2d_32">
    <path d="M 120.433161 145.437022 
L 115.357107 147.229048 
" clip-path="url(#pfe5d03d10b)" style="fill: none; stroke: #000000; stroke-width: 2; stroke-linecap: square"/>
   </g>
   <g id="line2d_33">
    <path d="M 102.859702 147.530808 
L 114.066848 143.57429 
" clip-path="url(#pfe5d03d10b)" style="fill: none; stroke: #000000; stroke-width: 2; stroke-linecap: square"/>
   </g>
   <g id="line2d_34">
    <path d="M 119.142902 141.782263 
L 114.066848 143.57429 
" clip-path="url(#pfe5d03d10b)" style="fill: none; stroke: #000000; stroke-width: 2; stroke-linecap: square"/>
   </g>
   <g id="line2d_35">
    <path d="M 67.03198 131.041461 
L 77.61599 133.013634 
" clip-path="url(#pfe5d03d10b)" style="fill: none; stroke: #000000; stroke-width: 2; stroke-linecap: square"/>
   </g>
   <g id="line2d_36">
    <path d="M 88.2 134.985808 
L 77.61599 133.013634 
" clip-path="url(#pfe5d03d10b)" style="fill: none; stroke: #000000; stroke-width: 2; stroke-linecap: square"/>
   </g>
   <g id="line2d_37">
    <path d="M 88.2 134.985808 
L 90.172173 124.401798 
" clip-path="url(#pfe5d03d10b)" style="fill: none; stroke: #000000; stroke-width: 2; stroke-linecap: square"/>
   </g>
   <g id="line2d_38">
    <path d="M 92.144347 113.817788 
L 90.172173 124.401798 
" clip-path="url(#pfe5d03d10b)" style="fill: none; stroke: #000000; stroke-width: 2; stroke-linecap: square"/>
   </g>
   <g id="line2d_39">
    <path d="M 77.700064 147.25571 
L 81.200043 143.165742 
" clip-path="url(#pfe5d03d10b)" style="fill: none; stroke: #000000; stroke-width: 2; stroke-linecap: square"/>
   </g>
   <g id="line2d_40">
    <path d="M 88.2 134.985808 
L 81.200043 143.165742 
" clip-path="url(#pfe5d03d10b)" style="fill: none; stroke: #000000; stroke-width: 2; stroke-linecap: square"/>
   </g>
   <g id="line2d_41">
    <path d="M 75.784477 99.817874 
L 83.964412 106.817831 
" clip-path="url(#pfe5d03d10b)" style="fill: none; stroke: #000000; stroke-width: 2; stroke-linecap: square"/>
   </g>
   <g id="line2d_42">
    <path d="M 92.144347 113.817788 
L 83.964412 106.817831 
" clip-path="url(#pfe5d03d10b)" style="fill: none; stroke: #000000; stroke-width: 2; stroke-linecap: square"/>
   </g>
   <g id="line2d_43">
    <path d="M 75.784477 99.817874 
L 77.75665 89.233864 
" clip-path="url(#pfe5d03d10b)" style="fill: none; stroke: #000000; stroke-width: 2; stroke-linecap: square"/>
   </g>
   <g id="line2d_44">
    <path d="M 79.728824 78.649854 
L 77.75665 89.233864 
" clip-path="url(#pfe5d03d10b)" style="fill: none; stroke: #000000; stroke-width: 2; stroke-linecap: square"/>
   </g>
   <g id="line2d_45">
    <path d="M 63.368954 64.64994 
L 71.548889 71.649897 
" clip-path="url(#pfe5d03d10b)" style="fill: none; stroke: #000000; stroke-width: 2; stroke-linecap: square"/>
   </g>
   <g id="line2d_46">
    <path d="M 79.728824 78.649854 
L 71.548889 71.649897 
" clip-path="url(#pfe5d03d10b)" style="fill: none; stroke: #000000; stroke-width: 2; stroke-linecap: square"/>
   </g>
   <g id="line2d_47">
    <path d="M 62.484957 68.994708 
L 69.028905 74.594674 
" clip-path="url(#pfe5d03d10b)" style="fill: none; stroke: #000000; stroke-width: 2; stroke-linecap: square"/>
   </g>
   <g id="line2d_48">
    <path d="M 75.572852 80.194639 
L 69.028905 74.594674 
" clip-path="url(#pfe5d03d10b)" style="fill: none; stroke: #000000; stroke-width: 2; stroke-linecap: square"/>
   </g>
   <g id="line2d_49">
    <path d="M 43.064738 71.818046 
L 53.216846 68.233993 
" clip-path="url(#pfe5d03d10b)" style="fill: none; stroke: #000000; stroke-width: 2; stroke-linecap: square"/>
   </g>
   <g id="line2d_50">
    <path d="M 63.368954 64.64994 
L 53.216846 68.233993 
" clip-path="url(#pfe5d03d10b)" style="fill: none; stroke: #000000; stroke-width: 2; stroke-linecap: square"/>
   </g>
   <g id="line2d_51">
    <path d="M 63.368954 64.64994 
L 65.341128 54.06593 
" clip-path="url(#pfe5d03d10b)" style="fill: none; stroke: #000000; stroke-width: 2; stroke-linecap: square"/>
   </g>
   <g id="line2d_52">
    <path d="M 67.313301 43.481921 
L 65.341128 54.06593 
" clip-path="url(#pfe5d03d10b)" style="fill: none; stroke: #000000; stroke-width: 2; stroke-linecap: square"/>
   </g>
   <g id="text_1">
    <a xlink:href="O_71">
     <!-- O -->
     <g transform="translate(120.928148 144.576991) scale(0.1 -0.1)">
      <defs>
       <path id="DejaVuSans-4f" d="M 2522 4238 
Q 1834 4238 1429 3725 
Q 1025 3213 1025 2328 
Q 1025 1447 1429 934 
Q 1834 422 2522 422 
Q 3209 422 3611 934 
Q 4013 1447 4013 2328 
Q 4013 3213 3611 3725 
Q 3209 4238 2522 4238 
z
M 2522 4750 
Q 3503 4750 4090 4092 
Q 4678 3434 4678 2328 
Q 4678 1225 4090 567 
Q 3503 -91 2522 -91 
Q 1538 -91 948 565 
Q 359 1222 359 2328 
Q 359 3434 948 4092 
Q 1538 4750 2522 4750 
z
" transform="scale(0.015625)"/>
      </defs>
      <use xlink:href="#DejaVuSans-4f"/>
     </g>
    </a>
   </g>
   <g id="text_2">
    <a xlink:href="O_47">
     <!-- HO -->
     <g transform="translate(63.114372 154.105052) scale(0.1 -0.1)">
      <defs>
       <path id="DejaVuSans-48" d="M 628 4666 
L 1259 4666 
L 1259 2753 
L 3553 2753 
L 3553 4666 
L 4184 4666 
L 4184 0 
L 3553 0 
L 3553 2222 
L 1259 2222 
L 1259 0 
L 628 0 
L 628 4666 
z
" transform="scale(0.015625)"/>
      </defs>
      <use xlink:href="#DejaVuSans-48"/>
      <use xlink:href="#DejaVuSans-4f" x="75.195312"/>
     </g>
    </a>
   </g>
  </g>
 </g>
 <defs>
  <clipPath id="pfe5d03d10b">
   <rect x="0" y="0.417182" width="176.4" height="289.325636"/>
  </clipPath>
 </defs>
</svg>
