<svg width="1219" height="308" viewBox="0 0 1219 308" xmlns="http://www.w3.org/2000/svg">
<style> line {stroke: black; stroke_width: 1px;} polygon {fill: black;} </style>
<g id="arrows">
<g id="labelled_arrow_0">
<g id="arrow_0">
<line x1="80" x2="143" y1="139.0" y2="139.0" stroke-width="2" stroke="black" />
<line x1="138" x2="143" y1="134.0" y2="139.0" stroke-width="2" stroke="black" />
<line x1="138" x2="143" y1="144.0" y2="139.0" stroke-width="2" stroke="black" />
</g>
<text x="111.5" y="128.0" fill="'black" text-anchor="middle" font-family="verdana" font-size = "12"><tspan y="128.0" dy="0.35em">cyclase</tspan></text>
</g>
<g id="labelled_arrow_1">
<g id="arrow_1">
<line x1="223" x2="322" y1="139.0" y2="139.0" stroke-width="2" stroke="black" />
<line x1="317" x2="322" y1="134.0" y2="139.0" stroke-width="2" stroke="black" />
<line x1="317" x2="322" y1="144.0" y2="139.0" stroke-width="2" stroke="black" />
</g>
<text x="272.5" y="128.0" fill="'black" text-anchor="middle" font-family="verdana" font-size = "12"><tspan y="128.0" dy="0.35em">hydroxylase</tspan></text>
</g>
<g id="labelled_arrow_2">
<g id="arrow_2">
<line x1="402" x2="519" y1="139.0" y2="139.0" stroke-width="2" stroke="black" />
<line x1="514" x2="519" y1="134.0" y2="139.0" stroke-width="2" stroke="black" />
<line x1="514" x2="519" y1="144.0" y2="139.0" stroke-width="2" stroke="black" />
</g>
<text x="460.5" y="128.0" fill="'black" text-anchor="middle" font-family="verdana" font-size = "12"><tspan y="128.0" dy="0.35em">dehydrogenase</tspan></text>
</g>
<g id="labelled_arrow_3">
<g id="arrow_3">
<line x1="599" x2="653" y1="139.0" y2="139.0" stroke-width="2" stroke="black" />
<line x1="648" x2="653" y1="134.0" y2="139.0" stroke-width="2" stroke="black" />
<line x1="648" x2="653" y1="144.0" y2="139.0" stroke-width="2" stroke="black" />
</g>
<text x="626.0" y="128.0" fill="'black" text-anchor="middle" font-family="verdana" font-size = "12"><tspan y="128.0" dy="0.35em">BcBOT2</tspan></text>
</g>
<g id="labelled_arrow_4">
<g id="arrow_4">
<line x1="810" x2="864" y1="139.0" y2="139.0" stroke-width="2" stroke="black" />
<line x1="859" x2="864" y1="134.0" y2="139.0" stroke-width="2" stroke="black" />
<line x1="859" x2="864" y1="144.0" y2="139.0" stroke-width="2" stroke="black" />
</g>
<text x="837.0" y="128.0" fill="'black" text-anchor="middle" font-family="verdana" font-size = "12"><tspan y="128.0" dy="0.35em">BcBOT2</tspan></text>
</g>
<g id="labelled_arrow_5">
<g id="arrow_5">
<line x1="1043" x2="1097" y1="139.0" y2="139.0" stroke-width="2" stroke="black" />
<line x1="1092" x2="1097" y1="134.0" y2="139.0" stroke-width="2" stroke="black" />
<line x1="1092" x2="1097" y1="144.0" y2="139.0" stroke-width="2" stroke="black" />
</g>
<text x="1070.0" y="128.0" fill="'black" text-anchor="middle" font-family="verdana" font-size = "12"><tspan y="128.0" dy="0.35em">BcBOT2</tspan></text>
</g>
</g>
<g id="unlabeled_s0">
<g id="atom_P_1_s0">
<line x1="55.14973872755114" y1="245.45753152464687" x2="57.14973872755113" y2="242.20753152464684" />
<line x1="52.85026127244886" y1="244.04246847535313" x2="54.85026127244887" y2="240.79246847535316" />
<line x1="52.0" y1="251.75" x2="52.0" y2="255.5" />
<line x1="55.25" y1="250.0" x2="58.5" y2="252.0" />
<line x1="48.25" y1="248.0" x2="44.5" y2="248.0" />
<g id="atom_P_1_s0_text">
<text x="52.0" y="248.0" text-anchor="middle" font-family="verdana" font-size="8"><tspan y="248.0" dy="0.35em">P</tspan></text>
</g>
</g>
<g id="atom_O_0_s0">
<line x1="59.14973872755113" y1="238.95753152464684" x2="57.14973872755113" y2="242.20753152464684" />
<line x1="56.85026127244887" y1="237.54246847535316" x2="54.85026127244887" y2="240.79246847535316" />
<g id="atom_O_0_s0_text">
<text x="60.0" y="235.0" text-anchor="middle" font-family="verdana" font-size="8"><tspan y="235.0" dy="0.35em">O</tspan></text>
</g>
</g>
<g id="atom_O_2_s0">
<line x1="52.0" y1="259.25" x2="52.0" y2="255.5" />
<g id="atom_O_2_s0_text">
<text x="52.0" y="263.0" text-anchor="middle" font-family="verdana" font-size="8"><tspan y="263.0" dy="0.35em">O</tspan></text>
<text x="58.0" y="263.0" text-anchor="middle" font-family="verdana" font-size="8"><tspan y="263.0" dy="0.35em">H</tspan></text>
</g>
</g>
<g id="atom_O_3_s0">
<line x1="61.75" y1="254.0" x2="58.5" y2="252.0" />
<g id="atom_O_3_s0_text">
<text x="65.0" y="256.0" text-anchor="middle" font-family="verdana" font-size="8"><tspan y="256.0" dy="0.35em">O</tspan></text>
<text x="71.0" y="256.0" text-anchor="middle" font-family="verdana" font-size="8"><tspan y="256.0" dy="0.35em">H</tspan></text>
</g>
</g>
<g id="atom_O_4_s0">
<line x1="40.75" y1="248.0" x2="44.5" y2="248.0" />
<line x1="35.25" y1="244.75" x2="33.5" y2="241.5" />
<g id="atom_O_4_s0_text">
<text x="37.0" y="248.0" text-anchor="middle" font-family="verdana" font-size="8"><tspan y="248.0" dy="0.35em">O</tspan></text>
</g>
</g>
<g id="atom_P_5_s0">
<line x1="31.75" y1="238.25" x2="33.5" y2="241.5" />
<line x1="27.734434418259134" y1="232.24680998434604" x2="24.140034761097272" y2="230.31136401510506" />
<line x1="25.765565581740866" y1="234.25319001565396" x2="22.859965238902728" y2="232.68863598489494" />
<line x1="26.75" y1="237.0" x2="23.5" y2="239.0" />
<line x1="31.75" y1="231.75" x2="33.5" y2="228.5" />
<g id="atom_P_5_s0_text">
<text x="30.0" y="235.0" text-anchor="middle" font-family="verdana" font-size="8"><tspan y="235.0" dy="0.35em">P</tspan></text>
</g>
</g>
<g id="atom_O_6_s0">
<line x1="20.890034761097272" y1="228.56136401510506" x2="24.140034761097272" y2="230.31136401510506" />
<line x1="19.609965238902728" y1="230.93863598489494" x2="22.859965238902728" y2="232.68863598489494" />
<g id="atom_O_6_s0_text">
<text x="17.0" y="228.0" text-anchor="middle" font-family="verdana" font-size="8"><tspan y="228.0" dy="0.35em">O</tspan></text>
</g>
</g>
<g id="atom_O_7_s0">
<line x1="20.25" y1="241.0" x2="23.5" y2="239.0" />
<g id="atom_O_7_s0_text">
<text x="17.0" y="243.0" text-anchor="middle" font-family="verdana" font-size="8"><tspan y="243.0" dy="0.35em">O</tspan></text>
<text x="11.0" y="243.0" text-anchor="middle" font-family="verdana" font-size="8"><tspan y="243.0" dy="0.35em">H</tspan></text>
</g>
</g>
<g id="atom_O_8_s0">
<line x1="35.25" y1="225.25" x2="33.5" y2="228.5" />
<line x1="35.25" y1="218.75" x2="33.5" y2="215.5" />
<g id="atom_O_8_s0_text">
<text x="37.0" y="222.0" text-anchor="middle" font-family="verdana" font-size="8"><tspan y="222.0" dy="0.35em">O</tspan></text>
</g>
</g>
<g id="atom_C_9_s0">
<line x1="30.0" y1="209.0" x2="33.5" y2="215.5" />
<line x1="30.0" y1="209.0" x2="33.5" y2="202.5" />
</g>
<g id="atom_C_10_s0">
<line x1="37.0" y1="196.0" x2="33.5" y2="202.5" />
<line x1="37.0" y1="196.0" x2="33.5" y2="189.5" />
<line x1="33.92272803021012" y1="195.98006952219453" x2="31.122728030210126" y2="190.78006952219454" />
</g>
<g id="atom_C_11_s0">
<line x1="30.0" y1="183.0" x2="33.5" y2="189.5" />
<line x1="28.322728030210126" y1="185.58006952219455" x2="31.122728030210126" y2="190.78006952219454" />
<line x1="30.0" y1="183.0" x2="33.5" y2="176.5" />
<line x1="30.0" y1="183.0" x2="22.5" y2="183.0" />
</g>
<g id="atom_C_12_s0">
<line x1="37.0" y1="170.0" x2="33.5" y2="176.5" />
<line x1="37.0" y1="170.0" x2="33.5" y2="163.5" />
</g>
<g id="atom_C_13_s0">
<line x1="30.0" y1="157.0" x2="33.5" y2="163.5" />
<line x1="30.0" y1="157.0" x2="33.5" y2="150.5" />
</g>
<g id="atom_C_14_s0">
<line x1="37.0" y1="144.0" x2="33.5" y2="150.5" />
<line x1="37.0" y1="144.0" x2="33.5" y2="137.5" />
<line x1="33.92272803021012" y1="143.98006952219453" x2="31.122728030210126" y2="138.78006952219454" />
</g>
<g id="atom_C_15_s0">
<line x1="30.0" y1="131.0" x2="33.5" y2="137.5" />
<line x1="28.322728030210126" y1="133.58006952219455" x2="31.122728030210126" y2="138.78006952219454" />
<line x1="30.0" y1="131.0" x2="22.5" y2="131.0" />
<line x1="30.0" y1="131.0" x2="33.5" y2="124.5" />
</g>
<g id="atom_C_16_s0">
<line x1="15.0" y1="131.0" x2="22.5" y2="131.0" />
</g>
<g id="atom_C_17_s0">
<line x1="37.0" y1="118.0" x2="33.5" y2="124.5" />
<line x1="37.0" y1="118.0" x2="33.5" y2="111.5" />
</g>
<g id="atom_C_18_s0">
<line x1="30.0" y1="105.0" x2="33.5" y2="111.5" />
<line x1="30.0" y1="105.0" x2="33.5" y2="98.5" />
</g>
<g id="atom_C_19_s0">
<line x1="37.0" y1="92.0" x2="33.5" y2="98.5" />
<line x1="37.0" y1="92.0" x2="33.5" y2="85.5" />
<line x1="33.92272803021012" y1="91.98006952219455" x2="31.122728030210126" y2="86.78006952219455" />
</g>
<g id="atom_C_20_s0">
<line x1="30.0" y1="79.0" x2="33.5" y2="85.5" />
<line x1="28.322728030210126" y1="81.58006952219455" x2="31.122728030210126" y2="86.78006952219455" />
<line x1="30.0" y1="79.0" x2="22.5" y2="79.0" />
<line x1="30.0" y1="79.0" x2="33.5" y2="72.5" />
</g>
<g id="atom_C_21_s0">
<line x1="15.0" y1="79.0" x2="22.5" y2="79.0" />
</g>
<g id="atom_C_22_s0">
<line x1="37.0" y1="66.0" x2="33.5" y2="72.5" />
<line x1="37.0" y1="66.0" x2="33.5" y2="59.5" />
</g>
<g id="atom_C_23_s0">
<line x1="30.0" y1="53.0" x2="33.5" y2="59.5" />
<line x1="30.0" y1="53.0" x2="33.5" y2="46.5" />
</g>
<g id="atom_C_24_s0">
<line x1="37.0" y1="40.0" x2="33.5" y2="46.5" />
<line x1="37.0" y1="40.0" x2="33.5" y2="33.5" />
<line x1="33.92272803021012" y1="39.98006952219455" x2="31.122728030210126" y2="34.78006952219455" />
</g>
<g id="atom_C_25_s0">
<line x1="30.0" y1="27.0" x2="33.5" y2="33.5" />
<line x1="28.322728030210126" y1="29.58006952219455" x2="31.122728030210126" y2="34.78006952219455" />
<line x1="30.0" y1="27.0" x2="22.5" y2="27.0" />
<line x1="30.0" y1="27.0" x2="33.5" y2="21.0" />
</g>
<g id="atom_C_26_s0">
<line x1="15.0" y1="27.0" x2="22.5" y2="27.0" />
</g>
<g id="atom_C_27_s0">
<line x1="37.0" y1="15.0" x2="33.5" y2="21.0" />
</g>
<g id="atom_C_28_s0">
<line x1="15.0" y1="183.0" x2="22.5" y2="183.0" />
</g>
</g>
<g id="unlabeled_s1">
<g id="atom_P_1_s1">
<line x1="198.14973872755112" y1="245.45753152464684" x2="200.14973872755112" y2="242.20753152464684" />
<line x1="195.85026127244888" y1="244.04246847535316" x2="197.85026127244888" y2="240.79246847535316" />
<line x1="195.0" y1="251.75" x2="195.0" y2="255.5" />
<line x1="198.25" y1="250.0" x2="201.5" y2="252.0" />
<line x1="191.25" y1="248.0" x2="187.5" y2="248.0" />
<g id="atom_P_1_s1_text">
<text x="195.0" y="248.0" text-anchor="middle" font-family="verdana" font-size="8"><tspan y="248.0" dy="0.35em">P</tspan></text>
</g>
</g>
<g id="atom_O_0_s1">
<line x1="202.14973872755112" y1="238.95753152464684" x2="200.14973872755112" y2="242.20753152464684" />
<line x1="199.85026127244888" y1="237.54246847535316" x2="197.85026127244888" y2="240.79246847535316" />
<g id="atom_O_0_s1_text">
<text x="203.0" y="235.0" text-anchor="middle" font-family="verdana" font-size="8"><tspan y="235.0" dy="0.35em">O</tspan></text>
</g>
</g>
<g id="atom_O_2_s1">
<line x1="195.0" y1="259.25" x2="195.0" y2="255.5" />
<g id="atom_O_2_s1_text">
<text x="195.0" y="263.0" text-anchor="middle" font-family="verdana" font-size="8"><tspan y="263.0" dy="0.35em">O</tspan></text>
<text x="201.0" y="263.0" text-anchor="middle" font-family="verdana" font-size="8"><tspan y="263.0" dy="0.35em">H</tspan></text>
</g>
</g>
<g id="atom_O_3_s1">
<line x1="204.75" y1="254.0" x2="201.5" y2="252.0" />
<g id="atom_O_3_s1_text">
<text x="208.0" y="256.0" text-anchor="middle" font-family="verdana" font-size="8"><tspan y="256.0" dy="0.35em">O</tspan></text>
<text x="214.0" y="256.0" text-anchor="middle" font-family="verdana" font-size="8"><tspan y="256.0" dy="0.35em">H</tspan></text>
</g>
</g>
<g id="atom_O_4_s1">
<line x1="183.75" y1="248.0" x2="187.5" y2="248.0" />
<line x1="178.25" y1="244.75" x2="176.5" y2="241.5" />
<g id="atom_O_4_s1_text">
<text x="180.0" y="248.0" text-anchor="middle" font-family="verdana" font-size="8"><tspan y="248.0" dy="0.35em">O</tspan></text>
</g>
</g>
<g id="atom_P_5_s1">
<line x1="174.75" y1="238.25" x2="176.5" y2="241.5" />
<line x1="170.73443441825913" y1="232.24680998434604" x2="167.14003476109727" y2="230.31136401510506" />
<line x1="168.76556558174087" y1="234.25319001565396" x2="165.85996523890273" y2="232.68863598489494" />
<line x1="169.75" y1="237.0" x2="166.5" y2="239.0" />
<line x1="174.75" y1="231.75" x2="176.5" y2="228.5" />
<g id="atom_P_5_s1_text">
<text x="173.0" y="235.0" text-anchor="middle" font-family="verdana" font-size="8"><tspan y="235.0" dy="0.35em">P</tspan></text>
</g>
</g>
<g id="atom_O_6_s1">
<line x1="163.89003476109727" y1="228.56136401510506" x2="167.14003476109727" y2="230.31136401510506" />
<line x1="162.60996523890273" y1="230.93863598489494" x2="165.85996523890273" y2="232.68863598489494" />
<g id="atom_O_6_s1_text">
<text x="160.0" y="228.0" text-anchor="middle" font-family="verdana" font-size="8"><tspan y="228.0" dy="0.35em">O</tspan></text>
</g>
</g>
<g id="atom_O_7_s1">
<line x1="163.25" y1="241.0" x2="166.5" y2="239.0" />
<g id="atom_O_7_s1_text">
<text x="160.0" y="243.0" text-anchor="middle" font-family="verdana" font-size="8"><tspan y="243.0" dy="0.35em">O</tspan></text>
<text x="154.0" y="243.0" text-anchor="middle" font-family="verdana" font-size="8"><tspan y="243.0" dy="0.35em">H</tspan></text>
</g>
</g>
<g id="atom_O_8_s1">
<line x1="178.25" y1="225.25" x2="176.5" y2="228.5" />
<line x1="178.25" y1="218.75" x2="176.5" y2="215.5" />
<g id="atom_O_8_s1_text">
<text x="180.0" y="222.0" text-anchor="middle" font-family="verdana" font-size="8"><tspan y="222.0" dy="0.35em">O</tspan></text>
</g>
</g>
<g id="atom_C_9_s1">
<line x1="173.0" y1="209.0" x2="176.5" y2="215.5" />
<line x1="173.0" y1="209.0" x2="176.5" y2="202.5" />
</g>
<g id="atom_C_10_s1">
<line x1="180.0" y1="196.0" x2="176.5" y2="202.5" />
<line x1="180.0" y1="196.0" x2="176.5" y2="189.5" />
</g>
<g id="atom_C_11_s1">
<line x1="173.0" y1="183.0" x2="176.5" y2="189.5" />
<line x1="173.0" y1="183.0" x2="176.5" y2="176.5" />
<line x1="173.0" y1="183.0" x2="165.5" y2="183.0" />
</g>
<g id="atom_C_12_s1">
<line x1="180.0" y1="170.0" x2="176.5" y2="176.5" />
<line x1="180.0" y1="170.0" x2="176.5" y2="163.5" />
</g>
<g id="atom_C_13_s1">
<line x1="173.0" y1="157.0" x2="176.5" y2="163.5" />
<line x1="173.0" y1="157.0" x2="176.5" y2="150.5" />
</g>
<g id="atom_C_14_s1">
<line x1="180.0" y1="144.0" x2="176.5" y2="150.5" />
<line x1="180.0" y1="144.0" x2="176.5" y2="137.5" />
</g>
<g id="atom_C_15_s1">
<line x1="173.0" y1="131.0" x2="176.5" y2="137.5" />
<line x1="173.0" y1="131.0" x2="165.5" y2="131.0" />
<line x1="173.0" y1="131.0" x2="176.5" y2="124.5" />
</g>
<g id="atom_C_16_s1">
<line x1="158.0" y1="131.0" x2="165.5" y2="131.0" />
</g>
<g id="atom_C_17_s1">
<line x1="180.0" y1="118.0" x2="176.5" y2="124.5" />
<line x1="180.0" y1="118.0" x2="176.5" y2="111.5" />
</g>
<g id="atom_C_18_s1">
<line x1="173.0" y1="105.0" x2="176.5" y2="111.5" />
<line x1="173.0" y1="105.0" x2="176.5" y2="98.5" />
</g>
<g id="atom_C_19_s1">
<line x1="180.0" y1="92.0" x2="176.5" y2="98.5" />
<line x1="180.0" y1="92.0" x2="176.5" y2="85.5" />
</g>
<g id="atom_C_20_s1">
<line x1="173.0" y1="79.0" x2="176.5" y2="85.5" />
<line x1="173.0" y1="79.0" x2="165.5" y2="79.0" />
<line x1="173.0" y1="79.0" x2="176.5" y2="72.5" />
</g>
<g id="atom_C_21_s1">
<line x1="158.0" y1="79.0" x2="165.5" y2="79.0" />
</g>
<g id="atom_C_22_s1">
<line x1="180.0" y1="66.0" x2="176.5" y2="72.5" />
<line x1="180.0" y1="66.0" x2="176.5" y2="59.5" />
</g>
<g id="atom_C_23_s1">
<line x1="173.0" y1="53.0" x2="176.5" y2="59.5" />
<line x1="173.0" y1="53.0" x2="176.5" y2="46.5" />
</g>
<g id="atom_C_24_s1">
<line x1="180.0" y1="40.0" x2="176.5" y2="46.5" />
<line x1="180.0" y1="40.0" x2="176.5" y2="33.5" />
<line x1="176.92272803021015" y1="39.98006952219455" x2="174.12272803021014" y2="34.78006952219455" />
</g>
<g id="atom_C_25_s1">
<line x1="173.0" y1="27.0" x2="176.5" y2="33.5" />
<line x1="171.32272803021013" y1="29.58006952219455" x2="174.12272803021014" y2="34.78006952219455" />
<line x1="173.0" y1="27.0" x2="165.5" y2="27.0" />
<line x1="173.0" y1="27.0" x2="176.5" y2="21.0" />
</g>
<g id="atom_C_26_s1">
<line x1="158.0" y1="27.0" x2="165.5" y2="27.0" />
</g>
<g id="atom_C_27_s1">
<line x1="180.0" y1="15.0" x2="176.5" y2="21.0" />
</g>
<g id="atom_C_28_s1">
<line x1="158.0" y1="183.0" x2="165.5" y2="183.0" />
</g>
</g>
<g id="unlabeled_s2">
<g id="atom_P_1_s2">
<line x1="377.14973872755115" y1="245.45753152464684" x2="379.14973872755115" y2="242.20753152464684" />
<line x1="374.85026127244885" y1="244.04246847535316" x2="376.85026127244885" y2="240.79246847535316" />
<line x1="374.0" y1="251.75" x2="374.0" y2="255.5" />
<line x1="377.25" y1="250.0" x2="380.5" y2="252.0" />
<line x1="370.25" y1="248.0" x2="366.5" y2="248.0" />
<g id="atom_P_1_s2_text">
<text x="374.0" y="248.0" text-anchor="middle" font-family="verdana" font-size="8"><tspan y="248.0" dy="0.35em">P</tspan></text>
</g>
</g>
<g id="atom_O_0_s2">
<line x1="381.14973872755115" y1="238.95753152464684" x2="379.14973872755115" y2="242.20753152464684" />
<line x1="378.85026127244885" y1="237.54246847535316" x2="376.85026127244885" y2="240.79246847535316" />
<g id="atom_O_0_s2_text">
<text x="382.0" y="235.0" text-anchor="middle" font-family="verdana" font-size="8"><tspan y="235.0" dy="0.35em">O</tspan></text>
</g>
</g>
<g id="atom_O_2_s2">
<line x1="374.0" y1="259.25" x2="374.0" y2="255.5" />
<g id="atom_O_2_s2_text">
<text x="374.0" y="263.0" text-anchor="middle" font-family="verdana" font-size="8"><tspan y="263.0" dy="0.35em">O</tspan></text>
<text x="380.0" y="263.0" text-anchor="middle" font-family="verdana" font-size="8"><tspan y="263.0" dy="0.35em">H</tspan></text>
</g>
</g>
<g id="atom_O_3_s2">
<line x1="383.75" y1="254.0" x2="380.5" y2="252.0" />
<g id="atom_O_3_s2_text">
<text x="387.0" y="256.0" text-anchor="middle" font-family="verdana" font-size="8"><tspan y="256.0" dy="0.35em">O</tspan></text>
<text x="393.0" y="256.0" text-anchor="middle" font-family="verdana" font-size="8"><tspan y="256.0" dy="0.35em">H</tspan></text>
</g>
</g>
<g id="atom_O_4_s2">
<line x1="362.75" y1="248.0" x2="366.5" y2="248.0" />
<line x1="357.25" y1="244.75" x2="355.5" y2="241.5" />
<g id="atom_O_4_s2_text">
<text x="359.0" y="248.0" text-anchor="middle" font-family="verdana" font-size="8"><tspan y="248.0" dy="0.35em">O</tspan></text>
</g>
</g>
<g id="atom_P_5_s2">
<line x1="353.75" y1="238.25" x2="355.5" y2="241.5" />
<line x1="349.7344344182592" y1="232.24680998434604" x2="346.1400347610973" y2="230.31136401510506" />
<line x1="347.7655655817408" y1="234.25319001565396" x2="344.8599652389027" y2="232.68863598489494" />
<line x1="348.75" y1="237.0" x2="345.5" y2="239.0" />
<line x1="353.75" y1="231.75" x2="355.5" y2="228.5" />
<g id="atom_P_5_s2_text">
<text x="352.0" y="235.0" text-anchor="middle" font-family="verdana" font-size="8"><tspan y="235.0" dy="0.35em">P</tspan></text>
</g>
</g>
<g id="atom_O_6_s2">
<line x1="342.8900347610973" y1="228.56136401510506" x2="346.1400347610973" y2="230.31136401510506" />
<line x1="341.6099652389027" y1="230.93863598489494" x2="344.8599652389027" y2="232.68863598489494" />
<g id="atom_O_6_s2_text">
<text x="339.0" y="228.0" text-anchor="middle" font-family="verdana" font-size="8"><tspan y="228.0" dy="0.35em">O</tspan></text>
</g>
</g>
<g id="atom_O_7_s2">
<line x1="342.25" y1="241.0" x2="345.5" y2="239.0" />
<g id="atom_O_7_s2_text">
<text x="339.0" y="243.0" text-anchor="middle" font-family="verdana" font-size="8"><tspan y="243.0" dy="0.35em">O</tspan></text>
<text x="333.0" y="243.0" text-anchor="middle" font-family="verdana" font-size="8"><tspan y="243.0" dy="0.35em">H</tspan></text>
</g>
</g>
<g id="atom_O_8_s2">
<line x1="357.25" y1="225.25" x2="355.5" y2="228.5" />
<line x1="357.25" y1="218.75" x2="355.5" y2="215.5" />
<g id="atom_O_8_s2_text">
<text x="359.0" y="222.0" text-anchor="middle" font-family="verdana" font-size="8"><tspan y="222.0" dy="0.35em">O</tspan></text>
</g>
</g>
<g id="atom_C_9_s2">
<line x1="352.0" y1="209.0" x2="355.5" y2="215.5" />
<line x1="352.0" y1="209.0" x2="355.5" y2="202.5" />
</g>
<g id="atom_C_10_s2">
<line x1="359.0" y1="196.0" x2="355.5" y2="202.5" />
<line x1="359.0" y1="196.0" x2="355.5" y2="189.5" />
</g>
<g id="atom_C_11_s2">
<line x1="352.0" y1="183.0" x2="355.5" y2="189.5" />
<line x1="352.0" y1="183.0" x2="355.5" y2="176.5" />
<line x1="352.0" y1="183.0" x2="344.5" y2="183.0" />
</g>
<g id="atom_C_12_s2">
<line x1="359.0" y1="170.0" x2="355.5" y2="176.5" />
<line x1="359.0" y1="170.0" x2="355.5" y2="163.5" />
</g>
<g id="atom_C_28_s2">
<line x1="337.0" y1="183.0" x2="344.5" y2="183.0" />
</g>
<g id="atom_C_13_s2">
<line x1="352.0" y1="157.0" x2="355.5" y2="163.5" />
<line x1="352.0" y1="157.0" x2="355.5" y2="150.5" />
</g>
<g id="atom_C_14_s2">
<line x1="359.0" y1="144.0" x2="355.5" y2="150.5" />
<line x1="359.0" y1="144.0" x2="355.5" y2="137.5" />
</g>
<g id="atom_C_15_s2">
<line x1="352.0" y1="131.0" x2="355.5" y2="137.5" />
<line x1="352.0" y1="131.0" x2="344.5" y2="131.0" />
<line x1="352.0" y1="131.0" x2="355.5" y2="124.5" />
</g>
<g id="atom_C_16_s2">
<line x1="337.0" y1="131.0" x2="344.5" y2="131.0" />
</g>
<g id="atom_C_17_s2">
<line x1="359.0" y1="118.0" x2="355.5" y2="124.5" />
<line x1="359.0" y1="118.0" x2="355.5" y2="111.5" />
</g>
<g id="atom_C_18_s2">
<line x1="352.0" y1="105.0" x2="355.5" y2="111.5" />
<line x1="352.0" y1="105.0" x2="355.5" y2="98.5" />
</g>
<g id="atom_C_19_s2">
<line x1="359.0" y1="92.0" x2="355.5" y2="98.5" />
<line x1="359.0" y1="92.0" x2="355.5" y2="85.5" />
<line x1="359.0" y1="92.0" x2="366.5" y2="92.0" />
</g>
<g id="atom_C_20_s2">
<line x1="352.0" y1="79.0" x2="355.5" y2="85.5" />
<line x1="352.0" y1="79.0" x2="345.5" y2="75.5" />
<line x1="352.0" y1="79.0" x2="355.5" y2="72.5" />
<line x1="352.0" y1="79.0" x2="345.5" y2="83.0" />
</g>
<g id="atom_O_71_s2">
<line x1="370.25" y1="92.0" x2="366.5" y2="92.0" />
<g id="atom_O_71_s2_text">
<text x="374.0" y="92.0" text-anchor="middle" font-family="verdana" font-size="8"><tspan y="92.0" dy="0.35em">O</tspan></text>
<text x="380.0" y="92.0" text-anchor="middle" font-family="verdana" font-size="8"><tspan y="92.0" dy="0.35em">H</tspan></text>
</g>
</g>
<g id="atom_C_21_s2">
<line x1="339.0" y1="72.0" x2="345.5" y2="75.5" />
</g>
<g id="atom_C_22_s2">
<line x1="359.0" y1="66.0" x2="355.5" y2="72.5" />
<line x1="359.0" y1="66.0" x2="355.5" y2="59.5" />
</g>
<g id="atom_O_47_s2">
<line x1="342.25" y1="85.0" x2="345.5" y2="83.0" />
<g id="atom_O_47_s2_text">
<text x="339.0" y="87.0" text-anchor="middle" font-family="verdana" font-size="8"><tspan y="87.0" dy="0.35em">O</tspan></text>
<text x="333.0" y="87.0" text-anchor="middle" font-family="verdana" font-size="8"><tspan y="87.0" dy="0.35em">H</tspan></text>
</g>
</g>
<g id="atom_C_23_s2">
<line x1="352.0" y1="53.0" x2="355.5" y2="59.5" />
<line x1="352.0" y1="53.0" x2="355.5" y2="46.5" />
</g>
<g id="atom_C_24_s2">
<line x1="359.0" y1="40.0" x2="355.5" y2="46.5" />
<line x1="359.0" y1="40.0" x2="355.5" y2="33.5" />
<line x1="355.9227280302101" y1="39.98006952219455" x2="353.1227280302101" y2="34.78006952219455" />
</g>
<g id="atom_C_25_s2">
<line x1="352.0" y1="27.0" x2="355.5" y2="33.5" />
<line x1="350.3227280302101" y1="29.58006952219455" x2="353.1227280302101" y2="34.78006952219455" />
<line x1="352.0" y1="27.0" x2="344.5" y2="27.0" />
<line x1="352.0" y1="27.0" x2="355.5" y2="21.0" />
</g>
<g id="atom_C_26_s2">
<line x1="337.0" y1="27.0" x2="344.5" y2="27.0" />
</g>
<g id="atom_C_27_s2">
<line x1="359.0" y1="15.0" x2="355.5" y2="21.0" />
</g>
</g>
<g id="unlabeled_s3">
<g id="atom_P_1_s3">
<line x1="574.1497387275512" y1="245.45753152464687" x2="576.1497387275512" y2="242.20753152464684" />
<line x1="571.8502612724488" y1="244.04246847535313" x2="573.8502612724488" y2="240.79246847535316" />
<line x1="571.0" y1="251.75" x2="571.0" y2="255.5" />
<line x1="574.25" y1="250.0" x2="577.5" y2="252.0" />
<line x1="567.25" y1="248.0" x2="563.5" y2="248.0" />
<g id="atom_P_1_s3_text">
<text x="571.0" y="248.0" text-anchor="middle" font-family="verdana" font-size="8"><tspan y="248.0" dy="0.35em">P</tspan></text>
</g>
</g>
<g id="atom_O_0_s3">
<line x1="578.1497387275512" y1="238.95753152464684" x2="576.1497387275512" y2="242.20753152464684" />
<line x1="575.8502612724488" y1="237.54246847535316" x2="573.8502612724488" y2="240.79246847535316" />
<g id="atom_O_0_s3_text">
<text x="579.0" y="235.0" text-anchor="middle" font-family="verdana" font-size="8"><tspan y="235.0" dy="0.35em">O</tspan></text>
</g>
</g>
<g id="atom_O_2_s3">
<line x1="571.0" y1="259.25" x2="571.0" y2="255.5" />
<g id="atom_O_2_s3_text">
<text x="571.0" y="263.0" text-anchor="middle" font-family="verdana" font-size="8"><tspan y="263.0" dy="0.35em">O</tspan></text>
<text x="577.0" y="263.0" text-anchor="middle" font-family="verdana" font-size="8"><tspan y="263.0" dy="0.35em">H</tspan></text>
</g>
</g>
<g id="atom_O_3_s3">
<line x1="580.75" y1="254.0" x2="577.5" y2="252.0" />
<g id="atom_O_3_s3_text">
<text x="584.0" y="256.0" text-anchor="middle" font-family="verdana" font-size="8"><tspan y="256.0" dy="0.35em">O</tspan></text>
<text x="590.0" y="256.0" text-anchor="middle" font-family="verdana" font-size="8"><tspan y="256.0" dy="0.35em">H</tspan></text>
</g>
</g>
<g id="atom_O_4_s3">
<line x1="559.75" y1="248.0" x2="563.5" y2="248.0" />
<line x1="554.25" y1="244.75" x2="552.5" y2="241.5" />
<g id="atom_O_4_s3_text">
<text x="556.0" y="248.0" text-anchor="middle" font-family="verdana" font-size="8"><tspan y="248.0" dy="0.35em">O</tspan></text>
</g>
</g>
<g id="atom_P_5_s3">
<line x1="550.75" y1="238.25" x2="552.5" y2="241.5" />
<line x1="546.7344344182591" y1="232.24680998434604" x2="543.1400347610972" y2="230.31136401510506" />
<line x1="544.7655655817409" y1="234.25319001565396" x2="541.8599652389028" y2="232.68863598489494" />
<line x1="545.75" y1="237.0" x2="542.5" y2="239.0" />
<line x1="550.75" y1="231.75" x2="552.5" y2="228.5" />
<g id="atom_P_5_s3_text">
<text x="549.0" y="235.0" text-anchor="middle" font-family="verdana" font-size="8"><tspan y="235.0" dy="0.35em">P</tspan></text>
</g>
</g>
<g id="atom_O_6_s3">
<line x1="539.8900347610972" y1="228.56136401510506" x2="543.1400347610972" y2="230.31136401510506" />
<line x1="538.6099652389028" y1="230.93863598489494" x2="541.8599652389028" y2="232.68863598489494" />
<g id="atom_O_6_s3_text">
<text x="536.0" y="228.0" text-anchor="middle" font-family="verdana" font-size="8"><tspan y="228.0" dy="0.35em">O</tspan></text>
</g>
</g>
<g id="atom_O_7_s3">
<line x1="539.25" y1="241.0" x2="542.5" y2="239.0" />
<g id="atom_O_7_s3_text">
<text x="536.0" y="243.0" text-anchor="middle" font-family="verdana" font-size="8"><tspan y="243.0" dy="0.35em">O</tspan></text>
<text x="530.0" y="243.0" text-anchor="middle" font-family="verdana" font-size="8"><tspan y="243.0" dy="0.35em">H</tspan></text>
</g>
</g>
<g id="atom_O_8_s3">
<line x1="554.25" y1="225.25" x2="552.5" y2="228.5" />
<line x1="554.25" y1="218.75" x2="552.5" y2="215.5" />
<g id="atom_O_8_s3_text">
<text x="556.0" y="222.0" text-anchor="middle" font-family="verdana" font-size="8"><tspan y="222.0" dy="0.35em">O</tspan></text>
</g>
</g>
<g id="atom_C_9_s3">
<line x1="549.0" y1="209.0" x2="552.5" y2="215.5" />
<line x1="549.0" y1="209.0" x2="552.5" y2="202.5" />
</g>
<g id="atom_C_10_s3">
<line x1="556.0" y1="196.0" x2="552.5" y2="202.5" />
<line x1="556.0" y1="196.0" x2="552.5" y2="189.5" />
</g>
<g id="atom_C_11_s3">
<line x1="549.0" y1="183.0" x2="552.5" y2="189.5" />
<line x1="549.0" y1="183.0" x2="552.5" y2="176.5" />
<line x1="549.0" y1="183.0" x2="541.5" y2="183.0" />
</g>
<g id="atom_C_12_s3">
<line x1="556.0" y1="170.0" x2="552.5" y2="176.5" />
<line x1="556.0" y1="170.0" x2="552.5" y2="163.5" />
</g>
<g id="atom_C_28_s3">
<line x1="534.0" y1="183.0" x2="541.5" y2="183.0" />
</g>
<g id="atom_C_13_s3">
<line x1="549.0" y1="157.0" x2="552.5" y2="163.5" />
<line x1="549.0" y1="157.0" x2="552.5" y2="150.5" />
</g>
<g id="atom_C_14_s3">
<line x1="556.0" y1="144.0" x2="552.5" y2="150.5" />
<line x1="556.0" y1="144.0" x2="552.5" y2="137.5" />
</g>
<g id="atom_C_15_s3">
<line x1="549.0" y1="131.0" x2="552.5" y2="137.5" />
<line x1="549.0" y1="131.0" x2="541.5" y2="131.0" />
<line x1="549.0" y1="131.0" x2="552.5" y2="124.5" />
</g>
<g id="atom_C_16_s3">
<line x1="534.0" y1="131.0" x2="541.5" y2="131.0" />
</g>
<g id="atom_C_17_s3">
<line x1="556.0" y1="118.0" x2="552.5" y2="124.5" />
<line x1="556.0" y1="118.0" x2="552.5" y2="111.5" />
</g>
<g id="atom_C_18_s3">
<line x1="549.0" y1="105.0" x2="552.5" y2="111.5" />
<line x1="549.0" y1="105.0" x2="552.5" y2="98.5" />
</g>
<g id="atom_C_19_s3">
<line x1="556.0" y1="92.0" x2="552.5" y2="98.5" />
<line x1="556.0" y1="92.0" x2="552.5" y2="85.5" />
<line x1="555.2730769230769" y1="90.65" x2="563.5" y2="90.65" />
<line x1="555.2730769230769" y1="93.35" x2="563.5" y2="93.35" />
</g>
<g id="atom_C_20_s3">
<line x1="549.0" y1="79.0" x2="552.5" y2="85.5" />
<line x1="549.0" y1="79.0" x2="542.5" y2="75.5" />
<line x1="549.0" y1="79.0" x2="552.5" y2="72.5" />
<line x1="549.0" y1="79.0" x2="542.5" y2="83.0" />
</g>
<g id="atom_O_71_s3">
<line x1="567.25" y1="90.65" x2="563.5" y2="90.65" />
<line x1="567.25" y1="93.35" x2="563.5" y2="93.35" />
<g id="atom_O_71_s3_text">
<text x="571.0" y="92.0" text-anchor="middle" font-family="verdana" font-size="8"><tspan y="92.0" dy="0.35em">O</tspan></text>
</g>
</g>
<g id="atom_C_21_s3">
<line x1="536.0" y1="72.0" x2="542.5" y2="75.5" />
</g>
<g id="atom_C_22_s3">
<line x1="556.0" y1="66.0" x2="552.5" y2="72.5" />
<line x1="556.0" y1="66.0" x2="552.5" y2="59.5" />
</g>
<g id="atom_O_47_s3">
<line x1="539.25" y1="85.0" x2="542.5" y2="83.0" />
<g id="atom_O_47_s3_text">
<text x="536.0" y="87.0" text-anchor="middle" font-family="verdana" font-size="8"><tspan y="87.0" dy="0.35em">O</tspan></text>
<text x="530.0" y="87.0" text-anchor="middle" font-family="verdana" font-size="8"><tspan y="87.0" dy="0.35em">H</tspan></text>
</g>
</g>
<g id="atom_C_23_s3">
<line x1="549.0" y1="53.0" x2="552.5" y2="59.5" />
<line x1="549.0" y1="53.0" x2="552.5" y2="46.5" />
</g>
<g id="atom_C_24_s3">
<line x1="556.0" y1="40.0" x2="552.5" y2="46.5" />
<line x1="556.0" y1="40.0" x2="552.5" y2="33.5" />
<line x1="552.9227280302101" y1="39.98006952219455" x2="550.1227280302102" y2="34.78006952219455" />
</g>
<g id="atom_C_25_s3">
<line x1="549.0" y1="27.0" x2="552.5" y2="33.5" />
<line x1="547.3227280302102" y1="29.58006952219455" x2="550.1227280302102" y2="34.78006952219455" />
<line x1="549.0" y1="27.0" x2="541.5" y2="27.0" />
<line x1="549.0" y1="27.0" x2="552.5" y2="21.0" />
</g>
<g id="atom_C_26_s3">
<line x1="534.0" y1="27.0" x2="541.5" y2="27.0" />
</g>
<g id="atom_C_27_s3">
<line x1="556.0" y1="15.0" x2="552.5" y2="21.0" />
</g>
</g>
<g id="unlabeled_s4">
<g id="atom_C_9_s4">
<line x1="769.0" y1="185.0" x2="774.5" y2="180.0" />
</g>
<g id="atom_C_10_s4">
<line x1="780.0" y1="175.0" x2="774.5" y2="180.0" />
<line x1="780.0" y1="175.0" x2="778.5" y2="168.0" />
</g>
<g id="atom_C_11_s4">
<line x1="777.0" y1="161.0" x2="778.5" y2="168.0" />
<line x1="777.0" y1="161.0" x2="784.5" y2="160.0" />
<line x1="777.0" y1="161.0" x2="769.5" y2="160.5" />
<line x1="777.0" y1="161.0" x2="774.0" y2="154.0" />
</g>
<g id="atom_C_12_s4">
<line x1="792.0" y1="159.0" x2="784.5" y2="160.0" />
<line x1="792.0" y1="159.0" x2="793.5" y2="151.5" />
</g>
<g id="atom_C_28_s4">
<line x1="762.0" y1="160.0" x2="769.5" y2="160.5" />
</g>
<g id="atom_C_15_s4">
<line x1="771.0" y1="147.0" x2="774.0" y2="154.0" />
<line x1="771.0" y1="147.0" x2="776.5" y2="142.0" />
<line x1="771.0" y1="147.0" x2="763.5" y2="148.5" />
<line x1="771.0" y1="147.0" x2="766.5" y2="141.0" />
</g>
<g id="atom_C_13_s4">
<line x1="795.0" y1="144.0" x2="793.5" y2="151.5" />
<line x1="795.0" y1="144.0" x2="788.5" y2="140.5" />
</g>
<g id="atom_C_14_s4">
<line x1="782.0" y1="137.0" x2="788.5" y2="140.5" />
<line x1="782.0" y1="137.0" x2="776.5" y2="142.0" />
</g>
<g id="atom_C_16_s4">
<line x1="756.0" y1="150.0" x2="763.5" y2="148.5" />
</g>
<g id="atom_C_17_s4">
<line x1="762.0" y1="135.0" x2="766.5" y2="141.0" />
<line x1="762.0" y1="135.0" x2="755.0" y2="135.5" />
</g>
<g id="atom_C_18_s4">
<line x1="748.0" y1="136.0" x2="755.0" y2="135.5" />
<line x1="748.0" y1="136.0" x2="743.5" y2="130.0" />
</g>
<g id="atom_C_19_s4">
<line x1="739.0" y1="124.0" x2="743.5" y2="130.0" />
<line x1="739.0" y1="124.0" x2="731.5" y2="125.0" />
<line x1="739.9346630629925" y1="125.24621741732317" x2="743.2408457905244" y2="117.53179105308188" />
<line x1="737.4422282283459" y1="124.2077029028872" x2="740.7591542094756" y2="116.46820894691812" />
</g>
<g id="atom_C_20_s4">
<line x1="724.0" y1="126.0" x2="731.5" y2="125.0" />
<line x1="724.0" y1="126.0" x2="718.0" y2="130.5" />
<line x1="724.0" y1="126.0" x2="719.5" y2="120.0" />
<line x1="724.0" y1="126.0" x2="728.5" y2="132.0" />
</g>
<g id="atom_O_71_s4">
<line x1="744.7408457905244" y1="114.03179105308188" x2="743.2408457905244" y2="117.53179105308188" />
<line x1="742.2591542094756" y1="112.96820894691812" x2="740.7591542094756" y2="116.46820894691812" />
<g id="atom_O_71_s4_text">
<text x="745.0" y="110.0" text-anchor="middle" font-family="verdana" font-size="8"><tspan y="110.0" dy="0.35em">O</tspan></text>
</g>
</g>
<g id="atom_C_21_s4">
<line x1="712.0" y1="135.0" x2="718.0" y2="130.5" />
</g>
<g id="atom_C_22_s4">
<line x1="715.0" y1="114.0" x2="719.5" y2="120.0" />
<line x1="715.0" y1="114.0" x2="707.5" y2="114.5" />
</g>
<g id="atom_O_47_s4">
<line x1="730.75" y1="135.0" x2="728.5" y2="132.0" />
<g id="atom_O_47_s4_text">
<text x="733.0" y="138.0" text-anchor="middle" font-family="verdana" font-size="8"><tspan y="138.0" dy="0.35em">O</tspan></text>
<text x="739.0" y="138.0" text-anchor="middle" font-family="verdana" font-size="8"><tspan y="138.0" dy="0.35em">H</tspan></text>
</g>
</g>
<g id="atom_C_23_s4">
<line x1="700.0" y1="115.0" x2="707.5" y2="114.5" />
<line x1="700.0" y1="115.0" x2="695.5" y2="109.0" />
</g>
<g id="atom_C_24_s4">
<line x1="691.0" y1="103.0" x2="695.5" y2="109.0" />
<line x1="691.0" y1="103.0" x2="683.5" y2="104.0" />
<line x1="689.8568420442457" y1="105.87631533184312" x2="683.8568420442457" y2="106.67631533184311" />
</g>
<g id="atom_C_25_s4">
<line x1="676.0" y1="105.0" x2="683.5" y2="104.0" />
<line x1="677.8568420442457" y1="107.47631533184311" x2="683.8568420442457" y2="106.67631533184311" />
<line x1="676.0" y1="105.0" x2="673.0" y2="111.5" />
<line x1="676.0" y1="105.0" x2="672.0" y2="99.0" />
</g>
<g id="atom_C_26_s4">
<line x1="670.0" y1="118.0" x2="673.0" y2="111.5" />
</g>
<g id="atom_C_27_s4">
<line x1="668.0" y1="93.0" x2="672.0" y2="99.0" />
</g>
</g>
<g id="unlabeled_s5">
<g id="atom_C_9_s5">
<line x1="879.0" y1="165.5" x2="882.5" y2="159.0" />
</g>
<g id="atom_C_10_s5">
<line x1="886.0" y1="152.5" x2="882.5" y2="159.0" />
<line x1="886.0" y1="152.5" x2="892.5" y2="148.5" />
<line x1="886.0" y1="152.5" x2="886.0" y2="145.0" />
</g>
<g id="atom_C_11_s5">
<line x1="899.0" y1="144.5" x2="892.5" y2="148.5" />
<line x1="899.0" y1="144.5" x2="892.5" y2="141.0" />
<line x1="899.0" y1="144.5" x2="899.0" y2="152.0" />
<line x1="899.0" y1="144.5" x2="905.0" y2="139.5" />
</g>
<g id="atom_C_12_s5">
<line x1="886.0" y1="137.5" x2="886.0" y2="145.0" />
<line x1="886.0" y1="137.5" x2="892.5" y2="141.0" />
<line x1="886.0" y1="137.5" x2="888.0" y2="130.0" />
</g>
<g id="atom_C_28_s5">
<line x1="899.0" y1="159.5" x2="899.0" y2="152.0" />
</g>
<g id="atom_C_15_s5">
<line x1="911.0" y1="134.5" x2="905.0" y2="139.5" />
<line x1="911.0" y1="134.5" x2="908.0" y2="127.5" />
<line x1="911.0" y1="134.5" x2="917.0" y2="138.5" />
<line x1="911.0" y1="134.5" x2="917.5" y2="130.5" />
</g>
<g id="atom_C_13_s5">
<line x1="890.0" y1="122.5" x2="888.0" y2="130.0" />
<line x1="890.0" y1="122.5" x2="897.5" y2="121.5" />
</g>
<g id="atom_C_14_s5">
<line x1="905.0" y1="120.5" x2="897.5" y2="121.5" />
<line x1="905.0" y1="120.5" x2="908.0" y2="127.5" />
</g>
<g id="atom_C_16_s5">
<line x1="923.0" y1="142.5" x2="917.0" y2="138.5" />
</g>
<g id="atom_C_17_s5">
<line x1="924.0" y1="126.5" x2="917.5" y2="130.5" />
<line x1="924.0" y1="126.5" x2="930.5" y2="130.5" />
</g>
<g id="atom_C_18_s5">
<line x1="937.0" y1="134.5" x2="930.5" y2="130.5" />
<line x1="937.0" y1="134.5" x2="943.5" y2="131.0" />
</g>
<g id="atom_C_19_s5">
<line x1="950.0" y1="127.5" x2="943.5" y2="131.0" />
<line x1="950.0" y1="127.5" x2="956.5" y2="131.0" />
<line x1="951.35" y1="128.22692307692307" x2="951.35" y2="120.0" />
<line x1="948.65" y1="128.22692307692307" x2="948.65" y2="120.0" />
</g>
<g id="atom_C_20_s5">
<line x1="963.0" y1="134.5" x2="956.5" y2="131.0" />
<line x1="963.0" y1="134.5" x2="966.5" y2="141.0" />
<line x1="963.0" y1="134.5" x2="969.5" y2="131.0" />
<line x1="963.0" y1="134.5" x2="959.0" y2="141.0" />
</g>
<g id="atom_O_71_s5">
<line x1="951.35" y1="116.25" x2="951.35" y2="120.0" />
<line x1="948.65" y1="116.25" x2="948.65" y2="120.0" />
<g id="atom_O_71_s5_text">
<text x="950.0" y="112.5" text-anchor="middle" font-family="verdana" font-size="8"><tspan y="112.5" dy="0.35em">O</tspan></text>
</g>
</g>
<g id="atom_C_21_s5">
<line x1="970.0" y1="147.5" x2="966.5" y2="141.0" />
</g>
<g id="atom_C_22_s5">
<line x1="976.0" y1="127.5" x2="969.5" y2="131.0" />
<line x1="976.0" y1="127.5" x2="982.5" y2="131.0" />
</g>
<g id="atom_O_47_s5">
<line x1="957.0" y1="144.25" x2="959.0" y2="141.0" />
<g id="atom_O_47_s5_text">
<text x="955.0" y="147.5" text-anchor="middle" font-family="verdana" font-size="8"><tspan y="147.5" dy="0.35em">O</tspan></text>
<text x="949.0" y="147.5" text-anchor="middle" font-family="verdana" font-size="8"><tspan y="147.5" dy="0.35em">H</tspan></text>
</g>
</g>
<g id="atom_C_23_s5">
<line x1="989.0" y1="134.5" x2="982.5" y2="131.0" />
<line x1="989.0" y1="134.5" x2="995.5" y2="131.0" />
</g>
<g id="atom_C_24_s5">
<line x1="1002.0" y1="127.5" x2="995.5" y2="131.0" />
<line x1="1002.0" y1="127.5" x2="1008.5" y2="131.0" />
<line x1="1002.0199304778054" y1="130.57727196978985" x2="1007.2199304778054" y2="133.37727196978986" />
</g>
<g id="atom_C_25_s5">
<line x1="1015.0" y1="134.5" x2="1008.5" y2="131.0" />
<line x1="1012.4199304778055" y1="136.17727196978987" x2="1007.2199304778054" y2="133.37727196978986" />
<line x1="1015.0" y1="134.5" x2="1015.0" y2="142.0" />
<line x1="1015.0" y1="134.5" x2="1021.5" y2="131.0" />
</g>
<g id="atom_C_26_s5">
<line x1="1015.0" y1="149.5" x2="1015.0" y2="142.0" />
</g>
<g id="atom_C_27_s5">
<line x1="1028.0" y1="127.5" x2="1021.5" y2="131.0" />
</g>
</g>
<g id="unlabeled_s6">
<g id="atom_C_10_s6">
<line x1="1147.0" y1="196.5" x2="1153.5" y2="203.0" />
<line x1="1147.0" y1="196.5" x2="1145.5" y2="189.0" />
<line x1="1147.0" y1="196.5" x2="1140.5" y2="195.5" />
</g>
<g id="atom_C_9_s6">
<line x1="1160.0" y1="209.5" x2="1153.5" y2="203.0" />
<line x1="1160.0" y1="209.5" x2="1161.0" y2="203.5" />
</g>
<g id="atom_C_14_s6">
<line x1="1162.0" y1="197.5" x2="1161.0" y2="203.5" />
<line x1="1162.0" y1="197.5" x2="1153.0" y2="203.0" />
<line x1="1162.0" y1="197.5" x2="1161.0" y2="189.5" />
</g>
<g id="atom_C_11_s6">
<line x1="1144.0" y1="181.5" x2="1145.5" y2="189.0" />
<line x1="1144.0" y1="181.5" x2="1139.0" y2="188.0" />
<line x1="1144.0" y1="181.5" x2="1141.0" y2="174.5" />
<line x1="1144.0" y1="181.5" x2="1152.0" y2="181.5" />
</g>
<g id="atom_C_12_s6">
<line x1="1134.0" y1="194.5" x2="1140.5" y2="195.5" />
<line x1="1134.0" y1="194.5" x2="1139.0" y2="188.0" />
<line x1="1134.0" y1="194.5" x2="1139.0" y2="201.5" />
</g>
<g id="atom_C_28_s6">
<line x1="1138.0" y1="167.5" x2="1141.0" y2="174.5" />
</g>
<g id="atom_C_15_s6">
<line x1="1160.0" y1="181.5" x2="1152.0" y2="181.5" />
<line x1="1160.0" y1="181.5" x2="1161.0" y2="189.5" />
<line x1="1160.0" y1="181.5" x2="1167.0" y2="179.0" />
<line x1="1160.0" y1="181.5" x2="1161.5" y2="174.0" />
</g>
<g id="atom_C_13_s6">
<line x1="1144.0" y1="208.5" x2="1139.0" y2="201.5" />
<line x1="1144.0" y1="208.5" x2="1153.0" y2="203.0" />
</g>
<g id="atom_C_16_s6">
<line x1="1174.0" y1="176.5" x2="1167.0" y2="179.0" />
</g>
<g id="atom_C_17_s6">
<line x1="1163.0" y1="166.5" x2="1161.5" y2="174.0" />
<line x1="1163.0" y1="166.5" x2="1157.5" y2="161.5" />
</g>
<g id="atom_C_18_s6">
<line x1="1152.0" y1="156.5" x2="1157.5" y2="161.5" />
<line x1="1152.0" y1="156.5" x2="1153.0" y2="149.0" />
</g>
<g id="atom_C_19_s6">
<line x1="1154.0" y1="141.5" x2="1153.0" y2="149.0" />
<line x1="1154.0" y1="141.5" x2="1148.5" y2="137.0" />
<line x1="1153.7993080719111" y1="143.005189460666" x2="1161.4540541359474" y2="140.27135158065303" />
<line x1="1152.7803252989079" y1="140.50208433547007" x2="1160.5459458640526" y2="137.72864841934697" />
</g>
<g id="atom_C_20_s6">
<line x1="1143.0" y1="132.5" x2="1148.5" y2="137.0" />
<line x1="1143.0" y1="132.5" x2="1135.5" y2="131.0" />
<line x1="1143.0" y1="132.5" x2="1144.5" y2="125.0" />
<line x1="1143.0" y1="132.5" x2="1138.0" y2="138.0" />
</g>
<g id="atom_O_71_s6">
<line x1="1164.9540541359474" y1="139.02135158065303" x2="1161.4540541359474" y2="140.27135158065303" />
<line x1="1164.0459458640526" y1="136.47864841934697" x2="1160.5459458640526" y2="137.72864841934697" />
<g id="atom_O_71_s6_text">
<text x="1168.0" y="136.5" text-anchor="middle" font-family="verdana" font-size="8"><tspan y="136.5" dy="0.35em">O</tspan></text>
</g>
</g>
<g id="atom_C_21_s6">
<line x1="1128.0" y1="129.5" x2="1135.5" y2="131.0" />
</g>
<g id="atom_C_22_s6">
<line x1="1146.0" y1="117.5" x2="1144.5" y2="125.0" />
<line x1="1146.0" y1="117.5" x2="1140.0" y2="112.5" />
</g>
<g id="atom_O_47_s6">
<line x1="1135.5" y1="140.75" x2="1138.0" y2="138.0" />
<g id="atom_O_47_s6_text">
<text x="1133.0" y="143.5" text-anchor="middle" font-family="verdana" font-size="8"><tspan y="143.5" dy="0.35em">O</tspan></text>
<text x="1127.0" y="143.5" text-anchor="middle" font-family="verdana" font-size="8"><tspan y="143.5" dy="0.35em">H</tspan></text>
</g>
</g>
<g id="atom_C_23_s6">
<line x1="1134.0" y1="107.5" x2="1140.0" y2="112.5" />
<line x1="1134.0" y1="107.5" x2="1135.5" y2="100.0" />
</g>
<g id="atom_C_24_s6">
<line x1="1137.0" y1="92.5" x2="1135.5" y2="100.0" />
<line x1="1137.0" y1="92.5" x2="1131.5" y2="88.0" />
<line x1="1134.1902579663056" y1="93.68968470784895" x2="1129.7902579663055" y2="90.08968470784896" />
</g>
<g id="atom_C_25_s6">
<line x1="1126.0" y1="83.5" x2="1131.5" y2="88.0" />
<line x1="1125.3902579663054" y1="86.48968470784897" x2="1129.7902579663055" y2="90.08968470784896" />
<line x1="1126.0" y1="83.5" x2="1119.0" y2="86.0" />
<line x1="1126.0" y1="83.5" x2="1127.0" y2="76.0" />
</g>
<g id="atom_C_26_s6">
<line x1="1112.0" y1="88.5" x2="1119.0" y2="86.0" />
</g>
<g id="atom_C_27_s6">
<line x1="1128.0" y1="68.5" x2="1127.0" y2="76.0" />
</g>
</g>
</svg>