<svg width="1335" height="308" viewBox="0 0 1335 308" xmlns="http://www.w3.org/2000/svg">
<style> line {stroke: black; stroke_width: 1px;} polygon {fill: black;} </style>
<g id="arrows">
<g id="labelled_arrow_0">
<g id="arrow_0">
<line x1="80" x2="125" y1="139.0" y2="139.0" stroke-width="2" stroke="black" />
<line x1="120" x2="125" y1="134.0" y2="139.0" stroke-width="2" stroke="black" />
<line x1="120" x2="125" y1="144.0" y2="139.0" stroke-width="2" stroke="black" />
</g>
<text x="102.5" y="128.0" fill="'black" text-anchor="middle" font-family="verdana" font-size = "12"><tspan y="128.0" dy="0.35em">TPS21</tspan></text>
</g>
<g id="labelled_arrow_1">
<g id="arrow_1">
<line x1="271" x2="316" y1="139.0" y2="139.0" stroke-width="2" stroke="black" />
<line x1="311" x2="316" y1="134.0" y2="139.0" stroke-width="2" stroke="black" />
<line x1="311" x2="316" y1="144.0" y2="139.0" stroke-width="2" stroke="black" />
</g>
<text x="293.5" y="128.0" fill="'black" text-anchor="middle" font-family="verdana" font-size = "12"><tspan y="128.0" dy="0.35em">TPS21</tspan></text>
</g>
<g id="labelled_arrow_2">
<g id="arrow_2">
<line x1="470" x2="515" y1="139.0" y2="139.0" stroke-width="2" stroke="black" />
<line x1="510" x2="515" y1="134.0" y2="139.0" stroke-width="2" stroke="black" />
<line x1="510" x2="515" y1="144.0" y2="139.0" stroke-width="2" stroke="black" />
</g>
<text x="492.5" y="128.0" fill="'black" text-anchor="middle" font-family="verdana" font-size = "12"><tspan y="128.0" dy="0.35em">TPS21</tspan></text>
</g>
<g id="labelled_arrow_3">
<g id="arrow_3">
<line x1="679" x2="751" y1="139.0" y2="139.0" stroke-width="2" stroke="black" />
<line x1="746" x2="751" y1="134.0" y2="139.0" stroke-width="2" stroke="black" />
<line x1="746" x2="751" y1="144.0" y2="139.0" stroke-width="2" stroke="black" />
</g>
<text x="715.0" y="128.0" fill="'black" text-anchor="middle" font-family="verdana" font-size = "12"><tspan y="128.0" dy="0.35em">CYP71BN1</tspan></text>
</g>
<g id="labelled_arrow_4">
<g id="arrow_4">
<line x1="885" x2="957" y1="139.0" y2="139.0" stroke-width="2" stroke="black" />
<line x1="952" x2="957" y1="134.0" y2="139.0" stroke-width="2" stroke="black" />
<line x1="952" x2="957" y1="144.0" y2="139.0" stroke-width="2" stroke="black" />
</g>
<text x="921.0" y="128.0" fill="'black" text-anchor="middle" font-family="verdana" font-size = "12"><tspan y="128.0" dy="0.35em">CYP71BN1</tspan></text>
</g>
<g id="labelled_arrow_5">
<g id="arrow_5">
<line x1="1099" x2="1171" y1="139.0" y2="139.0" stroke-width="2" stroke="black" />
<line x1="1166" x2="1171" y1="134.0" y2="139.0" stroke-width="2" stroke="black" />
<line x1="1166" x2="1171" y1="144.0" y2="139.0" stroke-width="2" stroke="black" />
</g>
<text x="1135.0" y="128.0" fill="'black" text-anchor="middle" font-family="verdana" font-size = "12"><tspan y="128.0" dy="0.35em">CYP71BN1</tspan></text>
</g>
</g>
<g id="unlabeled_s0">
<g id="atom_P_1_s0">
<line x1="55.14973872755114" y1="245.45753152464687" x2="57.14973872755113" y2="242.20753152464684" />
<line x1="52.85026127244886" y1="244.04246847535313" x2="54.85026127244887" y2="240.79246847535316" />
<line x1="52.0" y1="251.75" x2="52.0" y2="255.5" />
<line x1="55.25" y1="250.0" x2="58.5" y2="252.0" />
<line x1="48.25" y1="248.0" x2="44.5" y2="248.0" />
<g id="atom_P_1_s0_text">
<text x="52.0" y="248.0" text-anchor="middle" font-family="verdana" font-size="8"><tspan y="248.0" dy="0.35em">P</tspan></text>
</g>
</g>
<g id="atom_O_0_s0">
<line x1="59.14973872755113" y1="238.95753152464684" x2="57.14973872755113" y2="242.20753152464684" />
<line x1="56.85026127244887" y1="237.54246847535316" x2="54.85026127244887" y2="240.79246847535316" />
<g id="atom_O_0_s0_text">
<text x="60.0" y="235.0" text-anchor="middle" font-family="verdana" font-size="8"><tspan y="235.0" dy="0.35em">O</tspan></text>
</g>
</g>
<g id="atom_O_2_s0">
<line x1="52.0" y1="259.25" x2="52.0" y2="255.5" />
<g id="atom_O_2_s0_text">
<text x="52.0" y="263.0" text-anchor="middle" font-family="verdana" font-size="8"><tspan y="263.0" dy="0.35em">O</tspan></text>
<text x="58.0" y="263.0" text-anchor="middle" font-family="verdana" font-size="8"><tspan y="263.0" dy="0.35em">H</tspan></text>
</g>
</g>
<g id="atom_O_3_s0">
<line x1="61.75" y1="254.0" x2="58.5" y2="252.0" />
<g id="atom_O_3_s0_text">
<text x="65.0" y="256.0" text-anchor="middle" font-family="verdana" font-size="8"><tspan y="256.0" dy="0.35em">O</tspan></text>
<text x="71.0" y="256.0" text-anchor="middle" font-family="verdana" font-size="8"><tspan y="256.0" dy="0.35em">H</tspan></text>
</g>
</g>
<g id="atom_O_4_s0">
<line x1="40.75" y1="248.0" x2="44.5" y2="248.0" />
<line x1="35.25" y1="244.75" x2="33.5" y2="241.5" />
<g id="atom_O_4_s0_text">
<text x="37.0" y="248.0" text-anchor="middle" font-family="verdana" font-size="8"><tspan y="248.0" dy="0.35em">O</tspan></text>
</g>
</g>
<g id="atom_P_5_s0">
<line x1="31.75" y1="238.25" x2="33.5" y2="241.5" />
<line x1="27.734434418259134" y1="232.24680998434604" x2="24.140034761097272" y2="230.31136401510506" />
<line x1="25.765565581740866" y1="234.25319001565396" x2="22.859965238902728" y2="232.68863598489494" />
<line x1="26.75" y1="237.0" x2="23.5" y2="239.0" />
<line x1="31.75" y1="231.75" x2="33.5" y2="228.5" />
<g id="atom_P_5_s0_text">
<text x="30.0" y="235.0" text-anchor="middle" font-family="verdana" font-size="8"><tspan y="235.0" dy="0.35em">P</tspan></text>
</g>
</g>
<g id="atom_O_6_s0">
<line x1="20.890034761097272" y1="228.56136401510506" x2="24.140034761097272" y2="230.31136401510506" />
<line x1="19.609965238902728" y1="230.93863598489494" x2="22.859965238902728" y2="232.68863598489494" />
<g id="atom_O_6_s0_text">
<text x="17.0" y="228.0" text-anchor="middle" font-family="verdana" font-size="8"><tspan y="228.0" dy="0.35em">O</tspan></text>
</g>
</g>
<g id="atom_O_7_s0">
<line x1="20.25" y1="241.0" x2="23.5" y2="239.0" />
<g id="atom_O_7_s0_text">
<text x="17.0" y="243.0" text-anchor="middle" font-family="verdana" font-size="8"><tspan y="243.0" dy="0.35em">O</tspan></text>
<text x="11.0" y="243.0" text-anchor="middle" font-family="verdana" font-size="8"><tspan y="243.0" dy="0.35em">H</tspan></text>
</g>
</g>
<g id="atom_O_8_s0">
<line x1="35.25" y1="225.25" x2="33.5" y2="228.5" />
<line x1="35.25" y1="218.75" x2="33.5" y2="215.5" />
<g id="atom_O_8_s0_text">
<text x="37.0" y="222.0" text-anchor="middle" font-family="verdana" font-size="8"><tspan y="222.0" dy="0.35em">O</tspan></text>
</g>
</g>
<g id="atom_C_9_s0">
<line x1="30.0" y1="209.0" x2="33.5" y2="215.5" />
<line x1="30.0" y1="209.0" x2="33.5" y2="202.5" />
</g>
<g id="atom_C_10_s0">
<line x1="37.0" y1="196.0" x2="33.5" y2="202.5" />
<line x1="37.0" y1="196.0" x2="33.5" y2="189.5" />
<line x1="33.92272803021012" y1="195.98006952219453" x2="31.122728030210126" y2="190.78006952219454" />
</g>
<g id="atom_C_11_s0">
<line x1="30.0" y1="183.0" x2="33.5" y2="189.5" />
<line x1="28.322728030210126" y1="185.58006952219455" x2="31.122728030210126" y2="190.78006952219454" />
<line x1="30.0" y1="183.0" x2="33.5" y2="176.5" />
<line x1="30.0" y1="183.0" x2="22.5" y2="183.0" />
</g>
<g id="atom_C_12_s0">
<line x1="37.0" y1="170.0" x2="33.5" y2="176.5" />
<line x1="37.0" y1="170.0" x2="33.5" y2="163.5" />
</g>
<g id="atom_C_13_s0">
<line x1="30.0" y1="157.0" x2="33.5" y2="163.5" />
<line x1="30.0" y1="157.0" x2="33.5" y2="150.5" />
</g>
<g id="atom_C_14_s0">
<line x1="37.0" y1="144.0" x2="33.5" y2="150.5" />
<line x1="37.0" y1="144.0" x2="33.5" y2="137.5" />
<line x1="33.92272803021012" y1="143.98006952219453" x2="31.122728030210126" y2="138.78006952219454" />
</g>
<g id="atom_C_15_s0">
<line x1="30.0" y1="131.0" x2="33.5" y2="137.5" />
<line x1="28.322728030210126" y1="133.58006952219455" x2="31.122728030210126" y2="138.78006952219454" />
<line x1="30.0" y1="131.0" x2="22.5" y2="131.0" />
<line x1="30.0" y1="131.0" x2="33.5" y2="124.5" />
</g>
<g id="atom_C_16_s0">
<line x1="15.0" y1="131.0" x2="22.5" y2="131.0" />
</g>
<g id="atom_C_17_s0">
<line x1="37.0" y1="118.0" x2="33.5" y2="124.5" />
<line x1="37.0" y1="118.0" x2="33.5" y2="111.5" />
</g>
<g id="atom_C_18_s0">
<line x1="30.0" y1="105.0" x2="33.5" y2="111.5" />
<line x1="30.0" y1="105.0" x2="33.5" y2="98.5" />
</g>
<g id="atom_C_19_s0">
<line x1="37.0" y1="92.0" x2="33.5" y2="98.5" />
<line x1="37.0" y1="92.0" x2="33.5" y2="85.5" />
<line x1="33.92272803021012" y1="91.98006952219455" x2="31.122728030210126" y2="86.78006952219455" />
</g>
<g id="atom_C_20_s0">
<line x1="30.0" y1="79.0" x2="33.5" y2="85.5" />
<line x1="28.322728030210126" y1="81.58006952219455" x2="31.122728030210126" y2="86.78006952219455" />
<line x1="30.0" y1="79.0" x2="22.5" y2="79.0" />
<line x1="30.0" y1="79.0" x2="33.5" y2="72.5" />
</g>
<g id="atom_C_21_s0">
<line x1="15.0" y1="79.0" x2="22.5" y2="79.0" />
</g>
<g id="atom_C_22_s0">
<line x1="37.0" y1="66.0" x2="33.5" y2="72.5" />
<line x1="37.0" y1="66.0" x2="33.5" y2="59.5" />
</g>
<g id="atom_C_23_s0">
<line x1="30.0" y1="53.0" x2="33.5" y2="59.5" />
<line x1="30.0" y1="53.0" x2="33.5" y2="46.5" />
</g>
<g id="atom_C_24_s0">
<line x1="37.0" y1="40.0" x2="33.5" y2="46.5" />
<line x1="37.0" y1="40.0" x2="33.5" y2="33.5" />
<line x1="33.92272803021012" y1="39.98006952219455" x2="31.122728030210126" y2="34.78006952219455" />
</g>
<g id="atom_C_25_s0">
<line x1="30.0" y1="27.0" x2="33.5" y2="33.5" />
<line x1="28.322728030210126" y1="29.58006952219455" x2="31.122728030210126" y2="34.78006952219455" />
<line x1="30.0" y1="27.0" x2="22.5" y2="27.0" />
<line x1="30.0" y1="27.0" x2="33.5" y2="21.0" />
</g>
<g id="atom_C_26_s0">
<line x1="15.0" y1="27.0" x2="22.5" y2="27.0" />
</g>
<g id="atom_C_27_s0">
<line x1="37.0" y1="15.0" x2="33.5" y2="21.0" />
</g>
<g id="atom_C_28_s0">
<line x1="15.0" y1="183.0" x2="22.5" y2="183.0" />
</g>
</g>
<g id="unlabeled_s1">
<g id="atom_C_9_s1">
<line x1="229.0" y1="198.5" x2="235.0" y2="193.5" />
</g>
<g id="atom_C_10_s1">
<line x1="241.0" y1="188.5" x2="235.0" y2="193.5" />
<line x1="241.0" y1="188.5" x2="239.5" y2="181.0" />
</g>
<g id="atom_C_11_s1">
<line x1="238.0" y1="173.5" x2="239.5" y2="181.0" />
<line x1="238.0" y1="173.5" x2="245.0" y2="172.5" />
<line x1="238.0" y1="173.5" x2="230.5" y2="176.0" />
<line x1="238.0" y1="173.5" x2="234.5" y2="166.5" />
</g>
<g id="atom_C_12_s1">
<line x1="252.0" y1="171.5" x2="245.0" y2="172.5" />
<line x1="252.0" y1="171.5" x2="254.0" y2="164.5" />
</g>
<g id="atom_C_28_s1">
<line x1="223.0" y1="178.5" x2="230.5" y2="176.0" />
</g>
<g id="atom_C_15_s1">
<line x1="231.0" y1="159.5" x2="234.5" y2="166.5" />
<line x1="231.0" y1="159.5" x2="237.0" y2="154.5" />
<line x1="231.0" y1="159.5" x2="224.0" y2="158.0" />
</g>
<g id="atom_C_13_s1">
<line x1="256.0" y1="157.5" x2="254.0" y2="164.5" />
<line x1="256.0" y1="157.5" x2="249.5" y2="153.5" />
</g>
<g id="atom_C_14_s1">
<line x1="243.0" y1="149.5" x2="249.5" y2="153.5" />
<line x1="243.0" y1="149.5" x2="237.0" y2="154.5" />
</g>
<g id="atom_C_17_s1">
<line x1="217.0" y1="156.5" x2="224.0" y2="158.0" />
<line x1="217.0" y1="156.5" x2="214.5" y2="149.5" />
<line x1="217.0" y1="156.5" x2="212.0" y2="162.0" />
</g>
<g id="atom_C_18_s1">
<line x1="212.0" y1="142.5" x2="214.5" y2="149.5" />
<line x1="212.0" y1="142.5" x2="204.5" y2="141.0" />
</g>
<g id="atom_C_16_s1">
<line x1="207.0" y1="167.5" x2="212.0" y2="162.0" />
</g>
<g id="atom_C_19_s1">
<line x1="197.0" y1="139.5" x2="204.5" y2="141.0" />
<line x1="197.0" y1="139.5" x2="195.0" y2="132.0" />
<line x1="199.20883433692336" y1="137.30431084348712" x2="197.60883433692337" y2="131.30431084348712" />
</g>
<g id="atom_C_20_s1">
<line x1="193.0" y1="124.5" x2="195.0" y2="132.0" />
<line x1="196.00883433692337" y1="125.3043108434871" x2="197.60883433692337" y2="131.30431084348712" />
<line x1="193.0" y1="124.5" x2="198.0" y2="119.0" />
<line x1="193.0" y1="124.5" x2="185.5" y2="123.0" />
</g>
<g id="atom_C_21_s1">
<line x1="203.0" y1="113.5" x2="198.0" y2="119.0" />
</g>
<g id="atom_C_22_s1">
<line x1="178.0" y1="121.5" x2="185.5" y2="123.0" />
<line x1="178.0" y1="121.5" x2="175.5" y2="114.5" />
</g>
<g id="atom_C_23_s1">
<line x1="173.0" y1="107.5" x2="175.5" y2="114.5" />
<line x1="173.0" y1="107.5" x2="166.0" y2="106.0" />
</g>
<g id="atom_C_24_s1">
<line x1="159.0" y1="104.5" x2="166.0" y2="106.0" />
<line x1="159.0" y1="104.5" x2="156.5" y2="97.5" />
</g>
<g id="atom_C_25_s1">
<line x1="154.0" y1="90.5" x2="156.5" y2="97.5" />
<line x1="154.0" y1="90.5" x2="147.0" y2="89.0" />
<line x1="154.51459468740717" y1="91.94086512474011" x2="159.99891909908453" y2="85.90810827189502" />
<line x1="152.47299619932434" y1="90.1727848998552" x2="158.00108090091547" y2="84.09189172810498" />
</g>
<g id="atom_C_26_s1">
<line x1="140.0" y1="87.5" x2="147.0" y2="89.0" />
</g>
<g id="atom_C_27_s1">
<line x1="164.99891909908453" y1="80.40810827189502" x2="159.99891909908453" y2="85.90810827189502" />
<line x1="163.00108090091547" y1="78.59189172810498" x2="158.00108090091547" y2="84.09189172810498" />
</g>
</g>
<g id="unlabeled_s2">
<g id="atom_C_9_s2">
<line x1="331.0" y1="136.0" x2="335.0" y2="129.5" />
</g>
<g id="atom_C_10_s2">
<line x1="339.0" y1="123.0" x2="335.0" y2="129.5" />
<line x1="339.0" y1="123.0" x2="345.0" y2="119.0" />
<line x1="339.0" y1="123.0" x2="339.0" y2="115.5" />
</g>
<g id="atom_C_11_s2">
<line x1="351.0" y1="115.0" x2="345.0" y2="119.0" />
<line x1="351.0" y1="115.0" x2="345.0" y2="111.5" />
<line x1="351.0" y1="115.0" x2="357.5" y2="119.0" />
<line x1="351.0" y1="115.0" x2="357.0" y2="110.0" />
</g>
<g id="atom_C_12_s2">
<line x1="339.0" y1="108.0" x2="339.0" y2="115.5" />
<line x1="339.0" y1="108.0" x2="345.0" y2="111.5" />
<line x1="339.0" y1="108.0" x2="340.5" y2="100.5" />
</g>
<g id="atom_C_28_s2">
<line x1="364.0" y1="123.0" x2="357.5" y2="119.0" />
</g>
<g id="atom_C_15_s2">
<line x1="363.0" y1="105.0" x2="357.0" y2="110.0" />
<line x1="363.0" y1="105.0" x2="360.0" y2="98.5" />
<line x1="363.0" y1="105.0" x2="370.0" y2="106.5" />
</g>
<g id="atom_C_13_s2">
<line x1="342.0" y1="93.0" x2="340.5" y2="100.5" />
<line x1="342.0" y1="93.0" x2="349.5" y2="92.5" />
</g>
<g id="atom_C_14_s2">
<line x1="357.0" y1="92.0" x2="349.5" y2="92.5" />
<line x1="357.0" y1="92.0" x2="360.0" y2="98.5" />
</g>
<g id="atom_C_17_s2">
<line x1="377.0" y1="108.0" x2="370.0" y2="106.5" />
<line x1="377.0" y1="108.0" x2="379.5" y2="115.5" />
<line x1="377.0" y1="108.0" x2="382.0" y2="102.5" />
</g>
<g id="atom_C_18_s2">
<line x1="382.0" y1="123.0" x2="379.5" y2="115.5" />
<line x1="382.0" y1="123.0" x2="389.5" y2="124.5" />
</g>
<g id="atom_C_16_s2">
<line x1="387.0" y1="97.0" x2="382.0" y2="102.5" />
</g>
<g id="atom_C_19_s2">
<line x1="397.0" y1="126.0" x2="389.5" y2="124.5" />
<line x1="397.0" y1="126.0" x2="399.0" y2="133.0" />
<line x1="394.8038853413698" y1="128.14174704532292" x2="396.4038853413698" y2="133.7417470453229" />
</g>
<g id="atom_C_20_s2">
<line x1="401.0" y1="140.0" x2="399.0" y2="133.0" />
<line x1="398.0038853413698" y1="139.3417470453229" x2="396.4038853413698" y2="133.7417470453229" />
<line x1="401.0" y1="140.0" x2="396.0" y2="145.5" />
<line x1="401.0" y1="140.0" x2="408.5" y2="141.5" />
</g>
<g id="atom_C_21_s2">
<line x1="391.0" y1="151.0" x2="396.0" y2="145.5" />
</g>
<g id="atom_C_22_s2">
<line x1="416.0" y1="143.0" x2="408.5" y2="141.5" />
<line x1="416.0" y1="143.0" x2="418.5" y2="150.0" />
</g>
<g id="atom_C_23_s2">
<line x1="421.0" y1="157.0" x2="418.5" y2="150.0" />
<line x1="421.0" y1="157.0" x2="428.0" y2="158.5" />
</g>
<g id="atom_C_24_s2">
<line x1="435.0" y1="160.0" x2="428.0" y2="158.5" />
<line x1="435.0" y1="160.0" x2="437.5" y2="167.5" />
</g>
<g id="atom_C_25_s2">
<line x1="440.0" y1="175.0" x2="437.5" y2="167.5" />
<line x1="440.0" y1="175.0" x2="447.5" y2="176.5" />
<line x1="441.54378406222156" y1="175.30875681244433" x2="435.9989190990845" y2="181.40810827189503" />
<line x1="439.5105074924664" y1="173.53152247739902" x2="434.0010809009155" y2="179.59189172810497" />
</g>
<g id="atom_C_26_s2">
<line x1="455.0" y1="178.0" x2="447.5" y2="176.5" />
</g>
<g id="atom_C_27_s2">
<line x1="430.9989190990845" y1="186.90810827189503" x2="435.9989190990845" y2="181.40810827189503" />
<line x1="429.0010809009155" y1="185.09189172810497" x2="434.0010809009155" y2="179.59189172810497" />
</g>
</g>
<g id="unlabeled_s3">
<g id="atom_C_10_s3">
<line x1="543.0" y1="163.0" x2="549.5" y2="169.5" />
<line x1="543.0" y1="163.0" x2="541.0" y2="155.5" />
<line x1="543.0" y1="163.0" x2="536.5" y2="162.0" />
</g>
<g id="atom_C_9_s3">
<line x1="556.0" y1="176.0" x2="549.5" y2="169.5" />
<line x1="556.0" y1="176.0" x2="557.0" y2="170.0" />
</g>
<g id="atom_C_14_s3">
<line x1="558.0" y1="164.0" x2="557.0" y2="170.0" />
<line x1="558.0" y1="164.0" x2="548.5" y2="169.5" />
<line x1="558.0" y1="164.0" x2="557.0" y2="156.0" />
</g>
<g id="atom_C_11_s3">
<line x1="539.0" y1="148.0" x2="541.0" y2="155.5" />
<line x1="539.0" y1="148.0" x2="534.5" y2="154.5" />
<line x1="539.0" y1="148.0" x2="536.5" y2="141.0" />
<line x1="539.0" y1="148.0" x2="547.5" y2="148.0" />
</g>
<g id="atom_C_12_s3">
<line x1="530.0" y1="161.0" x2="536.5" y2="162.0" />
<line x1="530.0" y1="161.0" x2="534.5" y2="154.5" />
<line x1="530.0" y1="161.0" x2="534.5" y2="168.0" />
</g>
<g id="atom_C_28_s3">
<line x1="534.0" y1="134.0" x2="536.5" y2="141.0" />
</g>
<g id="atom_C_15_s3">
<line x1="556.0" y1="148.0" x2="547.5" y2="148.0" />
<line x1="556.0" y1="148.0" x2="557.0" y2="156.0" />
<line x1="556.0" y1="148.0" x2="561.0" y2="142.0" />
</g>
<g id="atom_C_13_s3">
<line x1="539.0" y1="175.0" x2="534.5" y2="168.0" />
<line x1="539.0" y1="175.0" x2="548.5" y2="169.5" />
</g>
<g id="atom_C_17_s3">
<line x1="566.0" y1="136.0" x2="561.0" y2="142.0" />
<line x1="566.0" y1="136.0" x2="573.5" y2="137.5" />
<line x1="566.0" y1="136.0" x2="563.5" y2="129.0" />
</g>
<g id="atom_C_18_s3">
<line x1="581.0" y1="139.0" x2="573.5" y2="137.5" />
<line x1="581.0" y1="139.0" x2="585.5" y2="133.5" />
</g>
<g id="atom_C_16_s3">
<line x1="561.0" y1="122.0" x2="563.5" y2="129.0" />
</g>
<g id="atom_C_19_s3">
<line x1="590.0" y1="128.0" x2="585.5" y2="133.5" />
<line x1="590.0" y1="128.0" x2="597.5" y2="129.0" />
<line x1="591.1431579557543" y1="130.8763153318431" x2="597.1431579557543" y2="131.6763153318431" />
</g>
<g id="atom_C_20_s3">
<line x1="605.0" y1="130.0" x2="597.5" y2="129.0" />
<line x1="603.1431579557543" y1="132.47631533184313" x2="597.1431579557543" y2="131.6763153318431" />
<line x1="605.0" y1="130.0" x2="607.5" y2="137.0" />
<line x1="605.0" y1="130.0" x2="610.0" y2="124.5" />
</g>
<g id="atom_C_21_s3">
<line x1="610.0" y1="144.0" x2="607.5" y2="137.0" />
</g>
<g id="atom_C_22_s3">
<line x1="615.0" y1="119.0" x2="610.0" y2="124.5" />
<line x1="615.0" y1="119.0" x2="622.5" y2="120.5" />
</g>
<g id="atom_C_23_s3">
<line x1="630.0" y1="122.0" x2="622.5" y2="120.5" />
<line x1="630.0" y1="122.0" x2="634.5" y2="116.0" />
</g>
<g id="atom_C_24_s3">
<line x1="639.0" y1="110.0" x2="634.5" y2="116.0" />
<line x1="639.0" y1="110.0" x2="646.5" y2="111.5" />
</g>
<g id="atom_C_25_s3">
<line x1="654.0" y1="113.0" x2="646.5" y2="111.5" />
<line x1="654.0" y1="113.0" x2="659.0" y2="107.5" />
<line x1="655.0291893748143" y1="111.86789168770423" x2="657.771351580653" y2="119.54594586405248" />
<line x1="652.4562159377784" y1="112.69124318755568" x2="655.228648419347" y2="120.45405413594752" />
</g>
<g id="atom_C_26_s3">
<line x1="664.0" y1="102.0" x2="659.0" y2="107.5" />
</g>
<g id="atom_C_27_s3">
<line x1="660.271351580653" y1="126.54594586405248" x2="657.771351580653" y2="119.54594586405248" />
<line x1="657.728648419347" y1="127.45405413594752" x2="655.228648419347" y2="120.45405413594752" />
</g>
</g>
<g id="unlabeled_s4">
<g id="atom_C_10_s4">
<line x1="779.0" y1="182.0" x2="785.5" y2="188.5" />
<line x1="779.0" y1="182.0" x2="777.0" y2="174.5" />
<line x1="779.0" y1="182.0" x2="772.5" y2="181.0" />
</g>
<g id="atom_C_9_s4">
<line x1="792.0" y1="195.0" x2="785.5" y2="188.5" />
<line x1="792.0" y1="195.0" x2="793.0" y2="189.0" />
</g>
<g id="atom_C_14_s4">
<line x1="794.0" y1="183.0" x2="793.0" y2="189.0" />
<line x1="794.0" y1="183.0" x2="784.5" y2="188.5" />
<line x1="794.0" y1="183.0" x2="793.0" y2="175.0" />
</g>
<g id="atom_C_11_s4">
<line x1="775.0" y1="167.0" x2="777.0" y2="174.5" />
<line x1="775.0" y1="167.0" x2="770.5" y2="173.5" />
<line x1="775.0" y1="167.0" x2="772.5" y2="160.0" />
<line x1="775.0" y1="167.0" x2="783.5" y2="167.0" />
</g>
<g id="atom_C_12_s4">
<line x1="766.0" y1="180.0" x2="772.5" y2="181.0" />
<line x1="766.0" y1="180.0" x2="770.5" y2="173.5" />
<line x1="766.0" y1="180.0" x2="770.5" y2="187.0" />
</g>
<g id="atom_C_28_s4">
<line x1="770.0" y1="153.0" x2="772.5" y2="160.0" />
</g>
<g id="atom_C_15_s4">
<line x1="792.0" y1="167.0" x2="783.5" y2="167.0" />
<line x1="792.0" y1="167.0" x2="793.0" y2="175.0" />
<line x1="792.0" y1="167.0" x2="797.0" y2="161.0" />
</g>
<g id="atom_C_13_s4">
<line x1="775.0" y1="194.0" x2="770.5" y2="187.0" />
<line x1="775.0" y1="194.0" x2="784.5" y2="188.5" />
</g>
<g id="atom_C_17_s4">
<line x1="802.0" y1="155.0" x2="797.0" y2="161.0" />
<line x1="802.0" y1="155.0" x2="809.5" y2="156.5" />
<line x1="802.0" y1="155.0" x2="799.5" y2="148.0" />
</g>
<g id="atom_C_18_s4">
<line x1="817.0" y1="158.0" x2="809.5" y2="156.5" />
<line x1="817.0" y1="158.0" x2="821.5" y2="152.5" />
</g>
<g id="atom_C_16_s4">
<line x1="797.0" y1="141.0" x2="799.5" y2="148.0" />
</g>
<g id="atom_C_19_s4">
<line x1="826.0" y1="147.0" x2="821.5" y2="152.5" />
<line x1="826.0" y1="147.0" x2="833.0" y2="144.5" />
<line x1="826.0" y1="147.0" x2="827.5" y2="139.5" />
</g>
<g id="atom_C_20_s4">
<line x1="840.0" y1="142.0" x2="833.0" y2="144.5" />
<line x1="840.0" y1="142.0" x2="844.0" y2="148.5" />
<line x1="840.0" y1="142.0" x2="846.0" y2="137.0" />
<line x1="840.0" y1="142.0" x2="834.5" y2="137.0" />
</g>
<g id="atom_O_6_s4">
<line x1="828.25" y1="135.75" x2="827.5" y2="139.5" />
<line x1="831.75" y1="134.5" x2="834.5" y2="137.0" />
<g id="atom_O_6_s4_text">
<text x="829.0" y="132.0" text-anchor="middle" font-family="verdana" font-size="8"><tspan y="132.0" dy="0.35em">O</tspan></text>
</g>
</g>
<g id="atom_C_21_s4">
<line x1="848.0" y1="155.0" x2="844.0" y2="148.5" />
</g>
<g id="atom_C_22_s4">
<line x1="852.0" y1="132.0" x2="846.0" y2="137.0" />
<line x1="852.0" y1="132.0" x2="851.0" y2="124.5" />
</g>
<g id="atom_C_23_s4">
<line x1="850.0" y1="117.0" x2="851.0" y2="124.5" />
<line x1="850.0" y1="117.0" x2="855.5" y2="112.5" />
</g>
<g id="atom_C_24_s4">
<line x1="861.0" y1="108.0" x2="855.5" y2="112.5" />
<line x1="861.0" y1="108.0" x2="860.0" y2="100.5" />
</g>
<g id="atom_C_25_s4">
<line x1="859.0" y1="93.0" x2="860.0" y2="100.5" />
<line x1="859.0" y1="93.0" x2="864.5" y2="88.0" />
<line x1="860.1321083122958" y1="91.97081062518559" x2="852.4540541359476" y2="89.22864841934697" />
<line x1="859.2006919280888" y1="94.50518946066607" x2="851.5459458640524" y2="91.77135158065303" />
</g>
<g id="atom_C_26_s4">
<line x1="870.0" y1="83.0" x2="864.5" y2="88.0" />
</g>
<g id="atom_C_27_s4">
<line x1="845.4540541359476" y1="86.72864841934697" x2="852.4540541359476" y2="89.22864841934697" />
<line x1="844.5459458640524" y1="89.27135158065303" x2="851.5459458640524" y2="91.77135158065303" />
</g>
</g>
<g id="unlabeled_s5">
<g id="atom_C_9_s5">
<line x1="981.0" y1="168.0" x2="982.0" y2="159.0" />
<line x1="981.0" y1="168.0" x2="986.0" y2="165.0" />
</g>
<g id="atom_C_10_s5">
<line x1="983.0" y1="150.0" x2="982.0" y2="159.0" />
<line x1="983.0" y1="150.0" x2="987.5" y2="144.0" />
<line x1="983.0" y1="150.0" x2="979.0" y2="144.5" />
</g>
<g id="atom_C_14_s5">
<line x1="991.0" y1="162.0" x2="986.0" y2="165.0" />
<line x1="991.0" y1="162.0" x2="981.5" y2="158.5" />
<line x1="991.0" y1="162.0" x2="997.0" y2="156.0" />
</g>
<g id="atom_C_11_s5">
<line x1="992.0" y1="138.0" x2="987.5" y2="144.0" />
<line x1="992.0" y1="138.0" x2="983.5" y2="138.5" />
<line x1="992.0" y1="138.0" x2="995.5" y2="131.5" />
<line x1="992.0" y1="138.0" x2="997.5" y2="144.0" />
</g>
<g id="atom_C_12_s5">
<line x1="975.0" y1="139.0" x2="979.0" y2="144.5" />
<line x1="975.0" y1="139.0" x2="983.5" y2="138.5" />
<line x1="975.0" y1="139.0" x2="973.5" y2="147.0" />
</g>
<g id="atom_C_28_s5">
<line x1="999.0" y1="125.0" x2="995.5" y2="131.5" />
</g>
<g id="atom_C_15_s5">
<line x1="1003.0" y1="150.0" x2="997.5" y2="144.0" />
<line x1="1003.0" y1="150.0" x2="997.0" y2="156.0" />
<line x1="1003.0" y1="150.0" x2="1010.5" y2="150.0" />
</g>
<g id="atom_C_13_s5">
<line x1="972.0" y1="155.0" x2="973.5" y2="147.0" />
<line x1="972.0" y1="155.0" x2="981.5" y2="158.5" />
</g>
<g id="atom_C_17_s5">
<line x1="1018.0" y1="150.0" x2="1010.5" y2="150.0" />
<line x1="1018.0" y1="150.0" x2="1021.5" y2="156.5" />
<line x1="1018.0" y1="150.0" x2="1022.0" y2="143.5" />
</g>
<g id="atom_C_18_s5">
<line x1="1025.0" y1="163.0" x2="1021.5" y2="156.5" />
<line x1="1025.0" y1="163.0" x2="1032.5" y2="163.5" />
</g>
<g id="atom_C_16_s5">
<line x1="1026.0" y1="137.0" x2="1022.0" y2="143.5" />
</g>
<g id="atom_C_19_s5">
<line x1="1040.0" y1="164.0" x2="1032.5" y2="163.5" />
<line x1="1040.0" y1="164.0" x2="1047.0" y2="161.5" />
<line x1="1040.0" y1="164.0" x2="1041.5" y2="156.5" />
<line x1="1040.0" y1="164.0" x2="1041.5" y2="171.0" />
</g>
<g id="atom_C_20_s5">
<line x1="1054.0" y1="159.0" x2="1047.0" y2="161.5" />
<line x1="1054.0" y1="159.0" x2="1058.0" y2="165.5" />
<line x1="1054.0" y1="159.0" x2="1060.0" y2="154.0" />
<line x1="1054.0" y1="159.0" x2="1048.5" y2="154.0" />
</g>
<g id="atom_O_6_s5">
<line x1="1042.25" y1="152.75" x2="1041.5" y2="156.5" />
<line x1="1045.75" y1="151.5" x2="1048.5" y2="154.0" />
<g id="atom_O_6_s5_text">
<text x="1043.0" y="149.0" text-anchor="middle" font-family="verdana" font-size="8"><tspan y="149.0" dy="0.35em">O</tspan></text>
</g>
</g>
<g id="atom_O_5_s5">
<line x1="1042.25" y1="174.5" x2="1041.5" y2="171.0" />
<g id="atom_O_5_s5_text">
<text x="1043.0" y="178.0" text-anchor="middle" font-family="verdana" font-size="8"><tspan y="178.0" dy="0.35em">O</tspan></text>
<text x="1049.0" y="178.0" text-anchor="middle" font-family="verdana" font-size="8"><tspan y="178.0" dy="0.35em">H</tspan></text>
</g>
</g>
<g id="atom_C_21_s5">
<line x1="1062.0" y1="172.0" x2="1058.0" y2="165.5" />
</g>
<g id="atom_C_22_s5">
<line x1="1066.0" y1="149.0" x2="1060.0" y2="154.0" />
<line x1="1066.0" y1="149.0" x2="1065.0" y2="141.5" />
</g>
<g id="atom_C_23_s5">
<line x1="1064.0" y1="134.0" x2="1065.0" y2="141.5" />
<line x1="1064.0" y1="134.0" x2="1069.5" y2="129.5" />
</g>
<g id="atom_C_24_s5">
<line x1="1075.0" y1="125.0" x2="1069.5" y2="129.5" />
<line x1="1075.0" y1="125.0" x2="1074.0" y2="117.5" />
</g>
<g id="atom_C_25_s5">
<line x1="1073.0" y1="110.0" x2="1074.0" y2="117.5" />
<line x1="1073.0" y1="110.0" x2="1078.5" y2="105.0" />
<line x1="1074.132108312296" y1="108.97081062518566" x2="1066.4540541359474" y2="106.22864841934697" />
<line x1="1073.2006919280889" y1="111.505189460666" x2="1065.5459458640526" y2="108.77135158065303" />
</g>
<g id="atom_C_26_s5">
<line x1="1084.0" y1="100.0" x2="1078.5" y2="105.0" />
</g>
<g id="atom_C_27_s5">
<line x1="1059.4540541359474" y1="103.72864841934697" x2="1066.4540541359474" y2="106.22864841934697" />
<line x1="1058.5459458640526" y1="106.27135158065303" x2="1065.5459458640526" y2="108.77135158065303" />
</g>
</g>
<g id="unlabeled_s6">
<g id="atom_C_10_s6">
<line x1="1199.0" y1="182.0" x2="1205.5" y2="188.5" />
<line x1="1199.0" y1="182.0" x2="1197.0" y2="174.5" />
<line x1="1199.0" y1="182.0" x2="1192.5" y2="181.0" />
</g>
<g id="atom_C_9_s6">
<line x1="1212.0" y1="195.0" x2="1205.5" y2="188.5" />
<line x1="1212.0" y1="195.0" x2="1213.0" y2="189.0" />
</g>
<g id="atom_C_14_s6">
<line x1="1214.0" y1="183.0" x2="1213.0" y2="189.0" />
<line x1="1214.0" y1="183.0" x2="1204.5" y2="188.5" />
<line x1="1214.0" y1="183.0" x2="1213.0" y2="175.0" />
</g>
<g id="atom_C_11_s6">
<line x1="1195.0" y1="167.0" x2="1197.0" y2="174.5" />
<line x1="1195.0" y1="167.0" x2="1190.5" y2="173.5" />
<line x1="1195.0" y1="167.0" x2="1192.5" y2="160.0" />
<line x1="1195.0" y1="167.0" x2="1203.5" y2="167.0" />
</g>
<g id="atom_C_12_s6">
<line x1="1186.0" y1="180.0" x2="1192.5" y2="181.0" />
<line x1="1186.0" y1="180.0" x2="1190.5" y2="173.5" />
<line x1="1186.0" y1="180.0" x2="1190.5" y2="187.0" />
</g>
<g id="atom_C_28_s6">
<line x1="1190.0" y1="153.0" x2="1192.5" y2="160.0" />
</g>
<g id="atom_C_15_s6">
<line x1="1212.0" y1="167.0" x2="1203.5" y2="167.0" />
<line x1="1212.0" y1="167.0" x2="1213.0" y2="175.0" />
<line x1="1212.0" y1="167.0" x2="1217.0" y2="161.0" />
</g>
<g id="atom_C_13_s6">
<line x1="1195.0" y1="194.0" x2="1190.5" y2="187.0" />
<line x1="1195.0" y1="194.0" x2="1204.5" y2="188.5" />
</g>
<g id="atom_C_17_s6">
<line x1="1222.0" y1="155.0" x2="1217.0" y2="161.0" />
<line x1="1222.0" y1="155.0" x2="1229.5" y2="156.5" />
<line x1="1222.0" y1="155.0" x2="1219.5" y2="148.0" />
</g>
<g id="atom_C_18_s6">
<line x1="1237.0" y1="158.0" x2="1229.5" y2="156.5" />
<line x1="1237.0" y1="158.0" x2="1241.5" y2="152.5" />
</g>
<g id="atom_C_16_s6">
<line x1="1217.0" y1="141.0" x2="1219.5" y2="148.0" />
</g>
<g id="atom_C_19_s6">
<line x1="1246.0" y1="147.0" x2="1241.5" y2="152.5" />
<line x1="1246.0" y1="147.0" x2="1253.0" y2="144.5" />
<line x1="1246.0" y1="147.0" x2="1247.5" y2="139.5" />
</g>
<g id="atom_C_20_s6">
<line x1="1260.0" y1="142.0" x2="1253.0" y2="144.5" />
<line x1="1260.0" y1="142.0" x2="1264.0" y2="148.5" />
<line x1="1260.0" y1="142.0" x2="1266.0" y2="137.0" />
<line x1="1260.0" y1="142.0" x2="1254.5" y2="137.0" />
</g>
<g id="atom_O_6_s6">
<line x1="1248.25" y1="135.75" x2="1247.5" y2="139.5" />
<line x1="1251.75" y1="134.5" x2="1254.5" y2="137.0" />
<g id="atom_O_6_s6_text">
<text x="1249.0" y="132.0" text-anchor="middle" font-family="verdana" font-size="8"><tspan y="132.0" dy="0.35em">O</tspan></text>
</g>
</g>
<g id="atom_C_21_s6">
<line x1="1268.0" y1="155.0" x2="1264.0" y2="148.5" />
</g>
<g id="atom_C_22_s6">
<line x1="1272.0" y1="132.0" x2="1266.0" y2="137.0" />
<line x1="1272.0" y1="132.0" x2="1271.0" y2="124.5" />
</g>
<g id="atom_C_23_s6">
<line x1="1270.0" y1="117.0" x2="1271.0" y2="124.5" />
<line x1="1270.0" y1="117.0" x2="1275.5" y2="112.5" />
</g>
<g id="atom_C_24_s6">
<line x1="1281.0" y1="108.0" x2="1275.5" y2="112.5" />
<line x1="1281.0" y1="108.0" x2="1280.0" y2="100.5" />
</g>
<g id="atom_C_25_s6">
<line x1="1279.0" y1="93.0" x2="1280.0" y2="100.5" />
<line x1="1279.0" y1="93.0" x2="1284.5" y2="88.0" />
<line x1="1280.132108312296" y1="91.97081062518566" x2="1272.4540541359474" y2="89.22864841934697" />
<line x1="1279.2006919280889" y1="94.505189460666" x2="1271.5459458640526" y2="91.77135158065303" />
</g>
<g id="atom_C_26_s6">
<line x1="1290.0" y1="83.0" x2="1284.5" y2="88.0" />
</g>
<g id="atom_C_27_s6">
<line x1="1265.4540541359474" y1="86.72864841934697" x2="1272.4540541359474" y2="89.22864841934697" />
<line x1="1264.5459458640526" y1="89.27135158065303" x2="1271.5459458640526" y2="91.77135158065303" />
</g>
</g>
</svg>