<svg width="726.8" height="347.7989898732233" viewBox="0 0 726.8 347.7989898732233" xmlns="http://www.w3.org/2000/svg">
<style> line {stroke: black; stroke_width: 1px;} polygon {fill: black;} </style>
<g id="domain_circles_True">
<g id="domain_bubble_0_True">
<circle r="14" cx="147" cy="243" stroke="#5fc65f"
        fill="#81f781" stroke-width="1"/>
<text x="147.0" y="243" fill="#000000" text-anchor="middle" font-family="verdana" font-size = "10">                    <tspan y="243" dy="0.35em">K</tspan></text>
</g>
<g id="domain_bubble_1_True">
<circle r="14" cx="119" cy="243" stroke="#df5d5d"
        fill="#f78181" stroke-width="1"/>
<text x="119.0" y="243" fill="#000000" text-anchor="middle" font-family="verdana" font-size = "10">                    <tspan y="243" dy="0.35em">E</tspan></text>
</g>
<g id="domain_bubble_2_True">
<circle r="14" cx="91" cy="243" stroke="#3d79d6"
        fill="#81bef7" stroke-width="1"/>
<text x="91.0" y="243" fill="#000000" text-anchor="middle" font-family="verdana" font-size = "10">                    <tspan y="243" dy="0.35em">A</tspan></text>
</g>
<g id="domain_bubble_3_True">
<circle r="14" cx="63" cy="243" stroke="#5fc65f"
        fill="#81f781" stroke-width="1"/>
<text x="63.0" y="243" fill="#000000" text-anchor="middle" font-family="verdana" font-size = "10">                    <tspan y="243" dy="0.35em">K</tspan></text>
</g>
<g id="domain_bubble_4_True">
<circle r="14" cx="35" cy="243" stroke="#3d79d6"
        fill="#81bef7" stroke-width="1"/>
<text x="35.0" y="243" fill="#000000" text-anchor="middle" font-family="verdana" font-size = "10">                    <tspan y="243" dy="0.35em">M</tspan></text>
</g>
</g>
<g id="domain_circles_False">
<g id="domain_bubble_0_False">
<circle r="14" cx="628" cy="250" stroke="#3d79d6"
        fill="#81bef7" stroke-width="1"/>
<text x="628.8" y="250" fill="#000000" text-anchor="middle" font-family="verdana" font-size = "10">                    <tspan y="250" dy="0.35em">A</tspan></text>
</g>
<g id="domain_bubble_1_False">
<circle r="14" cx="656" cy="250" stroke="#5fc65f"
        fill="#81f781" stroke-width="1"/>
<text x="656.8" y="250" fill="#000000" text-anchor="middle" font-family="verdana" font-size = "10">                    <tspan y="250" dy="0.35em">H</tspan></text>
</g>
<g id="domain_bubble_2_False">
<circle r="14" cx="684" cy="250" stroke="#3d79d6"
        fill="#81bef7" stroke-width="1"/>
<text x="684.8" y="250" fill="#000000" text-anchor="middle" font-family="verdana" font-size = "10">                    <tspan y="250" dy="0.35em">A</tspan></text>
</g>
</g>
<g id="unlabeled">
<g id="atom_N_0">
<line x1="174.05" y1="244.75" x2="177.3" y2="246.5" />
<line x1="167.3" y1="243.0" x2="163.8" y2="243.0" />
<g id="atom_N_0_text">
<text x="170.8" y="243" text-anchor="middle" font-family="verdana" font-size="8"><tspan y="243" dy="0.35em">N</tspan></text>
<text x="170.8" y="236.0" text-anchor="middle" font-family="verdana" font-size="8"><tspan y="236.0" dy="0.35em">H</tspan></text>
</g>
</g>
<g id="atom_C_1">
<line x1="183.8" y1="250.0" x2="177.3" y2="246.5" />
<g id="chiral-bond-back" stroke="black" stroke-width="1">
  <line x1="183.8" y1="250.0" x2="183.8" y2="250.0" />
  <line x1="183.5" y1="253.0" x2="184.10000000000002" y2="253.0" />
  <line x1="183.20000000000002" y1="256.0" x2="184.4" y2="256.0" />
</g>
<line x1="183.8" y1="250.0" x2="190.3" y2="246.5" />
</g>
<g id="atom_Leader_117">
<line x1="160.3" y1="243.0" x2="163.8" y2="243.0" />
</g>
<g id="atom_C_3">
<g id="chiral-bond-back" stroke="black" stroke-width="1">
  <line x1="182.3" y1="265.0" x2="185.3" y2="265.0" />
  <line x1="182.60000000000002" y1="262.0" x2="185.0" y2="262.0" />
  <line x1="182.9" y1="259.0" x2="184.70000000000002" y2="259.0" />
</g>
<line x1="183.8" y1="265.0" x2="177.8" y2="269.0" />
</g>
<g id="atom_C_5">
<line x1="196.8" y1="243.0" x2="190.3" y2="246.5" />
<line x1="198.15" y1="243.72692307692307" x2="198.15" y2="235.5" />
<line x1="195.45000000000005" y1="243.72692307692307" x2="195.45000000000002" y2="235.5" />
<line x1="196.8" y1="243.0" x2="203.3" y2="246.5" />
</g>
<g id="atom_O_4">
<line x1="174.8" y1="271.0" x2="177.8" y2="269.0" />
<g id="atom_O_4_text">
<text x="171.8" y="273" text-anchor="middle" font-family="verdana" font-size="8"><tspan y="273" dy="0.35em">O</tspan></text>
<text x="165.8" y="273.0" text-anchor="middle" font-family="verdana" font-size="8"><tspan y="273.0" dy="0.35em">H</tspan></text>
</g>
</g>
<g id="atom_O_6">
<line x1="198.15" y1="231.75" x2="198.15" y2="235.5" />
<line x1="195.45000000000002" y1="231.75" x2="195.45000000000002" y2="235.5" />
<g id="atom_O_6_text">
<text x="196.8" y="228" text-anchor="middle" font-family="verdana" font-size="8"><tspan y="228" dy="0.35em">O</tspan></text>
</g>
</g>
<g id="atom_N_7">
<line x1="206.55" y1="248.25" x2="203.3" y2="246.5" />
<line x1="213.05" y1="248.25" x2="216.3" y2="246.5" />
<g id="atom_N_7_text">
<text x="209.8" y="250" text-anchor="middle" font-family="verdana" font-size="8"><tspan y="250" dy="0.35em">N</tspan></text>
<text x="209.8" y="257.0" text-anchor="middle" font-family="verdana" font-size="8"><tspan y="257.0" dy="0.35em">H</tspan></text>
</g>
</g>
<g id="atom_C_8">
<line x1="222.8" y1="243.0" x2="216.3" y2="246.5" />
<polygon points="222.8,243.0 223.55,235.5 222.05,235.5" />
<line x1="222.8" y1="243.0" x2="229.3" y2="246.5" />
</g>
<g id="atom_C_10">
<polygon points="224.3,228.0 221.3,228.0 222.05,235.5 223.55,235.5" />
<line x1="222.8" y1="228.0" x2="222.8" y2="220.5" />
</g>
<g id="atom_C_14">
<line x1="235.8" y1="250.0" x2="229.3" y2="246.5" />
<line x1="237.15" y1="249.27307692307693" x2="237.15" y2="257.5" />
<line x1="234.45000000000005" y1="249.27307692307693" x2="234.45000000000002" y2="257.5" />
<line x1="235.8" y1="250.0" x2="242.3" y2="246.5" />
</g>
<g id="atom_C_11">
<line x1="222.8" y1="213.0" x2="222.8" y2="220.5" />
<line x1="222.8" y1="213.0" x2="216.3" y2="209.5" />
<line x1="222.8" y1="213.0" x2="229.3" y2="209.0" />
</g>
<g id="atom_C_12">
<line x1="209.8" y1="206.0" x2="216.3" y2="209.5" />
</g>
<g id="atom_C_13">
<line x1="235.8" y1="205.0" x2="229.3" y2="209.0" />
</g>
<g id="atom_O_15">
<line x1="237.15" y1="261.25" x2="237.15" y2="257.5" />
<line x1="234.45000000000002" y1="261.25" x2="234.45000000000002" y2="257.5" />
<g id="atom_O_15_text">
<text x="235.8" y="265" text-anchor="middle" font-family="verdana" font-size="8"><tspan y="265" dy="0.35em">O</tspan></text>
</g>
</g>
<g id="atom_N_16">
<line x1="245.55" y1="244.75" x2="242.3" y2="246.5" />
<line x1="252.05" y1="244.75" x2="255.3" y2="246.5" />
<g id="atom_N_16_text">
<text x="248.8" y="243" text-anchor="middle" font-family="verdana" font-size="8"><tspan y="243" dy="0.35em">N</tspan></text>
<text x="248.8" y="236.0" text-anchor="middle" font-family="verdana" font-size="8"><tspan y="236.0" dy="0.35em">H</tspan></text>
</g>
</g>
<g id="atom_C_17">
<line x1="261.8" y1="250.0" x2="255.3" y2="246.5" />
<g id="chiral-bond-back" stroke="black" stroke-width="1">
  <line x1="261.8" y1="250.0" x2="261.8" y2="250.0" />
  <line x1="261.5" y1="253.0" x2="262.1" y2="253.0" />
  <line x1="261.2" y1="256.0" x2="262.40000000000003" y2="256.0" />
</g>
<line x1="261.8" y1="250.0" x2="268.3" y2="246.5" />
</g>
<g id="atom_C_19">
<g id="chiral-bond-back" stroke="black" stroke-width="1">
  <line x1="260.3" y1="265.0" x2="263.3" y2="265.0" />
  <line x1="260.6" y1="262.0" x2="263.0" y2="262.0" />
  <line x1="260.90000000000003" y1="259.0" x2="262.7" y2="259.0" />
</g>
<line x1="261.8" y1="265.0" x2="268.3" y2="269.0" />
</g>
<g id="atom_C_24">
<line x1="274.8" y1="243.0" x2="268.3" y2="246.5" />
<line x1="276.1500000000001" y1="243.72692307692307" x2="276.15000000000003" y2="235.5" />
<line x1="273.45" y1="243.72692307692307" x2="273.45" y2="235.5" />
<line x1="274.8" y1="243.0" x2="281.3" y2="246.5" />
</g>
<g id="atom_C_20">
<line x1="274.8" y1="273.0" x2="268.3" y2="269.0" />
<line x1="274.8" y1="273.0" x2="274.8" y2="280.5" />
</g>
<g id="atom_C_21">
<line x1="274.8" y1="288.0" x2="274.8" y2="280.5" />
<line x1="274.8" y1="288.0" x2="281.3" y2="291.5" />
</g>
<g id="atom_C_22">
<line x1="287.8" y1="295.0" x2="281.3" y2="291.5" />
<line x1="287.8" y1="295.0" x2="287.8" y2="302.5" />
</g>
<g id="atom_N_23">
<line x1="287.8" y1="306.25" x2="287.8" y2="302.5" />
<g id="atom_N_23_text">
<text x="287.8" y="310" text-anchor="middle" font-family="verdana" font-size="8"><tspan y="310" dy="0.35em">N</tspan></text>
<text x="293.8" y="310.0" text-anchor="middle" font-family="verdana" font-size="8"><tspan y="310.0" dy="0.35em">H</tspan></text>
<text x="298.8" y="313.0" text-anchor="middle" font-family="verdana" font-size="6"><tspan y="313.0" dy="0.35em">2</tspan></text>
</g>
</g>
<g id="atom_O_25">
<line x1="276.15000000000003" y1="231.75" x2="276.15000000000003" y2="235.5" />
<line x1="273.45" y1="231.75" x2="273.45" y2="235.5" />
<g id="atom_O_25_text">
<text x="274.8" y="228" text-anchor="middle" font-family="verdana" font-size="8"><tspan y="228" dy="0.35em">O</tspan></text>
</g>
</g>
<g id="atom_N_26">
<line x1="284.55" y1="248.25" x2="281.3" y2="246.5" />
<line x1="291.05" y1="248.25" x2="294.3" y2="246.5" />
<g id="atom_N_26_text">
<text x="287.8" y="250" text-anchor="middle" font-family="verdana" font-size="8"><tspan y="250" dy="0.35em">N</tspan></text>
<text x="287.8" y="257.0" text-anchor="middle" font-family="verdana" font-size="8"><tspan y="257.0" dy="0.35em">H</tspan></text>
</g>
</g>
<g id="atom_C_27">
<line x1="300.8" y1="243.0" x2="294.3" y2="246.5" />
<polygon points="300.8,243.0 301.55,235.5 300.05,235.5" />
<line x1="300.8" y1="243.0" x2="307.3" y2="246.5" />
</g>
<g id="atom_C_29">
<polygon points="302.3,228.0 299.3,228.0 300.05,235.5 301.55,235.5" />
</g>
<g id="atom_C_30">
<line x1="313.8" y1="250.0" x2="307.3" y2="246.5" />
<line x1="315.1500000000001" y1="249.2730769230769" x2="315.15000000000003" y2="257.5" />
<line x1="312.45" y1="249.27307692307693" x2="312.45" y2="257.5" />
<line x1="313.8" y1="250.0" x2="320.3" y2="246.5" />
</g>
<g id="atom_O_31">
<line x1="315.15000000000003" y1="261.25" x2="315.15000000000003" y2="257.5" />
<line x1="312.45" y1="261.25" x2="312.45" y2="257.5" />
<g id="atom_O_31_text">
<text x="313.8" y="265" text-anchor="middle" font-family="verdana" font-size="8"><tspan y="265" dy="0.35em">O</tspan></text>
</g>
</g>
<g id="atom_N_32">
<line x1="323.55" y1="244.75" x2="320.3" y2="246.5" />
<line x1="330.05" y1="244.75" x2="333.3" y2="246.5" />
<g id="atom_N_32_text">
<text x="326.8" y="243" text-anchor="middle" font-family="verdana" font-size="8"><tspan y="243" dy="0.35em">N</tspan></text>
<text x="326.8" y="236.0" text-anchor="middle" font-family="verdana" font-size="8"><tspan y="236.0" dy="0.35em">H</tspan></text>
</g>
</g>
<g id="atom_C_33">
<line x1="339.8" y1="250.0" x2="333.3" y2="246.5" />
<g id="chiral-bond-back" stroke="black" stroke-width="1">
  <line x1="339.8" y1="250.0" x2="339.8" y2="250.0" />
  <line x1="339.5" y1="253.0" x2="340.1" y2="253.0" />
  <line x1="339.2" y1="256.0" x2="340.40000000000003" y2="256.0" />
</g>
<line x1="339.8" y1="250.0" x2="346.3" y2="246.5" />
</g>
<g id="atom_C_35">
<g id="chiral-bond-back" stroke="black" stroke-width="1">
  <line x1="338.3" y1="265.0" x2="341.3" y2="265.0" />
  <line x1="338.6" y1="262.0" x2="341.0" y2="262.0" />
  <line x1="338.90000000000003" y1="259.0" x2="340.7" y2="259.0" />
</g>
<line x1="339.8" y1="265.0" x2="340.3" y2="272.5" />
</g>
<g id="atom_C_43">
<line x1="352.8" y1="243.0" x2="346.3" y2="246.5" />
<line x1="354.1500000000001" y1="243.7269230769231" x2="354.15000000000003" y2="235.5" />
<line x1="351.45" y1="243.72692307692307" x2="351.45" y2="235.5" />
<line x1="352.8" y1="243.0" x2="359.3" y2="246.5" />
</g>
<g id="atom_C_36">
<line x1="340.8" y1="280.0" x2="340.3" y2="272.5" />
<line x1="340.8" y1="280.0" x2="334.3" y2="284.0" />
<line x1="340.9150630492937" y1="283.09947745510226" x2="335.7150630492937" y2="286.29947745510225" />
<line x1="340.8" y1="280.0" x2="347.3" y2="284.0" />
</g>
<g id="atom_C_37">
<line x1="327.8" y1="288.0" x2="334.3" y2="284.0" />
<line x1="330.5150630492937" y1="289.49947745510224" x2="335.7150630492937" y2="286.29947745510225" />
<line x1="327.8" y1="288.0" x2="327.8" y2="295.5" />
</g>
<g id="atom_C_42">
<line x1="353.8" y1="288.0" x2="347.3" y2="284.0" />
<line x1="353.8" y1="288.0" x2="353.8" y2="295.5" />
<line x1="351.1" y1="289.5" x2="351.1" y2="295.5" />
</g>
<g id="atom_C_38">
<line x1="327.8" y1="303.0" x2="327.8" y2="295.5" />
<line x1="327.8" y1="303.0" x2="334.3" y2="306.5" />
<line x1="330.38006952219456" y1="301.3227280302101" x2="335.58006952219455" y2="304.1227280302101" />
</g>
<g id="atom_C_39">
<line x1="340.8" y1="310.0" x2="334.3" y2="306.5" />
<line x1="340.78006952219454" y1="306.9227280302101" x2="335.58006952219455" y2="304.1227280302101" />
<line x1="340.8" y1="310.0" x2="340.8" y2="317.5" />
<line x1="340.8" y1="310.0" x2="347.3" y2="306.5" />
</g>
<g id="atom_O_40">
<line x1="340.8" y1="321.25" x2="340.8" y2="317.5" />
<g id="atom_O_40_text">
<text x="340.8" y="325" text-anchor="middle" font-family="verdana" font-size="8"><tspan y="325" dy="0.35em">O</tspan></text>
<text x="346.8" y="325.0" text-anchor="middle" font-family="verdana" font-size="8"><tspan y="325.0" dy="0.35em">H</tspan></text>
</g>
</g>
<g id="atom_C_41">
<line x1="353.8" y1="303.0" x2="347.3" y2="306.5" />
<line x1="353.8" y1="303.0" x2="353.8" y2="295.5" />
<line x1="351.1" y1="301.5" x2="351.1" y2="295.5" />
</g>
<g id="atom_O_44">
<line x1="354.15000000000003" y1="231.75" x2="354.15000000000003" y2="235.5" />
<line x1="351.45" y1="231.75" x2="351.45" y2="235.5" />
<g id="atom_O_44_text">
<text x="352.8" y="228" text-anchor="middle" font-family="verdana" font-size="8"><tspan y="228" dy="0.35em">O</tspan></text>
</g>
</g>
<g id="atom_N_45">
<line x1="362.55" y1="248.25" x2="359.3" y2="246.5" />
<line x1="369.05" y1="248.25" x2="372.3" y2="246.5" />
<g id="atom_N_45_text">
<text x="365.8" y="250" text-anchor="middle" font-family="verdana" font-size="8"><tspan y="250" dy="0.35em">N</tspan></text>
<text x="365.8" y="257.0" text-anchor="middle" font-family="verdana" font-size="8"><tspan y="257.0" dy="0.35em">H</tspan></text>
</g>
</g>
<g id="atom_C_46">
<line x1="378.8" y1="243.0" x2="372.3" y2="246.5" />
<polygon points="378.8,243.0 379.55,235.5 378.05,235.5" />
<line x1="378.8" y1="243.0" x2="385.3" y2="246.5" />
</g>
<g id="atom_C_48">
<polygon points="380.3,228.0 377.3,228.0 378.05,235.5 379.55,235.5" />
</g>
<g id="atom_C_49">
<line x1="391.8" y1="250.0" x2="385.3" y2="246.5" />
<line x1="393.1500000000001" y1="249.2730769230769" x2="393.15000000000003" y2="257.5" />
<line x1="390.45" y1="249.27307692307693" x2="390.45" y2="257.5" />
<line x1="391.8" y1="250.0" x2="398.3" y2="246.5" />
</g>
<g id="atom_O_50">
<line x1="393.15000000000003" y1="261.25" x2="393.15000000000003" y2="257.5" />
<line x1="390.45" y1="261.25" x2="390.45" y2="257.5" />
<g id="atom_O_50_text">
<text x="391.8" y="265" text-anchor="middle" font-family="verdana" font-size="8"><tspan y="265" dy="0.35em">O</tspan></text>
</g>
</g>
<g id="atom_N_51">
<line x1="401.55" y1="244.75" x2="398.3" y2="246.5" />
<line x1="408.05" y1="244.75" x2="411.3" y2="246.5" />
<g id="atom_N_51_text">
<text x="404.8" y="243" text-anchor="middle" font-family="verdana" font-size="8"><tspan y="243" dy="0.35em">N</tspan></text>
<text x="404.8" y="236.0" text-anchor="middle" font-family="verdana" font-size="8"><tspan y="236.0" dy="0.35em">H</tspan></text>
</g>
</g>
<g id="atom_C_52">
<line x1="417.8" y1="250.0" x2="411.3" y2="246.5" />
<g id="chiral-bond-back" stroke="black" stroke-width="1">
  <line x1="417.8" y1="250.0" x2="417.8" y2="250.0" />
  <line x1="417.5" y1="253.0" x2="418.1" y2="253.0" />
  <line x1="417.2" y1="256.0" x2="418.40000000000003" y2="256.0" />
</g>
<line x1="417.8" y1="250.0" x2="424.3" y2="246.5" />
</g>
<g id="atom_C_54">
<g id="chiral-bond-back" stroke="black" stroke-width="1">
  <line x1="416.3" y1="265.0" x2="419.3" y2="265.0" />
  <line x1="416.6" y1="262.0" x2="419.0" y2="262.0" />
  <line x1="416.90000000000003" y1="259.0" x2="418.7" y2="259.0" />
</g>
<line x1="417.8" y1="265.0" x2="418.3" y2="272.5" />
</g>
<g id="atom_C_64">
<line x1="430.8" y1="243.0" x2="424.3" y2="246.5" />
<line x1="432.1500000000001" y1="243.7269230769231" x2="432.15000000000003" y2="235.5" />
<line x1="429.45" y1="243.72692307692307" x2="429.45" y2="235.5" />
<line x1="430.8" y1="243.0" x2="437.3" y2="246.5" />
</g>
<g id="atom_C_55">
<line x1="418.8" y1="280.0" x2="418.3" y2="272.5" />
<line x1="418.8" y1="280.0" x2="412.8" y2="284.5" />
<line x1="419.22" y1="283.06" x2="414.42" y2="286.66" />
<line x1="418.8" y1="280.0" x2="424.8" y2="284.5" />
</g>
<g id="atom_C_56">
<line x1="406.8" y1="289.0" x2="412.8" y2="284.5" />
<line x1="409.62" y1="290.26000000000005" x2="414.42" y2="286.66" />
<line x1="406.8" y1="289.0" x2="408.8" y2="296.5" />
</g>
<g id="atom_C_58">
<line x1="430.8" y1="289.0" x2="424.8" y2="284.5" />
<line x1="430.8" y1="289.0" x2="428.3" y2="296.0" />
<line x1="427.75729683869395" y1="289.491891728105" x2="425.75729683869395" y2="295.091891728105" />
<line x1="430.8" y1="289.0" x2="437.8" y2="287.5" />
</g>
<g id="atom_N_57">
<line x1="409.8" y1="300.25" x2="408.8" y2="296.5" />
<line x1="414.55" y1="303.75" x2="418.3" y2="303.5" />
<g id="atom_N_57_text">
<text x="410.8" y="304" text-anchor="middle" font-family="verdana" font-size="8"><tspan y="304" dy="0.35em">N</tspan></text>
<text x="410.8" y="311.0" text-anchor="middle" font-family="verdana" font-size="8"><tspan y="311.0" dy="0.35em">H</tspan></text>
</g>
</g>
<g id="atom_C_59">
<line x1="425.8" y1="303.0" x2="418.3" y2="303.5" />
<line x1="425.8" y1="303.0" x2="428.3" y2="296.0" />
<line x1="423.75729683869395" y1="300.691891728105" x2="425.75729683869395" y2="295.091891728105" />
<line x1="425.8" y1="303.0" x2="431.3" y2="308.5" />
</g>
<g id="atom_C_60">
<line x1="436.8" y1="314.0" x2="431.3" y2="308.5" />
<line x1="436.8" y1="314.0" x2="443.8" y2="312.5" />
<line x1="437.63427146042665" y1="311.059933481991" x2="443.23427146042667" y2="309.859933481991" />
</g>
<g id="atom_C_63">
<line x1="444.8" y1="286.0" x2="437.8" y2="287.5" />
<line x1="444.8" y1="286.0" x2="450.3" y2="291.5" />
<line x1="443.99081169079636" y1="289.0091883092037" x2="448.39081169079634" y2="293.40918830920367" />
</g>
<g id="atom_O_65">
<line x1="432.15000000000003" y1="231.75" x2="432.15000000000003" y2="235.5" />
<line x1="429.45" y1="231.75" x2="429.45" y2="235.5" />
<g id="atom_O_65_text">
<text x="430.8" y="228" text-anchor="middle" font-family="verdana" font-size="8"><tspan y="228" dy="0.35em">O</tspan></text>
</g>
</g>
<g id="atom_N_66">
<line x1="440.55" y1="248.25" x2="437.3" y2="246.5" />
<line x1="447.05" y1="248.25" x2="450.3" y2="246.5" />
<g id="atom_N_66_text">
<text x="443.8" y="250" text-anchor="middle" font-family="verdana" font-size="8"><tspan y="250" dy="0.35em">N</tspan></text>
<text x="443.8" y="257.0" text-anchor="middle" font-family="verdana" font-size="8"><tspan y="257.0" dy="0.35em">H</tspan></text>
</g>
</g>
<g id="atom_C_61">
<line x1="450.8" y1="311.0" x2="443.8" y2="312.5" />
<line x1="448.8342714604267" y1="308.659933481991" x2="443.23427146042667" y2="309.859933481991" />
<line x1="450.8" y1="311.0" x2="453.3" y2="304.0" />
</g>
<g id="atom_C_62">
<line x1="455.8" y1="297.0" x2="453.3" y2="304.0" />
<line x1="455.8" y1="297.0" x2="450.3" y2="291.5" />
<line x1="452.7908116907963" y1="297.80918830920365" x2="448.39081169079634" y2="293.40918830920367" />
</g>
<g id="atom_C_67">
<line x1="456.8" y1="243.0" x2="450.3" y2="246.5" />
<polygon points="456.8,243.0 457.55,235.5 456.05,235.5" />
<line x1="456.8" y1="243.0" x2="463.3" y2="246.5" />
</g>
<g id="atom_C_69">
<polygon points="458.3,228.0 455.3,228.0 456.05,235.5 457.55,235.5" />
<line x1="456.8" y1="228.0" x2="463.3" y2="224.0" />
</g>
<g id="atom_C_77">
<line x1="469.8" y1="250.0" x2="463.3" y2="246.5" />
<line x1="471.1500000000001" y1="249.2730769230769" x2="471.15000000000003" y2="257.5" />
<line x1="468.45" y1="249.27307692307693" x2="468.45" y2="257.5" />
<line x1="469.8" y1="250.0" x2="476.3" y2="246.5" />
</g>
<g id="atom_C_70">
<line x1="469.8" y1="220.0" x2="463.3" y2="224.0" />
<line x1="469.8" y1="220.0" x2="476.3" y2="224.0" />
<line x1="472.5150630492937" y1="218.50052254489773" x2="477.7150630492937" y2="221.70052254489772" />
<line x1="469.8" y1="220.0" x2="469.8" y2="212.5" />
</g>
<g id="atom_C_71">
<line x1="482.8" y1="228.0" x2="476.3" y2="224.0" />
<line x1="482.9150630492937" y1="224.9005225448977" x2="477.7150630492937" y2="221.70052254489772" />
<line x1="482.8" y1="228.0" x2="489.3" y2="224.0" />
</g>
<g id="atom_C_76">
<line x1="469.8" y1="205.0" x2="469.8" y2="212.5" />
<line x1="469.8" y1="205.0" x2="476.3" y2="201.5" />
<line x1="472.38006952219456" y1="206.67727196978987" x2="477.58006952219455" y2="203.87727196978986" />
</g>
<g id="atom_C_72">
<line x1="495.8" y1="220.0" x2="489.3" y2="224.0" />
<line x1="495.8" y1="220.0" x2="495.8" y2="212.5" />
<line x1="493.1" y1="218.5" x2="493.1" y2="212.5" />
</g>
<g id="atom_C_73">
<line x1="495.8" y1="205.0" x2="495.8" y2="212.5" />
<line x1="493.1" y1="206.5" x2="493.1" y2="212.5" />
<line x1="495.8" y1="205.0" x2="502.3" y2="201.5" />
<line x1="495.8" y1="205.0" x2="489.3" y2="201.5" />
</g>
<g id="atom_O_74">
<line x1="505.55" y1="199.75" x2="502.3" y2="201.5" />
<g id="atom_O_74_text">
<text x="508.8" y="198" text-anchor="middle" font-family="verdana" font-size="8"><tspan y="198" dy="0.35em">O</tspan></text>
<text x="514.8" y="198.0" text-anchor="middle" font-family="verdana" font-size="8"><tspan y="198.0" dy="0.35em">H</tspan></text>
</g>
</g>
<g id="atom_C_75">
<line x1="482.8" y1="198.0" x2="489.3" y2="201.5" />
<line x1="482.8" y1="198.0" x2="476.3" y2="201.5" />
<line x1="482.78006952219454" y1="201.07727196978985" x2="477.58006952219455" y2="203.87727196978986" />
</g>
<g id="atom_O_78">
<line x1="471.15000000000003" y1="261.25" x2="471.15000000000003" y2="257.5" />
<line x1="468.45" y1="261.25" x2="468.45" y2="257.5" />
<g id="atom_O_78_text">
<text x="469.8" y="265" text-anchor="middle" font-family="verdana" font-size="8"><tspan y="265" dy="0.35em">O</tspan></text>
</g>
</g>
<g id="atom_N_79">
<line x1="479.55" y1="244.75" x2="476.3" y2="246.5" />
<line x1="486.05" y1="244.75" x2="489.3" y2="246.5" />
<g id="atom_N_79_text">
<text x="482.8" y="243" text-anchor="middle" font-family="verdana" font-size="8"><tspan y="243" dy="0.35em">N</tspan></text>
<text x="482.8" y="236.0" text-anchor="middle" font-family="verdana" font-size="8"><tspan y="236.0" dy="0.35em">H</tspan></text>
</g>
</g>
<g id="atom_C_80">
<line x1="495.8" y1="250.0" x2="489.3" y2="246.5" />
<line x1="495.8" y1="250.0" x2="495.8" y2="257.5" />
<g id="chiral-bond-back" stroke="black" stroke-width="1">
  <line x1="495.8" y1="250.0" x2="495.8" y2="250.0" />
  <line x1="498.25777005308953" y1="248.33585867002336" x2="498.54222994691054" y2="248.86414132997663" />
  <line x1="500.715540106179" y1="246.67171734004668" x2="501.284459893821" y2="247.7282826599533" />
</g>
</g>
<g id="atom_C_82">
<line x1="495.8" y1="265.0" x2="495.8" y2="257.5" />
<line x1="495.8" y1="265.0" x2="502.3" y2="269.0" />
<g id="chiral-bond-back" stroke="black" stroke-width="1">
  <line x1="495.8" y1="265.0" x2="495.8" y2="265.0" />
  <line x1="493.0427707723007" y1="266.34450250498867" x2="493.3572292276993" y2="266.8554974950114" />
  <line x1="490.2855415446014" y1="267.6890050099773" x2="490.91445845539863" y2="268.7109949900227" />
</g>
</g>
<g id="atom_C_87">
<g id="chiral-bond-back" stroke="black" stroke-width="1">
  <line x1="508.0888502654475" y1="241.67929335011675" x2="509.51114973455253" y2="244.32070664988325" />
  <line x1="505.631080212358" y1="243.3434346800934" x2="506.768919787642" y2="245.45656531990662" />
  <line x1="503.1733101592685" y1="245.00757601007007" x2="504.02668984073154" y2="246.59242398992996" />
</g>
<line x1="510.1500000000001" y1="243.72692307692313" x2="510.15000000000003" y2="235.5" />
<line x1="507.45" y1="243.72692307692307" x2="507.45" y2="235.5" />
<line x1="508.8" y1="243.0" x2="515.3" y2="246.5" />
</g>
<g id="atom_C_84">
<line x1="508.8" y1="273.0" x2="502.3" y2="269.0" />
<line x1="508.8" y1="273.0" x2="508.8" y2="280.5" />
</g>
<g id="atom_C_86">
<g id="chiral-bond-back" stroke="black" stroke-width="1">
  <line x1="482.0138538615035" y1="271.72251252494317" x2="483.58614613849653" y2="274.27748747505683" />
  <line x1="484.7710830892028" y1="270.3780100199545" x2="486.02891691079725" y2="272.42198998004545" />
  <line x1="487.5283123169021" y1="269.03350751496595" x2="488.4716876830979" y2="270.5664924850341" />
</g>
</g>
<g id="atom_O_88">
<line x1="510.15000000000003" y1="231.75" x2="510.15000000000003" y2="235.5" />
<line x1="507.45" y1="231.75" x2="507.45" y2="235.5" />
<g id="atom_O_88_text">
<text x="508.8" y="228" text-anchor="middle" font-family="verdana" font-size="8"><tspan y="228" dy="0.35em">O</tspan></text>
</g>
</g>
<g id="atom_N_89">
<line x1="518.55" y1="248.25" x2="515.3" y2="246.5" />
<line x1="525.05" y1="248.25" x2="528.3" y2="246.5" />
<g id="atom_N_89_text">
<text x="521.8" y="250" text-anchor="middle" font-family="verdana" font-size="8"><tspan y="250" dy="0.35em">N</tspan></text>
<text x="521.8" y="257.0" text-anchor="middle" font-family="verdana" font-size="8"><tspan y="257.0" dy="0.35em">H</tspan></text>
</g>
</g>
<g id="atom_C_85">
<line x1="508.8" y1="288.0" x2="508.8" y2="280.5" />
</g>
<g id="atom_C_90">
<line x1="534.8" y1="243.0" x2="528.3" y2="246.5" />
<polygon points="534.8,243.0 535.55,235.5 534.05,235.5" />
<line x1="534.8" y1="243.0" x2="541.3" y2="246.5" />
</g>
<g id="atom_C_92">
<polygon points="536.3,228.0 533.3,228.0 534.05,235.5 535.55,235.5" />
<line x1="534.8" y1="228.0" x2="541.3" y2="224.0" />
</g>
<g id="atom_C_102">
<line x1="547.8" y1="250.0" x2="541.3" y2="246.5" />
<line x1="549.15" y1="249.27307692307684" x2="549.15" y2="257.5" />
<line x1="546.4499999999998" y1="249.2730769230769" x2="546.4499999999999" y2="257.5" />
<line x1="547.8" y1="250.0" x2="554.3" y2="246.5" />
</g>
<g id="atom_C_93">
<line x1="547.8" y1="220.0" x2="541.3" y2="224.0" />
<line x1="547.8" y1="220.0" x2="554.8" y2="223.5" />
<line x1="550.4074767078498" y1="218.2850465843002" x2="556.0074767078498" y2="221.08504658430022" />
<line x1="547.8" y1="220.0" x2="548.8" y2="213.0" />
</g>
<g id="atom_C_94">
<line x1="561.8" y1="227.0" x2="554.8" y2="223.5" />
<line x1="561.6074767078499" y1="223.88504658430023" x2="556.0074767078498" y2="221.08504658430022" />
<line x1="561.8" y1="227.0" x2="566.8" y2="221.0" />
</g>
<g id="atom_C_96">
<line x1="549.8" y1="206.0" x2="548.8" y2="213.0" />
<line x1="549.8" y1="206.0" x2="556.8" y2="204.0" />
<line x1="551.9417470453228" y1="208.19611465863022" x2="557.5417470453228" y2="206.59611465863023" />
<line x1="549.8" y1="206.0" x2="544.8" y2="200.0" />
</g>
<g id="atom_N_95">
<line x1="569.3" y1="218.0" x2="566.8" y2="221.0" />
<line x1="569.8" y1="211.75" x2="567.8" y2="208.5" />
<g id="atom_N_95_text">
<text x="571.8" y="215" text-anchor="middle" font-family="verdana" font-size="8"><tspan y="215" dy="0.35em">N</tspan></text>
<text x="577.8" y="215.0" text-anchor="middle" font-family="verdana" font-size="8"><tspan y="215.0" dy="0.35em">H</tspan></text>
</g>
</g>
<g id="atom_C_97">
<line x1="563.8" y1="202.0" x2="567.8" y2="208.5" />
<line x1="563.8" y1="202.0" x2="556.8" y2="204.0" />
<line x1="563.1417470453229" y1="204.99611465863023" x2="557.5417470453228" y2="206.59611465863023" />
<line x1="563.8" y1="202.0" x2="566.3" y2="195.0" />
</g>
<g id="atom_C_98">
<line x1="568.8" y1="188.0" x2="566.3" y2="195.0" />
<line x1="568.8" y1="188.0" x2="563.8" y2="182.5" />
<line x1="565.802161801831" y1="188.71621654379004" x2="561.802161801831" y2="184.31621654379003" />
</g>
<g id="atom_C_101">
<line x1="539.8" y1="194.0" x2="544.8" y2="200.0" />
<line x1="539.8" y1="194.0" x2="541.8" y2="187.0" />
<line x1="542.7961146586301" y1="193.3417470453229" x2="544.3961146586302" y2="187.7417470453229" />
</g>
<g id="atom_O_103">
<line x1="549.15" y1="261.25" x2="549.15" y2="257.5" />
<line x1="546.4499999999999" y1="261.25" x2="546.4499999999999" y2="257.5" />
<g id="atom_O_103_text">
<text x="547.8" y="265" text-anchor="middle" font-family="verdana" font-size="8"><tspan y="265" dy="0.35em">O</tspan></text>
</g>
</g>
<g id="atom_N_104">
<line x1="557.55" y1="244.75" x2="554.3" y2="246.5" />
<line x1="564.05" y1="244.75" x2="567.3" y2="246.5" />
<g id="atom_N_104_text">
<text x="560.8" y="243" text-anchor="middle" font-family="verdana" font-size="8"><tspan y="243" dy="0.35em">N</tspan></text>
<text x="560.8" y="236.0" text-anchor="middle" font-family="verdana" font-size="8"><tspan y="236.0" dy="0.35em">H</tspan></text>
</g>
</g>
<g id="atom_C_99">
<line x1="558.8" y1="177.0" x2="563.8" y2="182.5" />
<line x1="557.802161801831" y1="179.91621654379003" x2="561.802161801831" y2="184.31621654379003" />
<line x1="558.8" y1="177.0" x2="551.3" y2="178.5" />
</g>
<g id="atom_C_100">
<line x1="543.8" y1="180.0" x2="551.3" y2="178.5" />
<line x1="543.8" y1="180.0" x2="541.8" y2="187.0" />
<line x1="545.9961146586302" y1="182.14174704532292" x2="544.3961146586302" y2="187.7417470453229" />
</g>
<g id="atom_C_105">
<line x1="573.8" y1="250.0" x2="567.3" y2="246.5" />
<line x1="573.8" y1="250.0" x2="573.8" y2="257.5" />
<g id="chiral-bond-back" stroke="black" stroke-width="1">
  <line x1="573.8" y1="250.0" x2="573.8" y2="250.0" />
  <line x1="576.2577700530894" y1="248.33585867002336" x2="576.5422299469105" y2="248.86414132997663" />
  <line x1="578.715540106179" y1="246.67171734004668" x2="579.284459893821" y2="247.7282826599533" />
</g>
</g>
<g id="atom_C_107">
<line x1="573.8" y1="265.0" x2="573.8" y2="257.5" />
<line x1="573.8" y1="265.0" x2="573.8" y2="272.5" />
</g>
<g id="atom_C_115">
<g id="chiral-bond-back" stroke="black" stroke-width="1">
  <line x1="586.0888502654474" y1="241.67929335011675" x2="587.5111497345525" y2="244.32070664988325" />
  <line x1="583.6310802123579" y1="243.3434346800934" x2="584.768919787642" y2="245.45656531990662" />
  <line x1="581.1733101592683" y1="245.00757601007007" x2="582.0266898407315" y2="246.59242398992996" />
</g>
<line x1="588.15" y1="243.7269230769231" x2="588.15" y2="235.5" />
<line x1="585.4499999999998" y1="243.72692307692307" x2="585.4499999999999" y2="235.5" />
<line x1="586.8" y1="243.0" x2="593.3" y2="246.5" />
</g>
<g id="atom_C_108">
<line x1="573.8" y1="280.0" x2="573.8" y2="272.5" />
<line x1="573.8" y1="280.0" x2="567.8" y2="284.0" />
<line x1="574.097690529808" y1="283.0465357947122" x2="569.297690529808" y2="286.2465357947122" />
<line x1="573.8" y1="280.0" x2="580.8" y2="284.0" />
</g>
<g id="atom_C_109">
<line x1="561.8" y1="288.0" x2="567.8" y2="284.0" />
<line x1="564.4976905298081" y1="289.4465357947122" x2="569.297690529808" y2="286.2465357947122" />
<line x1="561.8" y1="288.0" x2="561.8" y2="295.5" />
</g>
<g id="atom_C_114">
<line x1="587.8" y1="288.0" x2="580.8" y2="284.0" />
<line x1="587.8" y1="288.0" x2="587.8" y2="295.5" />
<line x1="585.0999999999999" y1="289.5" x2="585.0999999999999" y2="295.5" />
</g>
<g id="atom_C_110">
<line x1="561.8" y1="303.0" x2="561.8" y2="295.5" />
<line x1="561.8" y1="303.0" x2="568.3" y2="306.5" />
<line x1="564.3800695221945" y1="301.3227280302101" x2="569.5800695221945" y2="304.1227280302101" />
</g>
<g id="atom_C_111">
<line x1="574.8" y1="310.0" x2="568.3" y2="306.5" />
<line x1="574.7800695221946" y1="306.9227280302101" x2="569.5800695221945" y2="304.1227280302101" />
<line x1="574.8" y1="310.0" x2="574.8" y2="317.5" />
<line x1="574.8" y1="310.0" x2="581.3" y2="306.5" />
</g>
<g id="atom_O_112">
<line x1="574.8" y1="321.25" x2="574.8" y2="317.5" />
<g id="atom_O_112_text">
<text x="574.8" y="325" text-anchor="middle" font-family="verdana" font-size="8"><tspan y="325" dy="0.35em">O</tspan></text>
<text x="580.8" y="325.0" text-anchor="middle" font-family="verdana" font-size="8"><tspan y="325.0" dy="0.35em">H</tspan></text>
</g>
</g>
<g id="atom_C_113">
<line x1="587.8" y1="303.0" x2="581.3" y2="306.5" />
<line x1="587.8" y1="303.0" x2="587.8" y2="295.5" />
<line x1="585.0999999999999" y1="301.5" x2="585.0999999999999" y2="295.5" />
</g>
<g id="atom_O_116">
<line x1="588.15" y1="231.75" x2="588.15" y2="235.5" />
<line x1="585.4499999999999" y1="231.75" x2="585.4499999999999" y2="235.5" />
<g id="atom_O_116_text">
<text x="586.8" y="228" text-anchor="middle" font-family="verdana" font-size="8"><tspan y="228" dy="0.35em">O</tspan></text>
</g>
</g>
<g id="atom_N_205">
<line x1="596.55" y1="248.25" x2="593.3" y2="246.5" />
<line x1="603.55" y1="250.0" x2="607.3" y2="250.0" />
<g id="atom_N_205_text">
<text x="599.8" y="250" text-anchor="middle" font-family="verdana" font-size="8"><tspan y="250" dy="0.35em">N</tspan></text>
<text x="599.8" y="257.0" text-anchor="middle" font-family="verdana" font-size="8"><tspan y="257.0" dy="0.35em">H</tspan></text>
</g>
</g>
<g id="atom_Follower_204">
<line x1="611.05" y1="250.0" x2="607.3" y2="250.0" />
</g>
</g>
</svg>