<svg width="965.0" height="321" viewBox="0 0 965.0 321" xmlns="http://www.w3.org/2000/svg">
<style> line {stroke: black; stroke_width: 1px;} polygon {fill: black;} </style>
<g id="domain_circles">
<g id="domain_bubble_0">
<circle r="14" cx="30" cy="80" stroke="#df5d5d"
       fill="#f78181" stroke-width="1"/>
<text x="30.0" y="80" fill="black" text-anchor="middle" font-family="verdana" font-size = "13"><tspan y="80" dy="0.35em">AT</tspan></text>
</g>
<g id="domain_bubble_1">
<circle r="14" cx="59" cy="80" stroke="#3d79d6"
       fill="#81bef7" stroke-width="1"/>
<text x="59.0" y="80" fill="black" text-anchor="middle" font-family="verdana" font-size = "13"><tspan y="80" dy="0.35em">CP</tspan></text>
</g>
<g id="domain_bubble_2">
<circle r="14" cx="98" cy="80" stroke="#5fc65f"
       fill="#81f781" stroke-width="1"/>
<text x="98.0" y="80" fill="black" text-anchor="middle" font-family="verdana" font-size = "13"><tspan y="80" dy="0.35em">KS</tspan></text>
</g>
<g id="domain_bubble_3">
<circle r="14" cx="127" cy="80" stroke="#df5d5d"
       fill="#f78181" stroke-width="1"/>
<text x="127.0" y="80" fill="black" text-anchor="middle" font-family="verdana" font-size = "13"><tspan y="80" dy="0.35em">AT</tspan></text>
</g>
<g id="domain_bubble_4">
<circle r="14" cx="156" cy="80" stroke="#f1afb1"
       fill="#fbc0c0" stroke-width="1"/>
<text x="156.0" y="80" fill="#7c6060" text-anchor="middle" font-family="verdana" font-size = "13"><tspan y="80" dy="0.35em">AT</tspan></text>
</g>
<g id="domain_bubble_5">
<circle r="14" cx="184" cy="73" stroke="#e4cbb0"
       fill="#fbdec0" stroke-width="1"/>
<text x="184.0" y="73" fill="#7c6f60" text-anchor="middle" font-family="verdana" font-size = "13"><tspan y="73" dy="0.35em">DH</tspan></text>
</g>
<g id="domain_bubble_6">
<circle r="14" cx="213" cy="73" stroke="#afdcd7"
       fill="#c0fbfa" stroke-width="1"/>
<text x="213.0" y="73" fill="#607d7c" text-anchor="middle" font-family="verdana" font-size = "13"><tspan y="73" dy="0.35em">ER</tspan></text>
</g>
<g id="domain_bubble_7">
<circle r="14" cx="241" cy="80" stroke="#3d79d6"
       fill="#81bef7" stroke-width="1"/>
<text x="241.0" y="80" fill="black" text-anchor="middle" font-family="verdana" font-size = "13"><tspan y="80" dy="0.35em">CP</tspan></text>
</g>
<g id="domain_bubble_8">
<circle r="14" cx="280" cy="80" stroke="#5858b6"
       fill="#8181f7" stroke-width="1"/>
<text x="280.0" y="80" fill="black" text-anchor="middle" font-family="verdana" font-size = "13"><tspan y="80" dy="0.35em">C</tspan></text>
</g>
<g id="domain_bubble_9">
<circle r="14" cx="308" cy="73" stroke="#a2a2a2"
       fill="#dadada" stroke-width="1"/>
<text x="308.0" y="73" fill="black" text-anchor="middle" font-family="verdana" font-size = "13"><tspan y="73" dy="0.35em">nMT</tspan></text>
</g>
<g id="domain_bubble_10">
<circle r="14" cx="337" cy="73" stroke="#d0d0d0"
       fill="#ececec" stroke-width="1"/>
<text x="337.0" y="73" fill="#767676" text-anchor="middle" font-family="verdana" font-size = "13"><tspan y="73" dy="0.35em">nMT</tspan></text>
</g>
<g id="domain_bubble_11">
<circle r="14" cx="365" cy="80" stroke="#74399b"
       fill="#bc7ff5" stroke-width="1"/>
<text x="365.0" y="80" fill="black" text-anchor="middle" font-family="verdana" font-size = "13"><tspan y="80" dy="0.35em">A</tspan></text>
</g>
<g id="domain_bubble_12">
<circle r="14" cx="394" cy="80" stroke="#306dd2"
       fill="#81bef7" stroke-width="1"/>
<text x="394.0" y="80" fill="black" text-anchor="middle" font-family="verdana" font-size = "13"><tspan y="80" dy="0.35em">CP</tspan></text>
</g>
<g id="domain_bubble_13">
<circle r="14" cx="422" cy="73" stroke="#ababdb"
       fill="#c0c0fc" stroke-width="1"/>
<text x="422.0" y="73" fill="#60607e" text-anchor="middle" font-family="verdana" font-size = "13"><tspan y="73" dy="0.35em">E</tspan></text>
</g>
<g id="domain_bubble_14">
<circle r="14" cx="461" cy="80" stroke="#df5d5d"
       fill="#f78181" stroke-width="1"/>
<text x="461.0" y="80" fill="black" text-anchor="middle" font-family="verdana" font-size = "13"><tspan y="80" dy="0.35em">AT</tspan></text>
</g>
<g id="domain_bubble_15">
<circle r="14" cx="509" cy="73" stroke="#5fbb87"
       fill="#80f680" stroke-width="1"/>
<text x="509.0" y="73" fill="black" text-anchor="middle" font-family="verdana" font-size = "13"><tspan y="73" dy="0.35em">KR</tspan></text>
</g>
<g id="domain_bubble_16">
<circle r="14" cx="538" cy="73" stroke="#ca9862"
       fill="#f7be81" stroke-width="1"/>
<text x="538.0" y="73" fill="black" text-anchor="middle" font-family="verdana" font-size = "13"><tspan y="73" dy="0.35em">DH</tspan></text>
</g>
<g id="domain_bubble_17">
<circle r="14" cx="566" cy="80" stroke="#3d79d6"
       fill="#81bef7" stroke-width="1"/>
<text x="566.0" y="80" fill="black" text-anchor="middle" font-family="verdana" font-size = "13"><tspan y="80" dy="0.35em">CP</tspan></text>
</g>
<g id="domain_bubble_18">
<circle r="14" cx="605" cy="80" stroke="#df5d5d"
       fill="#f78181" stroke-width="1"/>
<text x="605.0" y="80" fill="black" text-anchor="middle" font-family="verdana" font-size = "13"><tspan y="80" dy="0.35em">AT</tspan></text>
</g>
<g id="domain_bubble_19">
<circle r="14" cx="653" cy="73" stroke="#5fbb87"
       fill="#80f680" stroke-width="1"/>
<text x="653.0" y="73" fill="black" text-anchor="middle" font-family="verdana" font-size = "13"><tspan y="73" dy="0.35em">KR</tspan></text>
</g>
<g id="domain_bubble_20">
<circle r="14" cx="682" cy="73" stroke="#ca9862"
       fill="#f7be81" stroke-width="1"/>
<text x="682.0" y="73" fill="black" text-anchor="middle" font-family="verdana" font-size = "13"><tspan y="73" dy="0.35em">DH</tspan></text>
</g>
<g id="domain_bubble_21">
<circle r="14" cx="710" cy="80" stroke="#3d79d6"
       fill="#81bef7" stroke-width="1"/>
<text x="710.0" y="80" fill="black" text-anchor="middle" font-family="verdana" font-size = "13"><tspan y="80" dy="0.35em">CP</tspan></text>
</g>
<g id="domain_bubble_22">
<circle r="14" cx="749" cy="80" stroke="#5858b6"
       fill="#8181f7" stroke-width="1"/>
<text x="749.0" y="80" fill="black" text-anchor="middle" font-family="verdana" font-size = "13"><tspan y="80" dy="0.35em">C</tspan></text>
</g>
<g id="domain_bubble_23">
<circle r="14" cx="778" cy="80" stroke="#ababdb"
       fill="#c0c0fc" stroke-width="1"/>
<text x="778.0" y="80" fill="#60607e" text-anchor="middle" font-family="verdana" font-size = "13"><tspan y="80" dy="0.35em">C</tspan></text>
</g>
<g id="domain_bubble_24">
<circle r="14" cx="807" cy="80" stroke="#74399b"
       fill="#bc7ff5" stroke-width="1"/>
<text x="807.0" y="80" fill="black" text-anchor="middle" font-family="verdana" font-size = "13"><tspan y="80" dy="0.35em">A</tspan></text>
</g>
<g id="domain_bubble_25">
<circle r="14" cx="836" cy="80" stroke="#ba9dce"
       fill="#ddbefb" stroke-width="1"/>
<text x="836.0" y="80" fill="#6d5e7e" text-anchor="middle" font-family="verdana" font-size = "13"><tspan y="80" dy="0.35em">A</tspan></text>
</g>
<g id="domain_bubble_26">
<circle r="14" cx="865" cy="80" stroke="#306dd2"
       fill="#81bef7" stroke-width="1"/>
<text x="865.0" y="80" fill="black" text-anchor="middle" font-family="verdana" font-size = "13"><tspan y="80" dy="0.35em">CP</tspan></text>
</g>
<g id="domain_bubble_27">
<circle r="14" cx="894" cy="80" stroke="#9ab8e9"
       fill="#c0defb" stroke-width="1"/>
<text x="894.0" y="80" fill="#606e7e" text-anchor="middle" font-family="verdana" font-size = "13"><tspan y="80" dy="0.35em">CP</tspan></text>
</g>
</g>
<g id="gene_rectangles">
<g id="gene_banner_Gene 1"><rect x="15.0" y="5" width="461.0" height="12" fill="black" /><text x="245.5" y="11.0" fill="white" text-anchor="middle" font-family="verdana" font-size = "8"><tspan y="11.0" dy="0.35em">Gene 1</tspan></text></g>
<g id="gene_banner_Gene 2"><rect x="495.0" y="5" width="125.0" height="12" fill="black" /><text x="557.5" y="11.0" fill="white" text-anchor="middle" font-family="verdana" font-size = "8"><tspan y="11.0" dy="0.35em">Gene 2</tspan></text></g>
<g id="gene_banner_Gene 3"><rect x="639.0" y="5" width="86.0" height="12" fill="black" /><text x="682.0" y="11.0" fill="white" text-anchor="middle" font-family="verdana" font-size = "8"><tspan y="11.0" dy="0.35em">Gene 3</tspan></text></g>
<g id="gene_banner_Gene 4"><rect x="734.0" y="5" width="175.0" height="12" fill="black" /><text x="821.5" y="11.0" fill="white" text-anchor="middle" font-family="verdana" font-size = "8"><tspan y="11.0" dy="0.35em">Gene 4</tspan></text></g>
</g>
<g id="module_labels">
<g id="module_label_0"><line x1="15.0" x2="73.0" y1="54" y2="54" stroke-width="2" stroke="black" />
<text x="44.0" y="46" fill="'black" text-anchor="middle" font-family="verdana" font-size = "12"><tspan y="46" dy="0.35em">Module 1</tspan></text>
</g>
<g id="module_label_1"><line x1="83.0" x2="255.0" y1="54" y2="54" stroke-width="2" stroke="black" />
<text x="169.0" y="46" fill="'black" text-anchor="middle" font-family="verdana" font-size = "12"><tspan y="46" dy="0.35em">Module 2</tspan></text>
</g>
<g id="module_label_2"><line x1="265.0" x2="436.0" y1="54" y2="54" stroke-width="2" stroke="black" />
<text x="350.5" y="46" fill="'black" text-anchor="middle" font-family="verdana" font-size = "12"><tspan y="46" dy="0.35em">Module 3</tspan></text>
</g>
<g id="module_label_3"><line x1="446.0" x2="580.0" y1="54" y2="54" stroke-width="2" stroke="black" />
<text x="513.0" y="46" fill="'black" text-anchor="middle" font-family="verdana" font-size = "12"><tspan y="46" dy="0.35em">Module 4</tspan></text>
</g>
<g id="module_label_4"><line x1="590.0" x2="724.0" y1="54" y2="54" stroke-width="2" stroke="black" />
<text x="657.0" y="46" fill="'black" text-anchor="middle" font-family="verdana" font-size = "12"><tspan y="46" dy="0.35em">Module 5</tspan></text>
</g>
<g id="module_label_5"><line x1="734.0" x2="908.0" y1="54" y2="54" stroke-width="2" stroke="black" />
<text x="821.0" y="46" fill="'black" text-anchor="middle" font-family="verdana" font-size = "12"><tspan y="46" dy="0.35em">Module 6</tspan></text>
</g>
</g>
<g id="unlabeled_s0">
<g id="atom_C_1_s0">
<line x1="52.0" y1="122.0" x2="55.5" y2="128.5" />
<line x1="52.7875" y1="120.65" x2="44.5" y2="120.65" />
<line x1="52.72692307692308" y1="123.35" x2="44.5" y2="123.35" />
<line x1="52.0" y1="122.0" x2="55.5" y2="116.0" />
</g>
<g id="atom_C_2_s0">
<line x1="59.0" y1="135.0" x2="55.5" y2="128.5" />
</g>
<g id="atom_O_3_s0">
<line x1="40.75" y1="120.65" x2="44.5" y2="120.65" />
<line x1="40.75" y1="123.35" x2="44.5" y2="123.35" />
<g id="atom_O_3_s0_text">
<text x="37.0" y="122" text-anchor="middle" font-family="verdana" font-size="8"><tspan y="122" dy="0.35em">O</tspan></text>
</g>
</g>
<g id="atom_S_9_s0">
<line x1="57.25" y1="113.0" x2="55.5" y2="116.0" />
<g id="atom_S_9_s0_text">
<text x="59.0" y="110" text-anchor="middle" font-family="verdana" font-size="8"><tspan y="110" dy="0.35em">S</tspan></text>
</g>
</g>
</g>
<g id="unlabeled_s1">
<g id="atom_C_1_s1">
<line x1="233.0" y1="148.0" x2="237.0" y2="154.5" />
<line x1="233.83076923076922" y1="146.65" x2="225.5" y2="146.65" />
<line x1="233.83076923076922" y1="149.35" x2="225.5" y2="149.35" />
<line x1="233.0" y1="148.0" x2="237.0" y2="141.5" />
</g>
<g id="atom_C_2_s1">
<line x1="241.0" y1="161.0" x2="237.0" y2="154.5" />
</g>
<g id="atom_O_3_s1">
<line x1="221.75" y1="146.65" x2="225.5" y2="146.65" />
<line x1="221.75" y1="149.35" x2="225.5" y2="149.35" />
<g id="atom_O_3_s1_text">
<text x="218.0" y="148" text-anchor="middle" font-family="verdana" font-size="8"><tspan y="148" dy="0.35em">O</tspan></text>
</g>
</g>
<g id="atom_O_0_s1">
<line x1="221.75" y1="120.65" x2="225.5" y2="120.65" />
<line x1="221.75" y1="123.35" x2="225.5" y2="123.35" />
<g id="atom_O_0_s1_text">
<text x="218.0" y="122" text-anchor="middle" font-family="verdana" font-size="8"><tspan y="122" dy="0.35em">O</tspan></text>
</g>
</g>
<g id="atom_C_4_s1">
<line x1="233.9" y1="120.65" x2="225.5" y2="120.65" />
<line x1="233.83076923076922" y1="123.35" x2="225.5" y2="123.35" />
<line x1="233.0" y1="122.0" x2="237.0" y2="128.5" />
<line x1="233.0" y1="122.0" x2="237.0" y2="116.0" />
</g>
<g id="atom_C_10_s1">
<line x1="241.0" y1="135.0" x2="237.0" y2="128.5" />
<g id="chiral-bond-back" stroke="black" stroke-width="1">
  <line x1="241.0" y1="135.0" x2="241.0" y2="135.0" />
  <line x1="244.0" y1="134.7" x2="244.0" y2="135.3" />
  <line x1="247.0" y1="134.4" x2="247.0" y2="135.6" />
</g>
<line x1="241.0" y1="135.0" x2="237.0" y2="141.5" />
</g>
<g id="atom_C_11_s1">
<g id="chiral-bond-back" stroke="black" stroke-width="1">
  <line x1="256.0" y1="133.5" x2="256.0" y2="136.5" />
  <line x1="253.0" y1="133.8" x2="253.0" y2="136.2" />
  <line x1="250.0" y1="134.1" x2="250.0" y2="135.9" />
</g>
</g>
<g id="atom_S_9_s1">
<line x1="239.0" y1="113.0" x2="237.0" y2="116.0" />
<g id="atom_S_9_s1_text">
<text x="241.0" y="110" text-anchor="middle" font-family="verdana" font-size="8"><tspan y="110" dy="0.35em">S</tspan></text>
</g>
</g>
</g>
<g id="unlabeled_s2">
<g id="atom_C_0_s2">
<line x1="372.0" y1="148.0" x2="379.5" y2="148.0" />
</g>
<g id="atom_N_9_s2">
<line x1="383.25" y1="148.0" x2="379.5" y2="148.0" />
<line x1="388.75" y1="144.75" x2="390.5" y2="141.5" />
<line x1="388.75" y1="151.25" x2="390.5" y2="154.5" />
<g id="atom_N_9_s2_text">
<text x="387.0" y="148" text-anchor="middle" font-family="verdana" font-size="8"><tspan y="148" dy="0.35em">N</tspan></text>
</g>
</g>
<g id="atom_C_8_s2">
<line x1="394.0" y1="135.0" x2="390.5" y2="141.5" />
<line x1="394.0" y1="135.0" x2="390.5" y2="128.5" />
</g>
<g id="atom_C_14_s2">
<line x1="394.0" y1="161.0" x2="390.5" y2="154.5" />
<line x1="393.2730769230769" y1="159.65" x2="401.5" y2="159.65" />
<line x1="393.2730769230769" y1="162.35" x2="401.5" y2="162.35" />
<line x1="394.0" y1="161.0" x2="390.5" y2="167.5" />
</g>
<g id="atom_C_7_s2">
<line x1="387.0" y1="122.0" x2="390.5" y2="128.5" />
<line x1="387.0" y1="122.0" x2="390.5" y2="116.0" />
<line x1="387.7875" y1="120.65" x2="379.5" y2="120.65" />
<line x1="387.7269230769231" y1="123.35" x2="379.5" y2="123.35" />
</g>
<g id="atom_S_6_s2">
<line x1="392.25" y1="113.0" x2="390.5" y2="116.0" />
<g id="atom_S_6_s2_text">
<text x="394.0" y="110" text-anchor="middle" font-family="verdana" font-size="8"><tspan y="110" dy="0.35em">S</tspan></text>
</g>
</g>
<g id="atom_O_11_s2">
<line x1="375.75" y1="120.65" x2="379.5" y2="120.65" />
<line x1="375.75" y1="123.35" x2="379.5" y2="123.35" />
<g id="atom_O_11_s2_text">
<text x="372.0" y="122" text-anchor="middle" font-family="verdana" font-size="8"><tspan y="122" dy="0.35em">O</tspan></text>
</g>
</g>
<g id="atom_O_15_s2">
<line x1="405.25" y1="159.65" x2="401.5" y2="159.65" />
<line x1="405.25" y1="162.35" x2="401.5" y2="162.35" />
<g id="atom_O_15_s2_text">
<text x="409.0" y="161" text-anchor="middle" font-family="verdana" font-size="8"><tspan y="161" dy="0.35em">O</tspan></text>
</g>
</g>
<g id="atom_C_16_s2">
<line x1="387.0" y1="174.0" x2="390.5" y2="167.5" />
<polygon points="387.0,174.0 379.0,173.25 379.0,174.75" />
<line x1="387.0" y1="174.0" x2="390.5" y2="180.5" />
</g>
<g id="atom_C_17_s2">
<polygon points="371.0,172.5 371.0,175.5 379.0,174.75 379.0,173.25" />
</g>
<g id="atom_C_20_s2">
<line x1="394.0" y1="187.0" x2="390.5" y2="180.5" />
<line x1="394.0" y1="187.0" x2="390.5" y2="193.5" />
<line x1="393.2730769230769" y1="185.65" x2="401.5" y2="185.65" />
<line x1="393.2730769230769" y1="188.35" x2="401.5" y2="188.35" />
</g>
<g id="atom_C_21_s2">
<line x1="387.0" y1="200.0" x2="390.5" y2="193.5" />
</g>
<g id="atom_O_25_s2">
<line x1="405.25" y1="185.65" x2="401.5" y2="185.65" />
<line x1="405.25" y1="188.35" x2="401.5" y2="188.35" />
<g id="atom_O_25_s2_text">
<text x="409.0" y="187" text-anchor="middle" font-family="verdana" font-size="8"><tspan y="187" dy="0.35em">O</tspan></text>
</g>
</g>
</g>
<g id="unlabeled_s3">
<g id="atom_C_0_s3">
<line x1="544.0" y1="174.0" x2="551.5" y2="174.0" />
</g>
<g id="atom_N_9_s3">
<line x1="555.25" y1="174.0" x2="551.5" y2="174.0" />
<line x1="560.75" y1="170.75" x2="562.5" y2="167.5" />
<line x1="560.75" y1="177.25" x2="562.5" y2="180.5" />
<g id="atom_N_9_s3_text">
<text x="559.0" y="174" text-anchor="middle" font-family="verdana" font-size="8"><tspan y="174" dy="0.35em">N</tspan></text>
</g>
</g>
<g id="atom_C_8_s3">
<line x1="566.0" y1="161.0" x2="562.5" y2="167.5" />
<line x1="566.0" y1="161.0" x2="562.5" y2="154.5" />
</g>
<g id="atom_C_14_s3">
<line x1="566.0" y1="187.0" x2="562.5" y2="180.5" />
<line x1="565.2730769230769" y1="185.65" x2="573.5" y2="185.65" />
<line x1="565.2730769230769" y1="188.35" x2="573.5" y2="188.35" />
<line x1="566.0" y1="187.0" x2="562.5" y2="193.5" />
</g>
<g id="atom_C_7_s3">
<line x1="559.0" y1="148.0" x2="562.5" y2="154.5" />
<line x1="559.0" y1="148.0" x2="562.5" y2="141.5" />
<line x1="562.0772719697899" y1="147.98006952219453" x2="564.8772719697898" y2="142.78006952219454" />
</g>
<g id="atom_C_28_s3">
<line x1="566.0" y1="135.0" x2="562.5" y2="141.5" />
<line x1="567.6772719697898" y1="137.58006952219455" x2="564.8772719697898" y2="142.78006952219454" />
<line x1="566.0" y1="135.0" x2="562.5" y2="128.5" />
<line x1="566.0" y1="135.0" x2="573.5" y2="135.0" />
</g>
<g id="atom_C_10_s3">
<line x1="559.0" y1="122.0" x2="562.5" y2="128.5" />
<line x1="559.7875" y1="120.65" x2="551.5" y2="120.65" />
<line x1="559.7269230769231" y1="123.35" x2="551.5" y2="123.35" />
<line x1="559.0" y1="122.0" x2="562.5" y2="116.0" />
</g>
<g id="atom_C_29_s3">
<line x1="581.0" y1="135.0" x2="573.5" y2="135.0" />
</g>
<g id="atom_O_1_s3">
<line x1="547.75" y1="120.65" x2="551.5" y2="120.65" />
<line x1="547.75" y1="123.35" x2="551.5" y2="123.35" />
<g id="atom_O_1_s3_text">
<text x="544.0" y="122" text-anchor="middle" font-family="verdana" font-size="8"><tspan y="122" dy="0.35em">O</tspan></text>
</g>
</g>
<g id="atom_S_6_s3">
<line x1="564.25" y1="113.0" x2="562.5" y2="116.0" />
<g id="atom_S_6_s3_text">
<text x="566.0" y="110" text-anchor="middle" font-family="verdana" font-size="8"><tspan y="110" dy="0.35em">S</tspan></text>
</g>
</g>
<g id="atom_O_15_s3">
<line x1="577.25" y1="185.65" x2="573.5" y2="185.65" />
<line x1="577.25" y1="188.35" x2="573.5" y2="188.35" />
<g id="atom_O_15_s3_text">
<text x="581.0" y="187" text-anchor="middle" font-family="verdana" font-size="8"><tspan y="187" dy="0.35em">O</tspan></text>
</g>
</g>
<g id="atom_C_16_s3">
<line x1="559.0" y1="200.0" x2="562.5" y2="193.5" />
<polygon points="559.0,200.0 551.5,199.25 551.5,200.75" />
<line x1="559.0" y1="200.0" x2="562.5" y2="206.5" />
</g>
<g id="atom_C_17_s3">
<polygon points="544.0,198.5 544.0,201.5 551.5,200.75 551.5,199.25" />
</g>
<g id="atom_C_20_s3">
<line x1="566.0" y1="213.0" x2="562.5" y2="206.5" />
<line x1="566.0" y1="213.0" x2="562.5" y2="219.5" />
<line x1="565.2730769230769" y1="211.65" x2="573.5" y2="211.65" />
<line x1="565.2730769230769" y1="214.35" x2="573.5" y2="214.35" />
</g>
<g id="atom_C_21_s3">
<line x1="559.0" y1="226.0" x2="562.5" y2="219.5" />
</g>
<g id="atom_O_25_s3">
<line x1="577.25" y1="211.65" x2="573.5" y2="211.65" />
<line x1="577.25" y1="214.35" x2="573.5" y2="214.35" />
<g id="atom_O_25_s3_text">
<text x="581.0" y="213" text-anchor="middle" font-family="verdana" font-size="8"><tspan y="213" dy="0.35em">O</tspan></text>
</g>
</g>
</g>
<g id="unlabeled_s4">
<g id="atom_C_0_s4">
<line x1="688.0" y1="200.0" x2="695.0" y2="200.0" />
</g>
<g id="atom_N_9_s4">
<line x1="698.5" y1="200.0" x2="695.0" y2="200.0" />
<line x1="704.0" y1="196.75" x2="706.0" y2="193.5" />
<line x1="704.0" y1="203.25" x2="706.0" y2="206.5" />
<g id="atom_N_9_s4_text">
<text x="702.0" y="200" text-anchor="middle" font-family="verdana" font-size="8"><tspan y="200" dy="0.35em">N</tspan></text>
</g>
</g>
<g id="atom_C_8_s4">
<line x1="710.0" y1="187.0" x2="706.0" y2="193.5" />
<line x1="710.0" y1="187.0" x2="706.0" y2="180.5" />
</g>
<g id="atom_C_14_s4">
<line x1="710.0" y1="213.0" x2="706.0" y2="206.5" />
<line x1="709.1692307692308" y1="211.65" x2="717.5" y2="211.65" />
<line x1="709.2730769230769" y1="214.35" x2="717.5" y2="214.35" />
<line x1="710.0" y1="213.0" x2="706.5" y2="219.5" />
</g>
<g id="atom_C_7_s4">
<line x1="702.0" y1="174.0" x2="706.0" y2="180.5" />
<line x1="702.0" y1="174.0" x2="706.0" y2="167.5" />
<line x1="705.0994774551023" y1="174.1150630492937" x2="708.2994774551023" y2="168.9150630492937" />
</g>
<g id="atom_C_28_s4">
<line x1="710.0" y1="161.0" x2="706.0" y2="167.5" />
<line x1="711.4994774551024" y1="163.71506304929372" x2="708.2994774551023" y2="168.9150630492937" />
<line x1="710.0" y1="161.0" x2="706.0" y2="154.5" />
<line x1="710.0" y1="161.0" x2="717.5" y2="161.0" />
</g>
<g id="atom_C_10_s4">
<line x1="702.0" y1="148.0" x2="706.0" y2="154.5" />
<line x1="702.0" y1="148.0" x2="706.0" y2="141.5" />
<line x1="705.0994774551023" y1="148.1150630492937" x2="708.2994774551023" y2="142.9150630492937" />
</g>
<g id="atom_C_29_s4">
<line x1="725.0" y1="161.0" x2="717.5" y2="161.0" />
</g>
<g id="atom_C_35_s4">
<line x1="710.0" y1="135.0" x2="706.0" y2="141.5" />
<line x1="711.4994774551024" y1="137.71506304929372" x2="708.2994774551023" y2="142.9150630492937" />
<line x1="710.0" y1="135.0" x2="706.0" y2="128.5" />
<line x1="710.0" y1="135.0" x2="717.5" y2="135.0" />
</g>
<g id="atom_C_30_s4">
<line x1="702.0" y1="122.0" x2="706.0" y2="128.5" />
<line x1="702.9" y1="120.65" x2="694.5" y2="120.65" />
<line x1="702.8307692307692" y1="123.35" x2="694.5" y2="123.35" />
<line x1="702.0" y1="122.0" x2="706.0" y2="116.0" />
</g>
<g id="atom_C_36_s4">
<line x1="725.0" y1="135.0" x2="717.5" y2="135.0" />
</g>
<g id="atom_O_11_s4">
<line x1="690.75" y1="120.65" x2="694.5" y2="120.65" />
<line x1="690.75" y1="123.35" x2="694.5" y2="123.35" />
<g id="atom_O_11_s4_text">
<text x="687.0" y="122" text-anchor="middle" font-family="verdana" font-size="8"><tspan y="122" dy="0.35em">O</tspan></text>
</g>
</g>
<g id="atom_S_6_s4">
<line x1="708.0" y1="113.0" x2="706.0" y2="116.0" />
<g id="atom_S_6_s4_text">
<text x="710.0" y="110" text-anchor="middle" font-family="verdana" font-size="8"><tspan y="110" dy="0.35em">S</tspan></text>
</g>
</g>
<g id="atom_O_15_s4">
<line x1="721.25" y1="211.65" x2="717.5" y2="211.65" />
<line x1="721.25" y1="214.35" x2="717.5" y2="214.35" />
<g id="atom_O_15_s4_text">
<text x="725.0" y="213" text-anchor="middle" font-family="verdana" font-size="8"><tspan y="213" dy="0.35em">O</tspan></text>
</g>
</g>
<g id="atom_C_16_s4">
<line x1="703.0" y1="226.0" x2="706.5" y2="219.5" />
<polygon points="703.0,226.0 695.0,225.25 695.0,226.75" />
<line x1="703.0" y1="226.0" x2="706.5" y2="232.5" />
</g>
<g id="atom_C_17_s4">
<polygon points="687.0,224.5 687.0,227.5 695.0,226.75 695.0,225.25" />
</g>
<g id="atom_C_20_s4">
<line x1="710.0" y1="239.0" x2="706.5" y2="232.5" />
<line x1="710.0" y1="239.0" x2="706.0" y2="245.5" />
<line x1="709.2730769230769" y1="237.65" x2="717.5" y2="237.65" />
<line x1="709.1692307692308" y1="240.35" x2="717.5" y2="240.35" />
</g>
<g id="atom_C_21_s4">
<line x1="702.0" y1="252.0" x2="706.0" y2="245.5" />
</g>
<g id="atom_O_25_s4">
<line x1="721.25" y1="237.65" x2="717.5" y2="237.65" />
<line x1="721.25" y1="240.35" x2="717.5" y2="240.35" />
<g id="atom_O_25_s4_text">
<text x="725.0" y="239" text-anchor="middle" font-family="verdana" font-size="8"><tspan y="239" dy="0.35em">O</tspan></text>
</g>
</g>
</g>
<g id="unlabeled_s5">
<g id="atom_C_23_s5">
<line x1="858.0" y1="122.0" x2="861.5" y2="116.0" />
<g id="chiral-bond-back" stroke="black" stroke-width="1">
  <line x1="856.6792933501167" y1="122.71114973455252" x2="859.3207066498833" y2="121.28885026544748" />
  <line x1="858.3434346800934" y1="125.16891978764201" x2="860.4565653199065" y2="124.03108021235798" />
  <line x1="860.00757601007" y1="127.62668984073152" x2="861.5924239899299" y2="126.77331015926849" />
</g>
<line x1="858.7875" y1="120.65" x2="850.5" y2="120.65" />
<line x1="858.7269230769231" y1="123.35" x2="850.5" y2="123.35" />
</g>
<g id="atom_S_1_s5">
<line x1="863.25" y1="113.0" x2="861.5" y2="116.0" />
<g id="atom_S_1_s5_text">
<text x="865.0" y="110" text-anchor="middle" font-family="verdana" font-size="8"><tspan y="110" dy="0.35em">S</tspan></text>
</g>
</g>
<g id="atom_C_19_s5">
<g id="chiral-bond-back" stroke="black" stroke-width="1">
  <line x1="865.0" y1="135.0" x2="865.0" y2="135.0" />
  <line x1="863.3358586700234" y1="132.5422299469105" x2="863.8641413299766" y2="132.2577700530895" />
  <line x1="861.6717173400467" y1="130.08445989382102" x2="862.7282826599534" y2="129.515540106179" />
</g>
<line x1="865.0" y1="135.0" x2="872.5" y2="135.0" />
<line x1="865.0" y1="135.0" x2="861.5" y2="141.5" />
</g>
<g id="atom_O_24_s5">
<line x1="846.75" y1="120.65" x2="850.5" y2="120.65" />
<line x1="846.75" y1="123.35" x2="850.5" y2="123.35" />
<g id="atom_O_24_s5_text">
<text x="843.0" y="122" text-anchor="middle" font-family="verdana" font-size="8"><tspan y="122" dy="0.35em">O</tspan></text>
</g>
</g>
<g id="atom_C_18_s5">
<line x1="880.0" y1="135.0" x2="872.5" y2="135.0" />
<line x1="880.0" y1="135.0" x2="887.0" y2="138.0" />
</g>
<g id="atom_N_25_s5">
<line x1="859.75" y1="144.75" x2="861.5" y2="141.5" />
<line x1="859.75" y1="151.25" x2="861.5" y2="154.5" />
<g id="atom_N_25_s5_text">
<text x="858.0" y="148" text-anchor="middle" font-family="verdana" font-size="8"><tspan y="148" dy="0.35em">N</tspan></text>
<text x="852.0" y="148.0" text-anchor="middle" font-family="verdana" font-size="8"><tspan y="148.0" dy="0.35em">H</tspan></text>
</g>
</g>
<g id="atom_C_14_s5">
<line x1="894.0" y1="141.0" x2="887.0" y2="138.0" />
<line x1="894.0" y1="141.0" x2="900.5" y2="136.5" />
<line x1="894.0" y1="141.0" x2="896.0" y2="148.0" />
<line x1="896.9961146586302" y1="141.6582529546771" x2="898.5961146586302" y2="147.2582529546771" />
</g>
<g id="atom_C_7_s5">
<line x1="907.0" y1="132.0" x2="900.5" y2="136.5" />
<line x1="907.0" y1="132.0" x2="913.0" y2="136.5" />
<line x1="906.58" y1="135.06" x2="911.38" y2="138.66" />
<line x1="907.0" y1="132.0" x2="908.0" y2="124.5" />
</g>
<g id="atom_C_13_s5">
<line x1="898.0" y1="155.0" x2="896.0" y2="148.0" />
<line x1="900.1961146586302" y1="152.85825295467708" x2="898.5961146586302" y2="147.2582529546771" />
<line x1="898.0" y1="155.0" x2="905.5" y2="155.5" />
</g>
<g id="atom_C_6_s5">
<line x1="919.0" y1="141.0" x2="913.0" y2="136.5" />
<line x1="916.18" y1="142.26" x2="911.38" y2="138.66" />
<line x1="919.0" y1="141.0" x2="925.5" y2="138.5" />
<line x1="919.0" y1="141.0" x2="916.0" y2="148.5" />
</g>
<g id="atom_C_8_s5">
<line x1="909.0" y1="117.0" x2="908.0" y2="124.5" />
<line x1="909.0" y1="117.0" x2="916.0" y2="114.5" />
<line x1="911.308108271895" y1="119.04270316130606" x2="916.908108271895" y2="117.04270316130606" />
</g>
<g id="atom_C_5_s5">
<line x1="932.0" y1="136.0" x2="925.5" y2="138.5" />
<line x1="932.0" y1="136.0" x2="933.5" y2="128.5" />
<line x1="929.6524321756344" y1="133.9704864351269" x2="930.8524321756345" y2="127.9704864351269" />
</g>
<g id="atom_N_12_s5">
<line x1="914.5" y1="152.25" x2="916.0" y2="148.5" />
<line x1="909.25" y1="155.75" x2="905.5" y2="155.5" />
<g id="atom_N_12_s5_text">
<text x="913.0" y="156" text-anchor="middle" font-family="verdana" font-size="8"><tspan y="156" dy="0.35em">N</tspan></text>
<text x="913.0" y="163.0" text-anchor="middle" font-family="verdana" font-size="8"><tspan y="163.0" dy="0.35em">H</tspan></text>
</g>
</g>
<g id="atom_C_4_s5">
<line x1="935.0" y1="121.0" x2="933.5" y2="128.5" />
<line x1="932.0524321756345" y1="121.9704864351269" x2="930.8524321756345" y2="127.9704864351269" />
<line x1="935.0" y1="121.0" x2="929.0" y2="116.5" />
</g>
<g id="atom_C_3_s5">
<line x1="923.0" y1="112.0" x2="929.0" y2="116.5" />
<line x1="923.0" y1="112.0" x2="916.0" y2="114.5" />
<line x1="922.508108271895" y1="115.04270316130606" x2="916.908108271895" y2="117.04270316130606" />
</g>
<g id="atom_C_29_s5">
<line x1="865.0" y1="161.0" x2="861.5" y2="154.5" />
<line x1="865.0" y1="161.0" x2="861.5" y2="167.5" />
<line x1="864.2730769230769" y1="159.65" x2="872.5" y2="159.65" />
<line x1="864.2730769230769" y1="162.35" x2="872.5" y2="162.35" />
</g>
<g id="atom_C_31_s5">
<line x1="858.0" y1="174.0" x2="861.5" y2="167.5" />
<line x1="858.0" y1="174.0" x2="861.5" y2="180.5" />
<line x1="856.3227280302102" y1="176.58006952219455" x2="859.1227280302102" y2="181.78006952219454" />
<line x1="858.0" y1="174.0" x2="850.5" y2="174.0" />
</g>
<g id="atom_O_30_s5">
<line x1="876.25" y1="159.65" x2="872.5" y2="159.65" />
<line x1="876.25" y1="162.35" x2="872.5" y2="162.35" />
<g id="atom_O_30_s5_text">
<text x="880.0" y="161" text-anchor="middle" font-family="verdana" font-size="8"><tspan y="161" dy="0.35em">O</tspan></text>
</g>
</g>
<g id="atom_C_34_s5">
<line x1="865.0" y1="187.0" x2="861.5" y2="180.5" />
<line x1="861.9227280302101" y1="186.98006952219453" x2="859.1227280302102" y2="181.78006952219454" />
<line x1="865.0" y1="187.0" x2="861.5" y2="193.5" />
</g>
<g id="atom_C_32_s5">
<line x1="843.0" y1="174.0" x2="850.5" y2="174.0" />
</g>
<g id="atom_C_35_s5">
<line x1="858.0" y1="200.0" x2="861.5" y2="193.5" />
<line x1="858.0" y1="200.0" x2="861.5" y2="206.5" />
<line x1="856.3227280302102" y1="202.58006952219455" x2="859.1227280302102" y2="207.78006952219454" />
<line x1="858.0" y1="200.0" x2="850.5" y2="200.0" />
</g>
<g id="atom_C_41_s5">
<line x1="865.0" y1="213.0" x2="861.5" y2="206.5" />
<line x1="861.9227280302101" y1="212.98006952219453" x2="859.1227280302102" y2="207.78006952219454" />
<line x1="865.0" y1="213.0" x2="861.5" y2="219.5" />
</g>
<g id="atom_C_36_s5">
<line x1="843.0" y1="200.0" x2="850.5" y2="200.0" />
</g>
<g id="atom_C_42_s5">
<line x1="858.0" y1="226.0" x2="861.5" y2="219.5" />
<line x1="858.0" y1="226.0" x2="861.5" y2="232.5" />
</g>
<g id="atom_N_43_s5">
<line x1="863.25" y1="235.75" x2="861.5" y2="232.5" />
<line x1="868.75" y1="239.0" x2="872.5" y2="239.0" />
<line x1="863.25" y1="242.25" x2="861.5" y2="245.5" />
<g id="atom_N_43_s5_text">
<text x="865.0" y="239" text-anchor="middle" font-family="verdana" font-size="8"><tspan y="239" dy="0.35em">N</tspan></text>
</g>
</g>
<g id="atom_C_51_s5">
<line x1="880.0" y1="239.0" x2="872.5" y2="239.0" />
</g>
<g id="atom_C_44_s5">
<line x1="858.0" y1="252.0" x2="861.5" y2="245.5" />
<line x1="858.7269230769231" y1="250.65" x2="850.5" y2="250.65" />
<line x1="858.7269230769231" y1="253.35" x2="850.5" y2="253.35" />
<line x1="858.0" y1="252.0" x2="861.5" y2="258.5" />
</g>
<g id="atom_O_45_s5">
<line x1="846.75" y1="250.65" x2="850.5" y2="250.65" />
<line x1="846.75" y1="253.35" x2="850.5" y2="253.35" />
<g id="atom_O_45_s5_text">
<text x="843.0" y="252" text-anchor="middle" font-family="verdana" font-size="8"><tspan y="252" dy="0.35em">O</tspan></text>
</g>
</g>
<g id="atom_C_53_s5">
<line x1="865.0" y1="265.0" x2="861.5" y2="258.5" />
<g id="chiral-bond-back" stroke="black" stroke-width="1">
  <line x1="865.0" y1="265.0" x2="865.0" y2="265.0" />
  <line x1="868.0" y1="264.7" x2="868.0" y2="265.3" />
  <line x1="871.0" y1="264.4" x2="871.0" y2="265.6" />
</g>
<line x1="865.0" y1="265.0" x2="861.5" y2="271.5" />
</g>
<g id="atom_C_54_s5">
<g id="chiral-bond-back" stroke="black" stroke-width="1">
  <line x1="880.0" y1="263.5" x2="880.0" y2="266.5" />
  <line x1="877.0" y1="263.8" x2="877.0" y2="266.2" />
  <line x1="874.0" y1="264.1" x2="874.0" y2="265.9" />
</g>
</g>
<g id="atom_C_59_s5">
<line x1="858.0" y1="278.0" x2="861.5" y2="271.5" />
<line x1="858.0" y1="278.0" x2="861.5" y2="284.5" />
<line x1="858.7269230769231" y1="276.65" x2="850.5" y2="276.65" />
<line x1="858.7269230769231" y1="279.35" x2="850.5" y2="279.35" />
</g>
<g id="atom_C_60_s5">
<line x1="865.0" y1="291.0" x2="861.5" y2="284.5" />
</g>
<g id="atom_O_64_s5">
<line x1="846.75" y1="276.65" x2="850.5" y2="276.65" />
<line x1="846.75" y1="279.35" x2="850.5" y2="279.35" />
<g id="atom_O_64_s5_text">
<text x="843.0" y="278" text-anchor="middle" font-family="verdana" font-size="8"><tspan y="278" dy="0.35em">O</tspan></text>
</g>
</g>
</g>
<path d="M 59.0 105 Q 54.0 105.0, 59.0 100.0 T 59.0 95" stroke="grey" fill="white"/><path d="M 241.0 105 Q 236.0 105.0, 241.0 100.0 T 241.0 95" stroke="grey" fill="white"/><path d="M 394.0 105 Q 389.0 105.0, 394.0 100.0 T 394.0 95" stroke="grey" fill="white"/><path d="M 566.0 105 Q 561.0 105.0, 566.0 100.0 T 566.0 95" stroke="grey" fill="white"/><path d="M 710.0 105 Q 705.0 105.0, 710.0 100.0 T 710.0 95" stroke="grey" fill="white"/><path d="M 865.0 105 Q 860.0 105.0, 865.0 100.0 T 865.0 95" stroke="grey" fill="white"/></svg>