<svg width="731.0" height="348" viewBox="0 0 731.0 348" xmlns="http://www.w3.org/2000/svg">
<style> line {stroke: black; stroke_width: 1px;} polygon {fill: black;} </style>
<g id="domain_circles">
<g id="domain_bubble_0">
<circle r="14" cx="44" cy="80" stroke="#3d79d6"
       fill="#81bef7" stroke-width="1"/>
<text x="44.0" y="80" fill="black" text-anchor="middle" font-family="verdana" font-size = "13"><tspan y="80" dy="0.35em">CP</tspan></text>
</g>
<g id="domain_bubble_1">
<circle r="14" cx="83" cy="80" stroke="#5fc65f"
       fill="#81f781" stroke-width="1"/>
<text x="83.0" y="80" fill="black" text-anchor="middle" font-family="verdana" font-size = "13"><tspan y="80" dy="0.35em">KS</tspan></text>
</g>
<g id="domain_bubble_2">
<circle r="14" cx="111" cy="73" stroke="#5fbb87"
       fill="#80f680" stroke-width="1"/>
<text x="111.0" y="73" fill="black" text-anchor="middle" font-family="verdana" font-size = "13"><tspan y="73" dy="0.35em">KR</tspan></text>
</g>
<g id="domain_bubble_3">
<circle r="14" cx="139" cy="80" stroke="#3d79d6"
       fill="#81bef7" stroke-width="1"/>
<text x="139.0" y="80" fill="black" text-anchor="middle" font-family="verdana" font-size = "13"><tspan y="80" dy="0.35em">CP</tspan></text>
</g>
<g id="domain_bubble_4">
<circle r="14" cx="178" cy="80" stroke="#5fc65f"
       fill="#81f781" stroke-width="1"/>
<text x="178.0" y="80" fill="black" text-anchor="middle" font-family="verdana" font-size = "13"><tspan y="80" dy="0.35em">KS</tspan></text>
</g>
<g id="domain_bubble_5">
<circle r="14" cx="206" cy="73" stroke="#ca9862"
       fill="#f7be81" stroke-width="1"/>
<text x="206.0" y="73" fill="black" text-anchor="middle" font-family="verdana" font-size = "13"><tspan y="73" dy="0.35em">DH</tspan></text>
</g>
<g id="domain_bubble_6">
<circle r="14" cx="235" cy="73" stroke="#5fbb87"
       fill="#80f680" stroke-width="1"/>
<text x="235.0" y="73" fill="black" text-anchor="middle" font-family="verdana" font-size = "13"><tspan y="73" dy="0.35em">KR</tspan></text>
</g>
<g id="domain_bubble_7">
<circle r="14" cx="283" cy="80" stroke="#3d79d6"
       fill="#81bef7" stroke-width="1"/>
<text x="283.0" y="80" fill="black" text-anchor="middle" font-family="verdana" font-size = "13"><tspan y="80" dy="0.35em">CP</tspan></text>
</g>
<g id="domain_bubble_8">
<circle r="14" cx="322" cy="80" stroke="#5fc65f"
       fill="#81f781" stroke-width="1"/>
<text x="322.0" y="80" fill="black" text-anchor="middle" font-family="verdana" font-size = "13"><tspan y="80" dy="0.35em">KS</tspan></text>
</g>
<g id="domain_bubble_9">
<circle r="14" cx="350" cy="73" stroke="#ca9862"
       fill="#f7be81" stroke-width="1"/>
<text x="350.0" y="73" fill="black" text-anchor="middle" font-family="verdana" font-size = "13"><tspan y="73" dy="0.35em">DH</tspan></text>
</g>
<g id="domain_bubble_10">
<circle r="14" cx="379" cy="73" stroke="#5fbb87"
       fill="#80f680" stroke-width="1"/>
<text x="379.0" y="73" fill="black" text-anchor="middle" font-family="verdana" font-size = "13"><tspan y="73" dy="0.35em">KR</tspan></text>
</g>
<g id="domain_bubble_11">
<circle r="14" cx="407" cy="80" stroke="#3d79d6"
       fill="#81bef7" stroke-width="1"/>
<text x="407.0" y="80" fill="black" text-anchor="middle" font-family="verdana" font-size = "13"><tspan y="80" dy="0.35em">CP</tspan></text>
</g>
<g id="domain_bubble_12">
<circle r="14" cx="453" cy="80" stroke="#5fc65f"
       fill="#81f781" stroke-width="1"/>
<text x="453.0" y="80" fill="black" text-anchor="middle" font-family="verdana" font-size = "13"><tspan y="80" dy="0.35em">KS</tspan></text>
</g>
<g id="domain_bubble_13">
<circle r="14" cx="482" cy="80" stroke="#3d79d6"
       fill="#81bef7" stroke-width="1"/>
<text x="482.0" y="80" fill="black" text-anchor="middle" font-family="verdana" font-size = "13"><tspan y="80" dy="0.35em">CP</tspan></text>
</g>
<g id="domain_bubble_14">
<circle r="14" cx="521" cy="80" stroke="#5858b6"
       fill="#8181f7" stroke-width="1"/>
<text x="521.0" y="80" fill="black" text-anchor="middle" font-family="verdana" font-size = "13"><tspan y="80" dy="0.35em">C</tspan></text>
</g>
<g id="domain_bubble_15">
<circle r="14" cx="549" cy="73" stroke="#a2a2a2"
       fill="#dadada" stroke-width="1"/>
<text x="549.0" y="73" fill="black" text-anchor="middle" font-family="verdana" font-size = "13"><tspan y="73" dy="0.35em">nMT</tspan></text>
</g>
<g id="domain_bubble_16">
<circle r="14" cx="577" cy="80" stroke="#74399b"
       fill="#bc7ff5" stroke-width="1"/>
<text x="577.0" y="80" fill="black" text-anchor="middle" font-family="verdana" font-size = "13"><tspan y="80" dy="0.35em">A</tspan></text>
</g>
<g id="domain_bubble_17">
<circle r="14" cx="606" cy="80" stroke="#306dd2"
       fill="#81bef7" stroke-width="1"/>
<text x="606.0" y="80" fill="black" text-anchor="middle" font-family="verdana" font-size = "13"><tspan y="80" dy="0.35em">CP</tspan></text>
</g>
<g id="domain_bubble_18">
<circle r="14" cx="634" cy="73" stroke="#5858b6"
       fill="#8181f7" stroke-width="1"/>
<text x="634.0" y="73" fill="black" text-anchor="middle" font-family="verdana" font-size = "13"><tspan y="73" dy="0.35em">E</tspan></text>
</g>
<g id="domain_bubble_19">
<circle r="14" cx="662" cy="80" stroke="#a25ba0"
       fill="#f5c4f2" stroke-width="1"/>
<text x="662.0" y="80" fill="black" text-anchor="middle" font-family="verdana" font-size = "13"><tspan y="80" dy="0.35em">TE</tspan></text>
</g>
</g>
<g id="gene_rectangles">
<g id="gene_banner_Gene 1"><rect x="29.0" y="5" width="125.0" height="12" fill="black" /><text x="91.5" y="11.0" fill="white" text-anchor="middle" font-family="verdana" font-size = "8"><tspan y="11.0" dy="0.35em">Gene 1</tspan></text></g>
<g id="gene_banner_Gene 2"><rect x="163.0" y="5" width="87.0" height="12" fill="black" /><text x="206.5" y="11.0" fill="white" text-anchor="middle" font-family="verdana" font-size = "8"><tspan y="11.0" dy="0.35em">Gene 2</tspan></text></g>
<g id="gene_banner_Gene 3"><rect x="269.0" y="5" width="153.0" height="12" fill="black" /><text x="345.5" y="11.0" fill="white" text-anchor="middle" font-family="verdana" font-size = "8"><tspan y="11.0" dy="0.35em">Gene 3</tspan></text></g>
<g id="gene_banner_Gene 4"><rect x="438.0" y="5" width="59.0" height="12" fill="black" /><text x="467.5" y="11.0" fill="white" text-anchor="middle" font-family="verdana" font-size = "8"><tspan y="11.0" dy="0.35em">Gene 4</tspan></text></g>
<g id="gene_banner_Gene 5"><rect x="506.0" y="5" width="171.0" height="12" fill="black" /><text x="591.5" y="11.0" fill="white" text-anchor="middle" font-family="verdana" font-size = "8"><tspan y="11.0" dy="0.35em">Gene 5</tspan></text></g>
</g>
<g id="module_labels">
<g id="module_label_0"><line x1="29.0" x2="58.0" y1="54" y2="54" stroke-width="2" stroke="black" />
<text x="43.5" y="46" fill="'black" text-anchor="middle" font-family="verdana" font-size = "12"><tspan y="46" dy="0.35em">Module 1</tspan></text>
</g>
<g id="module_label_1"><line x1="68.0" x2="153.0" y1="54" y2="54" stroke-width="2" stroke="black" />
<text x="110.5" y="46" fill="'black" text-anchor="middle" font-family="verdana" font-size = "12"><tspan y="46" dy="0.35em">Module 2</tspan></text>
</g>
<g id="module_label_2"><line x1="163.0" x2="297.0" y1="54" y2="54" stroke-width="2" stroke="black" />
<text x="230.0" y="46" fill="'black" text-anchor="middle" font-family="verdana" font-size = "12"><tspan y="46" dy="0.35em">Module 3</tspan></text>
</g>
<g id="module_label_3"><line x1="307.0" x2="421.0" y1="54" y2="54" stroke-width="2" stroke="black" />
<text x="364.0" y="46" fill="'black" text-anchor="middle" font-family="verdana" font-size = "12"><tspan y="46" dy="0.35em">Module 4</tspan></text>
</g>
<g id="module_label_4"><line x1="438.0" x2="496.0" y1="54" y2="54" stroke-width="2" stroke="black" />
<text x="467.0" y="46" fill="'black" text-anchor="middle" font-family="verdana" font-size = "12"><tspan y="46" dy="0.35em">Module 5</tspan></text>
</g>
<g id="module_label_5"><line x1="506.0" x2="676.0" y1="54" y2="54" stroke-width="2" stroke="black" />
<text x="591.0" y="46" fill="'black" text-anchor="middle" font-family="verdana" font-size = "12"><tspan y="46" dy="0.35em">Module 6</tspan></text>
</g>
</g>
<g id="unlabeled_s0">
<g id="atom_O_2_s0">
<line x1="25.75" y1="120.65" x2="29.5" y2="120.65" />
<line x1="25.75" y1="123.35" x2="29.5" y2="123.35" />
<g id="atom_O_2_s0_text">
<text x="22.0" y="122" text-anchor="middle" font-family="verdana" font-size="8"><tspan y="122" dy="0.35em">O</tspan></text>
</g>
</g>
<g id="atom_C_1_s0">
<line x1="37.7875" y1="120.65" x2="29.5" y2="120.65" />
<line x1="37.72692307692308" y1="123.35" x2="29.5" y2="123.35" />
<line x1="37.0" y1="122.0" x2="40.5" y2="128.5" />
<line x1="37.0" y1="122.0" x2="40.5" y2="116.0" />
</g>
<g id="atom_C_3_s0">
<line x1="44.0" y1="135.0" x2="40.5" y2="128.5" />
<line x1="44.0" y1="135.0" x2="40.5" y2="141.5" />
</g>
<g id="atom_S_19_s0">
<line x1="42.25" y1="113.0" x2="40.5" y2="116.0" />
<g id="atom_S_19_s0_text">
<text x="44.0" y="110" text-anchor="middle" font-family="verdana" font-size="8"><tspan y="110" dy="0.35em">S</tspan></text>
</g>
</g>
<g id="atom_C_4_s0">
<line x1="37.0" y1="148.0" x2="40.5" y2="141.5" />
<line x1="37.0" y1="148.0" x2="29.5" y2="148.0" />
<line x1="35.5" y1="150.7" x2="29.5" y2="150.7" />
<line x1="37.0" y1="148.0" x2="41.0" y2="154.5" />
</g>
<g id="atom_C_5_s0">
<line x1="22.0" y1="148.0" x2="29.5" y2="148.0" />
<line x1="23.5" y1="150.7" x2="29.5" y2="150.7" />
<line x1="22.0" y1="148.0" x2="18.5" y2="154.5" />
</g>
<g id="atom_C_9_s0">
<line x1="45.0" y1="161.0" x2="41.0" y2="154.5" />
<line x1="45.0" y1="161.0" x2="41.0" y2="167.5" />
<line x1="41.90052254489773" y1="160.8849369507063" x2="38.70052254489773" y2="166.0849369507063" />
</g>
<g id="atom_C_6_s0">
<line x1="15.0" y1="161.0" x2="18.5" y2="154.5" />
<line x1="15.0" y1="161.0" x2="18.5" y2="167.5" />
<line x1="18.077271969789873" y1="161.01993047780547" x2="20.877271969789874" y2="166.21993047780546" />
</g>
<g id="atom_C_7_s0">
<line x1="22.0" y1="174.0" x2="18.5" y2="167.5" />
<line x1="23.677271969789874" y1="171.41993047780545" x2="20.877271969789874" y2="166.21993047780546" />
<line x1="22.0" y1="174.0" x2="29.5" y2="174.0" />
</g>
<g id="atom_C_8_s0">
<line x1="37.0" y1="174.0" x2="29.5" y2="174.0" />
<line x1="37.0" y1="174.0" x2="41.0" y2="167.5" />
<line x1="35.50052254489773" y1="171.28493695070628" x2="38.70052254489773" y2="166.0849369507063" />
</g>
</g>
<g id="unlabeled_s1">
<g id="atom_C_21_s1">
<line x1="139.0" y1="135.0" x2="146.5" y2="135.0" />
<line x1="139.0" y1="135.0" x2="135.5" y2="128.5" />
<line x1="139.0" y1="135.0" x2="135.5" y2="141.5" />
</g>
<g id="atom_O_0_s1">
<line x1="150.25" y1="135.0" x2="146.5" y2="135.0" />
<g id="atom_O_0_s1_text">
<text x="154.0" y="135" text-anchor="middle" font-family="verdana" font-size="8"><tspan y="135" dy="0.35em">O</tspan></text>
<text x="160.0" y="135.0" text-anchor="middle" font-family="verdana" font-size="8"><tspan y="135.0" dy="0.35em">H</tspan></text>
</g>
</g>
<g id="atom_C_22_s1">
<line x1="132.0" y1="122.0" x2="135.5" y2="128.5" />
<line x1="132.7875" y1="120.65" x2="124.5" y2="120.65" />
<line x1="132.72692307692307" y1="123.35" x2="124.5" y2="123.35" />
<line x1="132.0" y1="122.0" x2="135.5" y2="116.0" />
</g>
<g id="atom_C_3_s1">
<line x1="132.0" y1="148.0" x2="135.5" y2="141.5" />
<line x1="132.0" y1="148.0" x2="124.5" y2="148.0" />
<line x1="132.0" y1="148.0" x2="135.5" y2="154.5" />
</g>
<g id="atom_O_23_s1">
<line x1="120.75" y1="120.65" x2="124.5" y2="120.65" />
<line x1="120.75" y1="123.35" x2="124.5" y2="123.35" />
<g id="atom_O_23_s1_text">
<text x="117.0" y="122" text-anchor="middle" font-family="verdana" font-size="8"><tspan y="122" dy="0.35em">O</tspan></text>
</g>
</g>
<g id="atom_S_12_s1">
<line x1="137.25" y1="113.0" x2="135.5" y2="116.0" />
<g id="atom_S_12_s1_text">
<text x="139.0" y="110" text-anchor="middle" font-family="verdana" font-size="8"><tspan y="110" dy="0.35em">S</tspan></text>
</g>
</g>
<g id="atom_O_4_s1">
<line x1="120.75" y1="148.0" x2="124.5" y2="148.0" />
<g id="atom_O_4_s1_text">
<text x="117.0" y="148" text-anchor="middle" font-family="verdana" font-size="8"><tspan y="148" dy="0.35em">O</tspan></text>
<text x="111.0" y="148.0" text-anchor="middle" font-family="verdana" font-size="8"><tspan y="148.0" dy="0.35em">H</tspan></text>
</g>
</g>
<g id="atom_C_5_s1">
<line x1="139.0" y1="161.0" x2="135.5" y2="154.5" />
<line x1="139.0" y1="161.0" x2="135.5" y2="167.5" />
</g>
<g id="atom_C_6_s1">
<line x1="132.0" y1="174.0" x2="135.5" y2="167.5" />
<line x1="132.0" y1="174.0" x2="124.5" y2="174.0" />
<line x1="130.5" y1="176.7" x2="124.5" y2="176.7" />
<line x1="132.0" y1="174.0" x2="135.5" y2="180.5" />
</g>
<g id="atom_C_7_s1">
<line x1="117.0" y1="174.0" x2="124.5" y2="174.0" />
<line x1="118.5" y1="176.7" x2="124.5" y2="176.7" />
<line x1="117.0" y1="174.0" x2="113.0" y2="180.5" />
</g>
<g id="atom_C_11_s1">
<line x1="139.0" y1="187.0" x2="135.5" y2="180.5" />
<line x1="139.0" y1="187.0" x2="135.5" y2="193.5" />
<line x1="135.92272803021015" y1="187.01993047780547" x2="133.12272803021014" y2="192.21993047780546" />
</g>
<g id="atom_C_8_s1">
<line x1="109.0" y1="187.0" x2="113.0" y2="180.5" />
<line x1="109.0" y1="187.0" x2="113.0" y2="193.5" />
<line x1="112.09947745510226" y1="186.8849369507063" x2="115.29947745510226" y2="192.0849369507063" />
</g>
<g id="atom_C_9_s1">
<line x1="117.0" y1="200.0" x2="113.0" y2="193.5" />
<line x1="118.49947745510227" y1="197.28493695070628" x2="115.29947745510226" y2="192.0849369507063" />
<line x1="117.0" y1="200.0" x2="124.5" y2="200.0" />
</g>
<g id="atom_C_10_s1">
<line x1="132.0" y1="200.0" x2="124.5" y2="200.0" />
<line x1="132.0" y1="200.0" x2="135.5" y2="193.5" />
<line x1="130.32272803021013" y1="197.41993047780545" x2="133.12272803021014" y2="192.21993047780546" />
</g>
</g>
<g id="unlabeled_s2">
<g id="atom_C_21_s2">
<line x1="283.0" y1="162.0" x2="290.5" y2="162.0" />
<line x1="283.0" y1="162.0" x2="279.5" y2="155.5" />
<line x1="284.6772719697899" y1="159.41993047780545" x2="281.8772719697899" y2="154.21993047780546" />
<line x1="283.0" y1="162.0" x2="279.5" y2="168.5" />
</g>
<g id="atom_O_0_s2">
<line x1="294.25" y1="162.0" x2="290.5" y2="162.0" />
<g id="atom_O_0_s2_text">
<text x="298.0" y="162" text-anchor="middle" font-family="verdana" font-size="8"><tspan y="162" dy="0.35em">O</tspan></text>
<text x="304.0" y="162.0" text-anchor="middle" font-family="verdana" font-size="8"><tspan y="162.0" dy="0.35em">H</tspan></text>
</g>
</g>
<g id="atom_C_22_s2">
<line x1="276.0" y1="149.0" x2="279.5" y2="155.5" />
<line x1="279.0772719697899" y1="149.01993047780547" x2="281.8772719697899" y2="154.21993047780546" />
<line x1="276.0" y1="149.0" x2="279.5" y2="142.5" />
</g>
<g id="atom_C_3_s2">
<line x1="276.0" y1="175.0" x2="279.5" y2="168.5" />
<line x1="276.0" y1="175.0" x2="268.5" y2="175.0" />
<line x1="276.0" y1="175.0" x2="279.5" y2="181.5" />
</g>
<g id="atom_C_1_s2">
<line x1="283.0" y1="136.0" x2="279.5" y2="142.5" />
<line x1="283.0" y1="136.0" x2="279.5" y2="129.5" />
</g>
<g id="atom_C_24_s2">
<line x1="276.0" y1="123.0" x2="279.5" y2="129.5" />
<line x1="276.7269230769231" y1="121.65" x2="268.5" y2="121.65" />
<line x1="276.7269230769231" y1="124.35" x2="268.5" y2="124.35" />
<line x1="276.0" y1="123.0" x2="279.5" y2="116.5" />
</g>
<g id="atom_O_28_s2">
<line x1="264.75" y1="121.65" x2="268.5" y2="121.65" />
<line x1="264.75" y1="124.35" x2="268.5" y2="124.35" />
<g id="atom_O_28_s2_text">
<text x="261.0" y="123" text-anchor="middle" font-family="verdana" font-size="8"><tspan y="123" dy="0.35em">O</tspan></text>
</g>
</g>
<g id="atom_S_12_s2">
<line x1="281.25" y1="113.25" x2="279.5" y2="116.5" />
<g id="atom_S_12_s2_text">
<text x="283.0" y="110" text-anchor="middle" font-family="verdana" font-size="8"><tspan y="110" dy="0.35em">S</tspan></text>
</g>
</g>
<g id="atom_O_4_s2">
<line x1="264.75" y1="175.0" x2="268.5" y2="175.0" />
<g id="atom_O_4_s2_text">
<text x="261.0" y="175" text-anchor="middle" font-family="verdana" font-size="8"><tspan y="175" dy="0.35em">O</tspan></text>
<text x="255.0" y="175.0" text-anchor="middle" font-family="verdana" font-size="8"><tspan y="175.0" dy="0.35em">H</tspan></text>
</g>
</g>
<g id="atom_C_5_s2">
<line x1="283.0" y1="188.0" x2="279.5" y2="181.5" />
<line x1="283.0" y1="188.0" x2="279.5" y2="194.5" />
</g>
<g id="atom_C_6_s2">
<line x1="276.0" y1="201.0" x2="279.5" y2="194.5" />
<line x1="276.0" y1="201.0" x2="268.5" y2="201.0" />
<line x1="274.5" y1="203.7" x2="268.5" y2="203.7" />
<line x1="276.0" y1="201.0" x2="279.5" y2="207.5" />
</g>
<g id="atom_C_7_s2">
<line x1="261.0" y1="201.0" x2="268.5" y2="201.0" />
<line x1="262.5" y1="203.7" x2="268.5" y2="203.7" />
<line x1="261.0" y1="201.0" x2="257.5" y2="207.5" />
</g>
<g id="atom_C_11_s2">
<line x1="283.0" y1="214.0" x2="279.5" y2="207.5" />
<line x1="283.0" y1="214.0" x2="279.5" y2="220.5" />
<line x1="279.9227280302101" y1="214.01993047780547" x2="277.1227280302101" y2="219.21993047780546" />
</g>
<g id="atom_C_8_s2">
<line x1="254.0" y1="214.0" x2="257.5" y2="207.5" />
<line x1="254.0" y1="214.0" x2="257.5" y2="220.5" />
<line x1="257.0772719697899" y1="214.01993047780547" x2="259.8772719697899" y2="219.21993047780546" />
</g>
<g id="atom_C_9_s2">
<line x1="261.0" y1="227.0" x2="257.5" y2="220.5" />
<line x1="262.6772719697899" y1="224.41993047780545" x2="259.8772719697899" y2="219.21993047780546" />
<line x1="261.0" y1="227.0" x2="268.5" y2="227.0" />
</g>
<g id="atom_C_10_s2">
<line x1="276.0" y1="227.0" x2="268.5" y2="227.0" />
<line x1="276.0" y1="227.0" x2="279.5" y2="220.5" />
<line x1="274.3227280302101" y1="224.41993047780545" x2="277.1227280302101" y2="219.21993047780546" />
</g>
</g>
<g id="unlabeled_s3">
<g id="atom_C_21_s3">
<line x1="407.0" y1="188.0" x2="414.5" y2="188.0" />
<line x1="407.0" y1="188.0" x2="403.0" y2="181.5" />
<line x1="408.49947745510224" y1="185.28493695070628" x2="405.29947745510225" y2="180.0849369507063" />
<line x1="407.0" y1="188.0" x2="403.0" y2="194.5" />
</g>
<g id="atom_O_0_s3">
<line x1="418.25" y1="188.0" x2="414.5" y2="188.0" />
<g id="atom_O_0_s3_text">
<text x="422.0" y="188" text-anchor="middle" font-family="verdana" font-size="8"><tspan y="188" dy="0.35em">O</tspan></text>
<text x="428.0" y="188.0" text-anchor="middle" font-family="verdana" font-size="8"><tspan y="188.0" dy="0.35em">H</tspan></text>
</g>
</g>
<g id="atom_C_22_s3">
<line x1="399.0" y1="175.0" x2="403.0" y2="181.5" />
<line x1="402.09947745510226" y1="174.8849369507063" x2="405.29947745510225" y2="180.0849369507063" />
<line x1="399.0" y1="175.0" x2="403.0" y2="168.5" />
</g>
<g id="atom_C_3_s3">
<line x1="399.0" y1="201.0" x2="403.0" y2="194.5" />
<line x1="399.0" y1="201.0" x2="391.5" y2="201.0" />
<line x1="399.0" y1="201.0" x2="403.0" y2="207.5" />
</g>
<g id="atom_C_1_s3">
<line x1="407.0" y1="162.0" x2="403.0" y2="168.5" />
<line x1="407.0" y1="162.0" x2="403.0" y2="155.5" />
</g>
<g id="atom_C_24_s3">
<line x1="399.0" y1="149.0" x2="403.0" y2="155.5" />
<line x1="399.0" y1="149.0" x2="403.0" y2="142.5" />
<line x1="402.09947745510226" y1="149.1150630492937" x2="405.29947745510225" y2="143.9150630492937" />
</g>
<g id="atom_C_23_s3">
<line x1="407.0" y1="136.0" x2="403.0" y2="142.5" />
<line x1="408.49947745510224" y1="138.71506304929372" x2="405.29947745510225" y2="143.9150630492937" />
<line x1="407.0" y1="136.0" x2="403.0" y2="129.5" />
</g>
<g id="atom_C_25_s3">
<line x1="399.0" y1="123.0" x2="403.0" y2="129.5" />
<line x1="399.83076923076925" y1="121.65" x2="391.5" y2="121.65" />
<line x1="399.83076923076925" y1="124.35" x2="391.5" y2="124.35" />
<line x1="399.0" y1="123.0" x2="403.0" y2="116.5" />
</g>
<g id="atom_O_32_s3">
<line x1="387.75" y1="121.65" x2="391.5" y2="121.65" />
<line x1="387.75" y1="124.35" x2="391.5" y2="124.35" />
<g id="atom_O_32_s3_text">
<text x="384.0" y="123" text-anchor="middle" font-family="verdana" font-size="8"><tspan y="123" dy="0.35em">O</tspan></text>
</g>
</g>
<g id="atom_S_12_s3">
<line x1="405.0" y1="113.25" x2="403.0" y2="116.5" />
<g id="atom_S_12_s3_text">
<text x="407.0" y="110" text-anchor="middle" font-family="verdana" font-size="8"><tspan y="110" dy="0.35em">S</tspan></text>
</g>
</g>
<g id="atom_O_4_s3">
<line x1="387.75" y1="201.0" x2="391.5" y2="201.0" />
<g id="atom_O_4_s3_text">
<text x="384.0" y="201" text-anchor="middle" font-family="verdana" font-size="8"><tspan y="201" dy="0.35em">O</tspan></text>
<text x="378.0" y="201.0" text-anchor="middle" font-family="verdana" font-size="8"><tspan y="201.0" dy="0.35em">H</tspan></text>
</g>
</g>
<g id="atom_C_5_s3">
<line x1="407.0" y1="214.0" x2="403.0" y2="207.5" />
<line x1="407.0" y1="214.0" x2="403.0" y2="220.5" />
</g>
<g id="atom_C_6_s3">
<line x1="399.0" y1="227.0" x2="403.0" y2="220.5" />
<line x1="399.0" y1="227.0" x2="391.5" y2="227.0" />
<line x1="397.5" y1="229.7" x2="391.5" y2="229.7" />
<line x1="399.0" y1="227.0" x2="403.0" y2="233.5" />
</g>
<g id="atom_C_7_s3">
<line x1="384.0" y1="227.0" x2="391.5" y2="227.0" />
<line x1="385.5" y1="229.7" x2="391.5" y2="229.7" />
<line x1="384.0" y1="227.0" x2="380.5" y2="233.5" />
</g>
<g id="atom_C_11_s3">
<line x1="407.0" y1="240.0" x2="403.0" y2="233.5" />
<line x1="407.0" y1="240.0" x2="403.0" y2="246.5" />
<line x1="403.90052254489774" y1="239.8849369507063" x2="400.70052254489775" y2="245.0849369507063" />
</g>
<g id="atom_C_8_s3">
<line x1="377.0" y1="240.0" x2="380.5" y2="233.5" />
<line x1="377.0" y1="240.0" x2="380.5" y2="246.5" />
<line x1="380.0772719697899" y1="240.01993047780547" x2="382.8772719697899" y2="245.21993047780546" />
</g>
<g id="atom_C_9_s3">
<line x1="384.0" y1="253.0" x2="380.5" y2="246.5" />
<line x1="385.6772719697899" y1="250.41993047780545" x2="382.8772719697899" y2="245.21993047780546" />
<line x1="384.0" y1="253.0" x2="391.5" y2="253.0" />
</g>
<g id="atom_C_10_s3">
<line x1="399.0" y1="253.0" x2="391.5" y2="253.0" />
<line x1="399.0" y1="253.0" x2="403.0" y2="246.5" />
<line x1="397.50052254489776" y1="250.28493695070628" x2="400.70052254489775" y2="245.0849369507063" />
</g>
</g>
<g id="unlabeled_s4">
<g id="atom_C_21_s4">
<line x1="482.0" y1="214.0" x2="489.5" y2="214.0" />
<line x1="482.0" y1="214.0" x2="478.0" y2="207.5" />
<line x1="483.49947745510224" y1="211.28493695070628" x2="480.29947745510225" y2="206.0849369507063" />
<line x1="482.0" y1="214.0" x2="478.0" y2="220.5" />
</g>
<g id="atom_O_0_s4">
<line x1="493.25" y1="214.0" x2="489.5" y2="214.0" />
<g id="atom_O_0_s4_text">
<text x="497.0" y="214" text-anchor="middle" font-family="verdana" font-size="8"><tspan y="214" dy="0.35em">O</tspan></text>
<text x="503.0" y="214.0" text-anchor="middle" font-family="verdana" font-size="8"><tspan y="214.0" dy="0.35em">H</tspan></text>
</g>
</g>
<g id="atom_C_22_s4">
<line x1="474.0" y1="201.0" x2="478.0" y2="207.5" />
<line x1="477.09947745510226" y1="200.8849369507063" x2="480.29947745510225" y2="206.0849369507063" />
<line x1="474.0" y1="201.0" x2="478.0" y2="194.5" />
</g>
<g id="atom_C_3_s4">
<line x1="474.0" y1="227.0" x2="478.0" y2="220.5" />
<line x1="474.0" y1="227.0" x2="466.5" y2="227.0" />
<line x1="474.0" y1="227.0" x2="478.0" y2="233.5" />
</g>
<g id="atom_C_1_s4">
<line x1="482.0" y1="188.0" x2="478.0" y2="194.5" />
<line x1="482.0" y1="188.0" x2="478.0" y2="181.5" />
</g>
<g id="atom_C_24_s4">
<line x1="474.0" y1="175.0" x2="478.0" y2="181.5" />
<line x1="474.0" y1="175.0" x2="478.0" y2="168.5" />
<line x1="477.09947745510226" y1="175.1150630492937" x2="480.29947745510225" y2="169.9150630492937" />
</g>
<g id="atom_C_23_s4">
<line x1="482.0" y1="162.0" x2="478.0" y2="168.5" />
<line x1="483.49947745510224" y1="164.71506304929372" x2="480.29947745510225" y2="169.9150630492937" />
<line x1="482.0" y1="162.0" x2="478.0" y2="155.5" />
</g>
<g id="atom_C_25_s4">
<line x1="474.0" y1="149.0" x2="478.0" y2="155.5" />
<line x1="474.83076923076925" y1="147.65" x2="466.5" y2="147.65" />
<line x1="474.83076923076925" y1="150.35" x2="466.5" y2="150.35" />
<line x1="474.0" y1="149.0" x2="478.0" y2="142.5" />
</g>
<g id="atom_O_32_s4">
<line x1="462.75" y1="147.65" x2="466.5" y2="147.65" />
<line x1="462.75" y1="150.35" x2="466.5" y2="150.35" />
<g id="atom_O_32_s4_text">
<text x="459.0" y="149" text-anchor="middle" font-family="verdana" font-size="8"><tspan y="149" dy="0.35em">O</tspan></text>
</g>
</g>
<g id="atom_O_4_s4">
<line x1="462.75" y1="227.0" x2="466.5" y2="227.0" />
<g id="atom_O_4_s4_text">
<text x="459.0" y="227" text-anchor="middle" font-family="verdana" font-size="8"><tspan y="227" dy="0.35em">O</tspan></text>
<text x="453.0" y="227.0" text-anchor="middle" font-family="verdana" font-size="8"><tspan y="227.0" dy="0.35em">H</tspan></text>
</g>
</g>
<g id="atom_C_5_s4">
<line x1="482.0" y1="240.0" x2="478.0" y2="233.5" />
<line x1="482.0" y1="240.0" x2="478.0" y2="246.5" />
</g>
<g id="atom_C_6_s4">
<line x1="474.0" y1="253.0" x2="478.0" y2="246.5" />
<line x1="474.0" y1="253.0" x2="466.5" y2="253.0" />
<line x1="472.5" y1="255.7" x2="466.5" y2="255.7" />
<line x1="474.0" y1="253.0" x2="478.0" y2="259.5" />
</g>
<g id="atom_C_7_s4">
<line x1="459.0" y1="253.0" x2="466.5" y2="253.0" />
<line x1="460.5" y1="255.7" x2="466.5" y2="255.7" />
<line x1="459.0" y1="253.0" x2="455.5" y2="259.5" />
</g>
<g id="atom_C_11_s4">
<line x1="482.0" y1="266.0" x2="478.0" y2="259.5" />
<line x1="482.0" y1="266.0" x2="478.0" y2="272.5" />
<line x1="478.90052254489774" y1="265.88493695070633" x2="475.70052254489775" y2="271.0849369507063" />
</g>
<g id="atom_C_8_s4">
<line x1="452.0" y1="266.0" x2="455.5" y2="259.5" />
<line x1="452.0" y1="266.0" x2="455.5" y2="272.5" />
<line x1="455.0772719697899" y1="266.0199304778055" x2="457.8772719697899" y2="271.21993047780546" />
</g>
<g id="atom_C_9_s4">
<line x1="459.0" y1="279.0" x2="455.5" y2="272.5" />
<line x1="460.6772719697899" y1="276.41993047780545" x2="457.8772719697899" y2="271.21993047780546" />
<line x1="459.0" y1="279.0" x2="466.5" y2="279.0" />
</g>
<g id="atom_C_10_s4">
<line x1="474.0" y1="279.0" x2="466.5" y2="279.0" />
<line x1="474.0" y1="279.0" x2="478.0" y2="272.5" />
<line x1="472.50052254489776" y1="276.2849369507063" x2="475.70052254489775" y2="271.0849369507063" />
</g>
<g id="atom_C_33_s4">
<line x1="474.0" y1="123.0" x2="478.0" y2="129.5" />
<line x1="474.83076923076925" y1="121.65" x2="466.5" y2="121.65" />
<line x1="474.83076923076925" y1="124.35" x2="466.5" y2="124.35" />
<line x1="474.0" y1="123.0" x2="478.0" y2="116.5" />
</g>
<g id="atom_C_28_s4">
<line x1="482.0" y1="136.0" x2="478.0" y2="129.5" />
<line x1="482.0" y1="136.0" x2="478.0" y2="142.5" />
</g>
<g id="atom_O_36_s4">
<line x1="462.75" y1="121.65" x2="466.5" y2="121.65" />
<line x1="462.75" y1="124.35" x2="466.5" y2="124.35" />
<g id="atom_O_36_s4_text">
<text x="459.0" y="123" text-anchor="middle" font-family="verdana" font-size="8"><tspan y="123" dy="0.35em">O</tspan></text>
</g>
</g>
<g id="atom_S_12_s4">
<line x1="480.0" y1="113.25" x2="478.0" y2="116.5" />
<g id="atom_S_12_s4_text">
<text x="482.0" y="110" text-anchor="middle" font-family="verdana" font-size="8"><tspan y="110" dy="0.35em">S</tspan></text>
</g>
</g>
</g>
<g id="unlabeled_s5">
<g id="atom_C_0_s5">
<line x1="584.0" y1="149.0" x2="591.5" y2="149.0" />
</g>
<g id="atom_N_18_s5">
<line x1="595.25" y1="149.0" x2="591.5" y2="149.0" />
<line x1="600.75" y1="145.75" x2="602.5" y2="142.5" />
<line x1="600.75" y1="152.25" x2="602.5" y2="155.5" />
<g id="atom_N_18_s5_text">
<text x="599.0" y="149" text-anchor="middle" font-family="verdana" font-size="8"><tspan y="149" dy="0.35em">N</tspan></text>
</g>
</g>
<g id="atom_C_8_s5">
<line x1="606.0" y1="136.0" x2="602.5" y2="142.5" />
<polygon points="606.0,136.0 603.1603533249416,129.14442513272374 601.8396466750584,129.85557486727626" />
<line x1="606.0" y1="136.0" x2="613.5" y2="136.0" />
</g>
<g id="atom_C_28_s5">
<line x1="606.0" y1="162.0" x2="602.5" y2="155.5" />
<line x1="606.0" y1="162.0" x2="602.0" y2="168.5" />
<line x1="605.2730769230769" y1="160.65" x2="613.5" y2="160.65" />
<line x1="605.1692307692308" y1="163.35" x2="613.5" y2="163.35" />
</g>
<g id="atom_C_7_s5">
<polygon points="600.3207066498833,122.28885026544748 597.6792933501167,123.71114973455252 601.8396466750584,129.85557486727626 603.1603533249416,129.14442513272374" />
<line x1="599.0" y1="123.0" x2="602.5" y2="116.5" />
<line x1="599.7269230769231" y1="121.65" x2="591.5" y2="121.65" />
<line x1="599.7269230769231" y1="124.35" x2="591.5" y2="124.35" />
</g>
<g id="atom_C_9_s5">
<line x1="621.0" y1="136.0" x2="613.5" y2="136.0" />
<line x1="621.0" y1="136.0" x2="628.0" y2="139.0" />
</g>
<g id="atom_C_10_s5">
<line x1="635.0" y1="142.0" x2="628.0" y2="139.0" />
<line x1="635.0" y1="142.0" x2="636.5" y2="149.0" />
<line x1="637.940066518009" y1="142.83427146042663" x2="639.140066518009" y2="148.43427146042663" />
<line x1="635.0" y1="142.0" x2="641.0" y2="137.0" />
</g>
<g id="atom_C_11_s5">
<line x1="638.0" y1="156.0" x2="636.5" y2="149.0" />
<line x1="640.340066518009" y1="154.03427146042662" x2="639.140066518009" y2="148.43427146042663" />
<line x1="638.0" y1="156.0" x2="645.0" y2="158.5" />
</g>
<g id="atom_C_15_s5">
<line x1="647.0" y1="132.0" x2="641.0" y2="137.0" />
<line x1="647.0" y1="132.0" x2="654.0" y2="134.5" />
<line x1="647.491891728105" y1="135.04270316130606" x2="653.091891728105" y2="137.04270316130606" />
</g>
<g id="atom_C_12_s5">
<line x1="652.0" y1="161.0" x2="645.0" y2="158.5" />
<line x1="652.0" y1="161.0" x2="657.5" y2="156.5" />
<line x1="651.3902579663054" y1="158.01031529215103" x2="655.7902579663054" y2="154.41031529215104" />
</g>
<g id="atom_C_13_s5">
<line x1="663.0" y1="152.0" x2="657.5" y2="156.5" />
<line x1="660.1902579663054" y1="150.81031529215105" x2="655.7902579663054" y2="154.41031529215104" />
<line x1="663.0" y1="152.0" x2="662.0" y2="144.5" />
<line x1="663.0" y1="152.0" x2="670.0" y2="154.5" />
</g>
<g id="atom_C_14_s5">
<line x1="661.0" y1="137.0" x2="662.0" y2="144.5" />
<line x1="661.0" y1="137.0" x2="654.0" y2="134.5" />
<line x1="658.691891728105" y1="139.04270316130606" x2="653.091891728105" y2="137.04270316130606" />
</g>
<g id="atom_O_24_s5">
<line x1="673.5" y1="155.75" x2="670.0" y2="154.5" />
<g id="atom_O_24_s5_text">
<text x="677.0" y="157" text-anchor="middle" font-family="verdana" font-size="8"><tspan y="157" dy="0.35em">O</tspan></text>
<text x="683.0" y="157.0" text-anchor="middle" font-family="verdana" font-size="8"><tspan y="157.0" dy="0.35em">H</tspan></text>
</g>
</g>
<g id="atom_C_29_s5">
<line x1="598.0" y1="175.0" x2="602.0" y2="168.5" />
<line x1="598.0" y1="175.0" x2="602.0" y2="181.5" />
</g>
<g id="atom_O_31_s5">
<line x1="617.25" y1="160.65" x2="613.5" y2="160.65" />
<line x1="617.25" y1="163.35" x2="613.5" y2="163.35" />
<g id="atom_O_31_s5_text">
<text x="621.0" y="162" text-anchor="middle" font-family="verdana" font-size="8"><tspan y="162" dy="0.35em">O</tspan></text>
</g>
</g>
<g id="atom_C_33_s5">
<line x1="606.0" y1="188.0" x2="602.0" y2="181.5" />
<line x1="606.0" y1="188.0" x2="602.0" y2="194.5" />
<line x1="605.1692307692308" y1="186.65" x2="613.5" y2="186.65" />
<line x1="605.1692307692308" y1="189.35" x2="613.5" y2="189.35" />
</g>
<g id="atom_S_6_s5">
<line x1="604.25" y1="113.25" x2="602.5" y2="116.5" />
<g id="atom_S_6_s5_text">
<text x="606.0" y="110" text-anchor="middle" font-family="verdana" font-size="8"><tspan y="110" dy="0.35em">S</tspan></text>
</g>
</g>
<g id="atom_O_16_s5">
<line x1="587.75" y1="121.65" x2="591.5" y2="121.65" />
<line x1="587.75" y1="124.35" x2="591.5" y2="124.35" />
<g id="atom_O_16_s5_text">
<text x="584.0" y="123" text-anchor="middle" font-family="verdana" font-size="8"><tspan y="123" dy="0.35em">O</tspan></text>
</g>
</g>
<g id="atom_C_34_s5">
<line x1="598.0" y1="201.0" x2="602.0" y2="194.5" />
<line x1="598.0" y1="201.0" x2="602.0" y2="207.5" />
<line x1="601.0994774551023" y1="200.8849369507063" x2="604.2994774551023" y2="206.0849369507063" />
</g>
<g id="atom_O_36_s5">
<line x1="617.25" y1="186.65" x2="613.5" y2="186.65" />
<line x1="617.25" y1="189.35" x2="613.5" y2="189.35" />
<g id="atom_O_36_s5_text">
<text x="621.0" y="188" text-anchor="middle" font-family="verdana" font-size="8"><tspan y="188" dy="0.35em">O</tspan></text>
</g>
</g>
<g id="atom_C_37_s5">
<line x1="606.0" y1="214.0" x2="602.0" y2="207.5" />
<line x1="607.4994774551024" y1="211.28493695070628" x2="604.2994774551023" y2="206.0849369507063" />
<line x1="606.0" y1="214.0" x2="602.0" y2="220.5" />
</g>
<g id="atom_C_38_s5">
<line x1="598.0" y1="227.0" x2="602.0" y2="220.5" />
<line x1="598.0" y1="227.0" x2="602.0" y2="233.5" />
</g>
<g id="atom_C_42_s5">
<line x1="606.0" y1="240.0" x2="602.0" y2="233.5" />
<line x1="606.0" y1="240.0" x2="602.0" y2="246.5" />
<line x1="602.9005225448977" y1="239.8849369507063" x2="599.7005225448977" y2="245.0849369507063" />
</g>
<g id="atom_C_43_s5">
<line x1="598.0" y1="253.0" x2="602.0" y2="246.5" />
<line x1="596.5005225448976" y1="250.28493695070628" x2="599.7005225448977" y2="245.0849369507063" />
<line x1="598.0" y1="253.0" x2="591.0" y2="253.0" />
<line x1="598.0" y1="253.0" x2="602.0" y2="259.5" />
</g>
<g id="atom_O_48_s5">
<line x1="587.5" y1="253.0" x2="591.0" y2="253.0" />
<g id="atom_O_48_s5_text">
<text x="584.0" y="253" text-anchor="middle" font-family="verdana" font-size="8"><tspan y="253" dy="0.35em">O</tspan></text>
<text x="578.0" y="253.0" text-anchor="middle" font-family="verdana" font-size="8"><tspan y="253.0" dy="0.35em">H</tspan></text>
</g>
</g>
<g id="atom_C_44_s5">
<line x1="606.0" y1="266.0" x2="602.0" y2="259.5" />
<line x1="606.0" y1="266.0" x2="613.5" y2="266.0" />
<line x1="606.0" y1="266.0" x2="602.5" y2="272.5" />
</g>
<g id="atom_O_45_s5">
<line x1="617.25" y1="266.0" x2="613.5" y2="266.0" />
<g id="atom_O_45_s5_text">
<text x="621.0" y="266" text-anchor="middle" font-family="verdana" font-size="8"><tspan y="266" dy="0.35em">O</tspan></text>
<text x="627.0" y="266.0" text-anchor="middle" font-family="verdana" font-size="8"><tspan y="266.0" dy="0.35em">H</tspan></text>
</g>
</g>
<g id="atom_C_50_s5">
<line x1="599.0" y1="279.0" x2="602.5" y2="272.5" />
<line x1="599.0" y1="279.0" x2="602.5" y2="285.5" />
</g>
<g id="atom_C_51_s5">
<line x1="606.0" y1="292.0" x2="602.5" y2="285.5" />
<line x1="606.0" y1="292.0" x2="602.0" y2="298.5" />
<line x1="607.4994774551024" y1="294.7150630492937" x2="604.2994774551023" y2="299.9150630492937" />
<line x1="606.0" y1="292.0" x2="613.5" y2="292.0" />
</g>
<g id="atom_C_52_s5">
<line x1="598.0" y1="305.0" x2="602.0" y2="298.5" />
<line x1="601.0994774551023" y1="305.11506304929367" x2="604.2994774551023" y2="299.9150630492937" />
<line x1="598.0" y1="305.0" x2="602.0" y2="311.5" />
</g>
<g id="atom_C_56_s5">
<line x1="621.0" y1="292.0" x2="613.5" y2="292.0" />
<line x1="621.0" y1="292.0" x2="624.5" y2="298.5" />
<line x1="619.3227280302102" y1="294.58006952219455" x2="622.1227280302102" y2="299.78006952219454" />
</g>
<g id="atom_C_53_s5">
<line x1="606.0" y1="318.0" x2="602.0" y2="311.5" />
<line x1="606.0" y1="318.0" x2="613.5" y2="318.0" />
<line x1="607.5" y1="315.3" x2="613.5" y2="315.3" />
</g>
<g id="atom_C_54_s5">
<line x1="621.0" y1="318.0" x2="613.5" y2="318.0" />
<line x1="619.5" y1="315.3" x2="613.5" y2="315.3" />
<line x1="621.0" y1="318.0" x2="624.5" y2="311.5" />
</g>
<g id="atom_C_55_s5">
<line x1="628.0" y1="305.0" x2="624.5" y2="311.5" />
<line x1="628.0" y1="305.0" x2="624.5" y2="298.5" />
<line x1="624.9227280302101" y1="304.9800695221945" x2="622.1227280302102" y2="299.78006952219454" />
</g>
</g>
<path d="M 44.0 105 Q 39.0 105.0, 44.0 100.0 T 44.0 95" stroke="grey" fill="white"/><path d="M 139.0 105 Q 134.0 105.0, 139.0 100.0 T 139.0 95" stroke="grey" fill="white"/><path d="M 283.0 105 Q 278.0 105.0, 283.0 100.0 T 283.0 95" stroke="grey" fill="white"/><path d="M 407.0 105 Q 402.0 105.0, 407.0 100.0 T 407.0 95" stroke="grey" fill="white"/><path d="M 482.0 105 Q 477.0 105.0, 482.0 100.0 T 482.0 95" stroke="grey" fill="white"/><path d="M 606.0 105 Q 601.0 105.0, 606.0 100.0 T 606.0 95" stroke="grey" fill="white"/></svg>