<svg width="105" height="124" viewBox="1 1 106 125" xmlns="http://www.w3.org/2000/svg"><style> line {stroke: black; stroke_width: 1px;} polygon {fill: black;} </style><g id="unlabeled">
<g id="atom_C_5">
<line x1="53.0" y1="82.0" x2="60.5" y2="82.0" />
<line x1="54.585142742718425" y1="82.0" x2="50.14973872755113" y2="89.20753152464685" />
<line x1="52.207428628640784" y1="80.71207152154128" x2="47.85026127244887" y2="87.79246847535315" />
<line x1="53.0" y1="82.0" x2="49.0" y2="75.5" />
</g>
<g id="atom_C_6">
<line x1="68.0" y1="82.0" x2="60.5" y2="82.0" />
<line x1="68.0" y1="82.0" x2="71.5" y2="75.5" />
</g>
<g id="atom_O_9">
<line x1="48.14973872755113" y1="92.45753152464685" x2="50.14973872755113" y2="89.20753152464685" />
<line x1="45.85026127244887" y1="91.04246847535315" x2="47.85026127244887" y2="87.79246847535315" />
<g id="atom_O_9_text">
<text x="45" y="95" text-anchor="middle" font-family="verdana" font-size="8"><tspan y="95" dy="0.35em">O</tspan></text>
</g>
</g>
<g id="atom_N_19">
<line x1="47.0" y1="72.25" x2="49.0" y2="75.5" />
<line x1="47.0" y1="65.75" x2="49.0" y2="62.5" />
<g id="atom_N_19_text">
<text x="45" y="69" text-anchor="middle" font-family="verdana" font-size="8"><tspan y="69" dy="0.35em">N</tspan></text>
<text x="39.0" y="69.0" text-anchor="middle" font-family="verdana" font-size="8"><tspan y="69.0" dy="0.35em">H</tspan></text>
</g>
</g>
<g id="atom_N_7">
<line x1="73.25" y1="72.25" x2="71.5" y2="75.5" />
<line x1="73.25" y1="65.75" x2="71.5" y2="62.5" />
<g id="atom_N_7_text">
<text x="75" y="69" text-anchor="middle" font-family="verdana" font-size="8"><tspan y="69" dy="0.35em">N</tspan></text>
<text x="81.0" y="69.0" text-anchor="middle" font-family="verdana" font-size="8"><tspan y="69.0" dy="0.35em">H</tspan></text>
</g>
</g>
<g id="atom_C_12">
<line x1="68.0" y1="56.0" x2="71.5" y2="62.5" />
<polygon points="68.0,54.5 68.0,57.5 60.5,56.75 60.5,55.25" />
<line x1="68.73973327993527" y1="57.37379037702263" x2="73.14973872755114" y2="50.20753152464685" />
<line x1="66.41485725728157" y1="56.0" x2="70.85026127244886" y2="48.79246847535315" />
</g>
<g id="atom_C_13">
<line x1="53.0" y1="56.0" x2="49.0" y2="62.5" />
<polygon points="53.0,56.0 60.5,55.25 60.5,56.75" />
<line x1="53.0" y1="56.0" x2="49.5" y2="49.5" />
</g>
<g id="atom_C_14">
<line x1="46.0" y1="43.0" x2="49.5" y2="49.5" />
<g id="chiral-bond-back" stroke="black" stroke-width="1">
  <line x1="46.0" y1="43.0" x2="46.0" y2="43.0" />
  <line x1="47.14086632973047" y1="40.448838692342775" x2="47.659133670269526" y2="40.75116130765723" />
  <line x1="48.281732659460936" y1="37.89767738468555" x2="49.31826734053906" y2="38.502322615314455" />
</g>
<line x1="46.0" y1="43.0" x2="38.5" y2="43.0" />
</g>
<g id="atom_C_15">
<g id="chiral-bond-back" stroke="black" stroke-width="1">
  <line x1="51.70433164865235" y1="30.24419346171387" x2="54.29566835134765" y2="31.75580653828613" />
  <line x1="50.56346531892188" y1="32.795354769371095" x2="52.636534681078125" y2="34.0046452306289" />
  <line x1="49.422598989191414" y1="35.34651607702832" x2="50.97740101080859" y2="36.253483922971675" />
</g>
</g>
<g id="atom_O_22">
<line x1="34.75" y1="43.0" x2="38.5" y2="43.0" />
<g id="atom_O_22_text">
<text x="31" y="43" text-anchor="middle" font-family="verdana" font-size="8"><tspan y="43" dy="0.35em">O</tspan></text>
<text x="25.0" y="43.0" text-anchor="middle" font-family="verdana" font-size="8"><tspan y="43.0" dy="0.35em">H</tspan></text>
</g>
</g>
<g id="atom_O_17">
<line x1="75.14973872755114" y1="46.95753152464685" x2="73.14973872755114" y2="50.20753152464685" />
<line x1="72.85026127244886" y1="45.54246847535315" x2="70.85026127244886" y2="48.79246847535315" />
<g id="atom_O_17_text">
<text x="76" y="43" text-anchor="middle" font-family="verdana" font-size="8"><tspan y="43" dy="0.35em">O</tspan></text>
</g>
</g>
</g>
</svg>