<svg width="222" height="227" viewBox="257 1 479 228" xmlns="http://www.w3.org/2000/svg"><style> line {stroke: black; stroke_width: 1px;} polygon {fill: black;} </style><g id="unlabeled">
<g id="atom_C_5">
<line x1="402.91925214611433" y1="91.37271351605605" x2="410.67842102212285" y2="90.33815766592156" />
<line x1="402.68928962687346" y1="88.67948091421225" x2="410.32157897787715" y2="87.66184233407844" />
<line x1="403.0" y1="90.0" x2="401.0" y2="81.5" />
<line x1="403.0" y1="90.0" x2="402.5" y2="98.5" />
</g>
<g id="atom_O_6">
<line x1="414.42842102212285" y1="89.83815766592156" x2="410.67842102212285" y2="90.33815766592156" />
<line x1="414.07157897787715" y1="87.16184233407844" x2="410.32157897787715" y2="87.66184233407844" />
<g id="atom_O_6_text">
<text x="418" y="88" text-anchor="middle" font-family="verdana" font-size="8"><tspan y="88" dy="0.35em">O</tspan></text>
</g>
</g>
<g id="atom_C_7">
<line x1="399.0" y1="73.0" x2="401.0" y2="81.5" />
<line x1="399.0" y1="73.0" x2="405.5" y2="70.0" />
<line x1="399.0" y1="73.0" x2="394.0" y2="66.0" />
<line x1="395.8029196277418" y1="73.16934312304156" x2="391.8029196277418" y2="67.56934312304156" />
</g>
<g id="atom_O_56">
<line x1="402.25" y1="102.75" x2="402.5" y2="98.5" />
<line x1="400.5" y1="111.0" x2="399.0" y2="115.0" />
<g id="atom_O_56_text">
<text x="402" y="107" text-anchor="middle" font-family="verdana" font-size="8"><tspan y="107" dy="0.35em">O</tspan></text>
</g>
</g>
<g id="atom_C_8">
<line x1="412.0" y1="67.0" x2="405.5" y2="70.0" />
</g>
<g id="atom_C_10">
<line x1="389.0" y1="59.0" x2="394.0" y2="66.0" />
<line x1="387.8029196277418" y1="61.96934312304156" x2="391.8029196277418" y2="67.56934312304156" />
<line x1="389.0" y1="59.0" x2="382.5" y2="54.0" />
</g>
<g id="atom_C_55">
<line x1="396.0" y1="123.0" x2="399.0" y2="115.0" />
<line x1="396.0" y1="123.0" x2="390.5" y2="129.5" />
<g id="chiral-bond-back" stroke="black" stroke-width="1">
  <line x1="396.0" y1="123.0" x2="396.0" y2="123.0" />
  <line x1="398.4577700530895" y1="124.66414132997666" x2="398.7422299469105" y2="124.13585867002335" />
  <line x1="400.915540106179" y1="126.3282826599533" x2="401.484459893821" y2="125.27171734004669" />
</g>
</g>
<g id="atom_C_49">
<line x1="385.0" y1="136.0" x2="390.5" y2="129.5" />
<line x1="385.0" y1="136.0" x2="378.0" y2="141.0" />
</g>
<g id="atom_C_58">
<g id="chiral-bond-back" stroke="black" stroke-width="1">
  <line x1="408.2888502654475" y1="131.32070664988325" x2="409.7111497345525" y2="128.67929335011675" />
  <line x1="405.83108021235796" y1="129.6565653199066" x2="406.968919787642" y2="127.54343468009338" />
  <line x1="403.3733101592685" y1="127.99242398992996" x2="404.2266898407315" y2="126.40757601007004" />
</g>
<line x1="409.0" y1="130.0" x2="409.0" y2="137.5" />
<line x1="409.0" y1="130.0" x2="415.5" y2="126.5" />
</g>
<g id="atom_C_62">
<line x1="409.0" y1="145.0" x2="409.0" y2="137.5" />
<line x1="409.0" y1="145.0" x2="415.5" y2="149.0" />
</g>
<g id="atom_C_59">
<line x1="422.0" y1="123.0" x2="415.5" y2="126.5" />
</g>
<g id="atom_C_11">
<line x1="376.0" y1="49.0" x2="382.5" y2="54.0" />
<line x1="376.0" y1="49.0" x2="373.0" y2="41.0" />
<line x1="372.87191122056356" y1="48.348033292288655" x2="370.4719112205636" y2="41.948033292288656" />
<line x1="376.0" y1="49.0" x2="367.5" y2="50.0" />
</g>
<g id="atom_C_12">
<line x1="370.0" y1="33.0" x2="373.0" y2="41.0" />
<line x1="368.0719112205636" y1="35.54803329228866" x2="370.4719112205636" y2="41.948033292288656" />
<line x1="370.0" y1="33.0" x2="361.5" y2="32.0" />
</g>
<g id="atom_N_21">
<line x1="363.25" y1="50.5" x2="367.5" y2="50.0" />
<line x1="355.0" y1="49.25" x2="351.0" y2="47.5" />
<line x1="358.4822108518532" y1="47.826375195764086" x2="352.08221085185323" y2="45.02637519576409" />
<g id="atom_N_21_text">
<text x="359" y="51" text-anchor="middle" font-family="verdana" font-size="8"><tspan y="51" dy="0.35em">N</tspan></text>
</g>
</g>
<g id="atom_S_13">
<line x1="357.25" y1="31.5" x2="361.5" y2="32.0" />
<line x1="350.5" y1="34.25" x2="348.0" y2="37.5" />
<g id="atom_S_13_text">
<text x="353" y="31" text-anchor="middle" font-family="verdana" font-size="8"><tspan y="31" dy="0.35em">S</tspan></text>
</g>
</g>
<g id="atom_C_14">
<line x1="343.0" y1="44.0" x2="348.0" y2="37.5" />
<line x1="343.0" y1="44.0" x2="351.0" y2="47.5" />
<line x1="345.68221085185326" y1="42.22637519576409" x2="352.08221085185323" y2="45.02637519576409" />
<line x1="343.0" y1="44.0" x2="335.0" y2="47.5" />
</g>
<g id="atom_C_15">
<line x1="327.0" y1="51.0" x2="335.0" y2="47.5" />
<polygon points="327.0,51.0 323.6387437375284,44.10692693075175 322.3612562624716,44.89307306924825" />
<line x1="327.0" y1="51.0" x2="321.0" y2="56.5" />
</g>
<g id="atom_C_16">
<polygon points="320.27748747505683,37.213853861503495 317.72251252494317,38.786146138496505 322.3612562624716,44.89307306924825 323.6387437375284,44.10692693075175" />
</g>
<g id="atom_C_24">
<line x1="315.0" y1="62.0" x2="321.0" y2="56.5" />
<line x1="315.0" y1="62.0" x2="310.5" y2="69.5" />
<g id="chiral-bond-back" stroke="black" stroke-width="1">
  <line x1="315.0" y1="62.0" x2="315.0" y2="62.0" />
  <line x1="312.4079446801007" y1="60.23046638387921" x2="312.79205531989936" y2="59.76953361612079" />
  <line x1="309.8158893602013" y1="58.46093276775843" x2="310.58411063979867" y2="57.53906723224157" />
</g>
</g>
<g id="atom_C_48">
<line x1="371.0" y1="146.0" x2="378.0" y2="141.0" />
<line x1="371.0" y1="146.0" x2="362.5" y2="147.5" />
<polygon points="371.0,146.0 374.68096953837534,152.1857063669037 373.31903046162466,152.8142936330963" />
</g>
<g id="atom_C_44">
<line x1="354.0" y1="149.0" x2="362.5" y2="147.5" />
<line x1="354.0" y1="149.0" x2="345.5" y2="148.0" />
</g>
<g id="atom_O_51">
<polygon points="376.8619390767507,155.12141273380738 374.1380609232493,156.37858726619262 373.31903046162466,152.8142936330963 374.68096953837534,152.1857063669037" />
<g id="atom_O_51_text">
<text x="377" y="159" text-anchor="middle" font-family="verdana" font-size="8"><tspan y="159" dy="0.35em">O</tspan></text>
<text x="383.0" y="159.0" text-anchor="middle" font-family="verdana" font-size="8"><tspan y="159.0" dy="0.35em">H</tspan></text>
</g>
</g>
<g id="atom_C_63">
<line x1="422.0" y1="153.0" x2="415.5" y2="149.0" />
<line x1="422.0" y1="153.0" x2="422.5" y2="160.5" />
<line x1="424.79401992621285" y1="154.32039867158582" x2="425.19401992621283" y2="160.32039867158582" />
<line x1="422.0" y1="153.0" x2="428.5" y2="149.0" />
</g>
<g id="atom_C_71">
<line x1="423.0" y1="168.0" x2="422.5" y2="160.5" />
<line x1="425.5940199262128" y1="166.32039867158582" x2="425.19401992621283" y2="160.32039867158582" />
<line x1="423.0" y1="168.0" x2="429.5" y2="171.5" />
</g>
<g id="atom_C_64">
<line x1="435.0" y1="145.0" x2="428.5" y2="149.0" />
</g>
<g id="atom_C_25">
<line x1="306.0" y1="77.0" x2="310.5" y2="69.5" />
<line x1="306.0" y1="77.0" x2="304.0" y2="85.0" />
</g>
<g id="atom_O_29">
<g id="chiral-bond-back" stroke="black" stroke-width="1">
  <line x1="307.223834040302" y1="56.69139915163764" x2="308.376165959698" y2="55.30860084836236" />
</g>
<g id="atom_O_29_text">
<text x="303" y="52" text-anchor="middle" font-family="verdana" font-size="8"><tspan y="52" dy="0.35em">O</tspan></text>
<text x="297.0" y="52.0" text-anchor="middle" font-family="verdana" font-size="8"><tspan y="52.0" dy="0.35em">H</tspan></text>
</g>
</g>
<g id="atom_C_33">
<line x1="302.0" y1="93.0" x2="304.0" y2="85.0" />
<line x1="302.0" y1="93.0" x2="303.0" y2="101.5" />
<polygon points="302.0,93.0 294.54988925789286,91.75166113160755 294.45011074210714,93.24833886839245" />
</g>
<g id="atom_C_43">
<line x1="337.0" y1="147.0" x2="345.5" y2="148.0" />
<line x1="337.0" y1="147.0" x2="329.5" y2="143.0" />
<line x1="336.7705882352941" y1="143.81764705882352" x2="330.7705882352941" y2="140.61764705882354" />
</g>
<g id="atom_C_40">
<line x1="322.0" y1="139.0" x2="329.5" y2="143.0" />
<line x1="324.7705882352941" y1="137.41764705882355" x2="330.7705882352941" y2="140.61764705882354" />
<line x1="322.0" y1="139.0" x2="316.5" y2="132.5" />
</g>
<g id="atom_C_39">
<line x1="311.0" y1="126.0" x2="316.5" y2="132.5" />
<line x1="311.0" y1="126.0" x2="307.5" y2="118.0" />
<line x1="312.7736248042359" y1="123.3177891481468" x2="309.9736248042359" y2="116.9177891481468" />
</g>
<g id="atom_C_34">
<line x1="304.0" y1="110.0" x2="307.5" y2="118.0" />
<line x1="307.1736248042359" y1="110.51778914814679" x2="309.9736248042359" y2="116.9177891481468" />
<line x1="304.0" y1="110.0" x2="303.0" y2="101.5" />
</g>
<g id="atom_O_36">
<polygon points="290.84977851578566,90.75332226321508 290.65022148421434,93.74667773678492 294.45011074210714,93.24833886839245 294.54988925789286,91.75166113160755" />
<g id="atom_O_36_text">
<text x="287" y="92" text-anchor="middle" font-family="verdana" font-size="8"><tspan y="92" dy="0.35em">O</tspan></text>
<text x="281.0" y="92.0" text-anchor="middle" font-family="verdana" font-size="8"><tspan y="92.0" dy="0.35em">H</tspan></text>
</g>
</g>
<g id="atom_C_72">
<line x1="436.0" y1="175.0" x2="429.5" y2="171.5" />
<line x1="436.0" y1="175.0" x2="436.0" y2="182.5" />
<line x1="438.7" y1="176.5" x2="438.7" y2="182.5" />
<line x1="436.0" y1="175.0" x2="442.5" y2="171.5" />
</g>
<g id="atom_C_78">
<line x1="436.0" y1="190.0" x2="436.0" y2="182.5" />
<line x1="438.7" y1="188.5" x2="438.7" y2="182.5" />
<line x1="436.0" y1="190.0" x2="442.5" y2="194.0" />
</g>
<g id="atom_C_73">
<line x1="449.0" y1="168.0" x2="442.5" y2="171.5" />
</g>
<g id="atom_C_79">
<line x1="449.0" y1="198.0" x2="442.5" y2="194.0" />
</g>
</g>
</svg>