<svg width="145" height="307" viewBox="197 1 342 308" xmlns="http://www.w3.org/2000/svg"><style> line {stroke: black; stroke_width: 1px;} polygon {fill: black;} </style><g id="unlabeled">
<g id="atom_C_5">
<line x1="287.27152740869724" y1="91.3218520486948" x2="288.3381576659215" y2="99.32157897787712" />
<line x1="284.5939412163475" y1="91.6691626391406" x2="285.6618423340785" y2="99.67842102212288" />
<line x1="286.0" y1="92.0" x2="293.5" y2="88.0" />
<line x1="286.0" y1="92.0" x2="277.5" y2="90.0" />
</g>
<g id="atom_O_6">
<line x1="288.8381576659215" y1="103.07157897787712" x2="288.3381576659215" y2="99.32157897787712" />
<line x1="286.1618423340785" y1="103.42842102212288" x2="285.6618423340785" y2="99.67842102212288" />
<g id="atom_O_6_text">
<text x="288" y="107" text-anchor="middle" font-family="verdana" font-size="8"><tspan y="107" dy="0.35em">O</tspan></text>
</g>
</g>
<g id="atom_C_7">
<line x1="301.0" y1="84.0" x2="293.5" y2="88.0" />
<line x1="301.0" y1="84.0" x2="306.5" y2="89.0" />
<line x1="301.0" y1="84.0" x2="304.5" y2="76.0" />
<line x1="299.2263751957641" y1="81.3177891481468" x2="302.0263751957641" y2="74.9177891481468" />
</g>
<g id="atom_O_29">
<line x1="273.25" y1="89.0" x2="277.5" y2="90.0" />
<line x1="266.5" y1="84.5" x2="264.0" y2="81.0" />
<g id="atom_O_29_text">
<text x="269" y="88" text-anchor="middle" font-family="verdana" font-size="8"><tspan y="88" dy="0.35em">O</tspan></text>
</g>
</g>
<g id="atom_C_8">
<line x1="312.0" y1="94.0" x2="306.5" y2="89.0" />
</g>
<g id="atom_C_10">
<line x1="308.0" y1="68.0" x2="304.5" y2="76.0" />
<line x1="304.8263751957641" y1="68.51778914814679" x2="302.0263751957641" y2="74.9177891481468" />
<line x1="308.0" y1="68.0" x2="305.5" y2="59.5" />
</g>
<g id="atom_C_24">
<line x1="259.0" y1="74.0" x2="264.0" y2="81.0" />
<line x1="259.0" y1="74.0" x2="260.0" y2="65.5" />
<polygon points="259.0,74.0 252.20604084592304,76.72114296073062 251.79395915407696,75.27885703926938" />
</g>
<g id="atom_C_15">
<line x1="261.0" y1="57.0" x2="260.0" y2="65.5" />
<line x1="261.0" y1="57.0" x2="266.5" y2="50.5" />
<polygon points="261.0,57.0 254.29543947393438,53.31064122748646 253.70456052606562,54.68935877251354" />
</g>
<g id="atom_C_25">
<polygon points="245.41208169184605,79.44228592146123 244.58791830815395,76.55771407853877 251.79395915407696,75.27885703926938 252.20604084592304,76.72114296073062" />
<line x1="245.0" y1="78.0" x2="243.0" y2="85.0" />
</g>
<g id="atom_C_33">
<line x1="241.0" y1="92.0" x2="243.0" y2="85.0" />
<line x1="241.0" y1="92.0" x2="246.5" y2="97.5" />
<polygon points="241.0,92.0 234.20604084592304,94.72114296073062 233.79395915407696,93.27885703926938" />
</g>
<g id="atom_C_11">
<line x1="303.0" y1="51.0" x2="305.5" y2="59.5" />
<line x1="303.0" y1="51.0" x2="301.5" y2="43.0" />
<line x1="300.0462450952773" y1="49.8975790446355" x2="298.8462450952773" y2="43.4975790446355" />
<line x1="303.0" y1="51.0" x2="295.0" y2="50.5" />
</g>
<g id="atom_C_12">
<line x1="300.0" y1="35.0" x2="301.5" y2="43.0" />
<line x1="297.6462450952773" y1="37.0975790446355" x2="298.8462450952773" y2="43.4975790446355" />
<line x1="300.0" y1="35.0" x2="291.0" y2="33.0" />
</g>
<g id="atom_N_21">
<line x1="291.0" y1="50.25" x2="295.0" y2="50.5" />
<line x1="283.25" y1="48.5" x2="279.5" y2="47.0" />
<line x1="286.5027548261561" y1="46.893112934609796" x2="280.5027548261561" y2="44.4931129346098" />
<g id="atom_N_21_text">
<text x="287" y="50" text-anchor="middle" font-family="verdana" font-size="8"><tspan y="50" dy="0.35em">N</tspan></text>
</g>
</g>
<g id="atom_S_13">
<line x1="286.5" y1="32.0" x2="291.0" y2="33.0" />
<line x1="279.5" y1="34.25" x2="277.0" y2="37.5" />
<g id="atom_S_13_text">
<text x="282" y="31" text-anchor="middle" font-family="verdana" font-size="8"><tspan y="31" dy="0.35em">S</tspan></text>
</g>
</g>
<g id="atom_C_14">
<line x1="272.0" y1="44.0" x2="277.0" y2="37.5" />
<line x1="272.0" y1="44.0" x2="279.5" y2="47.0" />
<line x1="274.5027548261561" y1="42.0931129346098" x2="280.5027548261561" y2="44.4931129346098" />
<line x1="272.0" y1="44.0" x2="266.5" y2="50.5" />
</g>
<g id="atom_C_16">
<polygon points="247.59087894786876,49.62128245497291 246.40912105213124,52.37871754502709 253.70456052606562,54.68935877251354 254.29543947393438,53.31064122748646" />
</g>
<g id="atom_C_34">
<line x1="252.0" y1="103.0" x2="246.5" y2="97.5" />
<line x1="252.0" y1="103.0" x2="250.0" y2="110.0" />
<line x1="249.00388534136977" y1="103.65825295467708" x2="247.40388534136977" y2="109.25825295467708" />
</g>
<g id="atom_O_36">
<polygon points="230.91208169184605,96.44228592146123 230.08791830815395,93.55771407853877 233.79395915407696,93.27885703926938 234.20604084592304,94.72114296073062" />
<g id="atom_O_36_text">
<text x="227" y="96" text-anchor="middle" font-family="verdana" font-size="8"><tspan y="96" dy="0.35em">O</tspan></text>
<text x="221.0" y="96.0" text-anchor="middle" font-family="verdana" font-size="8"><tspan y="96.0" dy="0.35em">H</tspan></text>
</g>
</g>
<g id="atom_C_39">
<line x1="248.0" y1="117.0" x2="250.0" y2="110.0" />
<line x1="245.80388534136978" y1="114.85825295467707" x2="247.40388534136977" y2="109.25825295467708" />
<line x1="248.0" y1="117.0" x2="253.0" y2="122.5" />
</g>
<g id="atom_C_40">
<line x1="258.0" y1="128.0" x2="253.0" y2="122.5" />
<line x1="258.0" y1="128.0" x2="256.5" y2="135.0" />
<line x1="260.340066518009" y1="129.96572853957338" x2="259.140066518009" y2="135.56572853957337" />
</g>
<g id="atom_C_43">
<line x1="255.0" y1="142.0" x2="256.5" y2="135.0" />
<line x1="257.940066518009" y1="141.16572853957337" x2="259.140066518009" y2="135.56572853957337" />
<line x1="255.0" y1="142.0" x2="260.0" y2="147.5" />
</g>
<g id="atom_C_44">
<line x1="265.0" y1="153.0" x2="260.0" y2="147.5" />
<line x1="265.0" y1="153.0" x2="263.0" y2="160.0" />
</g>
<g id="atom_C_48">
<line x1="261.0" y1="167.0" x2="263.0" y2="160.0" />
<line x1="261.0" y1="167.0" x2="266.5" y2="172.5" />
<polygon points="261.0,167.0 254.20604084592304,169.72114296073062 253.79395915407696,168.27885703926938" />
</g>
<g id="atom_C_49">
<line x1="272.0" y1="178.0" x2="266.5" y2="172.5" />
<line x1="272.0" y1="178.0" x2="270.0" y2="185.5" />
</g>
<g id="atom_O_51">
<polygon points="250.91208169184605,171.44228592146123 250.08791830815395,168.55771407853877 253.79395915407696,168.27885703926938 254.20604084592304,169.72114296073062" />
<g id="atom_O_51_text">
<text x="247" y="171" text-anchor="middle" font-family="verdana" font-size="8"><tspan y="171" dy="0.35em">O</tspan></text>
<text x="241.0" y="171.0" text-anchor="middle" font-family="verdana" font-size="8"><tspan y="171.0" dy="0.35em">H</tspan></text>
</g>
</g>
<g id="atom_C_55">
<line x1="268.0" y1="193.0" x2="270.0" y2="185.5" />
<line x1="268.0" y1="193.0" x2="273.5" y2="198.0" />
<polygon points="268.0,193.0 261.15714681654816,195.23335181055805 260.84285318345184,193.76664818944195" />
</g>
<g id="atom_C_58">
<line x1="279.0" y1="203.0" x2="273.5" y2="198.0" />
<line x1="279.0" y1="203.0" x2="277.0" y2="210.5" />
<line x1="279.0" y1="203.0" x2="286.0" y2="201.0" />
</g>
<g id="atom_O_56">
<polygon points="257.8142936330963,196.71670362111612 257.1857063669037,193.78329637888388 260.84285318345184,193.76664818944195 261.15714681654816,195.23335181055805" />
<g id="atom_O_56_text">
<text x="254" y="196" text-anchor="middle" font-family="verdana" font-size="8"><tspan y="196" dy="0.35em">O</tspan></text>
<text x="248.0" y="196.0" text-anchor="middle" font-family="verdana" font-size="8"><tspan y="196.0" dy="0.35em">H</tspan></text>
</g>
</g>
<g id="atom_C_62">
<line x1="275.0" y1="218.0" x2="277.0" y2="210.5" />
<line x1="275.0" y1="218.0" x2="280.0" y2="223.0" />
</g>
<g id="atom_C_59">
<line x1="293.0" y1="199.0" x2="286.0" y2="201.0" />
</g>
<g id="atom_C_63">
<line x1="285.0" y1="228.0" x2="280.0" y2="223.0" />
<line x1="285.0" y1="228.0" x2="283.5" y2="235.5" />
<line x1="287.34756782436546" y1="230.0295135648731" x2="286.14756782436547" y2="236.0295135648731" />
<line x1="285.0" y1="228.0" x2="292.5" y2="226.0" />
</g>
<g id="atom_C_71">
<line x1="282.0" y1="243.0" x2="283.5" y2="235.5" />
<line x1="284.9475678243655" y1="242.0295135648731" x2="286.14756782436547" y2="236.0295135648731" />
<line x1="282.0" y1="243.0" x2="287.0" y2="248.0" />
</g>
<g id="atom_C_64">
<line x1="300.0" y1="224.0" x2="292.5" y2="226.0" />
</g>
<g id="atom_C_72">
<line x1="292.0" y1="253.0" x2="287.0" y2="248.0" />
<line x1="292.0" y1="253.0" x2="290.0" y2="260.5" />
<line x1="294.20883433692336" y1="255.19568915651288" x2="292.60883433692334" y2="261.1956891565129" />
<line x1="292.0" y1="253.0" x2="299.5" y2="251.0" />
</g>
<g id="atom_C_78">
<line x1="288.0" y1="268.0" x2="290.0" y2="260.5" />
<line x1="291.0088343369233" y1="267.1956891565129" x2="292.60883433692334" y2="261.1956891565129" />
<line x1="288.0" y1="268.0" x2="293.5" y2="273.0" />
</g>
<g id="atom_C_73">
<line x1="307.0" y1="249.0" x2="299.5" y2="251.0" />
</g>
<g id="atom_C_79">
<line x1="299.0" y1="278.0" x2="293.5" y2="273.0" />
</g>
</g>
</svg>