<svg width="243" height="222" viewBox="327 1 570 223" xmlns="http://www.w3.org/2000/svg"><style> line {stroke: black; stroke_width: 1px;} polygon {fill: black;} </style><g id="unlabeled">
<g id="atom_C_5">
<line x1="459.23797461828707" y1="75.34852283696031" x2="466.4540541359475" y2="72.77135158065303" />
<line x1="458.2916755479219" y1="72.81945924653647" x2="465.5459458640525" y2="70.22864841934697" />
<line x1="459.0" y1="74.0" x2="454.5" y2="66.5" />
<line x1="459.0" y1="74.0" x2="460.5" y2="82.5" />
</g>
<g id="atom_O_6">
<line x1="469.9540541359475" y1="71.52135158065303" x2="466.4540541359475" y2="72.77135158065303" />
<line x1="469.0459458640525" y1="68.97864841934697" x2="465.5459458640525" y2="70.22864841934697" />
<g id="atom_O_6_text">
<text x="473" y="69" text-anchor="middle" font-family="verdana" font-size="8"><tspan y="69" dy="0.35em">O</tspan></text>
</g>
</g>
<g id="atom_C_7">
<line x1="450.0" y1="59.0" x2="454.5" y2="66.5" />
<line x1="450.0" y1="59.0" x2="455.5" y2="54.5" />
<line x1="450.0" y1="59.0" x2="443.5" y2="53.5" />
<line x1="446.9559559480413" y1="59.96114297049661" x2="441.75595594804133" y2="55.56114297049661" />
</g>
<g id="atom_O_51">
<line x1="461.25" y1="86.75" x2="460.5" y2="82.5" />
<line x1="461.25" y1="95.25" x2="460.5" y2="99.5" />
<g id="atom_O_51_text">
<text x="462" y="91" text-anchor="middle" font-family="verdana" font-size="8"><tspan y="91" dy="0.35em">O</tspan></text>
</g>
</g>
<g id="atom_C_8">
<line x1="461.0" y1="50.0" x2="455.5" y2="54.5" />
</g>
<g id="atom_C_10">
<line x1="437.0" y1="48.0" x2="443.5" y2="53.5" />
<line x1="436.55595594804134" y1="51.16114297049661" x2="441.75595594804133" y2="55.56114297049661" />
<line x1="437.0" y1="48.0" x2="429.0" y2="45.5" />
</g>
<g id="atom_C_48">
<line x1="459.0" y1="108.0" x2="460.5" y2="99.5" />
<line x1="459.0" y1="108.0" x2="454.5" y2="115.5" />
<g id="chiral-bond-back" stroke="black" stroke-width="1">
  <line x1="459.0" y1="108.0" x2="459.0" y2="108.0" />
  <line x1="461.69909908090057" y1="109.28252257347845" x2="461.90090091909946" y2="108.71747742652155" />
  <line x1="464.39819816180113" y1="110.5650451469569" x2="464.8018018381989" y2="109.4349548530431" />
</g>
</g>
<g id="atom_C_44">
<line x1="450.0" y1="123.0" x2="454.5" y2="115.5" />
<line x1="450.0" y1="123.0" x2="443.5" y2="128.0" />
</g>
<g id="atom_C_49">
<g id="chiral-bond-back" stroke="black" stroke-width="1">
  <line x1="472.4954954045028" y1="114.41261286739226" x2="473.5045045954972" y2="111.58738713260774" />
  <line x1="469.7963963236022" y1="113.13009029391381" x2="470.60360367639777" y2="110.86990970608619" />
  <line x1="467.09729724270164" y1="111.84756772043535" x2="467.7027027572983" y2="110.15243227956465" />
</g>
<line x1="473.0" y1="113.0" x2="474.5" y2="120.5" />
</g>
<g id="atom_C_55">
<line x1="476.0" y1="128.0" x2="474.5" y2="120.5" />
<line x1="476.0" y1="128.0" x2="483.0" y2="130.5" />
<polygon points="476.0,128.0 470.45,133.1 469.55,131.9" />
</g>
<g id="atom_C_11">
<line x1="421.0" y1="43.0" x2="429.0" y2="45.5" />
<line x1="421.0" y1="43.0" x2="415.5" y2="37.0" />
<line x1="417.909683821458" y1="43.62445649699684" x2="413.509683821458" y2="38.82445649699684" />
<line x1="421.0" y1="43.0" x2="413.5" y2="47.0" />
</g>
<g id="atom_C_12">
<line x1="410.0" y1="31.0" x2="415.5" y2="37.0" />
<line x1="409.109683821458" y1="34.024456496996834" x2="413.509683821458" y2="38.82445649699684" />
<line x1="410.0" y1="31.0" x2="401.5" y2="33.0" />
</g>
<g id="atom_N_21">
<line x1="409.75" y1="49.0" x2="413.5" y2="47.0" />
<line x1="401.75" y1="51.0" x2="397.5" y2="51.0" />
<line x1="404.3" y1="48.3" x2="397.5" y2="48.3" />
<g id="atom_N_21_text">
<text x="406" y="51" text-anchor="middle" font-family="verdana" font-size="8"><tspan y="51" dy="0.35em">N</tspan></text>
</g>
</g>
<g id="atom_S_13">
<line x1="397.25" y1="34.0" x2="401.5" y2="33.0" />
<line x1="392.0" y1="39.0" x2="391.0" y2="43.0" />
<g id="atom_S_13_text">
<text x="393" y="35" text-anchor="middle" font-family="verdana" font-size="8"><tspan y="35" dy="0.35em">S</tspan></text>
</g>
</g>
<g id="atom_C_14">
<line x1="389.0" y1="51.0" x2="391.0" y2="43.0" />
<line x1="389.0" y1="51.0" x2="397.5" y2="51.0" />
<line x1="390.7" y1="48.3" x2="397.5" y2="48.3" />
<line x1="389.0" y1="51.0" x2="383.5" y2="57.5" />
</g>
<g id="atom_C_15">
<line x1="378.0" y1="64.0" x2="383.5" y2="57.5" />
<polygon points="378.0,64.0 371.8555748672763,59.83964667505837 371.1444251327237,61.16035332494163" />
<line x1="378.0" y1="64.0" x2="375.0" y2="72.0" />
</g>
<g id="atom_C_16">
<polygon points="365.7111497345525,55.67929335011674 364.2888502654475,58.32070664988326 371.1444251327237,61.16035332494163 371.8555748672763,59.83964667505837" />
</g>
<g id="atom_C_24">
<line x1="372.0" y1="80.0" x2="375.0" y2="72.0" />
<line x1="372.0" y1="80.0" x2="372.0" y2="88.5" />
<g id="chiral-bond-back" stroke="black" stroke-width="1">
  <line x1="372.0" y1="80.0" x2="372.0" y2="80.0" />
  <line x1="368.94116515945854" y1="79.69417420270729" x2="369.05883484054146" y2="79.10582579729272" />
  <line x1="365.88233031891707" y1="79.38834840541455" x2="366.11766968108293" y2="78.21165159458545" />
</g>
</g>
<g id="atom_C_43">
<line x1="437.0" y1="133.0" x2="443.5" y2="128.0" />
<line x1="437.0" y1="133.0" x2="428.5" y2="135.5" />
<line x1="434.53815092522285" y1="130.90971314575756" x2="427.73815092522284" y2="132.90971314575756" />
</g>
<g id="atom_C_40">
<line x1="420.0" y1="138.0" x2="428.5" y2="135.5" />
<line x1="420.9381509252228" y1="134.90971314575756" x2="427.73815092522284" y2="132.90971314575756" />
<line x1="420.0" y1="138.0" x2="411.5" y2="136.5" />
</g>
<g id="atom_C_39">
<line x1="403.0" y1="135.0" x2="411.5" y2="136.5" />
<line x1="403.0" y1="135.0" x2="395.5" y2="131.0" />
<line x1="402.7705882352941" y1="131.81764705882352" x2="396.7705882352941" y2="128.61764705882354" />
</g>
<g id="atom_C_34">
<line x1="388.0" y1="127.0" x2="395.5" y2="131.0" />
<line x1="390.7705882352941" y1="125.41764705882353" x2="396.7705882352941" y2="128.61764705882354" />
<line x1="388.0" y1="127.0" x2="382.5" y2="120.0" />
</g>
<g id="atom_C_33">
<line x1="377.0" y1="113.0" x2="382.5" y2="120.0" />
<line x1="377.0" y1="113.0" x2="374.5" y2="105.0" />
<polygon points="377.0,113.0 370.89307306924826,117.63874373752842 370.10692693075174,116.36125626247158" />
</g>
<g id="atom_C_25">
<line x1="372.0" y1="97.0" x2="374.5" y2="105.0" />
<line x1="372.0" y1="97.0" x2="372.0" y2="88.5" />
</g>
<g id="atom_O_36">
<polygon points="368.0361461384965,120.27748747505682 366.4638538615035,117.72251252494318 370.10692693075174,116.36125626247158 370.89307306924826,117.63874373752842" />
<g id="atom_O_36_text">
<text x="364" y="121" text-anchor="middle" font-family="verdana" font-size="8"><tspan y="121" dy="0.35em">O</tspan></text>
<text x="358.0" y="121.0" text-anchor="middle" font-family="verdana" font-size="8"><tspan y="121.0" dy="0.35em">H</tspan></text>
</g>
</g>
<g id="atom_C_58">
<line x1="490.0" y1="133.0" x2="483.0" y2="130.5" />
<line x1="490.0" y1="133.0" x2="491.0" y2="140.5" />
<line x1="490.0" y1="133.0" x2="495.5" y2="128.0" />
</g>
<g id="atom_O_56">
<polygon points="467.9,135.95 466.1,133.55 469.55,131.9 470.45,133.1" />
<g id="atom_O_56_text">
<text x="464" y="137" text-anchor="middle" font-family="verdana" font-size="8"><tspan y="137" dy="0.35em">O</tspan></text>
<text x="458.0" y="137.0" text-anchor="middle" font-family="verdana" font-size="8"><tspan y="137.0" dy="0.35em">H</tspan></text>
</g>
</g>
<g id="atom_O_29">
<g id="chiral-bond-back" stroke="black" stroke-width="1">
  <line x1="362.82349547837566" y1="79.08252260812183" x2="363.17650452162434" y2="77.31747739187817" />
</g>
<g id="atom_O_29_text">
<text x="357" y="77" text-anchor="middle" font-family="verdana" font-size="8"><tspan y="77" dy="0.35em">O</tspan></text>
<text x="351.0" y="77.0" text-anchor="middle" font-family="verdana" font-size="8"><tspan y="77.0" dy="0.35em">H</tspan></text>
</g>
</g>
<g id="atom_C_62">
<line x1="492.0" y1="148.0" x2="491.0" y2="140.5" />
<line x1="492.0" y1="148.0" x2="499.0" y2="150.5" />
</g>
<g id="atom_C_59">
<line x1="501.0" y1="123.0" x2="495.5" y2="128.0" />
</g>
<g id="atom_C_63">
<line x1="506.0" y1="153.0" x2="499.0" y2="150.5" />
<line x1="506.0" y1="153.0" x2="507.5" y2="160.5" />
<line x1="508.9475678243655" y1="153.9704864351269" x2="510.14756782436547" y2="159.9704864351269" />
<line x1="506.0" y1="153.0" x2="512.0" y2="148.0" />
</g>
<g id="atom_C_71">
<line x1="509.0" y1="168.0" x2="507.5" y2="160.5" />
<line x1="511.34756782436546" y1="165.9704864351269" x2="510.14756782436547" y2="159.9704864351269" />
<line x1="509.0" y1="168.0" x2="516.0" y2="170.5" />
</g>
<g id="atom_C_64">
<line x1="518.0" y1="143.0" x2="512.0" y2="148.0" />
</g>
<g id="atom_C_72">
<line x1="523.0" y1="173.0" x2="516.0" y2="170.5" />
<line x1="523.0" y1="173.0" x2="524.5" y2="180.5" />
<line x1="525.9475678243655" y1="173.9704864351269" x2="527.1475678243655" y2="179.9704864351269" />
<line x1="523.0" y1="173.0" x2="529.0" y2="168.0" />
</g>
<g id="atom_C_78">
<line x1="526.0" y1="188.0" x2="524.5" y2="180.5" />
<line x1="528.3475678243656" y1="185.9704864351269" x2="527.1475678243655" y2="179.9704864351269" />
<line x1="526.0" y1="188.0" x2="533.0" y2="190.5" />
</g>
<g id="atom_C_73">
<line x1="535.0" y1="163.0" x2="529.0" y2="168.0" />
</g>
<g id="atom_C_79">
<line x1="540.0" y1="193.0" x2="533.0" y2="190.5" />
</g>
</g>
</svg>