<svg width="300" height="206" viewBox="77 1 377 207" xmlns="http://www.w3.org/2000/svg"><style> line {stroke: black; stroke_width: 1px;} polygon {fill: black;} </style><g id="unlabeled">
<g id="atom_C_5">
<line x1="164.07787756457995" y1="48.91205024695225" x2="167.2408457905244" y2="41.531791053081875" />
<line x1="161.63451568140957" y1="47.75903217907228" x2="164.7591542094756" y2="40.468208946918125" />
<line x1="163.0" y1="48.0" x2="154.5" y2="46.5" />
<line x1="163.0" y1="48.0" x2="169.5" y2="53.5" />
</g>
<g id="atom_O_6">
<line x1="168.7408457905244" y1="38.031791053081875" x2="167.2408457905244" y2="41.531791053081875" />
<line x1="166.2591542094756" y1="36.968208946918125" x2="164.7591542094756" y2="40.468208946918125" />
<g id="atom_O_6_text">
<text x="169" y="34" text-anchor="middle" font-family="verdana" font-size="8"><tspan y="34" dy="0.35em">O</tspan></text>
</g>
</g>
<g id="atom_C_7">
<line x1="146.0" y1="45.0" x2="154.5" y2="46.5" />
<line x1="146.0" y1="45.0" x2="145.0" y2="38.0" />
<line x1="146.0" y1="45.0" x2="138.0" y2="48.5" />
<line x1="145.4822108518532" y1="48.173624804235914" x2="139.0822108518532" y2="50.97362480423591" />
</g>
<g id="atom_O_36">
<line x1="172.75" y1="56.25" x2="169.5" y2="53.5" />
<line x1="177.0" y1="63.25" x2="178.0" y2="67.5" />
<g id="atom_O_36_text">
<text x="176" y="59" text-anchor="middle" font-family="verdana" font-size="8"><tspan y="59" dy="0.35em">O</tspan></text>
</g>
</g>
<g id="atom_C_8">
<line x1="144.0" y1="31.0" x2="145.0" y2="38.0" />
</g>
<g id="atom_C_10">
<line x1="130.0" y1="52.0" x2="138.0" y2="48.5" />
<line x1="132.6822108518532" y1="53.77362480423591" x2="139.0822108518532" y2="50.97362480423591" />
<line x1="130.0" y1="52.0" x2="124.5" y2="59.0" />
</g>
<g id="atom_C_33">
<line x1="180.0" y1="76.0" x2="178.0" y2="67.5" />
<line x1="180.0" y1="76.0" x2="177.0" y2="84.0" />
<g id="chiral-bond-back" stroke="black" stroke-width="1">
  <line x1="180.0" y1="76.0" x2="180.0" y2="76.0" />
  <line x1="182.98004429684286" y1="76.49933554735699" x2="183.01995570315714" y2="75.90066445264301" />
  <line x1="185.96008859368573" y1="76.99867109471397" x2="186.03991140631427" y2="75.80132890528604" />
</g>
</g>
<g id="atom_C_25">
<line x1="174.0" y1="92.0" x2="177.0" y2="84.0" />
<line x1="174.0" y1="92.0" x2="167.0" y2="97.0" />
</g>
<g id="atom_C_34">
<g id="chiral-bond-back" stroke="black" stroke-width="1">
  <line x1="194.90022148421434" y1="78.49667773678492" x2="195.09977851578566" y2="75.50332226321508" />
  <line x1="191.92017718737148" y1="77.99734218942793" x2="192.07982281262852" y2="75.60265781057207" />
  <line x1="188.94013289052862" y1="77.49800664207095" x2="189.05986710947138" y2="75.70199335792904" />
</g>
<line x1="195.0" y1="77.0" x2="198.5" y2="83.5" />
<line x1="198.07727196978985" y1="77.01993047780545" x2="200.87727196978986" y2="82.21993047780545" />
</g>
<g id="atom_C_39">
<line x1="202.0" y1="90.0" x2="198.5" y2="83.5" />
<line x1="203.67727196978987" y1="87.41993047780545" x2="200.87727196978986" y2="82.21993047780545" />
<line x1="202.0" y1="90.0" x2="209.5" y2="90.5" />
</g>
<g id="atom_C_11">
<line x1="119.0" y1="66.0" x2="124.5" y2="59.0" />
<line x1="119.0" y1="66.0" x2="113.0" y2="71.0" />
<line x1="119.52849787909409" y1="69.07419745491292" x2="114.72849787909409" y2="73.07419745491292" />
<line x1="119.0" y1="66.0" x2="122.5" y2="73.5" />
</g>
<g id="atom_C_12">
<line x1="107.0" y1="76.0" x2="113.0" y2="71.0" />
<line x1="109.9284978790941" y1="77.07419745491292" x2="114.72849787909409" y2="73.07419745491292" />
<line x1="107.0" y1="76.0" x2="109.0" y2="85.0" />
</g>
<g id="atom_N_21">
<line x1="124.25" y1="77.25" x2="122.5" y2="73.5" />
<line x1="126.25" y1="85.0" x2="126.5" y2="89.0" />
<line x1="123.40525803809619" y1="82.76842137261899" x2="123.8052580380962" y2="89.168421372619" />
<g id="atom_N_21_text">
<text x="126" y="81" text-anchor="middle" font-family="verdana" font-size="8"><tspan y="81" dy="0.35em">N</tspan></text>
</g>
</g>
<g id="atom_S_13">
<line x1="110.0" y1="89.5" x2="109.0" y2="85.0" />
<line x1="115.0" y1="94.75" x2="119.0" y2="95.5" />
<g id="atom_S_13_text">
<text x="111" y="94" text-anchor="middle" font-family="verdana" font-size="8"><tspan y="94" dy="0.35em">S</tspan></text>
</g>
</g>
<g id="atom_C_14">
<line x1="127.0" y1="97.0" x2="119.0" y2="95.5" />
<line x1="127.0" y1="97.0" x2="126.5" y2="89.0" />
<line x1="124.2052580380962" y1="95.568421372619" x2="123.8052580380962" y2="89.168421372619" />
<line x1="127.0" y1="97.0" x2="135.0" y2="100.5" />
</g>
<g id="atom_C_15">
<line x1="143.0" y1="104.0" x2="135.0" y2="100.5" />
<polygon points="143.0,104.0 142.2354355067682,111.64708710135363 140.7645644932318,111.35291289864637" />
<line x1="143.0" y1="104.0" x2="151.5" y2="103.0" />
</g>
<g id="atom_C_16">
<polygon points="141.47087101353637,119.29417420270728 138.52912898646363,118.70582579729272 140.7645644932318,111.35291289864637 142.2354355067682,111.64708710135363" />
</g>
<g id="atom_C_24">
<line x1="160.0" y1="102.0" x2="151.5" y2="103.0" />
<line x1="160.0" y1="102.0" x2="167.0" y2="97.0" />
<g id="chiral-bond-back" stroke="black" stroke-width="1">
  <line x1="160.0" y1="102.0" x2="160.0" y2="102.0" />
  <line x1="160.92425649099457" y1="104.91817578957375" x2="161.4757435090054" y2="104.68182421042624" />
  <line x1="161.84851298198916" y1="107.83635157914749" x2="162.95148701801085" y2="107.3636484208525" />
</g>
</g>
<g id="atom_O_29">
<g id="chiral-bond-back" stroke="black" stroke-width="1">
  <line x1="162.77276947298375" y1="110.75452736872126" x2="164.42723052701623" y2="110.04547263127876" />
</g>
<g id="atom_O_29_text">
<text x="166" y="116" text-anchor="middle" font-family="verdana" font-size="8"><tspan y="116" dy="0.35em">O</tspan></text>
<text x="172.0" y="116.0" text-anchor="middle" font-family="verdana" font-size="8"><tspan y="116.0" dy="0.35em">H</tspan></text>
</g>
</g>
<g id="atom_C_40">
<line x1="217.0" y1="91.0" x2="209.5" y2="90.5" />
<line x1="217.0" y1="91.0" x2="220.0" y2="98.0" />
<line x1="220.08169158104874" y1="91.33641789383626" x2="222.48169158104875" y2="96.93641789383625" />
</g>
<g id="atom_C_43">
<line x1="223.0" y1="105.0" x2="220.0" y2="98.0" />
<line x1="224.88169158104876" y1="102.53641789383624" x2="222.48169158104875" y2="96.93641789383625" />
<line x1="223.0" y1="105.0" x2="230.5" y2="105.0" />
</g>
<g id="atom_C_44">
<line x1="238.0" y1="105.0" x2="230.5" y2="105.0" />
<line x1="238.0" y1="105.0" x2="241.5" y2="112.0" />
</g>
<g id="atom_C_48">
<line x1="245.0" y1="119.0" x2="241.5" y2="112.0" />
<line x1="245.0" y1="119.0" x2="252.5" y2="119.5" />
<polygon points="245.0,119.0 241.6240377207534,125.41602514716892 240.3759622792466,124.58397485283108" />
</g>
<g id="atom_C_49">
<line x1="260.0" y1="120.0" x2="252.5" y2="119.5" />
<line x1="260.0" y1="120.0" x2="263.5" y2="126.5" />
</g>
<g id="atom_O_51">
<polygon points="240.24807544150676,128.83205029433785 237.75192455849324,127.16794970566215 240.3759622792466,124.58397485283108 241.6240377207534,125.41602514716892" />
<g id="atom_O_51_text">
<text x="237" y="131" text-anchor="middle" font-family="verdana" font-size="8"><tspan y="131" dy="0.35em">O</tspan></text>
<text x="231.0" y="131.0" text-anchor="middle" font-family="verdana" font-size="8"><tspan y="131.0" dy="0.35em">H</tspan></text>
</g>
</g>
<g id="atom_C_55">
<line x1="267.0" y1="133.0" x2="263.5" y2="126.5" />
<line x1="267.0" y1="133.0" x2="274.5" y2="133.5" />
<polygon points="267.0,133.0 263.11664414373286,139.92690748412272 261.88335585626714,139.07309251587728" />
</g>
<g id="atom_C_58">
<line x1="282.0" y1="134.0" x2="274.5" y2="133.5" />
<line x1="282.0" y1="134.0" x2="285.0" y2="141.0" />
<line x1="282.0" y1="134.0" x2="286.0" y2="128.0" />
</g>
<g id="atom_O_56">
<polygon points="261.48328828746565,143.60381496824547 259.01671171253435,141.89618503175453 261.88335585626714,139.07309251587728 263.11664414373286,139.92690748412272" />
<g id="atom_O_56_text">
<text x="258" y="146" text-anchor="middle" font-family="verdana" font-size="8"><tspan y="146" dy="0.35em">O</tspan></text>
<text x="252.0" y="146.0" text-anchor="middle" font-family="verdana" font-size="8"><tspan y="146.0" dy="0.35em">H</tspan></text>
</g>
</g>
<g id="atom_C_62">
<line x1="288.0" y1="148.0" x2="285.0" y2="141.0" />
<line x1="288.0" y1="148.0" x2="295.5" y2="148.0" />
</g>
<g id="atom_C_59">
<line x1="290.0" y1="122.0" x2="286.0" y2="128.0" />
</g>
<g id="atom_C_63">
<line x1="303.0" y1="148.0" x2="295.5" y2="148.0" />
<line x1="303.0" y1="148.0" x2="306.5" y2="155.0" />
<line x1="306.11495341569974" y1="148.19252329215013" x2="308.91495341569976" y2="153.79252329215012" />
<line x1="303.0" y1="148.0" x2="307.5" y2="142.0" />
</g>
<g id="atom_C_71">
<line x1="310.0" y1="162.0" x2="306.5" y2="155.0" />
<line x1="311.71495341569977" y1="159.39252329215012" x2="308.91495341569976" y2="153.79252329215012" />
<line x1="310.0" y1="162.0" x2="317.5" y2="162.5" />
</g>
<g id="atom_C_64">
<line x1="312.0" y1="136.0" x2="307.5" y2="142.0" />
</g>
<g id="atom_C_72">
<line x1="325.0" y1="163.0" x2="317.5" y2="162.5" />
<line x1="325.0" y1="163.0" x2="328.5" y2="169.5" />
<line x1="328.0772719697899" y1="163.01993047780547" x2="330.8772719697899" y2="168.21993047780546" />
<line x1="325.0" y1="163.0" x2="329.0" y2="156.5" />
</g>
<g id="atom_C_78">
<line x1="332.0" y1="176.0" x2="328.5" y2="169.5" />
<line x1="333.6772719697899" y1="173.41993047780545" x2="330.8772719697899" y2="168.21993047780546" />
<line x1="332.0" y1="176.0" x2="339.5" y2="176.5" />
</g>
<g id="atom_C_73">
<line x1="333.0" y1="150.0" x2="329.0" y2="156.5" />
</g>
<g id="atom_C_79">
<line x1="347.0" y1="177.0" x2="339.5" y2="176.5" />
</g>
</g>
</svg>