<svg width="205" height="351" viewBox="1 1 206 352" xmlns="http://www.w3.org/2000/svg"><style> line {stroke: black; stroke_width: 1px;} polygon {fill: black;} </style><g id="unlabeled">
<g id="atom_C_5">
<line x1="46.0" y1="309.0" x2="49.5" y2="315.5" />
<line x1="46.72692307692308" y1="307.65" x2="38.5" y2="307.65" />
<line x1="46.72692307692308" y1="310.35" x2="38.5" y2="310.35" />
<line x1="46.0" y1="309.0" x2="49.5" y2="302.5" />
</g>
<g id="atom_O_0">
<line x1="51.25" y1="318.75" x2="49.5" y2="315.5" />
<g id="atom_O_0_text">
<text x="53" y="322" text-anchor="middle" font-family="verdana" font-size="8"><tspan y="322" dy="0.35em">O</tspan></text>
<text x="59.0" y="322.0" text-anchor="middle" font-family="verdana" font-size="8"><tspan y="322.0" dy="0.35em">H</tspan></text>
</g>
</g>
<g id="atom_O_6">
<line x1="34.75" y1="307.65" x2="38.5" y2="307.65" />
<line x1="34.75" y1="310.35" x2="38.5" y2="310.35" />
<g id="atom_O_6_text">
<text x="31" y="309" text-anchor="middle" font-family="verdana" font-size="8"><tspan y="309" dy="0.35em">O</tspan></text>
</g>
</g>
<g id="atom_C_7">
<line x1="53.0" y1="296.0" x2="49.5" y2="302.5" />
<line x1="53.0" y1="296.0" x2="49.5" y2="289.5" />
<line x1="53.0" y1="296.0" x2="60.5" y2="296.0" />
<line x1="54.5" y1="293.3" x2="60.5" y2="293.3" />
</g>
<g id="atom_C_8">
<line x1="46.0" y1="283.0" x2="49.5" y2="289.5" />
</g>
<g id="atom_C_10">
<line x1="68.0" y1="296.0" x2="60.5" y2="296.0" />
<line x1="66.5" y1="293.3" x2="60.5" y2="293.3" />
<line x1="68.0" y1="296.0" x2="72.0" y2="289.5" />
</g>
<g id="atom_C_11">
<line x1="76.0" y1="283.0" x2="72.0" y2="289.5" />
<line x1="76.0" y1="283.0" x2="83.0" y2="282.0" />
<line x1="77.01816233815927" y1="280.1271363671149" x2="82.61816233815927" y2="279.32713636711486" />
<line x1="76.0" y1="283.0" x2="72.5" y2="276.0" />
</g>
<g id="atom_C_12">
<line x1="90.0" y1="281.0" x2="83.0" y2="282.0" />
<line x1="88.21816233815926" y1="278.52713636711485" x2="82.61816233815927" y2="279.32713636711486" />
<line x1="90.0" y1="281.0" x2="92.0" y2="274.0" />
</g>
<g id="atom_N_21">
<line x1="70.75" y1="272.5" x2="72.5" y2="276.0" />
<line x1="72.0" y1="266.5" x2="75.0" y2="264.0" />
<line x1="71.9284978790941" y1="270.0741974549129" x2="76.72849787909409" y2="266.0741974549129" />
<g id="atom_N_21_text">
<text x="69" y="269" text-anchor="middle" font-family="verdana" font-size="8"><tspan y="269" dy="0.35em">N</tspan></text>
</g>
</g>
<g id="atom_S_13">
<line x1="93.0" y1="270.5" x2="92.0" y2="274.0" />
<line x1="90.75" y1="265.0" x2="87.5" y2="263.0" />
<g id="atom_S_13_text">
<text x="94" y="267" text-anchor="middle" font-family="verdana" font-size="8"><tspan y="267" dy="0.35em">S</tspan></text>
</g>
</g>
<g id="atom_C_14">
<line x1="81.0" y1="259.0" x2="87.5" y2="263.0" />
<line x1="81.0" y1="259.0" x2="75.0" y2="264.0" />
<line x1="81.52849787909409" y1="262.0741974549129" x2="76.72849787909409" y2="266.0741974549129" />
<line x1="81.0" y1="259.0" x2="80.0" y2="251.5" />
</g>
<g id="atom_C_15">
<line x1="79.0" y1="244.0" x2="80.0" y2="251.5" />
<g id="chiral-bond-back" stroke="black" stroke-width="1">
  <line x1="79.0" y1="244.0" x2="79.0" y2="244.0" />
  <line x1="76.08182421042625" y1="243.07574350900543" x2="76.31817578957376" y2="242.5242564909946" />
  <line x1="73.16364842085251" y1="242.15148701801084" x2="73.6363515791475" y2="241.04851298198915" />
</g>
<line x1="79.0" y1="244.0" x2="85.0" y2="239.5" />
</g>
<g id="atom_C_16">
<g id="chiral-bond-back" stroke="black" stroke-width="1">
  <line x1="64.40912105213125" y1="239.3787175450271" x2="65.59087894786875" y2="236.6212824549729" />
  <line x1="67.32729684170499" y1="240.30297403602165" x2="68.272703158295" y2="238.09702596397833" />
  <line x1="70.24547263127874" y1="241.22723052701625" x2="70.95452736872124" y2="239.57276947298377" />
</g>
</g>
<g id="atom_C_24">
<line x1="91.0" y1="235.0" x2="85.0" y2="239.5" />
<line x1="91.0" y1="235.0" x2="90.5" y2="227.5" />
<g id="chiral-bond-back" stroke="black" stroke-width="1">
  <line x1="91.0" y1="235.0" x2="91.0" y2="235.0" />
  <line x1="93.68182421042624" y1="236.4757435090054" x2="93.91817578957375" y2="235.92425649099457" />
  <line x1="96.3636484208525" y1="237.95148701801085" x2="96.83635157914749" y2="236.84851298198916" />
</g>
</g>
<g id="atom_C_25">
<line x1="90.0" y1="220.0" x2="90.5" y2="227.5" />
<line x1="90.0" y1="220.0" x2="96.0" y2="216.0" />
</g>
<g id="atom_O_29">
<g id="chiral-bond-back" stroke="black" stroke-width="1">
  <line x1="99.04547263127876" y1="239.42723052701623" x2="99.75452736872126" y2="237.77276947298375" />
</g>
<g id="atom_O_29_text">
<text x="105" y="241" text-anchor="middle" font-family="verdana" font-size="8"><tspan y="241" dy="0.35em">O</tspan></text>
<text x="111.0" y="241.0" text-anchor="middle" font-family="verdana" font-size="8"><tspan y="241.0" dy="0.35em">H</tspan></text>
</g>
</g>
<g id="atom_C_33">
<line x1="102.0" y1="212.0" x2="96.0" y2="216.0" />
<line x1="102.0" y1="212.0" x2="101.0" y2="204.5" />
<polygon points="102.0,212.0 108.81429363309631,214.31903046162466 108.18570636690369,215.68096953837534" />
</g>
<g id="atom_C_34">
<line x1="100.0" y1="197.0" x2="101.0" y2="204.5" />
<line x1="100.0" y1="197.0" x2="106.0" y2="192.5" />
<line x1="102.82000000000001" y1="198.26" x2="107.62" y2="194.66" />
</g>
<g id="atom_O_36">
<polygon points="112.37858726619262,215.13806092324933 111.12141273380738,217.86193907675067 108.18570636690369,215.68096953837534 108.81429363309631,214.31903046162466" />
<g id="atom_O_36_text">
<text x="115" y="218" text-anchor="middle" font-family="verdana" font-size="8"><tspan y="218" dy="0.35em">O</tspan></text>
<text x="121.0" y="218.0" text-anchor="middle" font-family="verdana" font-size="8"><tspan y="218.0" dy="0.35em">H</tspan></text>
</g>
</g>
<g id="atom_C_39">
<line x1="112.0" y1="188.0" x2="106.0" y2="192.5" />
<line x1="112.42" y1="191.06" x2="107.62" y2="194.66" />
<line x1="112.0" y1="188.0" x2="111.5" y2="180.5" />
</g>
<g id="atom_C_40">
<line x1="111.0" y1="173.0" x2="111.5" y2="180.5" />
<line x1="111.0" y1="173.0" x2="117.0" y2="168.5" />
<line x1="110.58" y1="169.94" x2="115.38" y2="166.34" />
</g>
<g id="atom_C_43">
<line x1="123.0" y1="164.0" x2="117.0" y2="168.5" />
<line x1="120.17999999999999" y1="162.74" x2="115.38" y2="166.34" />
<line x1="123.0" y1="164.0" x2="122.0" y2="156.5" />
</g>
<g id="atom_C_44">
<line x1="121.0" y1="149.0" x2="122.0" y2="156.5" />
<line x1="121.0" y1="149.0" x2="127.0" y2="144.5" />
</g>
<g id="atom_C_48">
<line x1="133.0" y1="140.0" x2="127.0" y2="144.5" />
<line x1="133.0" y1="140.0" x2="132.5" y2="132.5" />
<polygon points="133.0,140.0 140.29543947393438,142.31064122748646 139.70456052606562,143.68935877251354" />
</g>
<g id="atom_C_49">
<line x1="132.0" y1="125.0" x2="132.5" y2="132.5" />
<line x1="132.0" y1="125.0" x2="138.0" y2="121.0" />
</g>
<g id="atom_O_51">
<polygon points="144.09087894786876,143.1212824549729 142.90912105213124,145.8787175450271 139.70456052606562,143.68935877251354 140.29543947393438,142.31064122748646" />
<g id="atom_O_51_text">
<text x="147" y="146" text-anchor="middle" font-family="verdana" font-size="8"><tspan y="146" dy="0.35em">O</tspan></text>
<text x="153.0" y="146.0" text-anchor="middle" font-family="verdana" font-size="8"><tspan y="146.0" dy="0.35em">H</tspan></text>
</g>
</g>
<g id="atom_C_55">
<line x1="144.0" y1="117.0" x2="138.0" y2="121.0" />
<line x1="144.0" y1="117.0" x2="143.0" y2="109.5" />
<polygon points="144.0,117.0 151.29543947393438,119.31064122748646 150.70456052606562,120.68935877251354" />
</g>
<g id="atom_C_58">
<line x1="142.0" y1="102.0" x2="143.0" y2="109.5" />
<line x1="142.0" y1="102.0" x2="148.5" y2="97.5" />
<line x1="142.0" y1="102.0" x2="135.5" y2="99.0" />
</g>
<g id="atom_O_56">
<polygon points="155.09087894786876,120.12128245497291 153.90912105213124,122.87871754502709 150.70456052606562,120.68935877251354 151.29543947393438,119.31064122748646" />
<g id="atom_O_56_text">
<text x="158" y="123" text-anchor="middle" font-family="verdana" font-size="8"><tspan y="123" dy="0.35em">O</tspan></text>
<text x="164.0" y="123.0" text-anchor="middle" font-family="verdana" font-size="8"><tspan y="123.0" dy="0.35em">H</tspan></text>
</g>
</g>
<g id="atom_C_62">
<line x1="155.0" y1="93.0" x2="148.5" y2="97.5" />
<line x1="155.0" y1="93.0" x2="154.0" y2="85.5" />
</g>
<g id="atom_C_59">
<line x1="129.0" y1="96.0" x2="135.5" y2="99.0" />
</g>
<g id="atom_C_63">
<line x1="153.0" y1="78.0" x2="154.0" y2="85.5" />
<line x1="153.0" y1="78.0" x2="159.0" y2="73.5" />
<line x1="152.57999999999998" y1="74.94" x2="157.38" y2="71.34" />
<line x1="153.0" y1="78.0" x2="146.0" y2="75.0" />
</g>
<g id="atom_C_71">
<line x1="165.0" y1="69.0" x2="159.0" y2="73.5" />
<line x1="162.18" y1="67.74000000000001" x2="157.38" y2="71.34" />
<line x1="165.0" y1="69.0" x2="164.5" y2="61.5" />
</g>
<g id="atom_C_64">
<line x1="139.0" y1="72.0" x2="146.0" y2="75.0" />
</g>
<g id="atom_C_72">
<line x1="164.0" y1="54.0" x2="164.5" y2="61.5" />
<line x1="164.0" y1="54.0" x2="170.0" y2="49.5" />
<line x1="163.57999999999998" y1="50.940000000000005" x2="168.38" y2="47.34" />
<line x1="164.0" y1="54.0" x2="157.0" y2="51.0" />
</g>
<g id="atom_C_78">
<line x1="176.0" y1="45.0" x2="170.0" y2="49.5" />
<line x1="173.18" y1="43.74" x2="168.38" y2="47.34" />
<line x1="176.0" y1="45.0" x2="175.0" y2="38.0" />
</g>
<g id="atom_C_73">
<line x1="150.0" y1="48.0" x2="157.0" y2="51.0" />
</g>
<g id="atom_C_79">
<line x1="174.0" y1="31.0" x2="175.0" y2="38.0" />
</g>
</g>
</svg>